<svg width="918" height="222" viewBox="0 0 918 222" fill="none" xmlns="http://www.w3.org/2000/svg">
<path d="M318.955 130L304.424 92.0312H304.189C304.463 95.0391 304.6 98.6133 304.6 102.754V130H300V87.168H307.5L321.064 122.5H321.299L334.98 87.168H342.422V130H337.441V102.402C337.441 99.2383 337.578 95.8008 337.852 92.0898H337.617L322.969 130H318.955ZM358.33 130H353.467V97.8906H358.33V130ZM353.057 89.1895C353.057 88.0762 353.33 87.2656 353.877 86.7578C354.424 86.2305 355.107 85.9668 355.928 85.9668C356.709 85.9668 357.383 86.2305 357.949 86.7578C358.516 87.2852 358.799 88.0957 358.799 89.1895C358.799 90.2832 358.516 91.1035 357.949 91.6504C357.383 92.1777 356.709 92.4414 355.928 92.4414C355.107 92.4414 354.424 92.1777 353.877 91.6504C353.33 91.1035 353.057 90.2832 353.057 89.1895ZM381.475 130.586C376.826 130.586 373.223 129.16 370.664 126.309C368.125 123.438 366.855 119.385 366.855 114.15C366.855 108.779 368.145 104.629 370.723 101.699C373.32 98.7695 377.012 97.3047 381.797 97.3047C383.34 97.3047 384.883 97.4707 386.426 97.8027C387.969 98.1348 389.18 98.5254 390.059 98.9746L388.564 103.105C387.49 102.676 386.318 102.324 385.049 102.051C383.779 101.758 382.656 101.611 381.68 101.611C375.156 101.611 371.895 105.771 371.895 114.092C371.895 118.037 372.686 121.064 374.268 123.174C375.869 125.283 378.232 126.338 381.357 126.338C384.033 126.338 386.777 125.762 389.59 124.609V128.916C387.441 130.029 384.736 130.586 381.475 130.586ZM411.885 97.3047C413.311 97.3047 414.59 97.4219 415.723 97.6562L415.049 102.168C413.721 101.875 412.549 101.729 411.533 101.729C408.936 101.729 406.709 102.783 404.854 104.893C403.018 107.002 402.1 109.629 402.1 112.773V130H397.236V97.8906H401.25L401.807 103.838H402.041C403.232 101.748 404.668 100.137 406.348 99.0039C408.027 97.8711 409.873 97.3047 411.885 97.3047ZM449.443 113.916C449.443 119.15 448.125 123.242 445.488 126.191C442.852 129.121 439.209 130.586 434.561 130.586C431.689 130.586 429.141 129.912 426.914 128.564C424.688 127.217 422.969 125.283 421.758 122.764C420.547 120.244 419.941 117.295 419.941 113.916C419.941 108.682 421.25 104.609 423.867 101.699C426.484 98.7695 430.117 97.3047 434.766 97.3047C439.258 97.3047 442.822 98.7988 445.459 101.787C448.115 104.775 449.443 108.818 449.443 113.916ZM424.98 113.916C424.98 118.018 425.801 121.143 427.441 123.291C429.082 125.439 431.494 126.514 434.678 126.514C437.861 126.514 440.273 125.449 441.914 123.32C443.574 121.172 444.404 118.037 444.404 113.916C444.404 109.834 443.574 106.738 441.914 104.629C440.273 102.5 437.842 101.436 434.619 101.436C431.436 101.436 429.033 102.48 427.412 104.57C425.791 106.66 424.98 109.775 424.98 113.916ZM478.711 121.24C478.711 124.229 477.598 126.533 475.371 128.154C473.145 129.775 470.02 130.586 465.996 130.586C461.738 130.586 458.418 129.912 456.035 128.564V124.053C457.578 124.834 459.229 125.449 460.986 125.898C462.764 126.348 464.473 126.572 466.113 126.572C468.652 126.572 470.605 126.172 471.973 125.371C473.34 124.551 474.023 123.311 474.023 121.65C474.023 120.4 473.477 119.336 472.383 118.457C471.309 117.559 469.199 116.504 466.055 115.293C463.066 114.18 460.938 113.213 459.668 112.393C458.418 111.553 457.48 110.605 456.855 109.551C456.25 108.496 455.947 107.236 455.947 105.771C455.947 103.154 457.012 101.094 459.141 99.5898C461.27 98.0664 464.189 97.3047 467.9 97.3047C471.357 97.3047 474.736 98.0078 478.037 99.4141L476.309 103.369C473.086 102.041 470.166 101.377 467.549 101.377C465.244 101.377 463.506 101.738 462.334 102.461C461.162 103.184 460.576 104.18 460.576 105.449C460.576 106.309 460.791 107.041 461.221 107.646C461.67 108.252 462.383 108.828 463.359 109.375C464.336 109.922 466.211 110.713 468.984 111.748C472.793 113.135 475.361 114.531 476.689 115.938C478.037 117.344 478.711 119.111 478.711 121.24ZM514.365 113.916C514.365 119.15 513.047 123.242 510.41 126.191C507.773 129.121 504.131 130.586 499.482 130.586C496.611 130.586 494.062 129.912 491.836 128.564C489.609 127.217 487.891 125.283 486.68 122.764C485.469 120.244 484.863 117.295 484.863 113.916C484.863 108.682 486.172 104.609 488.789 101.699C491.406 98.7695 495.039 97.3047 499.688 97.3047C504.18 97.3047 507.744 98.7988 510.381 101.787C513.037 104.775 514.365 108.818 514.365 113.916ZM489.902 113.916C489.902 118.018 490.723 121.143 492.363 123.291C494.004 125.439 496.416 126.514 499.6 126.514C502.783 126.514 505.195 125.449 506.836 123.32C508.496 121.172 509.326 118.037 509.326 113.916C509.326 109.834 508.496 106.738 506.836 104.629C505.195 102.5 502.764 101.436 499.541 101.436C496.357 101.436 493.955 102.48 492.334 104.57C490.713 106.66 489.902 109.775 489.902 113.916ZM537.393 101.67H529.219V130H524.355V101.67H518.613V99.4727L524.355 97.7148V95.9277C524.355 88.0371 527.803 84.0918 534.697 84.0918C536.396 84.0918 538.389 84.4336 540.674 85.1172L539.414 89.0137C537.539 88.4082 535.938 88.1055 534.609 88.1055C532.773 88.1055 531.416 88.7207 530.537 89.9512C529.658 91.1621 529.219 93.1152 529.219 95.8105V97.8906H537.393V101.67ZM553.623 126.572C554.482 126.572 555.312 126.514 556.113 126.396C556.914 126.26 557.549 126.123 558.018 125.986V129.707C557.49 129.961 556.709 130.166 555.674 130.322C554.658 130.498 553.74 130.586 552.92 130.586C546.709 130.586 543.604 127.314 543.604 120.771V101.67H539.004V99.3262L543.604 97.3047L545.654 90.4492H548.467V97.8906H557.783V101.67H548.467V120.566C548.467 122.5 548.926 123.984 549.844 125.02C550.762 126.055 552.021 126.572 553.623 126.572ZM580.781 130V87.168H585.762V130H580.781ZM618.779 130V109.229C618.779 106.611 618.184 104.658 616.992 103.369C615.801 102.08 613.936 101.436 611.396 101.436C608.037 101.436 605.576 102.344 604.014 104.16C602.451 105.977 601.67 108.975 601.67 113.154V130H596.807V97.8906H600.762L601.553 102.285H601.787C602.783 100.703 604.18 99.4824 605.977 98.623C607.773 97.7441 609.775 97.3047 611.982 97.3047C615.85 97.3047 618.76 98.2422 620.713 100.117C622.666 101.973 623.643 104.951 623.643 109.053V130H618.779ZM644.033 126.572C644.893 126.572 645.723 126.514 646.523 126.396C647.324 126.26 647.959 126.123 648.428 125.986V129.707C647.9 129.961 647.119 130.166 646.084 130.322C645.068 130.498 644.15 130.586 643.33 130.586C637.119 130.586 634.014 127.314 634.014 120.771V101.67H629.414V99.3262L634.014 97.3047L636.064 90.4492H638.877V97.8906H648.193V101.67H638.877V120.566C638.877 122.5 639.336 123.984 640.254 125.02C641.172 126.055 642.432 126.572 644.033 126.572ZM668.438 130.586C663.691 130.586 659.941 129.141 657.188 126.25C654.453 123.359 653.086 119.346 653.086 114.209C653.086 109.033 654.355 104.922 656.895 101.875C659.453 98.8281 662.881 97.3047 667.178 97.3047C671.201 97.3047 674.385 98.6328 676.729 101.289C679.072 103.926 680.244 107.412 680.244 111.748V114.824H658.125C658.223 118.594 659.17 121.455 660.967 123.408C662.783 125.361 665.332 126.338 668.613 126.338C672.07 126.338 675.488 125.615 678.867 124.17V128.506C677.148 129.248 675.518 129.775 673.975 130.088C672.451 130.42 670.605 130.586 668.438 130.586ZM667.119 101.377C664.541 101.377 662.48 102.217 660.938 103.896C659.414 105.576 658.516 107.9 658.242 110.869H675.029C675.029 107.803 674.346 105.459 672.979 103.838C671.611 102.197 669.658 101.377 667.119 101.377ZM703.213 97.3047C704.639 97.3047 705.918 97.4219 707.051 97.6562L706.377 102.168C705.049 101.875 703.877 101.729 702.861 101.729C700.264 101.729 698.037 102.783 696.182 104.893C694.346 107.002 693.428 109.629 693.428 112.773V130H688.564V97.8906H692.578L693.135 103.838H693.369C694.561 101.748 695.996 100.137 697.676 99.0039C699.355 97.8711 701.201 97.3047 703.213 97.3047ZM735.029 130V109.229C735.029 106.611 734.434 104.658 733.242 103.369C732.051 102.08 730.186 101.436 727.646 101.436C724.287 101.436 721.826 102.344 720.264 104.16C718.701 105.977 717.92 108.975 717.92 113.154V130H713.057V97.8906H717.012L717.803 102.285H718.037C719.033 100.703 720.43 99.4824 722.227 98.623C724.023 97.7441 726.025 97.3047 728.232 97.3047C732.1 97.3047 735.01 98.2422 736.963 100.117C738.916 101.973 739.893 104.951 739.893 109.053V130H735.029ZM770.625 121.24C770.625 124.229 769.512 126.533 767.285 128.154C765.059 129.775 761.934 130.586 757.91 130.586C753.652 130.586 750.332 129.912 747.949 128.564V124.053C749.492 124.834 751.143 125.449 752.9 125.898C754.678 126.348 756.387 126.572 758.027 126.572C760.566 126.572 762.52 126.172 763.887 125.371C765.254 124.551 765.938 123.311 765.938 121.65C765.938 120.4 765.391 119.336 764.297 118.457C763.223 117.559 761.113 116.504 757.969 115.293C754.98 114.18 752.852 113.213 751.582 112.393C750.332 111.553 749.395 110.605 748.77 109.551C748.164 108.496 747.861 107.236 747.861 105.771C747.861 103.154 748.926 101.094 751.055 99.5898C753.184 98.0664 756.104 97.3047 759.814 97.3047C763.271 97.3047 766.65 98.0078 769.951 99.4141L768.223 103.369C765 102.041 762.08 101.377 759.463 101.377C757.158 101.377 755.42 101.738 754.248 102.461C753.076 103.184 752.49 104.18 752.49 105.449C752.49 106.309 752.705 107.041 753.135 107.646C753.584 108.252 754.297 108.828 755.273 109.375C756.25 109.922 758.125 110.713 760.898 111.748C764.707 113.135 767.275 114.531 768.604 115.938C769.951 117.344 770.625 119.111 770.625 121.24ZM800.537 130V109.229C800.537 106.611 799.941 104.658 798.75 103.369C797.559 102.08 795.693 101.436 793.154 101.436C789.775 101.436 787.305 102.354 785.742 104.189C784.199 106.025 783.428 109.033 783.428 113.213V130H778.564V84.4141H783.428V98.2129C783.428 99.873 783.35 101.25 783.193 102.344H783.486C784.443 100.801 785.801 99.5898 787.559 98.7109C789.336 97.8125 791.357 97.3633 793.623 97.3633C797.549 97.3633 800.488 98.3008 802.441 100.176C804.414 102.031 805.4 104.99 805.4 109.053V130H800.537ZM820.283 130H815.42V97.8906H820.283V130ZM815.01 89.1895C815.01 88.0762 815.283 87.2656 815.83 86.7578C816.377 86.2305 817.061 85.9668 817.881 85.9668C818.662 85.9668 819.336 86.2305 819.902 86.7578C820.469 87.2852 820.752 88.0957 820.752 89.1895C820.752 90.2832 820.469 91.1035 819.902 91.6504C819.336 92.1777 818.662 92.4414 817.881 92.4414C817.061 92.4414 816.377 92.1777 815.83 91.6504C815.283 91.1035 815.01 90.2832 815.01 89.1895ZM845.537 130.586C843.447 130.586 841.533 130.205 839.795 129.443C838.076 128.662 836.631 127.471 835.459 125.869H835.107C835.342 127.744 835.459 129.521 835.459 131.201V144.414H830.596V97.8906H834.551L835.225 102.285H835.459C836.709 100.527 838.164 99.2578 839.824 98.4766C841.484 97.6953 843.389 97.3047 845.537 97.3047C849.795 97.3047 853.076 98.7598 855.381 101.67C857.705 104.58 858.867 108.662 858.867 113.916C858.867 119.189 857.686 123.291 855.322 126.221C852.979 129.131 849.717 130.586 845.537 130.586ZM844.834 101.436C841.553 101.436 839.18 102.344 837.715 104.16C836.25 105.977 835.498 108.867 835.459 112.832V113.916C835.459 118.428 836.211 121.66 837.715 123.613C839.219 125.547 841.631 126.514 844.951 126.514C847.725 126.514 849.893 125.391 851.455 123.145C853.037 120.898 853.828 117.803 853.828 113.857C853.828 109.854 853.037 106.787 851.455 104.658C849.893 102.51 847.686 101.436 844.834 101.436ZM888.105 121.24C888.105 124.229 886.992 126.533 884.766 128.154C882.539 129.775 879.414 130.586 875.391 130.586C871.133 130.586 867.812 129.912 865.43 128.564V124.053C866.973 124.834 868.623 125.449 870.381 125.898C872.158 126.348 873.867 126.572 875.508 126.572C878.047 126.572 880 126.172 881.367 125.371C882.734 124.551 883.418 123.311 883.418 121.65C883.418 120.4 882.871 119.336 881.777 118.457C880.703 117.559 878.594 116.504 875.449 115.293C872.461 114.18 870.332 113.213 869.062 112.393C867.812 111.553 866.875 110.605 866.25 109.551C865.645 108.496 865.342 107.236 865.342 105.771C865.342 103.154 866.406 101.094 868.535 99.5898C870.664 98.0664 873.584 97.3047 877.295 97.3047C880.752 97.3047 884.131 98.0078 887.432 99.4141L885.703 103.369C882.48 102.041 879.561 101.377 876.943 101.377C874.639 101.377 872.9 101.738 871.729 102.461C870.557 103.184 869.971 104.18 869.971 105.449C869.971 106.309 870.186 107.041 870.615 107.646C871.064 108.252 871.777 108.828 872.754 109.375C873.73 109.922 875.605 110.713 878.379 111.748C882.188 113.135 884.756 114.531 886.084 115.938C887.432 117.344 888.105 119.111 888.105 121.24Z" fill="black"/>
<path d="M115.715 105.245L197.038 105.673L197.338 29.4336C197.35 26.4271 194.929 23.9738 191.938 23.9589L116.037 23.5601L115.715 105.245Z" fill="#4CAF50"/>
<path d="M104.87 105.188L105.192 23.5025L29.2941 23.1C26.3001 23.0856 23.8602 25.5117 23.8507 28.5177L23.5509 104.76L104.87 105.188Z" fill="#F44336"/>
<path d="M104.831 116.081L23.508 115.654L23.2085 191.896C23.1958 194.903 25.6167 197.353 28.608 197.371L104.509 197.77L104.831 116.081Z" fill="#2196F3"/>
<path d="M115.674 116.14L115.352 197.828L191.25 198.228C194.244 198.242 196.684 195.816 196.694 192.81L196.993 116.568L115.674 116.14Z" fill="#FFC107"/>
</svg>
