<svg width="406" height="242" viewBox="0 0 406 242" fill="none" xmlns="http://www.w3.org/2000/svg">
<g filter="url(#filter0_d)">
<rect x="4" width="398" height="234" fill="white"/>
</g>
<path d="M159.718 193.558H154.526V207H152.04V193.558H146.826V191.38H159.718V193.558ZM162.135 207.22C161.578 207.22 161.057 207.132 160.573 206.956C160.104 206.765 159.693 206.509 159.341 206.186C159.004 205.863 158.732 205.482 158.527 205.042C158.336 204.602 158.241 204.125 158.241 203.612C158.241 203.069 158.358 202.578 158.593 202.138C158.828 201.698 159.158 201.317 159.583 200.994C160.023 200.671 160.536 200.422 161.123 200.246C161.724 200.07 162.384 199.982 163.103 199.982C163.646 199.982 164.181 200.033 164.709 200.136C165.237 200.224 165.714 200.349 166.139 200.51V199.718C166.139 198.867 165.897 198.207 165.413 197.738C164.929 197.254 164.232 197.012 163.323 197.012C162.707 197.012 162.098 197.129 161.497 197.364C160.91 197.584 160.302 197.907 159.671 198.332L158.923 196.792C160.404 195.795 161.944 195.296 163.543 195.296C165.127 195.296 166.359 195.699 167.239 196.506C168.119 197.313 168.559 198.471 168.559 199.982V204.14C168.559 204.653 168.772 204.917 169.197 204.932V207C168.962 207.044 168.757 207.073 168.581 207.088C168.42 207.103 168.258 207.11 168.097 207.11C167.628 207.11 167.261 206.993 166.997 206.758C166.748 206.523 166.594 206.223 166.535 205.856L166.469 205.13C165.956 205.805 165.318 206.325 164.555 206.692C163.807 207.044 163 207.22 162.135 207.22ZM162.795 205.438C163.382 205.438 163.932 205.335 164.445 205.13C164.973 204.91 165.384 204.609 165.677 204.228C165.985 203.964 166.139 203.685 166.139 203.392V201.874C165.728 201.713 165.288 201.588 164.819 201.5C164.364 201.412 163.917 201.368 163.477 201.368C162.612 201.368 161.9 201.559 161.343 201.94C160.8 202.307 160.529 202.798 160.529 203.414C160.529 203.986 160.742 204.47 161.167 204.866C161.592 205.247 162.135 205.438 162.795 205.438ZM179.503 207L175.829 201.698L173.915 203.502V207H171.495V190.94H173.915V201.126L179.195 195.516H181.835L177.369 200.334L182.077 207H179.503ZM188.16 207.22C187.265 207.22 186.451 207.066 185.718 206.758C184.985 206.435 184.354 206.003 183.826 205.46C183.313 204.917 182.909 204.287 182.616 203.568C182.337 202.849 182.198 202.087 182.198 201.28C182.198 200.473 182.337 199.711 182.616 198.992C182.909 198.259 183.313 197.621 183.826 197.078C184.354 196.521 184.985 196.088 185.718 195.78C186.451 195.457 187.273 195.296 188.182 195.296C189.077 195.296 189.883 195.457 190.602 195.78C191.335 196.103 191.959 196.535 192.472 197.078C192.985 197.606 193.374 198.229 193.638 198.948C193.917 199.652 194.056 200.393 194.056 201.17C194.056 201.346 194.049 201.515 194.034 201.676C194.019 201.823 194.005 201.947 193.99 202.05H184.772C184.816 202.563 184.933 203.025 185.124 203.436C185.329 203.847 185.586 204.206 185.894 204.514C186.217 204.807 186.576 205.035 186.972 205.196C187.383 205.357 187.808 205.438 188.248 205.438C188.571 205.438 188.886 205.401 189.194 205.328C189.517 205.24 189.81 205.123 190.074 204.976C190.338 204.815 190.573 204.624 190.778 204.404C190.983 204.184 191.145 203.942 191.262 203.678L193.33 204.272C192.934 205.137 192.274 205.849 191.35 206.406C190.441 206.949 189.377 207.22 188.16 207.22ZM191.658 200.378C191.614 199.894 191.489 199.447 191.284 199.036C191.093 198.625 190.844 198.281 190.536 198.002C190.228 197.709 189.869 197.481 189.458 197.32C189.047 197.159 188.615 197.078 188.16 197.078C187.705 197.078 187.273 197.159 186.862 197.32C186.466 197.481 186.114 197.709 185.806 198.002C185.498 198.281 185.249 198.625 185.058 199.036C184.867 199.447 184.75 199.894 184.706 200.378H191.658ZM199.088 207.22C198.531 207.22 198.01 207.132 197.526 206.956C197.057 206.765 196.646 206.509 196.294 206.186C195.957 205.863 195.685 205.482 195.48 205.042C195.289 204.602 195.194 204.125 195.194 203.612C195.194 203.069 195.311 202.578 195.546 202.138C195.781 201.698 196.111 201.317 196.536 200.994C196.976 200.671 197.489 200.422 198.076 200.246C198.677 200.07 199.337 199.982 200.056 199.982C200.599 199.982 201.134 200.033 201.662 200.136C202.19 200.224 202.667 200.349 203.092 200.51V199.718C203.092 198.867 202.85 198.207 202.366 197.738C201.882 197.254 201.185 197.012 200.276 197.012C199.66 197.012 199.051 197.129 198.45 197.364C197.863 197.584 197.255 197.907 196.624 198.332L195.876 196.792C197.357 195.795 198.897 195.296 200.496 195.296C202.08 195.296 203.312 195.699 204.192 196.506C205.072 197.313 205.512 198.471 205.512 199.982V204.14C205.512 204.653 205.725 204.917 206.15 204.932V207C205.915 207.044 205.71 207.073 205.534 207.088C205.373 207.103 205.211 207.11 205.05 207.11C204.581 207.11 204.214 206.993 203.95 206.758C203.701 206.523 203.547 206.223 203.488 205.856L203.422 205.13C202.909 205.805 202.271 206.325 201.508 206.692C200.76 207.044 199.953 207.22 199.088 207.22ZM199.748 205.438C200.335 205.438 200.885 205.335 201.398 205.13C201.926 204.91 202.337 204.609 202.63 204.228C202.938 203.964 203.092 203.685 203.092 203.392V201.874C202.681 201.713 202.241 201.588 201.772 201.5C201.317 201.412 200.87 201.368 200.43 201.368C199.565 201.368 198.853 201.559 198.296 201.94C197.753 202.307 197.482 202.798 197.482 203.414C197.482 203.986 197.695 204.47 198.12 204.866C198.545 205.247 199.088 205.438 199.748 205.438ZM222.491 195.494H224.801L219.961 207H217.959L215.825 201.654L213.691 207H211.689L206.827 195.494H209.137L212.855 204.668L214.527 200.4L212.525 195.516H214.505L215.825 199.124L217.123 195.516H219.103L217.123 200.4L218.795 204.668L222.491 195.494ZM229.188 207.22C228.63 207.22 228.11 207.132 227.626 206.956C227.156 206.765 226.746 206.509 226.394 206.186C226.056 205.863 225.785 205.482 225.58 205.042C225.389 204.602 225.294 204.125 225.294 203.612C225.294 203.069 225.411 202.578 225.646 202.138C225.88 201.698 226.21 201.317 226.636 200.994C227.076 200.671 227.589 200.422 228.176 200.246C228.777 200.07 229.437 199.982 230.156 199.982C230.698 199.982 231.234 200.033 231.762 200.136C232.29 200.224 232.766 200.349 233.192 200.51V199.718C233.192 198.867 232.95 198.207 232.466 197.738C231.982 197.254 231.285 197.012 230.376 197.012C229.76 197.012 229.151 197.129 228.55 197.364C227.963 197.584 227.354 197.907 226.724 198.332L225.976 196.792C227.457 195.795 228.997 195.296 230.596 195.296C232.18 195.296 233.412 195.699 234.292 196.506C235.172 197.313 235.612 198.471 235.612 199.982V204.14C235.612 204.653 235.824 204.917 236.25 204.932V207C236.015 207.044 235.81 207.073 235.634 207.088C235.472 207.103 235.311 207.11 235.15 207.11C234.68 207.11 234.314 206.993 234.05 206.758C233.8 206.523 233.646 206.223 233.588 205.856L233.522 205.13C233.008 205.805 232.37 206.325 231.608 206.692C230.86 207.044 230.053 207.22 229.188 207.22ZM229.848 205.438C230.434 205.438 230.984 205.335 231.498 205.13C232.026 204.91 232.436 204.609 232.73 204.228C233.038 203.964 233.192 203.685 233.192 203.392V201.874C232.781 201.713 232.341 201.588 231.872 201.5C231.417 201.412 230.97 201.368 230.53 201.368C229.664 201.368 228.953 201.559 228.396 201.94C227.853 202.307 227.582 202.798 227.582 203.414C227.582 203.986 227.794 204.47 228.22 204.866C228.645 205.247 229.188 205.438 229.848 205.438ZM238.664 209.706C238.884 209.75 239.097 209.787 239.302 209.816C239.522 209.845 239.698 209.86 239.83 209.86C240.021 209.86 240.182 209.816 240.314 209.728C240.461 209.655 240.608 209.515 240.754 209.31C240.901 209.105 241.048 208.811 241.194 208.43C241.356 208.063 241.539 207.587 241.744 207L237.014 195.494H239.5L243.064 204.866L246.232 195.494H248.52L243.306 209.662C243.072 210.322 242.661 210.872 242.074 211.312C241.502 211.767 240.762 211.994 239.852 211.994C239.676 211.994 239.493 211.979 239.302 211.95C239.112 211.935 238.899 211.891 238.664 211.818V209.706ZM254.222 207.22C253.298 207.22 252.374 207.073 251.45 206.78C250.541 206.472 249.756 206.039 249.096 205.482L250.064 203.942C250.753 204.441 251.435 204.822 252.11 205.086C252.785 205.335 253.474 205.46 254.178 205.46C254.897 205.46 255.461 205.321 255.872 205.042C256.297 204.763 256.51 204.367 256.51 203.854C256.51 203.37 256.275 203.018 255.806 202.798C255.337 202.578 254.603 202.336 253.606 202.072C252.887 201.881 252.271 201.698 251.758 201.522C251.245 201.346 250.827 201.141 250.504 200.906C250.181 200.671 249.947 200.4 249.8 200.092C249.653 199.784 249.58 199.41 249.58 198.97C249.58 198.383 249.69 197.863 249.91 197.408C250.145 196.953 250.46 196.572 250.856 196.264C251.267 195.941 251.743 195.699 252.286 195.538C252.829 195.377 253.415 195.296 254.046 195.296C254.911 195.296 255.718 195.428 256.466 195.692C257.214 195.956 257.881 196.337 258.468 196.836L257.434 198.288C256.363 197.437 255.227 197.012 254.024 197.012C253.408 197.012 252.887 197.144 252.462 197.408C252.051 197.657 251.846 198.061 251.846 198.618C251.846 198.853 251.89 199.051 251.978 199.212C252.066 199.373 252.205 199.513 252.396 199.63C252.601 199.747 252.858 199.857 253.166 199.96C253.489 200.048 253.885 200.151 254.354 200.268C255.131 200.459 255.799 200.649 256.356 200.84C256.928 201.031 257.397 201.258 257.764 201.522C258.131 201.771 258.402 202.072 258.578 202.424C258.754 202.761 258.842 203.172 258.842 203.656C258.842 204.756 258.424 205.629 257.588 206.274C256.767 206.905 255.645 207.22 254.222 207.22Z" fill="black"/>
<path d="M161.482 158.379C160.009 158.864 158.44 159.309 156.812 159.755C166.616 119.067 185.875 126.411 185.875 126.411L189.033 129.394L189.149 129.782C189.886 132.475 192.501 148.537 161.482 158.379Z" fill="#FF9F2B"/>
<path d="M161.482 158.379C171.169 124.861 187.541 129.317 189.208 129.782C189.886 132.475 192.501 148.537 161.482 158.379Z" fill="#FF8C00"/>
<path d="M190.738 137.474L177.04 123.776L187.987 121.024L193.141 126.198L190.738 137.474Z" fill="#556A8A"/>
<path d="M193.47 107.113L156.483 105.757L151 100.274L182.504 85.2L195.679 90.1406L193.47 107.113Z" fill="#556A8A"/>
<path d="M209.125 118.292L210.501 155.279L215.984 160.763L231.038 129.259L226.097 116.084L209.125 118.292Z" fill="#556A8A"/>
<path d="M201.743 134.606H201.336L201.007 134.316L181.496 113.952V113.468C185.035 98.5224 192.757 84.8934 203.758 74.1756C221.467 56.5443 262.794 49.1431 264.538 48.8331L265.894 48.6006L265.661 49.9568C265.661 49.9568 264.944 54.2581 263.453 60.5162C259.423 77.45 252.215 100.041 240.726 111.589C222.843 129.588 203.39 134.606 201.743 134.606Z" fill="white"/>
<path d="M262.406 62.9187C259.132 76.6943 252.021 100.564 239.931 112.712C222.068 130.731 202.634 134.412 201.627 134.606L190.719 123.717C190.719 123.717 194.187 103.722 212.651 85.355C224.799 73.2843 248.611 66.1737 262.406 62.9187Z" fill="#E5E5E5"/>
<path d="M266.281 48C254.128 50.2805 242.246 53.8193 230.825 58.5594L256.788 84.5219C260.912 72.6178 264.086 60.4056 266.281 48V48Z" fill="#2BC7F4"/>
<path d="M201.743 134.606H201.336L201.007 134.316L181.496 113.952V113.468C185.035 98.5224 192.757 84.8934 203.758 74.1756C221.467 56.5443 262.794 49.1431 264.538 48.8331L265.894 48.6006L265.661 49.9568C265.661 49.9568 264.944 54.2581 263.453 60.5162C259.423 77.45 252.215 100.041 240.726 111.589C222.843 129.588 203.39 134.606 201.743 134.606Z" stroke="#556A8A" stroke-width="2" stroke-miterlimit="10"/>
<path d="M223.656 103.031C229.007 103.031 233.344 98.694 233.344 93.3438C233.344 87.9935 229.007 83.6562 223.656 83.6562C218.306 83.6562 213.969 87.9935 213.969 93.3438C213.969 98.694 218.306 103.031 223.656 103.031Z" fill="white" stroke="#556A8A" stroke-width="2" stroke-miterlimit="10"/>
<defs>
<filter id="filter0_d" x="0" y="0" width="406" height="242" filterUnits="userSpaceOnUse" color-interpolation-filters="sRGB">
<feFlood flood-opacity="0" result="BackgroundImageFix"/>
<feColorMatrix in="SourceAlpha" type="matrix" values="0 0 0 0 0 0 0 0 0 0 0 0 0 0 0 0 0 0 127 0"/>
<feOffset dy="4"/>
<feGaussianBlur stdDeviation="2"/>
<feColorMatrix type="matrix" values="0 0 0 0 0 0 0 0 0 0 0 0 0 0 0 0 0 0 0.25 0"/>
<feBlend mode="normal" in2="BackgroundImageFix" result="effect1_dropShadow"/>
<feBlend mode="normal" in="SourceGraphic" in2="effect1_dropShadow" result="shape"/>
</filter>
</defs>
</svg>
