<svg width="406" height="242" viewBox="0 0 406 242" fill="none" xmlns="http://www.w3.org/2000/svg">
<g filter="url(#filter0_d)">
<rect x="4" width="398" height="234" fill="white"/>
</g>
<path d="M95.3091 191.38L99.6431 197.54L103.977 191.38H106.683L100.963 199.3L106.507 207H103.801L99.6431 201.06L95.4851 207H92.7571L98.3231 199.3L92.5811 191.38H95.3091ZM114.331 207.22C113.451 207.22 112.651 207.015 111.933 206.604C111.229 206.179 110.671 205.614 110.261 204.91V207H108.127V190.94H110.547V197.672C111.001 196.939 111.566 196.359 112.241 195.934C112.93 195.509 113.737 195.296 114.661 195.296C115.423 195.296 116.12 195.465 116.751 195.802C117.381 196.125 117.917 196.565 118.357 197.122C118.811 197.665 119.156 198.303 119.391 199.036C119.64 199.755 119.765 200.51 119.765 201.302C119.765 202.123 119.625 202.893 119.347 203.612C119.068 204.331 118.687 204.961 118.203 205.504C117.719 206.032 117.139 206.45 116.465 206.758C115.805 207.066 115.093 207.22 114.331 207.22ZM113.693 205.152C114.221 205.152 114.705 205.049 115.145 204.844C115.585 204.624 115.959 204.338 116.267 203.986C116.589 203.634 116.839 203.231 117.015 202.776C117.191 202.307 117.279 201.815 117.279 201.302C117.279 200.789 117.191 200.297 117.015 199.828C116.853 199.344 116.619 198.926 116.311 198.574C116.017 198.207 115.658 197.914 115.233 197.694C114.822 197.474 114.367 197.364 113.869 197.364C113.121 197.364 112.453 197.606 111.867 198.09C111.295 198.574 110.855 199.161 110.547 199.85V202.886C110.635 203.223 110.789 203.531 111.009 203.81C111.229 204.074 111.485 204.309 111.779 204.514C112.072 204.719 112.387 204.881 112.725 204.998C113.062 205.101 113.385 205.152 113.693 205.152ZM127.111 207.22C126.202 207.22 125.381 207.059 124.647 206.736C123.929 206.413 123.313 205.981 122.799 205.438C122.286 204.895 121.89 204.265 121.611 203.546C121.333 202.813 121.193 202.05 121.193 201.258C121.193 200.466 121.333 199.711 121.611 198.992C121.89 198.259 122.286 197.621 122.799 197.078C123.327 196.535 123.951 196.103 124.669 195.78C125.403 195.457 126.217 195.296 127.111 195.296C128.006 195.296 128.813 195.457 129.531 195.78C130.265 196.103 130.888 196.535 131.401 197.078C131.929 197.621 132.333 198.259 132.611 198.992C132.89 199.711 133.029 200.466 133.029 201.258C133.029 202.05 132.89 202.813 132.611 203.546C132.333 204.265 131.929 204.895 131.401 205.438C130.888 205.981 130.265 206.413 129.531 206.736C128.813 207.059 128.006 207.22 127.111 207.22ZM123.679 201.28C123.679 201.837 123.767 202.351 123.943 202.82C124.119 203.289 124.361 203.7 124.669 204.052C124.977 204.389 125.337 204.661 125.747 204.866C126.173 205.057 126.627 205.152 127.111 205.152C127.595 205.152 128.043 205.057 128.453 204.866C128.879 204.661 129.245 204.382 129.553 204.03C129.861 203.678 130.103 203.267 130.279 202.798C130.455 202.329 130.543 201.815 130.543 201.258C130.543 200.715 130.455 200.209 130.279 199.74C130.103 199.256 129.861 198.838 129.553 198.486C129.245 198.134 128.879 197.863 128.453 197.672C128.043 197.467 127.595 197.364 127.111 197.364C126.642 197.364 126.195 197.467 125.769 197.672C125.359 197.877 124.999 198.156 124.691 198.508C124.383 198.86 124.134 199.278 123.943 199.762C123.767 200.231 123.679 200.737 123.679 201.28ZM135.957 195.494L138.773 199.432L138.971 199.806L139.169 199.432L141.963 195.494H144.493L140.291 201.258L144.537 207H142.007L139.169 203.084L138.971 202.732L138.773 203.084L135.935 207H133.405L137.651 201.258L133.449 195.494H135.957ZM146.176 198.398V195.604H148.178V198.398H146.176ZM146.176 207V204.184H148.178V207H146.176ZM167.657 193.558H162.465V207H159.979V193.558H154.765V191.38H167.657V193.558ZM170.622 207.22C169.419 207.22 168.51 206.831 167.894 206.054C167.278 205.262 166.97 204.089 166.97 202.534V195.494H169.39V202.05C169.39 204.118 170.123 205.152 171.59 205.152C172.279 205.152 172.932 204.939 173.548 204.514C174.164 204.089 174.641 203.473 174.978 202.666V195.494H177.398V204.14C177.398 204.419 177.442 204.617 177.53 204.734C177.633 204.851 177.809 204.917 178.058 204.932V207C177.809 207.044 177.603 207.073 177.442 207.088C177.281 207.103 177.127 207.11 176.98 207.11C176.54 207.11 176.166 206.993 175.858 206.758C175.55 206.509 175.389 206.193 175.374 205.812L175.33 204.668C174.817 205.504 174.149 206.142 173.328 206.582C172.507 207.007 171.605 207.22 170.622 207.22ZM186.954 197.584C186.016 197.613 185.18 197.833 184.446 198.244C183.728 198.64 183.214 199.212 182.906 199.96V207H180.486V195.494H182.73V198.068C183.126 197.276 183.64 196.645 184.27 196.176C184.916 195.692 185.605 195.428 186.338 195.384C186.485 195.384 186.602 195.384 186.69 195.384C186.793 195.384 186.881 195.391 186.954 195.406V197.584ZM199.033 207H196.613V200.554C196.613 199.469 196.437 198.684 196.085 198.2C195.747 197.701 195.241 197.452 194.567 197.452C194.215 197.452 193.863 197.518 193.511 197.65C193.159 197.782 192.829 197.973 192.521 198.222C192.213 198.457 191.934 198.743 191.685 199.08C191.45 199.403 191.267 199.762 191.135 200.158V207H188.715V195.494H190.915V197.804C191.355 197.027 191.993 196.418 192.829 195.978C193.665 195.523 194.589 195.296 195.601 195.296C196.29 195.296 196.855 195.421 197.295 195.67C197.735 195.919 198.079 196.264 198.329 196.704C198.593 197.129 198.776 197.628 198.879 198.2C198.981 198.757 199.033 199.351 199.033 199.982V207ZM215.659 204.822V207H207.255V204.822H210.379V197.144C210.247 197.32 210.042 197.503 209.763 197.694C209.485 197.885 209.177 198.061 208.839 198.222C208.502 198.383 208.15 198.523 207.783 198.64C207.417 198.743 207.094 198.794 206.815 198.794V196.528C207.109 196.528 207.446 196.44 207.827 196.264C208.223 196.088 208.597 195.883 208.949 195.648C209.316 195.413 209.631 195.179 209.895 194.944C210.174 194.709 210.335 194.541 210.379 194.438H212.865V204.822H215.659ZM228.567 200.554C228.567 201.522 228.42 202.417 228.127 203.238C227.848 204.045 227.452 204.749 226.939 205.35C226.44 205.937 225.846 206.399 225.157 206.736C224.482 207.059 223.741 207.22 222.935 207.22C222.128 207.22 221.38 207.059 220.691 206.736C220.001 206.399 219.407 205.937 218.909 205.35C218.41 204.749 218.014 204.045 217.721 203.238C217.442 202.417 217.303 201.522 217.303 200.554C217.303 199.586 217.442 198.699 217.721 197.892C218.014 197.071 218.41 196.367 218.909 195.78C219.407 195.179 220.001 194.709 220.691 194.372C221.38 194.035 222.128 193.866 222.935 193.866C223.741 193.866 224.482 194.035 225.157 194.372C225.846 194.709 226.44 195.179 226.939 195.78C227.452 196.367 227.848 197.071 228.127 197.892C228.42 198.699 228.567 199.586 228.567 200.554ZM226.103 200.554C226.103 199.894 226.022 199.293 225.861 198.75C225.714 198.207 225.494 197.738 225.201 197.342C224.922 196.946 224.585 196.645 224.189 196.44C223.807 196.22 223.389 196.11 222.935 196.11C222.451 196.11 222.011 196.22 221.615 196.44C221.233 196.645 220.896 196.946 220.603 197.342C220.324 197.738 220.104 198.207 219.943 198.75C219.796 199.293 219.723 199.894 219.723 200.554C219.723 201.214 219.796 201.815 219.943 202.358C220.104 202.901 220.324 203.37 220.603 203.766C220.896 204.147 221.233 204.448 221.615 204.668C222.011 204.873 222.451 204.976 222.935 204.976C223.389 204.976 223.807 204.873 224.189 204.668C224.585 204.448 224.922 204.147 225.201 203.766C225.494 203.37 225.714 202.901 225.861 202.358C226.022 201.815 226.103 201.214 226.103 200.554ZM246.13 195.054C245.983 194.893 245.771 194.724 245.492 194.548C245.213 194.357 244.883 194.181 244.502 194.02C244.135 193.859 243.725 193.727 243.27 193.624C242.83 193.521 242.375 193.47 241.906 193.47C240.865 193.47 240.095 193.661 239.596 194.042C239.112 194.423 238.87 194.951 238.87 195.626C238.87 196.007 238.943 196.323 239.09 196.572C239.251 196.807 239.493 197.019 239.816 197.21C240.139 197.386 240.542 197.547 241.026 197.694C241.51 197.826 242.075 197.973 242.72 198.134C243.512 198.325 244.223 198.537 244.854 198.772C245.499 199.007 246.042 199.293 246.482 199.63C246.922 199.967 247.259 200.385 247.494 200.884C247.743 201.368 247.868 201.962 247.868 202.666C247.868 203.458 247.714 204.14 247.406 204.712C247.113 205.284 246.702 205.753 246.174 206.12C245.661 206.472 245.059 206.736 244.37 206.912C243.681 207.073 242.94 207.154 242.148 207.154C240.96 207.154 239.809 206.978 238.694 206.626C237.594 206.259 236.597 205.731 235.702 205.042L236.824 202.93C237.015 203.121 237.286 203.333 237.638 203.568C238.005 203.803 238.423 204.023 238.892 204.228C239.376 204.419 239.897 204.587 240.454 204.734C241.011 204.866 241.591 204.932 242.192 204.932C243.16 204.932 243.908 204.763 244.436 204.426C244.964 204.089 245.228 203.59 245.228 202.93C245.228 202.534 245.125 202.204 244.92 201.94C244.729 201.676 244.451 201.449 244.084 201.258C243.717 201.053 243.27 200.869 242.742 200.708C242.214 200.547 241.613 200.378 240.938 200.202C240.161 199.997 239.479 199.784 238.892 199.564C238.32 199.329 237.843 199.051 237.462 198.728C237.081 198.405 236.787 198.031 236.582 197.606C236.391 197.166 236.296 196.638 236.296 196.022C236.296 195.259 236.443 194.585 236.736 193.998C237.029 193.397 237.425 192.898 237.924 192.502C238.437 192.091 239.039 191.783 239.728 191.578C240.417 191.373 241.165 191.27 241.972 191.27C243.028 191.27 244.003 191.439 244.898 191.776C245.793 192.113 246.577 192.531 247.252 193.03L246.13 195.054ZM256.304 206.406C255.996 206.553 255.571 206.721 255.028 206.912C254.486 207.088 253.906 207.176 253.29 207.176C252.909 207.176 252.55 207.125 252.212 207.022C251.875 206.919 251.574 206.765 251.31 206.56C251.061 206.355 250.863 206.091 250.716 205.768C250.57 205.431 250.496 205.027 250.496 204.558V197.364H248.978V195.494H250.496V191.71H252.916V195.494H255.424V197.364H252.916V203.788C252.946 204.199 253.07 204.499 253.29 204.69C253.525 204.866 253.811 204.954 254.148 204.954C254.486 204.954 254.808 204.895 255.116 204.778C255.424 204.661 255.652 204.565 255.798 204.492L256.304 206.406ZM261.522 207.22C260.32 207.22 259.41 206.831 258.794 206.054C258.178 205.262 257.87 204.089 257.87 202.534V195.494H260.29V202.05C260.29 204.118 261.024 205.152 262.49 205.152C263.18 205.152 263.832 204.939 264.448 204.514C265.064 204.089 265.541 203.473 265.878 202.666V195.494H268.298V204.14C268.298 204.419 268.342 204.617 268.43 204.734C268.533 204.851 268.709 204.917 268.958 204.932V207C268.709 207.044 268.504 207.073 268.342 207.088C268.181 207.103 268.027 207.11 267.88 207.11C267.44 207.11 267.066 206.993 266.758 206.758C266.45 206.509 266.289 206.193 266.274 205.812L266.23 204.668C265.717 205.504 265.05 206.142 264.228 206.582C263.407 207.007 262.505 207.22 261.522 207.22ZM276.073 207.22C275.295 207.22 274.577 207.066 273.917 206.758C273.257 206.435 272.685 206.003 272.201 205.46C271.717 204.917 271.335 204.287 271.057 203.568C270.793 202.835 270.661 202.05 270.661 201.214C270.661 200.407 270.785 199.652 271.035 198.948C271.299 198.229 271.658 197.599 272.113 197.056C272.582 196.513 273.125 196.088 273.741 195.78C274.371 195.457 275.061 195.296 275.809 195.296C276.733 195.296 277.547 195.523 278.251 195.978C278.955 196.418 279.505 196.983 279.901 197.672V190.94H282.321V204.14C282.321 204.419 282.365 204.617 282.453 204.734C282.555 204.851 282.731 204.917 282.981 204.932V207C282.731 207.044 282.526 207.073 282.365 207.088C282.218 207.103 282.093 207.11 281.991 207.11C281.507 207.11 281.111 206.985 280.803 206.736C280.495 206.487 280.326 206.164 280.297 205.768L280.253 204.91C279.827 205.629 279.248 206.193 278.515 206.604C277.781 207.015 276.967 207.22 276.073 207.22ZM276.667 205.152C277.019 205.152 277.371 205.093 277.723 204.976C278.075 204.859 278.397 204.697 278.691 204.492C278.984 204.287 279.233 204.045 279.439 203.766C279.659 203.487 279.813 203.187 279.901 202.864V199.85C279.769 199.483 279.578 199.146 279.329 198.838C279.094 198.53 278.823 198.266 278.515 198.046C278.207 197.826 277.877 197.657 277.525 197.54C277.187 197.423 276.843 197.364 276.491 197.364C276.007 197.364 275.559 197.474 275.149 197.694C274.753 197.914 274.408 198.207 274.115 198.574C273.821 198.941 273.587 199.359 273.411 199.828C273.249 200.297 273.169 200.781 273.169 201.28C273.169 201.808 273.257 202.307 273.433 202.776C273.623 203.245 273.88 203.656 274.203 204.008C274.525 204.36 274.892 204.639 275.303 204.844C275.728 205.049 276.183 205.152 276.667 205.152ZM285.394 207V195.494H287.814V207H285.394ZM285.394 193.602V190.94H287.814V193.602H285.394ZM295.893 207.22C294.983 207.22 294.162 207.059 293.429 206.736C292.71 206.413 292.094 205.981 291.581 205.438C291.067 204.895 290.671 204.265 290.393 203.546C290.114 202.813 289.975 202.05 289.975 201.258C289.975 200.466 290.114 199.711 290.393 198.992C290.671 198.259 291.067 197.621 291.581 197.078C292.109 196.535 292.732 196.103 293.451 195.78C294.184 195.457 294.998 195.296 295.893 195.296C296.787 195.296 297.594 195.457 298.313 195.78C299.046 196.103 299.669 196.535 300.183 197.078C300.711 197.621 301.114 198.259 301.393 198.992C301.671 199.711 301.811 200.466 301.811 201.258C301.811 202.05 301.671 202.813 301.393 203.546C301.114 204.265 300.711 204.895 300.183 205.438C299.669 205.981 299.046 206.413 298.313 206.736C297.594 207.059 296.787 207.22 295.893 207.22ZM292.461 201.28C292.461 201.837 292.549 202.351 292.725 202.82C292.901 203.289 293.143 203.7 293.451 204.052C293.759 204.389 294.118 204.661 294.529 204.866C294.954 205.057 295.409 205.152 295.893 205.152C296.377 205.152 296.824 205.057 297.235 204.866C297.66 204.661 298.027 204.382 298.335 204.03C298.643 203.678 298.885 203.267 299.061 202.798C299.237 202.329 299.325 201.815 299.325 201.258C299.325 200.715 299.237 200.209 299.061 199.74C298.885 199.256 298.643 198.838 298.335 198.486C298.027 198.134 297.66 197.863 297.235 197.672C296.824 197.467 296.377 197.364 295.893 197.364C295.423 197.364 294.976 197.467 294.551 197.672C294.14 197.877 293.781 198.156 293.473 198.508C293.165 198.86 292.915 199.278 292.725 199.762C292.549 200.231 292.461 200.737 292.461 201.28ZM308.137 207.22C307.213 207.22 306.289 207.073 305.365 206.78C304.456 206.472 303.671 206.039 303.011 205.482L303.979 203.942C304.668 204.441 305.35 204.822 306.025 205.086C306.7 205.335 307.389 205.46 308.093 205.46C308.812 205.46 309.376 205.321 309.787 205.042C310.212 204.763 310.425 204.367 310.425 203.854C310.425 203.37 310.19 203.018 309.721 202.798C309.252 202.578 308.518 202.336 307.521 202.072C306.802 201.881 306.186 201.698 305.673 201.522C305.16 201.346 304.742 201.141 304.419 200.906C304.096 200.671 303.862 200.4 303.715 200.092C303.568 199.784 303.495 199.41 303.495 198.97C303.495 198.383 303.605 197.863 303.825 197.408C304.06 196.953 304.375 196.572 304.771 196.264C305.182 195.941 305.658 195.699 306.201 195.538C306.744 195.377 307.33 195.296 307.961 195.296C308.826 195.296 309.633 195.428 310.381 195.692C311.129 195.956 311.796 196.337 312.383 196.836L311.349 198.288C310.278 197.437 309.142 197.012 307.939 197.012C307.323 197.012 306.802 197.144 306.377 197.408C305.966 197.657 305.761 198.061 305.761 198.618C305.761 198.853 305.805 199.051 305.893 199.212C305.981 199.373 306.12 199.513 306.311 199.63C306.516 199.747 306.773 199.857 307.081 199.96C307.404 200.048 307.8 200.151 308.269 200.268C309.046 200.459 309.714 200.649 310.271 200.84C310.843 201.031 311.312 201.258 311.679 201.522C312.046 201.771 312.317 202.072 312.493 202.424C312.669 202.761 312.757 203.172 312.757 203.656C312.757 204.756 312.339 205.629 311.503 206.274C310.682 206.905 309.56 207.22 308.137 207.22Z" fill="black"/>
<path fill-rule="evenodd" clip-rule="evenodd" d="M190.21 65.3368C187.62 65.7223 185.094 66.2541 183.539 66.7412C182.324 67.122 181.316 67.4852 180.506 67.8337C180.362 67.8959 179.975 68.057 179.65 68.1921C175.649 69.849 171.058 73.0834 167.19 76.9737C164.097 80.0862 161.687 83.0273 159.317 86.5875C158.948 87.1406 158.506 87.7686 158.334 87.9816C158.141 88.2238 158.041 88.5012 158.068 88.7168L158.112 89.0627L215.569 88.3422C274.72 87.6017 273.409 87.6271 276.333 87.1021C280.799 86.3004 286.366 84.1778 288.919 82.3047C289.123 82.1545 289.328 82.0302 289.374 82.0305C289.469 82.0279 292.237 80.1345 292.337 80.0017C292.374 79.9547 292.611 79.7694 292.863 79.587C293.413 79.1932 293.471 79.1445 295.224 77.6018C297.643 75.4751 301.197 71.5299 303.218 68.7308C305.197 65.9867 306.193 64.4354 306.188 64.0944L306.185 63.7278L248.626 64.4675C216.226 64.8857 190.692 65.2644 190.21 65.3368ZM122.449 93.844C121.678 94.3092 122.33 94.8407 123.886 95.0159C124.396 95.0731 125.203 95.1819 125.677 95.2567C126.15 95.3315 126.926 95.4413 127.401 95.5008C127.874 95.5601 128.65 95.6681 129.124 95.7395C129.598 95.8109 130.404 95.9266 130.915 95.9941C131.425 96.0633 132.201 96.1714 132.64 96.2348C134.082 96.442 135.146 96.5908 136.088 96.7158C136.598 96.785 137.404 96.9007 137.878 96.9721C138.352 97.0435 139.128 97.1499 139.601 97.2109C140.076 97.2704 140.852 97.3767 141.326 97.4498C141.8 97.5212 142.607 97.6352 143.117 97.7044C143.628 97.7719 144.403 97.88 144.842 97.9433C146.282 98.1504 147.349 98.2994 148.29 98.4261C148.8 98.4954 149.606 98.6093 150.08 98.679C150.555 98.7504 151.33 98.8602 151.805 98.9248C152.28 98.9876 153.055 99.0991 153.529 99.1705C154.003 99.2419 154.779 99.35 155.252 99.4093C155.727 99.4687 156.503 99.5768 156.977 99.6465C157.451 99.7196 158.258 99.8336 158.768 99.9028C159.279 99.9703 160.07 100.08 160.525 100.144C160.981 100.211 161.726 100.316 162.183 100.381C162.639 100.446 163.428 100.555 163.941 100.625C164.451 100.692 165.255 100.808 165.73 100.879C166.205 100.95 166.981 101.059 167.455 101.118C167.93 101.177 168.705 101.285 169.179 101.357C169.654 101.428 170.429 101.54 170.904 101.602C171.377 101.665 172.152 101.775 172.628 101.847C173.102 101.918 173.907 102.032 174.417 102.099C174.928 102.168 175.704 102.277 176.142 102.34C177.584 102.547 178.649 102.696 179.59 102.823C180.1 102.892 180.906 103.006 181.381 103.077C181.855 103.149 182.63 103.257 183.105 103.316C183.579 103.376 184.326 103.478 184.762 103.544C185.201 103.609 185.827 103.697 186.156 103.739C186.799 103.821 187.653 103.946 189.173 104.183C189.701 104.268 190.135 104.386 190.135 104.448C190.137 104.51 186.681 109.548 182.455 115.643C178.228 121.737 174.772 126.748 174.771 126.779C174.773 126.877 175.736 126.823 176.484 126.683C176.887 126.606 177.65 126.477 178.178 126.395C178.704 126.312 179.551 126.182 180.061 126.101C180.57 126.022 181.403 125.892 181.91 125.812C182.419 125.733 183.252 125.603 183.761 125.522C184.27 125.444 185.103 125.314 185.612 125.233C186.12 125.154 186.953 125.024 187.462 124.944C187.971 124.865 188.804 124.735 189.313 124.655C189.822 124.576 190.639 124.448 191.13 124.371C191.622 124.294 192.498 124.159 193.08 124.073C193.661 123.986 194.494 123.856 194.93 123.787C195.366 123.716 196.199 123.586 196.781 123.496C199.783 123.032 199.58 123.109 200.186 122.219C200.484 121.78 200.993 121.043 201.314 120.58C201.636 120.116 202.102 119.444 202.35 119.086C202.596 118.727 206.734 112.755 211.543 105.814C220.563 92.7979 220.633 92.6953 220.491 92.5547C220.342 92.4083 122.703 93.6927 122.449 93.844ZM221.995 92.5536C221.961 92.6093 222.176 92.8298 222.469 93.0465C223.198 93.5808 223.414 94.0371 223.419 95.0663C223.431 96.9458 223.766 96.3952 213.813 110.758C205.356 122.957 205.963 121.995 206.836 121.853C208.41 121.598 210.973 121.2 213.962 120.749C214.544 120.663 215.377 120.533 215.813 120.465C216.248 120.396 217.081 120.266 217.663 120.176C218.245 120.086 219.076 119.956 219.514 119.887C219.95 119.817 220.782 119.687 221.364 119.597C221.945 119.507 222.778 119.377 223.213 119.308C223.651 119.24 224.484 119.109 225.064 119.019C225.646 118.929 226.479 118.799 226.914 118.729C227.35 118.66 228.2 118.533 228.801 118.445C230.31 118.224 230.451 118.146 231.092 117.206C231.401 116.749 231.934 115.976 232.273 115.487C232.614 114.999 233.185 114.175 233.542 113.659C233.901 113.141 234.486 112.296 234.845 111.78C235.204 111.264 235.789 110.417 236.148 109.901C236.505 109.385 237.09 108.538 237.449 108.022C237.809 107.506 238.394 106.659 238.751 106.143C239.108 105.627 239.679 104.803 240.021 104.311C240.362 103.821 240.976 102.931 241.388 102.333C241.8 101.735 242.473 100.756 242.885 100.158C243.297 99.5607 243.913 98.67 244.254 98.18C244.594 97.6899 245.165 96.8644 245.522 96.3482C245.879 95.832 246.45 95.0081 246.792 94.5181C247.133 94.0281 247.605 93.3476 247.84 93.0073C248.078 92.6655 248.235 92.3273 248.189 92.2565C248.09 92.1004 222.089 92.3961 221.995 92.5536ZM250.178 92.228C250.136 92.2985 250.339 92.5112 250.63 92.6984C251.787 93.4483 251.982 94.7648 251.205 96.5748C251.071 96.8855 250.962 97.1708 250.962 97.2086C250.963 97.4031 249.222 99.9757 243.727 107.903C240.385 112.723 237.623 116.741 237.587 116.833C237.512 117.035 238.055 117.046 238.97 116.861C239.318 116.792 240.108 116.658 240.726 116.568C241.345 116.476 242.207 116.343 242.643 116.272C243.079 116.203 243.912 116.071 244.494 115.981C245.075 115.893 245.908 115.763 246.344 115.692C246.78 115.622 247.613 115.492 248.195 115.404C248.777 115.314 249.608 115.184 250.045 115.115C250.481 115.044 251.314 114.914 251.894 114.824C256.358 114.139 257.813 113.609 260.729 111.614C263.624 109.633 266.48 106.558 269.303 102.386C269.62 101.916 270.159 101.131 270.5 100.641C270.841 100.151 271.411 99.3291 271.769 98.8113C272.126 98.2951 272.713 97.4502 273.072 96.9341C273.807 95.8742 275.079 94.0152 275.897 92.802C276.198 92.357 276.413 91.941 276.375 91.8811C276.274 91.7232 250.274 92.0655 250.178 92.228ZM150.139 103.045C149.736 103.43 149.217 104.112 148.3 105.465C147.981 105.934 147.44 106.719 147.101 107.209C146.76 107.698 146.189 108.522 145.832 109.038C145.473 109.554 144.888 110.401 144.529 110.917C144.171 111.433 143.584 112.279 143.227 112.796C142.87 113.312 142.285 114.157 141.924 114.674C141.565 115.19 140.921 116.127 140.493 116.754C140.063 117.382 139.419 118.317 139.061 118.834C138.702 119.35 138.115 120.195 137.758 120.712C137.401 121.229 136.814 122.074 136.456 122.59C136.097 123.108 135.512 123.953 135.155 124.469C134.796 124.986 134.225 125.809 133.885 126.298C133.544 126.788 133.005 127.573 132.687 128.042C132.368 128.514 131.927 129.145 131.708 129.449C131.491 129.751 131.066 130.356 130.768 130.791C130.469 131.226 128.144 134.585 125.601 138.255C123.06 141.927 121.03 144.961 121.092 144.997C121.153 145.035 121.492 145.008 121.842 144.936C122.194 144.865 122.987 144.732 123.603 144.642C124.222 144.549 125.084 144.417 125.522 144.346C125.958 144.275 126.791 144.145 127.371 144.055C127.953 143.966 128.786 143.835 129.221 143.765C129.657 143.696 130.49 143.566 131.072 143.476C131.654 143.388 132.487 143.258 132.923 143.187C133.358 143.117 134.191 142.988 134.773 142.898C135.355 142.809 136.186 142.679 136.624 142.608C137.06 142.539 137.893 142.409 138.474 142.319C139.055 142.23 139.887 142.101 140.323 142.03C140.761 141.96 141.578 141.834 142.141 141.75C142.705 141.665 143.626 141.527 144.19 141.442C144.753 141.357 145.572 141.231 146.008 141.16C146.444 141.091 147.276 140.961 147.858 140.871C148.44 140.783 149.273 140.653 149.709 140.584C150.145 140.512 150.978 140.383 151.56 140.294C152.14 140.204 152.973 140.074 153.408 140.005C153.846 139.934 154.677 139.804 155.259 139.715C156.479 139.528 157.469 139.37 158.96 139.125C160.327 138.899 160.323 138.902 162.823 135.231C163.351 134.455 164.02 133.482 164.311 133.069C164.602 132.656 165.162 131.848 165.555 131.273C165.949 130.7 166.536 129.853 166.857 129.393C167.181 128.932 167.766 128.087 168.16 127.514C168.554 126.942 169.139 126.095 169.463 125.637C169.784 125.176 170.371 124.329 170.763 123.758C171.158 123.184 171.745 122.339 172.066 121.879C172.389 121.418 172.96 120.596 173.335 120.05C173.71 119.506 175.798 116.494 177.974 113.357C182.075 107.445 182.144 107.318 181.274 107.33C181.061 107.333 180.635 107.283 180.33 107.22C180.024 107.159 179.355 107.044 178.844 106.968C178.334 106.892 177.588 106.778 177.185 106.716C176.784 106.654 176.038 106.543 175.528 106.468C173.311 106.151 171.815 105.93 170.554 105.735C170.116 105.667 169.399 105.557 168.962 105.488C168.524 105.422 167.822 105.313 167.405 105.248C166.983 105.182 166.224 105.069 165.712 104.996C163.494 104.677 162 104.457 160.738 104.261C160.301 104.195 159.584 104.083 159.146 104.016C158.708 103.948 158.008 103.839 157.588 103.775C157.169 103.71 156.407 103.596 155.897 103.524C155.387 103.453 154.64 103.344 154.239 103.282C153.838 103.221 153.061 103.11 152.515 103.032C151.968 102.957 151.294 102.847 151.016 102.79C150.573 102.698 150.467 102.729 150.139 103.045Z" fill="#040404"/>
<defs>
<filter id="filter0_d" x="0" y="0" width="406" height="242" filterUnits="userSpaceOnUse" color-interpolation-filters="sRGB">
<feFlood flood-opacity="0" result="BackgroundImageFix"/>
<feColorMatrix in="SourceAlpha" type="matrix" values="0 0 0 0 0 0 0 0 0 0 0 0 0 0 0 0 0 0 127 0"/>
<feOffset dy="4"/>
<feGaussianBlur stdDeviation="2"/>
<feColorMatrix type="matrix" values="0 0 0 0 0 0 0 0 0 0 0 0 0 0 0 0 0 0 0.25 0"/>
<feBlend mode="normal" in2="BackgroundImageFix" result="effect1_dropShadow"/>
<feBlend mode="normal" in="SourceGraphic" in2="effect1_dropShadow" result="shape"/>
</filter>
</defs>
</svg>
