<svg width="406" height="242" viewBox="0 0 406 242" fill="none" xmlns="http://www.w3.org/2000/svg">
<g filter="url(#filter0_d)">
<rect x="4" width="398" height="234" fill="white"/>
</g>
<path d="M109.359 193.558H104.167V207H101.681V193.558H96.4667V191.38H109.359V193.558ZM121.463 207H119.043V200.554C119.043 199.498 118.853 198.721 118.471 198.222C118.105 197.709 117.569 197.452 116.865 197.452C116.528 197.452 116.191 197.518 115.853 197.65C115.516 197.782 115.193 197.973 114.885 198.222C114.592 198.457 114.328 198.743 114.093 199.08C113.859 199.403 113.683 199.762 113.565 200.158V207H111.145V190.94H113.565V197.804C114.005 197.012 114.599 196.396 115.347 195.956C116.11 195.516 116.939 195.296 117.833 195.296C118.552 195.296 119.139 195.428 119.593 195.692C120.063 195.941 120.437 196.279 120.715 196.704C120.994 197.129 121.185 197.628 121.287 198.2C121.405 198.757 121.463 199.351 121.463 199.982V207ZM129.486 207.22C128.592 207.22 127.778 207.066 127.044 206.758C126.311 206.435 125.68 206.003 125.152 205.46C124.639 204.917 124.236 204.287 123.942 203.568C123.664 202.849 123.524 202.087 123.524 201.28C123.524 200.473 123.664 199.711 123.942 198.992C124.236 198.259 124.639 197.621 125.152 197.078C125.68 196.521 126.311 196.088 127.044 195.78C127.778 195.457 128.599 195.296 129.508 195.296C130.403 195.296 131.21 195.457 131.928 195.78C132.662 196.103 133.285 196.535 133.798 197.078C134.312 197.606 134.7 198.229 134.964 198.948C135.243 199.652 135.382 200.393 135.382 201.17C135.382 201.346 135.375 201.515 135.36 201.676C135.346 201.823 135.331 201.947 135.316 202.05H126.098C126.142 202.563 126.26 203.025 126.45 203.436C126.656 203.847 126.912 204.206 127.22 204.514C127.543 204.807 127.902 205.035 128.298 205.196C128.709 205.357 129.134 205.438 129.574 205.438C129.897 205.438 130.212 205.401 130.52 205.328C130.843 205.24 131.136 205.123 131.4 204.976C131.664 204.815 131.899 204.624 132.104 204.404C132.31 204.184 132.471 203.942 132.588 203.678L134.656 204.272C134.26 205.137 133.6 205.849 132.676 206.406C131.767 206.949 130.704 207.22 129.486 207.22ZM132.984 200.378C132.94 199.894 132.816 199.447 132.61 199.036C132.42 198.625 132.17 198.281 131.862 198.002C131.554 197.709 131.195 197.481 130.784 197.32C130.374 197.159 129.941 197.078 129.486 197.078C129.032 197.078 128.599 197.159 128.188 197.32C127.792 197.481 127.44 197.709 127.132 198.002C126.824 198.281 126.575 198.625 126.384 199.036C126.194 199.447 126.076 199.894 126.032 200.378H132.984ZM154.034 205.064C152.714 206.428 151.196 207.11 149.48 207.11C148.439 207.11 147.471 206.897 146.576 206.472C145.681 206.032 144.904 205.445 144.244 204.712C143.584 203.979 143.063 203.128 142.682 202.16C142.315 201.192 142.132 200.18 142.132 199.124C142.132 198.068 142.315 197.063 142.682 196.11C143.063 195.157 143.584 194.321 144.244 193.602C144.904 192.883 145.689 192.319 146.598 191.908C147.507 191.483 148.497 191.27 149.568 191.27C151.064 191.27 152.318 191.585 153.33 192.216C154.342 192.832 155.105 193.653 155.618 194.68L153.726 196.044C153.301 195.193 152.714 194.555 151.966 194.13C151.218 193.705 150.397 193.492 149.502 193.492C148.769 193.492 148.101 193.653 147.5 193.976C146.899 194.284 146.385 194.702 145.96 195.23C145.535 195.743 145.205 196.345 144.97 197.034C144.75 197.723 144.64 198.442 144.64 199.19C144.64 199.982 144.765 200.723 145.014 201.412C145.278 202.101 145.63 202.703 146.07 203.216C146.525 203.729 147.06 204.14 147.676 204.448C148.292 204.741 148.959 204.888 149.678 204.888C150.47 204.888 151.225 204.705 151.944 204.338C152.677 203.971 153.374 203.392 154.034 202.6V200.928H150.756V199.102H156.102V207H154.034V205.064ZM161.662 207.22C161.105 207.22 160.584 207.132 160.1 206.956C159.631 206.765 159.22 206.509 158.868 206.186C158.531 205.863 158.26 205.482 158.054 205.042C157.864 204.602 157.768 204.125 157.768 203.612C157.768 203.069 157.886 202.578 158.12 202.138C158.355 201.698 158.685 201.317 159.11 200.994C159.55 200.671 160.064 200.422 160.65 200.246C161.252 200.07 161.912 199.982 162.63 199.982C163.173 199.982 163.708 200.033 164.236 200.136C164.764 200.224 165.241 200.349 165.666 200.51V199.718C165.666 198.867 165.424 198.207 164.94 197.738C164.456 197.254 163.76 197.012 162.85 197.012C162.234 197.012 161.626 197.129 161.024 197.364C160.438 197.584 159.829 197.907 159.198 198.332L158.45 196.792C159.932 195.795 161.472 195.296 163.07 195.296C164.654 195.296 165.886 195.699 166.766 196.506C167.646 197.313 168.086 198.471 168.086 199.982V204.14C168.086 204.653 168.299 204.917 168.724 204.932V207C168.49 207.044 168.284 207.073 168.108 207.088C167.947 207.103 167.786 207.11 167.624 207.11C167.155 207.11 166.788 206.993 166.524 206.758C166.275 206.523 166.121 206.223 166.062 205.856L165.996 205.13C165.483 205.805 164.845 206.325 164.082 206.692C163.334 207.044 162.528 207.22 161.662 207.22ZM162.322 205.438C162.909 205.438 163.459 205.335 163.972 205.13C164.5 204.91 164.911 204.609 165.204 204.228C165.512 203.964 165.666 203.685 165.666 203.392V201.874C165.256 201.713 164.816 201.588 164.346 201.5C163.892 201.412 163.444 201.368 163.004 201.368C162.139 201.368 161.428 201.559 160.87 201.94C160.328 202.307 160.056 202.798 160.056 203.414C160.056 203.986 160.269 204.47 160.694 204.866C161.12 205.247 161.662 205.438 162.322 205.438ZM177.49 197.584C176.552 197.613 175.716 197.833 174.982 198.244C174.264 198.64 173.75 199.212 173.442 199.96V207H171.022V195.494H173.266V198.068C173.662 197.276 174.176 196.645 174.806 196.176C175.452 195.692 176.141 195.428 176.874 195.384C177.021 195.384 177.138 195.384 177.226 195.384C177.329 195.384 177.417 195.391 177.49 195.406V197.584ZM182.158 207.22C181.601 207.22 181.08 207.132 180.596 206.956C180.127 206.765 179.716 206.509 179.364 206.186C179.027 205.863 178.756 205.482 178.55 205.042C178.36 204.602 178.264 204.125 178.264 203.612C178.264 203.069 178.382 202.578 178.616 202.138C178.851 201.698 179.181 201.317 179.606 200.994C180.046 200.671 180.56 200.422 181.146 200.246C181.748 200.07 182.408 199.982 183.126 199.982C183.669 199.982 184.204 200.033 184.732 200.136C185.26 200.224 185.737 200.349 186.162 200.51V199.718C186.162 198.867 185.92 198.207 185.436 197.738C184.952 197.254 184.256 197.012 183.346 197.012C182.73 197.012 182.122 197.129 181.52 197.364C180.934 197.584 180.325 197.907 179.694 198.332L178.946 196.792C180.428 195.795 181.968 195.296 183.566 195.296C185.15 195.296 186.382 195.699 187.262 196.506C188.142 197.313 188.582 198.471 188.582 199.982V204.14C188.582 204.653 188.795 204.917 189.22 204.932V207C188.986 207.044 188.78 207.073 188.604 207.088C188.443 207.103 188.282 207.11 188.12 207.11C187.651 207.11 187.284 206.993 187.02 206.758C186.771 206.523 186.617 206.223 186.558 205.856L186.492 205.13C185.979 205.805 185.341 206.325 184.578 206.692C183.83 207.044 183.024 207.22 182.158 207.22ZM182.818 205.438C183.405 205.438 183.955 205.335 184.468 205.13C184.996 204.91 185.407 204.609 185.7 204.228C186.008 203.964 186.162 203.685 186.162 203.392V201.874C185.752 201.713 185.312 201.588 184.842 201.5C184.388 201.412 183.94 201.368 183.5 201.368C182.635 201.368 181.924 201.559 181.366 201.94C180.824 202.307 180.552 202.798 180.552 203.414C180.552 203.986 180.765 204.47 181.19 204.866C181.616 205.247 182.158 205.438 182.818 205.438ZM196.072 207.11C195.295 207.11 194.584 206.956 193.938 206.648C193.293 206.325 192.736 205.893 192.266 205.35C191.812 204.807 191.452 204.184 191.188 203.48C190.939 202.776 190.814 202.035 190.814 201.258C190.814 200.437 190.946 199.667 191.21 198.948C191.474 198.215 191.841 197.584 192.31 197.056C192.78 196.513 193.337 196.088 193.982 195.78C194.642 195.457 195.368 195.296 196.16 195.296C197.084 195.296 197.891 195.516 198.58 195.956C199.284 196.396 199.864 196.968 200.318 197.672V195.494H202.452V206.67C202.452 207.506 202.298 208.247 201.99 208.892C201.682 209.537 201.25 210.08 200.692 210.52C200.15 210.975 199.504 211.319 198.756 211.554C198.008 211.789 197.202 211.906 196.336 211.906C195.06 211.906 193.997 211.686 193.146 211.246C192.31 210.821 191.606 210.219 191.034 209.442L192.398 208.166C192.838 208.782 193.403 209.251 194.092 209.574C194.796 209.897 195.544 210.058 196.336 210.058C196.835 210.058 197.304 209.992 197.744 209.86C198.199 209.728 198.595 209.523 198.932 209.244C199.27 208.965 199.534 208.613 199.724 208.188C199.93 207.763 200.032 207.257 200.032 206.67V204.91C199.622 205.614 199.057 206.157 198.338 206.538C197.62 206.919 196.864 207.11 196.072 207.11ZM196.864 205.152C197.231 205.152 197.583 205.093 197.92 204.976C198.258 204.844 198.566 204.675 198.844 204.47C199.138 204.25 199.387 204.008 199.592 203.744C199.798 203.465 199.944 203.172 200.032 202.864V199.85C199.886 199.483 199.695 199.153 199.46 198.86C199.226 198.552 198.954 198.288 198.646 198.068C198.353 197.848 198.038 197.679 197.7 197.562C197.363 197.43 197.026 197.364 196.688 197.364C196.16 197.364 195.684 197.481 195.258 197.716C194.848 197.936 194.496 198.237 194.202 198.618C193.909 198.985 193.682 199.403 193.52 199.872C193.359 200.341 193.278 200.825 193.278 201.324C193.278 201.852 193.366 202.351 193.542 202.82C193.733 203.275 193.99 203.678 194.312 204.03C194.635 204.367 195.009 204.639 195.434 204.844C195.874 205.049 196.351 205.152 196.864 205.152ZM210.568 207.22C209.674 207.22 208.86 207.066 208.126 206.758C207.393 206.435 206.762 206.003 206.234 205.46C205.721 204.917 205.318 204.287 205.024 203.568C204.746 202.849 204.606 202.087 204.606 201.28C204.606 200.473 204.746 199.711 205.024 198.992C205.318 198.259 205.721 197.621 206.234 197.078C206.762 196.521 207.393 196.088 208.126 195.78C208.86 195.457 209.681 195.296 210.59 195.296C211.485 195.296 212.292 195.457 213.01 195.78C213.744 196.103 214.367 196.535 214.88 197.078C215.394 197.606 215.782 198.229 216.046 198.948C216.325 199.652 216.464 200.393 216.464 201.17C216.464 201.346 216.457 201.515 216.442 201.676C216.428 201.823 216.413 201.947 216.398 202.05H207.18C207.224 202.563 207.342 203.025 207.532 203.436C207.738 203.847 207.994 204.206 208.302 204.514C208.625 204.807 208.984 205.035 209.38 205.196C209.791 205.357 210.216 205.438 210.656 205.438C210.979 205.438 211.294 205.401 211.602 205.328C211.925 205.24 212.218 205.123 212.482 204.976C212.746 204.815 212.981 204.624 213.186 204.404C213.392 204.184 213.553 203.942 213.67 203.678L215.738 204.272C215.342 205.137 214.682 205.849 213.758 206.406C212.849 206.949 211.786 207.22 210.568 207.22ZM214.066 200.378C214.022 199.894 213.898 199.447 213.692 199.036C213.502 198.625 213.252 198.281 212.944 198.002C212.636 197.709 212.277 197.481 211.866 197.32C211.456 197.159 211.023 197.078 210.568 197.078C210.114 197.078 209.681 197.159 209.27 197.32C208.874 197.481 208.522 197.709 208.214 198.002C207.906 198.281 207.657 198.625 207.466 199.036C207.276 199.447 207.158 199.894 207.114 200.378H214.066ZM218.438 198.398V195.604H220.44V198.398H218.438ZM218.438 207V204.184H220.44V207H218.438ZM228.09 199.08C228.09 198.141 228.259 197.21 228.596 196.286C228.934 195.347 229.425 194.511 230.07 193.778C230.73 193.03 231.53 192.429 232.468 191.974C233.407 191.519 234.47 191.292 235.658 191.292C237.081 191.292 238.298 191.607 239.31 192.238C240.322 192.869 241.085 193.69 241.598 194.702L239.662 196C239.442 195.531 239.178 195.135 238.87 194.812C238.562 194.489 238.225 194.233 237.858 194.042C237.492 193.851 237.11 193.719 236.714 193.646C236.318 193.558 235.937 193.514 235.57 193.514C234.749 193.514 234.03 193.683 233.414 194.02C232.798 194.343 232.278 194.775 231.852 195.318C231.442 195.861 231.126 196.469 230.906 197.144C230.701 197.819 230.598 198.493 230.598 199.168C230.598 199.931 230.723 200.657 230.972 201.346C231.222 202.035 231.566 202.644 232.006 203.172C232.461 203.7 232.996 204.125 233.612 204.448C234.228 204.756 234.903 204.91 235.636 204.91C236.018 204.91 236.406 204.866 236.802 204.778C237.213 204.675 237.602 204.521 237.968 204.316C238.35 204.096 238.694 203.825 239.002 203.502C239.325 203.179 239.589 202.791 239.794 202.336L241.84 203.502C241.591 204.089 241.239 204.609 240.784 205.064C240.33 205.504 239.816 205.878 239.244 206.186C238.672 206.494 238.064 206.729 237.418 206.89C236.788 207.051 236.164 207.132 235.548 207.132C234.448 207.132 233.444 206.897 232.534 206.428C231.625 205.959 230.84 205.35 230.18 204.602C229.52 203.839 229.007 202.981 228.64 202.028C228.274 201.06 228.09 200.077 228.09 199.08ZM248.981 207.22C248.072 207.22 247.251 207.059 246.517 206.736C245.799 206.413 245.183 205.981 244.669 205.438C244.156 204.895 243.76 204.265 243.481 203.546C243.203 202.813 243.063 202.05 243.063 201.258C243.063 200.466 243.203 199.711 243.481 198.992C243.76 198.259 244.156 197.621 244.669 197.078C245.197 196.535 245.821 196.103 246.539 195.78C247.273 195.457 248.087 195.296 248.981 195.296C249.876 195.296 250.683 195.457 251.401 195.78C252.135 196.103 252.758 196.535 253.271 197.078C253.799 197.621 254.203 198.259 254.481 198.992C254.76 199.711 254.899 200.466 254.899 201.258C254.899 202.05 254.76 202.813 254.481 203.546C254.203 204.265 253.799 204.895 253.271 205.438C252.758 205.981 252.135 206.413 251.401 206.736C250.683 207.059 249.876 207.22 248.981 207.22ZM245.549 201.28C245.549 201.837 245.637 202.351 245.813 202.82C245.989 203.289 246.231 203.7 246.539 204.052C246.847 204.389 247.207 204.661 247.617 204.866C248.043 205.057 248.497 205.152 248.981 205.152C249.465 205.152 249.913 205.057 250.323 204.866C250.749 204.661 251.115 204.382 251.423 204.03C251.731 203.678 251.973 203.267 252.149 202.798C252.325 202.329 252.413 201.815 252.413 201.258C252.413 200.715 252.325 200.209 252.149 199.74C251.973 199.256 251.731 198.838 251.423 198.486C251.115 198.134 250.749 197.863 250.323 197.672C249.913 197.467 249.465 197.364 248.981 197.364C248.512 197.364 248.065 197.467 247.639 197.672C247.229 197.877 246.869 198.156 246.561 198.508C246.253 198.86 246.004 199.278 245.813 199.762C245.637 200.231 245.549 200.737 245.549 201.28ZM263.514 197.584C262.575 197.613 261.739 197.833 261.006 198.244C260.287 198.64 259.774 199.212 259.466 199.96V207H257.046V195.494H259.29V198.068C259.686 197.276 260.199 196.645 260.83 196.176C261.475 195.692 262.164 195.428 262.898 195.384C263.044 195.384 263.162 195.384 263.25 195.384C263.352 195.384 263.44 195.391 263.514 195.406V197.584ZM271.676 206.406C271.368 206.553 270.943 206.721 270.4 206.912C269.858 207.088 269.278 207.176 268.662 207.176C268.281 207.176 267.922 207.125 267.584 207.022C267.247 206.919 266.946 206.765 266.682 206.56C266.433 206.355 266.235 206.091 266.088 205.768C265.942 205.431 265.868 205.027 265.868 204.558V197.364H264.35V195.494H265.868V191.71H268.288V195.494H270.796V197.364H268.288V203.788C268.318 204.199 268.442 204.499 268.662 204.69C268.897 204.866 269.183 204.954 269.52 204.954C269.858 204.954 270.18 204.895 270.488 204.778C270.796 204.661 271.024 204.565 271.17 204.492L271.676 206.406ZM276.41 207.22C275.853 207.22 275.332 207.132 274.848 206.956C274.379 206.765 273.968 206.509 273.616 206.186C273.279 205.863 273.008 205.482 272.802 205.042C272.612 204.602 272.516 204.125 272.516 203.612C272.516 203.069 272.634 202.578 272.868 202.138C273.103 201.698 273.433 201.317 273.858 200.994C274.298 200.671 274.812 200.422 275.398 200.246C276 200.07 276.66 199.982 277.378 199.982C277.921 199.982 278.456 200.033 278.984 200.136C279.512 200.224 279.989 200.349 280.414 200.51V199.718C280.414 198.867 280.172 198.207 279.688 197.738C279.204 197.254 278.508 197.012 277.598 197.012C276.982 197.012 276.374 197.129 275.772 197.364C275.186 197.584 274.577 197.907 273.946 198.332L273.198 196.792C274.68 195.795 276.22 195.296 277.818 195.296C279.402 195.296 280.634 195.699 281.514 196.506C282.394 197.313 282.834 198.471 282.834 199.982V204.14C282.834 204.653 283.047 204.917 283.472 204.932V207C283.238 207.044 283.032 207.073 282.856 207.088C282.695 207.103 282.534 207.11 282.372 207.11C281.903 207.11 281.536 206.993 281.272 206.758C281.023 206.523 280.869 206.223 280.81 205.856L280.744 205.13C280.231 205.805 279.593 206.325 278.83 206.692C278.082 207.044 277.276 207.22 276.41 207.22ZM277.07 205.438C277.657 205.438 278.207 205.335 278.72 205.13C279.248 204.91 279.659 204.609 279.952 204.228C280.26 203.964 280.414 203.685 280.414 203.392V201.874C280.004 201.713 279.564 201.588 279.094 201.5C278.64 201.412 278.192 201.368 277.752 201.368C276.887 201.368 276.176 201.559 275.618 201.94C275.076 202.307 274.804 202.798 274.804 203.414C274.804 203.986 275.017 204.47 275.442 204.866C275.868 205.247 276.41 205.438 277.07 205.438ZM296.088 207H293.668V200.554C293.668 199.469 293.492 198.684 293.14 198.2C292.803 197.701 292.297 197.452 291.622 197.452C291.27 197.452 290.918 197.518 290.566 197.65C290.214 197.782 289.884 197.973 289.576 198.222C289.268 198.457 288.99 198.743 288.74 199.08C288.506 199.403 288.322 199.762 288.19 200.158V207H285.77V195.494H287.97V197.804C288.41 197.027 289.048 196.418 289.884 195.978C290.72 195.523 291.644 195.296 292.656 195.296C293.346 195.296 293.91 195.421 294.35 195.67C294.79 195.919 295.135 196.264 295.384 196.704C295.648 197.129 295.832 197.628 295.934 198.2C296.037 198.757 296.088 199.351 296.088 199.982V207ZM301.955 207.22C301.398 207.22 300.877 207.132 300.393 206.956C299.924 206.765 299.513 206.509 299.161 206.186C298.824 205.863 298.553 205.482 298.347 205.042C298.157 204.602 298.061 204.125 298.061 203.612C298.061 203.069 298.179 202.578 298.413 202.138C298.648 201.698 298.978 201.317 299.403 200.994C299.843 200.671 300.357 200.422 300.943 200.246C301.545 200.07 302.205 199.982 302.923 199.982C303.466 199.982 304.001 200.033 304.529 200.136C305.057 200.224 305.534 200.349 305.959 200.51V199.718C305.959 198.867 305.717 198.207 305.233 197.738C304.749 197.254 304.053 197.012 303.143 197.012C302.527 197.012 301.919 197.129 301.317 197.364C300.731 197.584 300.122 197.907 299.491 198.332L298.743 196.792C300.225 195.795 301.765 195.296 303.363 195.296C304.947 195.296 306.179 195.699 307.059 196.506C307.939 197.313 308.379 198.471 308.379 199.982V204.14C308.379 204.653 308.592 204.917 309.017 204.932V207C308.783 207.044 308.577 207.073 308.401 207.088C308.24 207.103 308.079 207.11 307.917 207.11C307.448 207.11 307.081 206.993 306.817 206.758C306.568 206.523 306.414 206.223 306.355 205.856L306.289 205.13C305.776 205.805 305.138 206.325 304.375 206.692C303.627 207.044 302.821 207.22 301.955 207.22ZM302.615 205.438C303.202 205.438 303.752 205.335 304.265 205.13C304.793 204.91 305.204 204.609 305.497 204.228C305.805 203.964 305.959 203.685 305.959 203.392V201.874C305.549 201.713 305.109 201.588 304.639 201.5C304.185 201.412 303.737 201.368 303.297 201.368C302.432 201.368 301.721 201.559 301.163 201.94C300.621 202.307 300.349 202.798 300.349 203.414C300.349 203.986 300.562 204.47 300.987 204.866C301.413 205.247 301.955 205.438 302.615 205.438Z" fill="black"/>
<path d="M203.5 160C172.35 160 147 134.65 147 103.5C147 72.3497 172.35 47 203.5 47C234.65 47 260 72.3497 260 103.5C260 134.65 234.65 160 203.5 160ZM203.5 62.0667C180.636 62.0667 162.067 80.6363 162.067 103.5C162.067 126.364 180.636 144.933 203.5 144.933C226.364 144.933 244.933 126.364 244.933 103.5C244.933 80.6363 226.364 62.0667 203.5 62.0667Z" fill="#9ADAF6"/>
<path d="M203.5 148.7C178.565 148.7 158.3 128.435 158.3 103.5C158.3 78.5647 178.565 58.3 203.5 58.3C228.435 58.3 248.7 78.5647 248.7 103.5C248.7 128.435 228.435 148.7 203.5 148.7ZM203.5 67.7167C183.763 67.7167 167.717 83.7627 167.717 103.5C167.717 123.237 183.763 139.283 203.5 139.283C223.237 139.283 239.283 123.237 239.283 103.5C239.283 83.7627 223.237 67.7167 203.5 67.7167Z" fill="#1C9FE7"/>
<defs>
<filter id="filter0_d" x="0" y="0" width="406" height="242" filterUnits="userSpaceOnUse" color-interpolation-filters="sRGB">
<feFlood flood-opacity="0" result="BackgroundImageFix"/>
<feColorMatrix in="SourceAlpha" type="matrix" values="0 0 0 0 0 0 0 0 0 0 0 0 0 0 0 0 0 0 127 0"/>
<feOffset dy="4"/>
<feGaussianBlur stdDeviation="2"/>
<feColorMatrix type="matrix" values="0 0 0 0 0 0 0 0 0 0 0 0 0 0 0 0 0 0 0.25 0"/>
<feBlend mode="normal" in2="BackgroundImageFix" result="effect1_dropShadow"/>
<feBlend mode="normal" in="SourceGraphic" in2="effect1_dropShadow" result="shape"/>
</filter>
</defs>
</svg>
