<svg width="360" height="360" viewBox="0 0 360 360" fill="none" xmlns="http://www.w3.org/2000/svg">
<rect width="360" height="360" rx="20" fill="white"/>
<mask id="mask0_648_250" style="mask-type:alpha" maskUnits="userSpaceOnUse" x="0" y="0" width="360" height="360">
<rect width="360" height="360" rx="20" fill="white"/>
</mask>
<g mask="url(#mask0_648_250)">
<path d="M63.8229 -22H-178.73V207.078H63.8229V-22Z" stroke="#3108F9" stroke-miterlimit="10"/>
<path d="M55.8551 -22V203.076H0.302185" stroke="#3108F9" stroke-miterlimit="10"/>
<path d="M55.8555 203.075L63.7863 207.077" stroke="#3108F9" stroke-miterlimit="10"/>
<path d="M51.9635 -22H-167.972V37.9223H51.9635V-22Z" stroke="#3108F9" stroke-miterlimit="10"/>
<path d="M43.1511 -22H-159.123V27.6415H43.1511V-22Z" stroke="#3108F9" stroke-miterlimit="10"/>
<path d="M38.892 27.6415V-22" stroke="#3108F9" stroke-miterlimit="10"/>
<path d="M40.9115 27.6415V-22" stroke="#3108F9" stroke-miterlimit="10"/>
<path d="M-167.972 37.9219L-163.052 43.0255H47.6309L51.9635 37.9219" stroke="#3108F9" stroke-miterlimit="10"/>
<path d="M-163.346 42.7324L-164.117 43.8339L-161.326 46.5876H47.447L49.6867 43.4667L49.1359 41.2637" stroke="#3108F9" stroke-miterlimit="10"/>
<path d="M0.302185 198.964H51.3022V38.7305" stroke="#3108F9" stroke-miterlimit="10"/>
<path d="M0.302185 196.539H48.989V44.8979" stroke="#3108F9" stroke-miterlimit="10"/>
<path d="M46.6392 46.5879V196.54" stroke="#3108F9" stroke-miterlimit="10"/>
<path d="M48.402 252.057C44.3631 252.02 38.7821 247.651 38.7821 247.651C33.348 243.722 29.6395 241.96 27.4365 241.226C25.9311 240.712 24.5726 239.941 23.2875 239.023C21.8555 237.958 19.7994 236.783 17.8534 236.085C14.8059 234.984 4.89223 231.936 -13.2093 229.733C-31.3108 227.53 -50.2935 232.524 -61.7492 235.645C-69.9004 237.884 -72.3605 239.243 -73.1315 239.83C-73.3151 239.977 -73.2417 240.234 -73.0214 240.308L-71.1121 240.822C-71.0387 240.858 -70.9652 240.858 -70.8551 240.858C-70.0473 241.005 -65.1272 242.07 -63.4382 246.219C-61.6024 250.735 -58.8486 262.632 -57.6737 268.837C-56.4987 275.042 -54.6996 282.055 -49.5592 287.673C-44.3821 293.29 -42.1056 295.31 -36.4145 298.137C-30.7233 301.001 -15.0451 307.39 -18.2762 319.213L-18.5333 319.947C-18.5333 319.947 -7.99546 319.984 -5.97602 320.02" stroke="#3108F9" stroke-miterlimit="10" stroke-linecap="round" stroke-linejoin="round"/>
<path d="M57.434 258.188C57.434 258.188 55.8185 250.992 53.8358 249.413C52.9545 248.715 51.9632 248.422 51.1554 248.348C49.9804 248.238 48.8422 248.715 48.1813 249.707C47.8141 250.294 47.5571 251.028 47.9243 251.763C48.1446 252.24 49.0258 252.093 49.3563 252.057C49.4664 252.057 49.5398 252.02 49.65 251.946C52.2202 250.551 54.3131 264.687 54.8271 269.02C55.3411 273.426 57.7645 282.275 59.1964 286.387C60.6284 290.536 67.2008 297.439 67.2008 297.439" stroke="#3108F9" stroke-miterlimit="10"/>
<path d="M62.6846 258.187C62.6846 258.187 60.3347 250.88 59.0863 249.926C57.8379 248.971 56.8098 248.934 56.2224 248.971C55.5982 249.008 54.5701 249.889 54.7169 250.477" stroke="#3108F9" stroke-miterlimit="10"/>
<path d="M68.2295 258.556C68.2295 258.556 65.6593 252.167 64.0805 250.331C62.5017 248.496 60.1885 248.973 59.4542 250.331" stroke="#3108F9" stroke-miterlimit="10"/>
<path d="M79.538 283.009C79.538 283.009 77.0779 277.612 76.8943 271.663C76.7475 265.715 74.6546 262.998 74.6546 262.998C74.6546 262.998 71.7172 252.02 71.2399 250C70.7626 247.981 70.1017 246.549 68.9267 246.035C67.7518 245.521 66.0628 245.815 65.255 247.247C64.4473 248.679 64.0801 250.331 64.0801 250.331" stroke="#3108F9" stroke-miterlimit="10"/>
<path d="M65.9155 253.415C65.9155 253.415 66.8702 250.734 66.7233 250.514C66.5764 250.294 67.1639 252.019 67.5311 256.94" stroke="#3108F9" stroke-miterlimit="10"/>
<path d="M71.7905 252.166C71.7905 252.166 80.8229 251.101 90.406 246.438C99.9525 241.812 116.402 236.561 120.22 235.864C124.039 235.129 133.328 233.954 136.706 233.55C140.047 233.147 156.974 232.926 157.525 233.257" stroke="#3108F9" stroke-miterlimit="10"/>
<path d="M159.654 236.085C159.654 236.085 159.214 232.523 155.505 233.918C152.164 235.203 134.907 243.355 131.713 244.86C131.382 245.007 131.089 245.227 130.832 245.521C130.207 246.182 129.289 246.512 128.372 246.439L126.425 246.255C125.434 246.182 124.479 246.549 123.855 247.283C121.322 250.184 115.043 257.711 114.676 260.612" stroke="#3108F9" stroke-miterlimit="10"/>
<path d="M139.681 297.915C140.562 297.951 141.26 298.025 141.774 298.061C147.685 298.539 166.448 299.75 176.361 296.666C186.311 293.582 195.381 293.839 197.804 294.5C200.227 295.161 205.918 303.679 205.551 305.221C205.184 306.763 201.035 307.241 201.035 307.241" stroke="#3108F9" stroke-miterlimit="10" stroke-linecap="round" stroke-linejoin="round"/>
<path d="M88.6071 299.092C91.2507 298.101 94.1513 297.293 96.7582 297.073C101.458 296.706 114.272 296.963 125.177 297.33" stroke="#3108F9" stroke-miterlimit="10" stroke-linecap="round" stroke-linejoin="round"/>
<path d="M153.119 234.948C153.119 234.948 162.849 235.425 167.219 241.006C171.588 246.55 176.508 251.764 172.579 259.658C168.65 267.553 158.663 273.501 158.663 273.501C158.663 273.501 133.696 285.067 129.841 288.995C125.949 292.924 121.028 294.833 121.028 294.833C121.028 294.833 120.368 295.715 114.419 295.898C108.471 296.082 101.238 295.568 97.456 296.339C95.6936 296.706 92.1321 297.771 88.4971 299.092" stroke="#3108F9" stroke-miterlimit="10" stroke-linecap="round" stroke-linejoin="round"/>
<path d="M136.486 246.768C136.486 246.768 136.964 250.182 132.594 252.165C128.188 254.148 112.547 261.344 110.637 262.85C108.728 264.355 94.1881 273.718 91.9484 274.379C89.7087 275.003 78.9873 282.053 76.3069 286.055C73.6266 290.057 66.7238 298.025 66.7238 298.025C66.7238 298.025 64.4106 301.035 63.8231 304.964" stroke="#3108F9" stroke-miterlimit="10"/>
<path d="M197.693 296.08C197.693 296.08 199.897 302.432 200.557 302.946C201.218 303.46 202.503 304.341 202.503 304.341" stroke="#3108F9" stroke-miterlimit="10" stroke-linecap="round" stroke-linejoin="round"/>
<path d="M200.52 303.9L202.503 304.341" stroke="#3108F9" stroke-miterlimit="10" stroke-linecap="round" stroke-linejoin="round"/>
<path d="M198.134 297.366C198.134 297.366 199.566 302.029 200.484 303.901C200.741 304.452 200.888 305.04 200.851 305.664C200.814 306.251 200.814 306.839 200.778 307.536C200.704 309.005 197.657 309.299 197.657 309.299" stroke="#3108F9" stroke-miterlimit="10" stroke-linecap="round" stroke-linejoin="round"/>
<path d="M194.499 297.254C194.499 297.254 197.62 304.634 197.62 305.405C197.62 306.176 198.024 308.967 196.959 310.105C195.894 311.243 193.104 310.105 193.104 310.105" stroke="#3108F9" stroke-miterlimit="10" stroke-linecap="round" stroke-linejoin="round"/>
<path d="M190.093 298.833L193.067 304.855C193.141 304.965 193.141 305.112 193.214 305.259C193.324 305.589 193.398 305.92 193.471 306.287C193.544 306.728 193.618 307.205 193.581 307.682C193.581 308.196 193.508 308.71 193.361 309.188C193.251 309.555 193.104 309.959 192.847 310.253C192.59 310.62 192.259 310.803 191.855 310.95H186.715C186.715 310.95 185.173 310.84 184.145 309.738C183.117 308.637 182.089 307.242 182.089 307.242" stroke="#3108F9" stroke-miterlimit="10" stroke-linecap="round" stroke-linejoin="round"/>
<path d="M184.108 305.846C184.108 305.846 185.723 306.691 186.788 307.609C187.119 307.903 187.486 308.196 187.926 308.16C188.477 308.123 189.065 307.792 188.661 306.434C188 304.047 186.972 303.313 186.972 303.313C186.972 303.313 181.097 308.453 178.16 308.674" stroke="#3108F9" stroke-miterlimit="10" stroke-linecap="round" stroke-linejoin="round"/>
<path d="M173.864 252.167C173.864 252.167 181.134 242.767 196.702 241.923C212.27 241.078 214.473 240.417 214.804 240.27C215.134 240.124 226.81 239.463 230.225 241.519C233.64 243.575 240.102 248.569 240.763 254.186L241.277 257.197C244.581 260.134 242.672 266.009 240.983 269.644C240.175 271.407 238.927 272.949 237.348 274.124C235.622 275.409 232.722 277.685 228.609 281.467C221.303 288.223 223.285 295.603 223.285 295.603C223.285 295.603 252.622 297.806 254.128 284.735C255.633 271.664 249.538 262.815 247.849 259.106C246.16 255.398 240.763 253.893 240.763 253.893" stroke="#3108F9" stroke-miterlimit="10" stroke-linecap="round" stroke-linejoin="round"/>
<path d="M168.026 265.9C168.026 265.9 175.186 269.938 182.897 265.9C184.329 265.275 185.761 264.688 187.192 264.1C188.404 263.623 189.689 263.293 190.864 262.705C191.819 262.228 192.7 261.604 193.581 261.016C195.27 259.841 196.959 258.63 198.611 257.381C199.272 256.867 199.933 256.353 200.557 255.839C200.888 255.582 201.329 255.252 201.512 254.884C201.512 254.848 201.549 254.848 201.549 254.811C201.549 254.811 208.378 254.884 211.903 256.206C215.428 257.528 223.028 266.377 224.387 267.699C225.488 268.8 232.244 271.701 235.732 270.746C238.964 269.865 243.333 266.781 243.002 262.999" stroke="#3108F9" stroke-miterlimit="10" stroke-linecap="round" stroke-linejoin="round"/>
<path d="M229.857 244.788C229.857 244.788 218.071 241.96 208.892 247.137" stroke="#3108F9" stroke-miterlimit="10" stroke-linecap="round" stroke-linejoin="round"/>
<path d="M223.505 247.904C223.505 247.904 235.328 249.96 239.147 255.395" stroke="#3108F9" stroke-miterlimit="10" stroke-linecap="round" stroke-linejoin="round"/>
<path d="M224.717 259.254C224.717 259.254 230.445 262.558 233.088 262.558" stroke="#3108F9" stroke-miterlimit="10" stroke-linecap="round" stroke-linejoin="round"/>
<path d="M224.717 261.971C224.717 261.971 231.62 267.258 237.127 266.046" stroke="#3108F9" stroke-miterlimit="10" stroke-linecap="round" stroke-linejoin="round"/>
<path d="M224.717 250.846C224.717 250.846 232.611 251.653 239.147 258.042" stroke="#3108F9" stroke-miterlimit="10" stroke-linecap="round" stroke-linejoin="round"/>
<path d="M173.864 255.877C173.864 255.877 177.022 261.679 183.411 259.549C189.799 257.419 204.413 246.441 204.413 246.441" stroke="#3108F9" stroke-miterlimit="10" stroke-linecap="round" stroke-linejoin="round"/>
<path d="M169.898 266.706C169.898 266.706 159.581 284.183 168.43 291.159C177.278 298.135 175.773 296.85 175.773 296.85" stroke="#3108F9" stroke-miterlimit="10" stroke-linecap="round" stroke-linejoin="round"/>
<path d="M146.73 279.226C146.73 279.226 139.166 293.141 141.773 298.061" stroke="#3108F9" stroke-miterlimit="10" stroke-linecap="round" stroke-linejoin="round"/>
<path d="M254.275 280.328C254.275 280.328 264.555 271.736 284.603 271.993C304.65 272.287 312.03 276.803 315.812 279.079C319.594 281.356 331.601 292.701 332.629 294.868C333.657 297.034 339.715 311.978 327.231 318.33C314.748 324.682 303.586 327.105 302.557 327.399C301.529 327.693 291.579 328.427 282.51 328.17C273.441 327.876 246.307 325.159 241.387 324.498C236.467 323.837 230.225 323.287 225.598 323.654C220.972 324.021 209.92 324.609 203.678 321.377C197.436 318.146 195.344 315.319 195.344 315.319C195.344 315.319 194.205 313.3 195.013 310.619" stroke="#3108F9" stroke-miterlimit="10" stroke-linecap="round" stroke-linejoin="round"/>
<path d="M202.614 299.386C202.614 299.386 210.067 294.172 223.212 295.604" stroke="#3108F9" stroke-miterlimit="10" stroke-linecap="round" stroke-linejoin="round"/>
<path d="M244.03 266.706C244.03 266.706 245.719 270.818 243.002 276.068" stroke="#3108F9" stroke-miterlimit="10" stroke-linecap="round" stroke-linejoin="round"/>
<path d="M244.545 259.254C244.545 259.254 248.657 264.174 247.151 273.023" stroke="#3108F9" stroke-miterlimit="10" stroke-linecap="round" stroke-linejoin="round"/>
<path d="M171.734 261.124C171.734 261.124 175.737 266.301 182.86 265.897" stroke="#3108F9" stroke-miterlimit="10" stroke-linecap="round" stroke-linejoin="round"/>
<path d="M155.432 279.226C155.432 279.226 149.778 289.8 141.223 294.537" stroke="#3108F9" stroke-miterlimit="10" stroke-linecap="round" stroke-linejoin="round"/>
<path d="M-32.7427 288.664C-32.7427 288.664 -13.1358 292.556 -10.3085 298.064C-8.21568 302.139 -2.92842 311.869 -0.284794 316.789" stroke="#3108F9" stroke-miterlimit="10" stroke-linecap="round" stroke-linejoin="round"/>
<path d="M-18.5332 258.555C-18.5332 258.555 -18.6066 277.538 -12.071 289.141C-6.19623 299.568 1.36749 311.538 3.93769 314.035" stroke="#3108F9" stroke-miterlimit="10" stroke-linecap="round" stroke-linejoin="round"/>
<path d="M-0.285103 261.825C-0.285103 261.825 -0.909291 266.708 -2.26782 268.654C-3.62635 270.637 -6.93089 286.278 -5.38877 292.777C-3.84666 299.313 2.46868 309.153 3.71706 309.557" stroke="#3108F9" stroke-miterlimit="10" stroke-linecap="round" stroke-linejoin="round"/>
<path d="M24.2788 246.768C24.2788 246.768 17.376 261.638 9.8123 267.843C2.24858 274.048 -3.9566 284.733 -3.9566 284.733" stroke="#3108F9" stroke-miterlimit="10" stroke-linecap="round" stroke-linejoin="round"/>
<path d="M10.7302 271.076C10.7302 271.076 1.2939 289.031 1.33061 294.502C1.36733 300.009 2.3587 308.087 2.3587 308.087" stroke="#3108F9" stroke-miterlimit="10" stroke-linecap="round" stroke-linejoin="round"/>
<path d="M27.5466 284.002C27.5466 284.002 36.322 266.524 52.9549 261.825" stroke="#3108F9" stroke-miterlimit="10" stroke-linecap="round" stroke-linejoin="round"/>
<path d="M49.3569 267.515C49.3569 267.515 32.9444 289.802 36.5426 306.728" stroke="#3108F9" stroke-miterlimit="10" stroke-linecap="round" stroke-linejoin="round"/>
<path d="M49.3564 273.902C49.3564 273.902 42.1599 289.764 54.8273 306.029" stroke="#3108F9" stroke-miterlimit="10" stroke-linecap="round" stroke-linejoin="round"/>
<path d="M41.2049 292.299C41.2049 292.299 47.0062 299.459 51.449 306.288" stroke="#3108F9" stroke-miterlimit="10" stroke-linecap="round" stroke-linejoin="round"/>
<path d="M49.8337 289.58C49.8337 289.58 48.2549 278.748 54.8272 269.018" stroke="#3108F9" stroke-miterlimit="10" stroke-linecap="round" stroke-linejoin="round"/>
<path d="M203.641 256.499C203.641 256.499 206.358 262.814 204.927 267.918" stroke="#3108F9" stroke-miterlimit="10" stroke-linecap="round" stroke-linejoin="round"/>
<path d="M195.747 276.07C195.747 276.07 202.87 275.482 204.413 270.269" stroke="#3108F9" stroke-miterlimit="10" stroke-linecap="round" stroke-linejoin="round"/>
<path d="M211.352 296.081C211.352 296.081 211.976 286.572 207.46 283.047" stroke="#3108F9" stroke-miterlimit="10" stroke-linecap="round" stroke-linejoin="round"/>
<path d="M178.16 277.062C178.16 277.062 178.16 286.168 180.73 287.71" stroke="#3108F9" stroke-miterlimit="10" stroke-linecap="round" stroke-linejoin="round"/>
<path d="M195.747 260.611C195.747 260.611 195.931 267.037 197.693 270.268" stroke="#3108F9" stroke-miterlimit="10" stroke-linecap="round" stroke-linejoin="round"/>
<path d="M200.888 285.433C200.888 285.433 200.41 292.776 201.512 296.117" stroke="#3108F9" stroke-miterlimit="10" stroke-linecap="round" stroke-linejoin="round"/>
<path d="M236.173 270.6C236.173 270.6 236.356 274.088 235.145 275.74" stroke="#3108F9" stroke-miterlimit="10" stroke-linecap="round" stroke-linejoin="round"/>
<path d="M-8.25488 324.539C-8.25488 324.539 4.23166 306.035 40.751 308.555C40.751 308.555 59.6313 307.69 64.5582 306.186" stroke="#3108F9" stroke-miterlimit="10" stroke-linecap="round" stroke-linejoin="round"/>
<path d="M88.6771 300.484C97.0641 299.919 106.956 300.07 109.024 300.784" stroke="#3108F9" stroke-miterlimit="10" stroke-linecap="round" stroke-linejoin="round"/>
<path d="M43.5378 312.189C43.5378 312.189 48.4272 312.114 51.5488 310.91C54.6704 309.707 72.7985 302.824 81.1479 301.357C83.2541 300.981 85.9244 300.718 88.7451 300.53" stroke="#3108F9" stroke-miterlimit="10" stroke-linecap="round" stroke-linejoin="round"/>
<path d="M87.7067 307.15C87.7067 307.15 112.755 298.312 126.295 298.763" stroke="#3108F9" stroke-miterlimit="10" stroke-linecap="round" stroke-linejoin="round"/>
<path d="M135.278 292.764C135.278 292.764 138.4 297.239 140.957 299.195C143.552 301.151 144.079 301.79 144.079 301.79C144.079 301.79 156.64 301.715 162.846 306.679" stroke="#3108F9" stroke-miterlimit="10" stroke-linecap="round" stroke-linejoin="round"/>
<path d="M160.62 305.231C160.62 305.231 177.431 303.914 179.613 302.937" stroke="#3108F9" stroke-miterlimit="10" stroke-linecap="round" stroke-linejoin="round"/>
<path d="M164.192 310.349C164.192 310.349 172.09 305.836 174.234 305.234C176.415 304.633 181.192 302.113 181.455 302C181.718 301.887 185.855 300.834 184.84 304.783C184.84 304.783 177.506 313.208 176.679 314.637C175.851 316.066 172.767 320.843 172.767 320.843" stroke="#3108F9" stroke-miterlimit="10" stroke-linecap="round" stroke-linejoin="round"/>
<path d="M172.456 317.838C172.456 317.838 173.848 326.714 172.456 330.325C171.065 333.935 166.89 338.449 165.16 338.449C163.392 338.449 160.684 339.727 160.684 339.727C160.684 339.727 154.742 348.152 149.439 342.774C149.1 342.435 148.875 341.946 148.875 341.458C148.875 341.307 148.912 341.157 148.95 341.006" stroke="#3108F9" stroke-miterlimit="10" stroke-linecap="round" stroke-linejoin="round"/>
<path d="M147.466 337.794L146.601 337.268C146.15 337.005 146 336.44 146.225 335.989C146.413 335.575 146.865 335.35 147.316 335.425C148.595 335.613 151.378 336.215 153.334 337.832C153.71 338.133 153.785 338.697 153.522 339.111C153.221 339.6 152.619 339.825 152.055 339.637L151.98 339.6C151.641 339.487 151.265 339.6 151.002 339.825L150.174 340.578C149.761 340.954 149.159 341.029 148.67 340.728C148.219 340.427 147.955 339.901 148.031 339.374L148.068 338.998C148.143 338.509 147.88 338.02 147.466 337.794Z" stroke="#3108F9" stroke-miterlimit="10" stroke-linecap="round" stroke-linejoin="round"/>
<path d="M134.411 335.021C134.411 335.021 134.975 339.797 139.075 341.113C143.136 342.43 147.349 342.166 148.289 341.565C149.004 341.113 148.891 341.001 148.891 341.001" stroke="#3108F9" stroke-miterlimit="10" stroke-linecap="round" stroke-linejoin="round"/>
<path d="M134.431 337.231C131.648 336.667 122.509 330.611 120.252 328.693C118.033 326.738 118.259 324.18 118.297 323.089C118.372 322.224 121.381 315.68 122.584 313.16C123.073 312.107 123.675 311.092 124.352 310.152C124.954 309.362 125.631 308.572 126.157 308.497C126.157 308.497 125.443 299.32 126.947 295.183C128.451 291.046 130.783 291.046 130.783 291.046C130.783 291.046 133.604 290.557 135.221 292.776C136.838 294.995 138.756 300.561 139.772 301.652C140.787 302.742 141.389 303.871 142.706 304.585" stroke="#3108F9" stroke-miterlimit="10" stroke-linecap="round" stroke-linejoin="round"/>
<path d="M170.094 334.293C170.094 334.293 173.667 335.496 174.569 339.333C175.472 343.169 169.153 342.981 169.153 342.981" stroke="#3108F9" stroke-miterlimit="10" stroke-linecap="round" stroke-linejoin="round"/>
<path d="M169.834 338.176C169.834 338.176 172.542 340.997 169.157 342.99C168.631 343.328 168.029 343.479 167.39 343.554C166.525 343.629 165.246 343.667 164.569 343.479" stroke="#3108F9" stroke-miterlimit="10" stroke-linecap="round" stroke-linejoin="round"/>
<path d="M164.35 340.943C164.35 340.943 165.027 343.726 163.635 343.839C162.243 343.952 159.46 344.14 158.069 342.522" stroke="#3108F9" stroke-miterlimit="10" stroke-linecap="round" stroke-linejoin="round"/>
<path d="M138.51 340.893C138.51 340.893 141.858 348.603 150.959 343.977" stroke="#3108F9" stroke-miterlimit="10" stroke-linecap="round" stroke-linejoin="round"/>
<path d="M101.121 324.186C101.121 324.186 104.506 321.967 109.02 322.757C113.533 323.547 118.272 324.525 118.272 324.525" stroke="#3108F9" stroke-miterlimit="10" stroke-linecap="round" stroke-linejoin="round"/>
<path d="M139.482 342.432C139.482 342.432 111.387 343.786 109.695 344.237C108.002 344.726 91.454 345.215 89.7616 343.184C88.1067 341.153 88.4076 338.37 88.8213 337.656C89.235 336.941 90.9651 333.631 91.1908 332.127C91.4165 330.623 98.3367 319.227 100.368 318.512" stroke="#3108F9" stroke-miterlimit="10" stroke-linecap="round" stroke-linejoin="round"/>
<path d="M99.3596 315.437C99.3596 315.437 95.7114 322.056 95.6738 324.2" stroke="#3108F9" stroke-miterlimit="10" stroke-linecap="round" stroke-linejoin="round"/>
<path d="M88.5595 341.539C88.5595 341.539 61.0666 343.27 52.7171 342.028C44.3677 340.787 26.7286 340.862 26.7286 340.862C26.7286 340.862 13.5275 336.312 13.4146 335.371C13.2642 334.431 12.6624 333.905 13.4146 332.889" stroke="#3108F9" stroke-miterlimit="10" stroke-linecap="round" stroke-linejoin="round"/>
<path d="M31.5237 321.135C31.5237 321.135 5.49756 343.4 -8.2301 330.124" stroke="#3108F9" stroke-miterlimit="10" stroke-linecap="round" stroke-linejoin="round"/>
<path d="M24.0907 339.941C24.0907 339.941 10.8144 342.386 4.34542 340.769C4.34542 340.769 1.03574 340.28 -1.33369 341.107C-3.66551 341.972 -14.9862 347.764 -15.9264 348.028C-16.8667 348.291 -19.9131 348.667 -21.079 346.974" stroke="#3108F9" stroke-miterlimit="10" stroke-linecap="round" stroke-linejoin="round"/>
<path d="M137.678 320.856C137.678 320.856 144.862 323.301 146.103 327.701" stroke="#3108F9" stroke-miterlimit="10" stroke-linecap="round" stroke-linejoin="round"/>
<path d="M156.825 329.534C156.825 329.534 158.104 326.977 164.911 327.691" stroke="#3108F9" stroke-miterlimit="10" stroke-linecap="round" stroke-linejoin="round"/>
<path d="M219.586 152.09C219.586 152.09 230.084 128.842 250.736 146.822" stroke="#3108F9" stroke-miterlimit="10" stroke-linecap="round" stroke-linejoin="round"/>
<path d="M244.59 149.075C251.843 145.83 261.806 142.624 268.677 148.235C273.449 152.129 275.09 158.924 272.8 164.611C272.8 164.611 270.7 174.842 252.95 174.002" stroke="#3108F9" stroke-miterlimit="10" stroke-linecap="round" stroke-linejoin="round"/>
<path d="M254.591 169.381C254.591 169.381 253.904 174.382 249.018 177.703C242.147 182.322 232.68 180.337 228.214 173.351C227.221 171.786 226.343 169.839 225.77 167.511" stroke="#3108F9" stroke-miterlimit="10" stroke-linecap="round" stroke-linejoin="round"/>
<path d="M224.74 153.847C224.74 153.847 213.937 148.006 208.058 156.863C204.661 162.016 205.5 168.964 210.348 172.781C213.746 175.453 219.09 176.636 227.145 171.483" stroke="#3108F9" stroke-miterlimit="10" stroke-linecap="round" stroke-linejoin="round"/>
<path d="M141.625 65.4469C141.625 65.4469 156.78 31.8926 186.555 57.8504" stroke="#3108F9" stroke-miterlimit="10" stroke-linecap="round" stroke-linejoin="round"/>
<path d="M177.661 61.0947C188.12 56.3994 202.473 51.7804 212.398 59.9113C219.269 65.561 221.674 75.3333 218.315 83.5406C218.315 83.5406 215.299 98.2755 189.685 97.0921" stroke="#3108F9" stroke-miterlimit="10" stroke-linecap="round" stroke-linejoin="round"/>
<path d="M192.052 90.3738C192.052 90.3738 191.098 97.5885 184.036 102.36C174.149 109.041 160.483 106.178 154.032 96.0998C152.581 93.8094 151.321 91.0609 150.52 87.7017" stroke="#3108F9" stroke-miterlimit="10" stroke-linecap="round" stroke-linejoin="round"/>
<path d="M149.031 67.9269C149.031 67.9269 133.456 59.5287 124.982 72.2786C120.057 79.6842 121.279 89.7238 128.303 95.2208C133.227 99.0763 140.938 100.756 152.543 93.3885" stroke="#3108F9" stroke-miterlimit="10" stroke-linecap="round" stroke-linejoin="round"/>
</g>
</svg>
