<svg width="360" height="360" viewBox="0 0 360 360" fill="none" xmlns="http://www.w3.org/2000/svg">
<rect width="360" height="360" rx="20" fill="white"/>
<path fill-rule="evenodd" clip-rule="evenodd" d="M25.5099 40.2369V28.5203H40.6492V33.9645H30.9163V40.2369H25.5099Z" fill="black"/>
<path fill-rule="evenodd" clip-rule="evenodd" d="M44.222 40.2435V28.5359H59.3472V33.9549H49.657V40.2418L44.222 40.2435Z" fill="black"/>
<path fill-rule="evenodd" clip-rule="evenodd" d="M44.228 43.4094H49.6574V49.6897H59.3275V55.0971H44.228V43.4094Z" fill="black"/>
<path fill-rule="evenodd" clip-rule="evenodd" d="M62.9882 55.1232V43.4014H68.4055V49.6937H78.0983V55.116L62.9882 55.1232Z" fill="black"/>
<path fill-rule="evenodd" clip-rule="evenodd" d="M25.5038 49.6911H35.1821V43.3782H40.634V55.1153H25.5038V49.6911Z" fill="black"/>
<path fill-rule="evenodd" clip-rule="evenodd" d="M94.4322 33.8722L92.6828 34.1077C92.4977 33.3003 91.7576 32.8124 90.7146 32.8124C89.8735 32.8124 89.167 33.1152 89.167 33.6703C89.167 34.1918 89.6717 34.4778 90.4455 34.646L91.4211 34.8479C93.1033 35.218 94.5332 35.689 94.5332 37.3039C94.5332 39.0533 92.8846 40.0122 90.9333 40.0122C88.7633 40.0122 87.3671 38.7842 87.1989 37.287L89.0156 37.0179C89.167 37.9094 89.8062 38.5991 91.0006 38.5991C92.0267 38.5991 92.6996 38.2291 92.6996 37.5562C92.6996 36.8833 91.9762 36.6478 91.1183 36.4628L90.0249 36.2273C88.5782 35.9245 87.4007 35.3357 87.4007 33.7881C87.4007 32.3078 88.9651 31.3994 90.8492 31.3994C92.5818 31.3994 94.1126 32.2573 94.4322 33.8722ZM99.6638 40.0122C96.9219 40.0122 95.5425 38.1113 95.5425 35.7058C95.5425 33.1657 97.1742 31.3994 99.6134 31.3994C102.238 31.3994 103.768 33.4012 103.617 36.2609H97.4265C97.4602 37.6235 98.3685 38.515 99.6302 38.515C100.808 38.515 101.396 37.9599 101.682 37.2198L103.482 37.4553C103.095 38.6832 101.901 40.0122 99.6638 40.0122ZM99.6302 32.8293C98.5368 32.8293 97.4938 33.4517 97.4265 34.8815H101.716C101.666 33.6199 100.757 32.8293 99.6302 32.8293ZM106.981 31.5676V32.5938C107.452 31.8536 108.344 31.3994 109.521 31.3994C110.581 31.3994 111.372 31.7527 111.843 32.4255C112.196 32.947 112.381 33.6535 112.381 34.7133V39.8103H110.514V35.1843C110.514 34.3096 110.43 33.704 110.06 33.3339C109.824 33.0984 109.437 32.947 108.933 32.947C107.503 32.947 106.981 34.0236 106.981 35.5376V39.8103H105.114V31.5676H106.981ZM120.96 33.8722L119.211 34.1077C119.026 33.3003 118.286 32.8124 117.243 32.8124C116.402 32.8124 115.695 33.1152 115.695 33.6703C115.695 34.1918 116.2 34.4778 116.973 34.646L117.949 34.8479C119.631 35.218 121.061 35.689 121.061 37.3039C121.061 39.0533 119.413 40.0122 117.461 40.0122C115.291 40.0122 113.895 38.7842 113.727 37.287L115.544 37.0179C115.695 37.9094 116.334 38.5991 117.529 38.5991C118.555 38.5991 119.228 38.2291 119.228 37.5562C119.228 36.8833 118.504 36.6478 117.646 36.4628L116.553 36.2273C115.106 35.9245 113.929 35.3357 113.929 33.7881C113.929 32.3078 115.493 31.3994 117.377 31.3994C119.11 31.3994 120.641 32.2573 120.96 33.8722ZM126.192 40.0122C123.45 40.0122 122.07 38.1113 122.07 35.7058C122.07 33.1657 123.702 31.3994 126.141 31.3994C128.766 31.3994 130.296 33.4012 130.145 36.2609H123.955C123.988 37.6235 124.897 38.515 126.158 38.515C127.336 38.515 127.924 37.9599 128.21 37.2198L130.01 37.4553C129.623 38.6832 128.429 40.0122 126.192 40.0122ZM126.158 32.8293C125.065 32.8293 124.022 33.4517 123.955 34.8815H128.244C128.194 33.6199 127.285 32.8293 126.158 32.8293ZM133.173 34.1245L131.44 34.0741C131.558 32.4424 132.887 31.3658 135.057 31.3658C137.446 31.3658 138.472 32.2237 138.472 34.5283C138.472 35.0666 138.438 36.4459 138.438 36.9001C138.438 37.9599 138.489 38.8178 138.606 39.8103H136.857L136.806 38.8178C136.285 39.5916 135.477 40.0122 134.132 40.0122C132.231 40.0122 131.154 38.7337 131.154 37.3207C131.154 36.5132 131.524 35.9076 132.063 35.5376C132.803 35.0329 133.812 34.8311 135.074 34.6797L136.621 34.5114V34.2255C136.621 33.0984 135.948 32.762 134.956 32.762C133.896 32.762 133.257 33.2498 133.173 34.1245ZM136.689 36.3787V35.874L135.124 36.0422C133.711 36.1936 133.089 36.5805 133.089 37.3375C133.089 38.044 133.644 38.5487 134.535 38.5487C135.629 38.5487 136.689 37.9263 136.689 36.3787ZM140.389 39.8103V28.6406H142.257V32.5433C142.778 31.8031 143.552 31.3994 144.662 31.3994C146.714 31.3994 148.195 33.0143 148.195 35.7226C148.195 38.3636 146.63 40.0122 144.528 40.0122C143.451 40.0122 142.677 39.558 142.223 38.9692L142.189 39.8103H140.389ZM144.275 32.8965C143.047 32.8965 142.173 33.8722 142.173 35.7226C142.173 37.5394 143.03 38.515 144.275 38.515C145.571 38.515 146.277 37.4048 146.277 35.7058C146.277 34.0068 145.587 32.8965 144.275 32.8965ZM151.593 28.6406V39.8103H149.726V28.6406H151.593ZM157.228 40.0122C154.486 40.0122 153.107 38.1113 153.107 35.7058C153.107 33.1657 154.738 31.3994 157.178 31.3994C159.802 31.3994 161.333 33.4012 161.181 36.2609H154.991C155.024 37.6235 155.933 38.515 157.194 38.515C158.372 38.515 158.961 37.9599 159.247 37.2198L161.047 37.4553C160.66 38.6832 159.465 40.0122 157.228 40.0122ZM157.194 32.8293C156.101 32.8293 155.058 33.4517 154.991 34.8815H159.28C159.23 33.6199 158.321 32.8293 157.194 32.8293Z" fill="black"/>
<path fill-rule="evenodd" clip-rule="evenodd" d="M91.3202 46.4809C93.1874 46.4809 94.6677 47.5744 95.021 49.307L93.2211 49.5593C93.0528 48.6678 92.38 47.9781 91.2697 47.9781C90.0586 47.9781 89.1502 48.9033 89.1502 50.7705C89.1502 52.6546 90.0754 53.5966 91.2697 53.5966C92.2117 53.5966 93.036 53.1256 93.2715 51.9985L95.0883 52.234C94.6677 54.0676 93.0865 55.0937 91.2361 55.0937C88.696 55.0937 87.2325 53.2938 87.2325 50.7873C87.2325 48.2809 88.7296 46.4809 91.3202 46.4809ZM96.5013 46.6492H98.3685V54.8919H96.5013V46.6492ZM96.5013 43.7222H98.3685V45.6062H96.5013V43.7222ZM100.707 46.6492V44.2605H102.574V46.6492H104.256V48.079H102.574V52.3518C102.574 53.2097 102.776 53.4115 103.566 53.4115H104.239V54.8919H102.877C101.077 54.8919 100.707 54.404 100.707 52.6882V48.079H99.4619V46.6492H100.707ZM106.207 57.802H105.366V56.2376H106.073C106.88 56.2376 107.217 56.1367 107.604 55.0432L107.688 54.8414L104.643 46.6492H106.679L108.579 52.52L110.497 46.6492H112.398L109.437 54.875C108.647 57.045 108.092 57.802 106.207 57.802ZM118.908 43.7222V54.8919H117.041V43.7222H118.908ZM122.508 49.2061L120.775 49.1556C120.893 47.5239 122.222 46.4473 124.392 46.4473C126.781 46.4473 127.807 47.3052 127.807 49.6098C127.807 50.1481 127.773 51.5275 127.773 51.9817C127.773 53.0415 127.824 53.8994 127.941 54.8919H126.192L126.141 53.8994C125.62 54.6732 124.812 55.0937 123.467 55.0937C121.566 55.0937 120.489 53.8153 120.489 52.4022C120.489 51.5948 120.859 50.9892 121.398 50.6191C122.138 50.1145 123.147 49.9126 124.409 49.7612L125.956 49.593V49.307C125.956 48.1799 125.283 47.8435 124.291 47.8435C123.231 47.8435 122.592 48.3313 122.508 49.2061ZM126.024 51.4602V50.9555L124.459 51.1238C123.046 51.2752 122.424 51.6621 122.424 52.419C122.424 53.1256 122.979 53.6302 123.87 53.6302C124.964 53.6302 126.024 53.0078 126.024 51.4602ZM129.724 54.8919V43.7222H131.592V47.6248C132.113 46.8847 132.887 46.4809 133.997 46.4809C136.049 46.4809 137.53 48.0958 137.53 50.8042C137.53 53.4452 135.965 55.0937 133.863 55.0937C132.786 55.0937 132.012 54.6395 131.558 54.0508L131.524 54.8919H129.724ZM133.61 47.9781C132.382 47.9781 131.507 48.9538 131.507 50.8042C131.507 52.6209 132.365 53.5966 133.61 53.5966C134.906 53.5966 135.612 52.4863 135.612 50.7873C135.612 49.0883 134.922 47.9781 133.61 47.9781ZM140.642 54.8919H138.522V52.7723H140.642V54.8919Z" fill="black"/>
<path d="M41.94 225.192C41.94 225.901 42.1313 226.452 42.514 226.844C42.8967 227.227 43.382 227.418 43.97 227.418C44.6327 227.418 45.1227 227.241 45.44 226.886C45.7573 226.522 45.916 225.967 45.916 225.22H47.89C47.89 226.041 47.722 226.751 47.386 227.348C47.0593 227.936 46.6067 228.384 46.028 228.692C45.4493 228.991 44.796 229.14 44.068 229.14H43.872C43.0693 229.14 42.3507 228.977 41.716 228.65C41.0813 228.323 40.582 227.843 40.218 227.208C39.854 226.564 39.672 225.789 39.672 224.884V223.512C39.672 222.635 39.854 221.874 40.218 221.23C40.582 220.586 41.0767 220.096 41.702 219.76C42.3367 219.424 43.0413 219.256 43.816 219.256H44.012C44.7587 219.256 45.4213 219.405 46 219.704C46.588 219.993 47.05 220.437 47.386 221.034C47.722 221.622 47.89 222.345 47.89 223.204H45.832C45.832 222.476 45.6687 221.925 45.342 221.552C45.0247 221.169 44.5627 220.978 43.956 220.978C43.368 220.978 42.8827 221.174 42.5 221.566C42.1267 221.949 41.94 222.495 41.94 223.204V225.192ZM55.8226 225.626C55.8226 226.345 55.6686 226.97 55.3606 227.502C55.062 228.034 54.6466 228.44 54.1146 228.72C53.5826 229 52.9853 229.14 52.3226 229.14H52.0986C51.436 229.14 50.8386 229 50.3066 228.72C49.7746 228.44 49.3546 228.034 49.0466 227.502C48.748 226.97 48.5986 226.345 48.5986 225.626V225.22C48.5986 224.501 48.748 223.876 49.0466 223.344C49.3546 222.812 49.7746 222.406 50.3066 222.126C50.8386 221.846 51.436 221.706 52.0986 221.706H52.3226C52.9853 221.706 53.5826 221.846 54.1146 222.126C54.6466 222.406 55.062 222.812 55.3606 223.344C55.6686 223.876 55.8226 224.501 55.8226 225.22V225.626ZM53.7506 224.856C53.7506 224.287 53.606 223.853 53.3166 223.554C53.0366 223.255 52.668 223.106 52.2106 223.106C51.7533 223.106 51.38 223.255 51.0906 223.554C50.8106 223.853 50.6706 224.287 50.6706 224.856V225.99C50.6706 226.559 50.8106 226.993 51.0906 227.292C51.38 227.591 51.7533 227.74 52.2106 227.74C52.668 227.74 53.0366 227.591 53.3166 227.292C53.606 226.993 53.7506 226.559 53.7506 225.99V224.856ZM63.2925 227.32C63.2925 227.46 63.3345 227.567 63.4185 227.642C63.5025 227.707 63.5958 227.74 63.6985 227.74C63.7918 227.74 63.8945 227.721 64.0065 227.684C64.1185 227.647 64.2072 227.614 64.2725 227.586V228.846C63.9272 229.042 63.5165 229.14 63.0405 229.14C62.1072 229.14 61.5658 228.799 61.4165 228.118C60.8285 228.799 60.1098 229.14 59.2605 229.14C58.5325 229.14 57.9305 228.944 57.4545 228.552C56.9878 228.16 56.7545 227.591 56.7545 226.844V221.846H58.7985V226.396C58.7985 226.76 58.9012 227.063 59.1065 227.306C59.3212 227.539 59.5918 227.656 59.9185 227.656C60.2825 227.656 60.5952 227.521 60.8565 227.25C61.1178 226.97 61.2485 226.634 61.2485 226.242V221.846H63.2925V227.32ZM64.7948 229V218.92H66.8388V229H64.7948ZM72.8069 228.104C72.2843 228.795 71.6123 229.14 70.7909 229.14C70.2309 229.14 69.7269 229.005 69.2789 228.734C68.8309 228.463 68.4763 228.053 68.2149 227.502C67.9536 226.951 67.8229 226.27 67.8229 225.458V225.304C67.8229 224.529 67.9443 223.871 68.1869 223.33C68.4296 222.789 68.7563 222.383 69.1669 222.112C69.5869 221.841 70.0583 221.706 70.5809 221.706C71.0289 221.706 71.4209 221.799 71.7569 221.986C72.1023 222.173 72.3776 222.401 72.5829 222.672V218.92H74.6269V229H73.0169L72.8069 228.104ZM69.8949 226.046C69.8949 226.587 70.0209 227.007 70.2729 227.306C70.5249 227.595 70.8469 227.74 71.2389 227.74C71.6309 227.74 71.9529 227.595 72.2049 227.306C72.4569 227.007 72.5829 226.587 72.5829 226.046V224.884C72.5829 224.333 72.4569 223.913 72.2049 223.624C71.9529 223.335 71.6309 223.19 71.2389 223.19C70.8469 223.19 70.5249 223.335 70.2729 223.624C70.0209 223.913 69.8949 224.333 69.8949 224.884V226.046ZM82.4033 220.348C82.2819 220.311 82.1326 220.278 81.9553 220.25C81.7779 220.213 81.6379 220.194 81.5353 220.194C81.3113 220.194 81.1199 220.25 80.9613 220.362C80.8119 220.474 80.7373 220.698 80.7373 221.034V221.846H82.4033V223.246H80.7373V229H78.6933V223.246H77.8533V221.846H78.6933V220.908C78.6933 219.508 79.4119 218.808 80.8493 218.808C81.0826 218.808 81.3533 218.836 81.6613 218.892C81.9693 218.948 82.2166 219.018 82.4033 219.102V220.348ZM89.5892 226.326C89.5892 226.951 89.4399 227.479 89.1412 227.908C88.8426 228.328 88.4459 228.641 87.9512 228.846C87.4659 229.042 86.9339 229.14 86.3552 229.14H86.1312C85.4686 229.14 84.8712 229 84.3392 228.72C83.8072 228.44 83.3872 228.039 83.0792 227.516C82.7806 226.984 82.6312 226.354 82.6312 225.626V225.22C82.6312 224.501 82.7852 223.876 83.0932 223.344C83.4012 222.812 83.8166 222.406 84.3392 222.126C84.8712 221.846 85.4686 221.706 86.1312 221.706H86.3552C86.9339 221.706 87.4706 221.827 87.9652 222.07C88.4599 222.303 88.8566 222.649 89.1552 223.106C89.4539 223.554 89.6032 224.086 89.6032 224.702V225.766H84.7032V226.102C84.7032 226.569 84.8386 226.961 85.1092 227.278C85.3892 227.586 85.7672 227.74 86.2432 227.74C86.6726 227.74 87.0086 227.623 87.2512 227.39C87.5032 227.147 87.6292 226.793 87.6292 226.326H89.5892ZM86.1452 223.106C85.7346 223.106 85.3986 223.251 85.1372 223.54C84.8852 223.829 84.7406 224.198 84.7032 224.646H87.5312C87.5312 224.17 87.4192 223.797 87.1952 223.526C86.9806 223.246 86.6306 223.106 86.1452 223.106ZM94.433 221.706C94.8903 221.706 95.301 221.804 95.665 222C96.029 222.196 96.309 222.481 96.505 222.854C96.9903 222.089 97.6857 221.706 98.591 221.706C99.263 221.706 99.8183 221.911 100.257 222.322C100.705 222.723 100.929 223.283 100.929 224.002V229H98.885V224.408C98.885 224.016 98.801 223.717 98.633 223.512C98.465 223.297 98.2317 223.19 97.933 223.19C97.6063 223.19 97.331 223.321 97.107 223.582C96.883 223.843 96.771 224.17 96.771 224.562V229H94.727V224.408C94.727 224.025 94.6383 223.727 94.461 223.512C94.293 223.297 94.0597 223.19 93.761 223.19C93.4343 223.19 93.159 223.321 92.935 223.582C92.7203 223.843 92.613 224.17 92.613 224.562V229H90.569V221.846H92.109C92.165 222.079 92.2397 222.429 92.333 222.896C92.585 222.495 92.8883 222.196 93.243 222C93.607 221.804 94.0037 221.706 94.433 221.706ZM106.573 224.17C106.573 223.853 106.47 223.596 106.265 223.4C106.069 223.204 105.747 223.106 105.299 223.106C105.037 223.106 104.813 223.153 104.627 223.246C104.44 223.33 104.295 223.437 104.193 223.568C104.099 223.699 104.053 223.82 104.053 223.932V224.044H102.079C102.06 223.932 102.051 223.848 102.051 223.792C102.051 223.391 102.181 223.031 102.443 222.714C102.713 222.397 103.087 222.149 103.563 221.972C104.039 221.795 104.585 221.706 105.201 221.706H105.495C106.503 221.706 107.268 221.907 107.791 222.308C108.313 222.7 108.575 223.241 108.575 223.932V227.236C108.575 227.404 108.612 227.53 108.687 227.614C108.771 227.698 108.869 227.74 108.981 227.74C109.074 227.74 109.177 227.721 109.289 227.684C109.401 227.647 109.489 227.614 109.555 227.586V228.846C109.209 229.042 108.799 229.14 108.323 229.14C107.809 229.14 107.417 229.037 107.147 228.832C106.876 228.617 106.717 228.319 106.671 227.936C106.017 228.739 105.215 229.14 104.263 229.14C103.553 229.14 102.97 228.995 102.513 228.706C102.055 228.417 101.827 227.866 101.827 227.054C101.827 226.391 102.013 225.887 102.387 225.542C102.769 225.187 103.297 224.949 103.969 224.828C104.641 224.707 105.509 224.646 106.573 224.646V224.17ZM106.573 225.794C105.686 225.794 105.023 225.883 104.585 226.06C104.155 226.228 103.941 226.508 103.941 226.9C103.941 227.208 104.025 227.427 104.193 227.558C104.37 227.679 104.636 227.74 104.991 227.74C105.233 227.74 105.476 227.675 105.719 227.544C105.961 227.413 106.162 227.227 106.321 226.984C106.489 226.741 106.573 226.471 106.573 226.172V225.794ZM109.998 229V218.92H112.042V229H109.998ZM119.984 226.326C119.984 226.951 119.835 227.479 119.536 227.908C119.237 228.328 118.841 228.641 118.346 228.846C117.861 229.042 117.329 229.14 116.75 229.14H116.526C115.863 229.14 115.266 229 114.734 228.72C114.202 228.44 113.782 228.039 113.474 227.516C113.175 226.984 113.026 226.354 113.026 225.626V225.22C113.026 224.501 113.18 223.876 113.488 223.344C113.796 222.812 114.211 222.406 114.734 222.126C115.266 221.846 115.863 221.706 116.526 221.706H116.75C117.329 221.706 117.865 221.827 118.36 222.07C118.855 222.303 119.251 222.649 119.55 223.106C119.849 223.554 119.998 224.086 119.998 224.702V225.766H115.098V226.102C115.098 226.569 115.233 226.961 115.504 227.278C115.784 227.586 116.162 227.74 116.638 227.74C117.067 227.74 117.403 227.623 117.646 227.39C117.898 227.147 118.024 226.793 118.024 226.326H119.984ZM116.54 223.106C116.129 223.106 115.793 223.251 115.532 223.54C115.28 223.829 115.135 224.198 115.098 224.646H117.926C117.926 224.17 117.814 223.797 117.59 223.526C117.375 223.246 117.025 223.106 116.54 223.106ZM123.48 229V218.92H125.524V229H123.48ZM133.466 226.326C133.466 226.951 133.317 227.479 133.018 227.908C132.719 228.328 132.323 228.641 131.828 228.846C131.343 229.042 130.811 229.14 130.232 229.14H130.008C129.345 229.14 128.748 229 128.216 228.72C127.684 228.44 127.264 228.039 126.956 227.516C126.657 226.984 126.508 226.354 126.508 225.626V225.22C126.508 224.501 126.662 223.876 126.97 223.344C127.278 222.812 127.693 222.406 128.216 222.126C128.748 221.846 129.345 221.706 130.008 221.706H130.232C130.811 221.706 131.347 221.827 131.842 222.07C132.337 222.303 132.733 222.649 133.032 223.106C133.331 223.554 133.48 224.086 133.48 224.702V225.766H128.58V226.102C128.58 226.569 128.715 226.961 128.986 227.278C129.266 227.586 129.644 227.74 130.12 227.74C130.549 227.74 130.885 227.623 131.128 227.39C131.38 227.147 131.506 226.793 131.506 226.326H133.466ZM130.022 223.106C129.611 223.106 129.275 223.251 129.014 223.54C128.762 223.829 128.617 224.198 128.58 224.646H131.408C131.408 224.17 131.296 223.797 131.072 223.526C130.857 223.246 130.507 223.106 130.022 223.106ZM138.828 224.17C138.828 223.853 138.725 223.596 138.52 223.4C138.324 223.204 138.002 223.106 137.554 223.106C137.293 223.106 137.069 223.153 136.882 223.246C136.695 223.33 136.551 223.437 136.448 223.568C136.355 223.699 136.308 223.82 136.308 223.932V224.044H134.334C134.315 223.932 134.306 223.848 134.306 223.792C134.306 223.391 134.437 223.031 134.698 222.714C134.969 222.397 135.342 222.149 135.818 221.972C136.294 221.795 136.84 221.706 137.456 221.706H137.75C138.758 221.706 139.523 221.907 140.046 222.308C140.569 222.7 140.83 223.241 140.83 223.932V227.236C140.83 227.404 140.867 227.53 140.942 227.614C141.026 227.698 141.124 227.74 141.236 227.74C141.329 227.74 141.432 227.721 141.544 227.684C141.656 227.647 141.745 227.614 141.81 227.586V228.846C141.465 229.042 141.054 229.14 140.578 229.14C140.065 229.14 139.673 229.037 139.402 228.832C139.131 228.617 138.973 228.319 138.926 227.936C138.273 228.739 137.47 229.14 136.518 229.14C135.809 229.14 135.225 228.995 134.768 228.706C134.311 228.417 134.082 227.866 134.082 227.054C134.082 226.391 134.269 225.887 134.642 225.542C135.025 225.187 135.552 224.949 136.224 224.828C136.896 224.707 137.764 224.646 138.828 224.646V224.17ZM138.828 225.794C137.941 225.794 137.279 225.883 136.84 226.06C136.411 226.228 136.196 226.508 136.196 226.9C136.196 227.208 136.28 227.427 136.448 227.558C136.625 227.679 136.891 227.74 137.246 227.74C137.489 227.74 137.731 227.675 137.974 227.544C138.217 227.413 138.417 227.227 138.576 226.984C138.744 226.741 138.828 226.471 138.828 226.172V225.794ZM146.915 228.104C146.392 228.795 145.72 229.14 144.899 229.14C144.339 229.14 143.835 229.005 143.387 228.734C142.939 228.463 142.584 228.053 142.323 227.502C142.062 226.951 141.931 226.27 141.931 225.458V225.304C141.931 224.529 142.052 223.871 142.295 223.33C142.538 222.789 142.864 222.383 143.275 222.112C143.695 221.841 144.166 221.706 144.689 221.706C145.137 221.706 145.529 221.799 145.865 221.986C146.21 222.173 146.486 222.401 146.691 222.672V218.92H148.735V229H147.125L146.915 228.104ZM144.003 226.046C144.003 226.587 144.129 227.007 144.381 227.306C144.633 227.595 144.955 227.74 145.347 227.74C145.739 227.74 146.061 227.595 146.313 227.306C146.565 227.007 146.691 226.587 146.691 226.046V224.884C146.691 224.333 146.565 223.913 146.313 223.624C146.061 223.335 145.739 223.19 145.347 223.19C144.955 223.19 144.633 223.335 144.381 223.624C144.129 223.913 144.003 224.333 144.003 224.884V226.046ZM156.655 226.326C156.655 226.951 156.506 227.479 156.207 227.908C155.909 228.328 155.512 228.641 155.017 228.846C154.532 229.042 154 229.14 153.421 229.14H153.197C152.535 229.14 151.937 229 151.405 228.72C150.873 228.44 150.453 228.039 150.145 227.516C149.847 226.984 149.697 226.354 149.697 225.626V225.22C149.697 224.501 149.851 223.876 150.159 223.344C150.467 222.812 150.883 222.406 151.405 222.126C151.937 221.846 152.535 221.706 153.197 221.706H153.421C154 221.706 154.537 221.827 155.031 222.07C155.526 222.303 155.923 222.649 156.221 223.106C156.52 223.554 156.669 224.086 156.669 224.702V225.766H151.769V226.102C151.769 226.569 151.905 226.961 152.175 227.278C152.455 227.586 152.833 227.74 153.309 227.74C153.739 227.74 154.075 227.623 154.317 227.39C154.569 227.147 154.695 226.793 154.695 226.326H156.655ZM153.211 223.106C152.801 223.106 152.465 223.251 152.203 223.54C151.951 223.829 151.807 224.198 151.769 224.646H154.597C154.597 224.17 154.485 223.797 154.261 223.526C154.047 223.246 153.697 223.106 153.211 223.106ZM161.653 224.296C161.653 224.007 161.574 223.759 161.415 223.554C161.256 223.339 161.004 223.232 160.659 223.232C160.332 223.232 160.08 223.363 159.903 223.624C159.735 223.876 159.651 224.193 159.651 224.576V229H157.635V221.846H159.147L159.399 222.896C159.436 222.793 159.53 222.649 159.679 222.462C159.838 222.275 160.062 222.103 160.351 221.944C160.65 221.785 161 221.706 161.401 221.706C162.045 221.706 162.54 221.907 162.885 222.308C163.24 222.709 163.417 223.241 163.417 223.904C163.417 224.044 163.408 224.184 163.389 224.324C163.38 224.464 163.37 224.562 163.361 224.618H161.653V224.296ZM165.213 226.816C165.213 227.143 165.357 227.381 165.647 227.53C165.936 227.67 166.295 227.74 166.725 227.74C167.098 227.74 167.429 227.684 167.719 227.572C168.017 227.46 168.167 227.283 168.167 227.04C168.167 226.779 168.031 226.592 167.761 226.48C167.49 226.368 167.07 226.27 166.501 226.186C165.903 226.083 165.413 225.971 165.031 225.85C164.648 225.729 164.317 225.519 164.037 225.22C163.766 224.921 163.631 224.506 163.631 223.974C163.631 223.489 163.771 223.078 164.051 222.742C164.34 222.397 164.718 222.14 165.185 221.972C165.661 221.795 166.179 221.706 166.739 221.706H167.019C167.513 221.706 167.98 221.79 168.419 221.958C168.867 222.117 169.226 222.345 169.497 222.644C169.767 222.933 169.903 223.265 169.903 223.638C169.903 223.713 169.898 223.783 169.889 223.848C169.879 223.904 169.875 223.937 169.875 223.946H168.083C168.083 223.386 167.653 223.106 166.795 223.106C166.403 223.106 166.085 223.162 165.843 223.274C165.609 223.386 165.493 223.54 165.493 223.736C165.493 223.969 165.619 224.133 165.871 224.226C166.132 224.319 166.538 224.408 167.089 224.492C167.714 224.595 168.218 224.707 168.601 224.828C168.993 224.94 169.333 225.15 169.623 225.458C169.912 225.757 170.057 226.181 170.057 226.732C170.057 227.581 169.758 228.197 169.161 228.58C168.563 228.953 167.803 229.14 166.879 229.14H166.417C165.838 229.14 165.32 229.051 164.863 228.874C164.405 228.697 164.046 228.445 163.785 228.118C163.533 227.791 163.407 227.418 163.407 226.998L163.421 226.718H165.213V226.816ZM175.472 222.546C176.013 221.986 176.676 221.706 177.46 221.706C178.188 221.706 178.785 221.902 179.252 222.294C179.728 222.686 179.966 223.255 179.966 224.002V229H177.922V224.45C177.922 224.086 177.814 223.787 177.6 223.554C177.394 223.311 177.128 223.19 176.802 223.19C176.438 223.19 176.125 223.33 175.864 223.61C175.602 223.881 175.472 224.212 175.472 224.604V229H173.428V218.92H175.472V222.546ZM187.871 226.326C187.871 226.951 187.722 227.479 187.423 227.908C187.124 228.328 186.728 228.641 186.233 228.846C185.748 229.042 185.216 229.14 184.637 229.14H184.413C183.75 229.14 183.153 229 182.621 228.72C182.089 228.44 181.669 228.039 181.361 227.516C181.062 226.984 180.913 226.354 180.913 225.626V225.22C180.913 224.501 181.067 223.876 181.375 223.344C181.683 222.812 182.098 222.406 182.621 222.126C183.153 221.846 183.75 221.706 184.413 221.706H184.637C185.216 221.706 185.752 221.827 186.247 222.07C186.742 222.303 187.138 222.649 187.437 223.106C187.736 223.554 187.885 224.086 187.885 224.702V225.766H182.985V226.102C182.985 226.569 183.12 226.961 183.391 227.278C183.671 227.586 184.049 227.74 184.525 227.74C184.954 227.74 185.29 227.623 185.533 227.39C185.785 227.147 185.911 226.793 185.911 226.326H187.871ZM184.427 223.106C184.016 223.106 183.68 223.251 183.419 223.54C183.167 223.829 183.022 224.198 182.985 224.646H185.813C185.813 224.17 185.701 223.797 185.477 223.526C185.262 223.246 184.912 223.106 184.427 223.106ZM188.851 229V218.92H190.895V229H188.851ZM194.021 222.742C194.543 222.051 195.215 221.706 196.037 221.706C196.597 221.706 197.101 221.841 197.549 222.112C197.997 222.383 198.351 222.793 198.613 223.344C198.874 223.895 199.005 224.576 199.005 225.388V225.542C199.005 226.317 198.883 226.975 198.641 227.516C198.398 228.057 198.067 228.463 197.647 228.734C197.236 229.005 196.769 229.14 196.247 229.14C195.799 229.14 195.402 229.047 195.057 228.86C194.721 228.673 194.45 228.445 194.245 228.174V231.534H192.201V221.846H193.811L194.021 222.742ZM196.933 224.8C196.933 224.249 196.807 223.829 196.555 223.54C196.303 223.251 195.981 223.106 195.589 223.106C195.197 223.106 194.875 223.251 194.623 223.54C194.371 223.829 194.245 224.249 194.245 224.8V225.962C194.245 226.503 194.371 226.923 194.623 227.222C194.875 227.511 195.197 227.656 195.589 227.656C195.981 227.656 196.303 227.511 196.555 227.222C196.807 226.923 196.933 226.503 196.933 225.962V224.8ZM206.361 228.874C206.174 228.949 205.927 229.009 205.619 229.056C205.32 229.112 205.054 229.14 204.821 229.14C204.102 229.14 203.561 228.986 203.197 228.678C202.833 228.37 202.651 227.857 202.651 227.138V223.246H201.867V221.846H202.721L203.435 219.564H204.695V221.846H206.361V223.246H204.695V226.788C204.695 227.161 204.765 227.413 204.905 227.544C205.054 227.675 205.25 227.74 205.493 227.74C205.605 227.74 205.75 227.721 205.927 227.684C206.104 227.647 206.249 227.605 206.361 227.558V228.874ZM214.02 225.626C214.02 226.345 213.866 226.97 213.558 227.502C213.26 228.034 212.844 228.44 212.312 228.72C211.78 229 211.183 229.14 210.52 229.14H210.296C209.634 229.14 209.036 229 208.504 228.72C207.972 228.44 207.552 228.034 207.244 227.502C206.946 226.97 206.796 226.345 206.796 225.626V225.22C206.796 224.501 206.946 223.876 207.244 223.344C207.552 222.812 207.972 222.406 208.504 222.126C209.036 221.846 209.634 221.706 210.296 221.706H210.52C211.183 221.706 211.78 221.846 212.312 222.126C212.844 222.406 213.26 222.812 213.558 223.344C213.866 223.876 214.02 224.501 214.02 225.22V225.626ZM211.948 224.856C211.948 224.287 211.804 223.853 211.514 223.554C211.234 223.255 210.866 223.106 210.408 223.106C209.951 223.106 209.578 223.255 209.288 223.554C209.008 223.853 208.868 224.287 208.868 224.856V225.99C208.868 226.559 209.008 226.993 209.288 227.292C209.578 227.591 209.951 227.74 210.408 227.74C210.866 227.74 211.234 227.591 211.514 227.292C211.804 226.993 211.948 226.559 211.948 225.99V224.856ZM221.472 220.348C221.351 220.311 221.202 220.278 221.024 220.25C220.847 220.213 220.707 220.194 220.604 220.194C220.38 220.194 220.189 220.25 220.03 220.362C219.881 220.474 219.806 220.698 219.806 221.034V221.846H221.472V223.246H219.806V229H217.762V223.246H216.922V221.846H217.762V220.908C217.762 219.508 218.481 218.808 219.918 218.808C220.152 218.808 220.422 218.836 220.73 218.892C221.038 218.948 221.286 219.018 221.472 219.102V220.348ZM222.564 218.92H224.636V220.53H222.564V218.92ZM222.578 229V221.846H224.622V229H222.578ZM225.905 229V218.92H227.949V229H225.905ZM229.255 229V218.92H231.299V229H229.255ZM239 228.874C238.813 228.949 238.566 229.009 238.258 229.056C237.959 229.112 237.693 229.14 237.46 229.14C236.741 229.14 236.2 228.986 235.836 228.678C235.472 228.37 235.29 227.857 235.29 227.138V223.246H234.506V221.846H235.36L236.074 219.564H237.334V221.846H239V223.246H237.334V226.788C237.334 227.161 237.404 227.413 237.544 227.544C237.693 227.675 237.889 227.74 238.132 227.74C238.244 227.74 238.388 227.721 238.566 227.684C238.743 227.647 238.888 227.605 239 227.558V228.874ZM241.801 222.546C242.342 221.986 243.005 221.706 243.789 221.706C244.517 221.706 245.114 221.902 245.581 222.294C246.057 222.686 246.295 223.255 246.295 224.002V229H244.251V224.45C244.251 224.086 244.144 223.787 243.929 223.554C243.724 223.311 243.458 223.19 243.131 223.19C242.767 223.19 242.454 223.33 242.193 223.61C241.932 223.881 241.801 224.212 241.801 224.604V229H239.757V218.92H241.801V222.546ZM254.2 226.326C254.2 226.951 254.051 227.479 253.752 227.908C253.454 228.328 253.057 228.641 252.562 228.846C252.077 229.042 251.545 229.14 250.966 229.14H250.742C250.08 229.14 249.482 229 248.95 228.72C248.418 228.44 247.998 228.039 247.69 227.516C247.392 226.984 247.242 226.354 247.242 225.626V225.22C247.242 224.501 247.396 223.876 247.704 223.344C248.012 222.812 248.428 222.406 248.95 222.126C249.482 221.846 250.08 221.706 250.742 221.706H250.966C251.545 221.706 252.082 221.827 252.576 222.07C253.071 222.303 253.468 222.649 253.766 223.106C254.065 223.554 254.214 224.086 254.214 224.702V225.766H249.314V226.102C249.314 226.569 249.45 226.961 249.72 227.278C250 227.586 250.378 227.74 250.854 227.74C251.284 227.74 251.62 227.623 251.862 227.39C252.114 227.147 252.24 226.793 252.24 226.326H254.2ZM250.756 223.106C250.346 223.106 250.01 223.251 249.748 223.54C249.496 223.829 249.352 224.198 249.314 224.646H252.142C252.142 224.17 252.03 223.797 251.806 223.526C251.592 223.246 251.242 223.106 250.756 223.106ZM110.363 238.92H112.435V240.53H110.363V238.92ZM110.377 249V241.846H112.421V249H110.377ZM115.463 242.896C116.051 242.103 116.812 241.706 117.745 241.706C118.473 241.706 119.071 241.902 119.537 242.294C120.013 242.686 120.251 243.255 120.251 244.002V249H118.207V244.45C118.207 244.086 118.1 243.787 117.885 243.554C117.68 243.311 117.414 243.19 117.087 243.19C116.723 243.19 116.411 243.33 116.149 243.61C115.888 243.881 115.757 244.212 115.757 244.604V249H113.713V241.846H115.239L115.463 242.896ZM125.311 246.816C125.311 247.143 125.456 247.381 125.745 247.53C126.034 247.67 126.394 247.74 126.823 247.74C127.196 247.74 127.528 247.684 127.817 247.572C128.116 247.46 128.265 247.283 128.265 247.04C128.265 246.779 128.13 246.592 127.859 246.48C127.588 246.368 127.168 246.27 126.599 246.186C126.002 246.083 125.512 245.971 125.129 245.85C124.746 245.729 124.415 245.519 124.135 245.22C123.864 244.921 123.729 244.506 123.729 243.974C123.729 243.489 123.869 243.078 124.149 242.742C124.438 242.397 124.816 242.14 125.283 241.972C125.759 241.795 126.277 241.706 126.837 241.706H127.117C127.612 241.706 128.078 241.79 128.517 241.958C128.965 242.117 129.324 242.345 129.595 242.644C129.866 242.933 130.001 243.265 130.001 243.638C130.001 243.713 129.996 243.783 129.987 243.848C129.978 243.904 129.973 243.937 129.973 243.946H128.181C128.181 243.386 127.752 243.106 126.893 243.106C126.501 243.106 126.184 243.162 125.941 243.274C125.708 243.386 125.591 243.54 125.591 243.736C125.591 243.969 125.717 244.133 125.969 244.226C126.23 244.319 126.636 244.408 127.187 244.492C127.812 244.595 128.316 244.707 128.699 244.828C129.091 244.94 129.432 245.15 129.721 245.458C130.01 245.757 130.155 246.181 130.155 246.732C130.155 247.581 129.856 248.197 129.259 248.58C128.662 248.953 127.901 249.14 126.977 249.14H126.515C125.936 249.14 125.418 249.051 124.961 248.874C124.504 248.697 124.144 248.445 123.883 248.118C123.631 247.791 123.505 247.418 123.505 246.998L123.519 246.718H125.311V246.816ZM132.76 246.102C132.76 246.569 132.881 246.961 133.124 247.278C133.367 247.586 133.693 247.74 134.104 247.74C134.533 247.74 134.869 247.609 135.112 247.348C135.364 247.077 135.49 246.681 135.49 246.158H137.422C137.422 246.821 137.277 247.376 136.988 247.824C136.708 248.272 136.335 248.603 135.868 248.818C135.401 249.033 134.888 249.14 134.328 249.14H134.104C133.059 249.14 132.228 248.832 131.612 248.216C130.996 247.591 130.688 246.727 130.688 245.626V245.22C130.688 244.492 130.833 243.867 131.122 243.344C131.421 242.812 131.827 242.406 132.34 242.126C132.853 241.846 133.441 241.706 134.104 241.706H134.328C134.879 241.706 135.387 241.827 135.854 242.07C136.33 242.303 136.708 242.649 136.988 243.106C137.277 243.554 137.422 244.086 137.422 244.702H135.392C135.392 244.217 135.285 243.829 135.07 243.54C134.855 243.251 134.538 243.106 134.118 243.106C133.698 243.106 133.367 243.274 133.124 243.61C132.881 243.937 132.76 244.352 132.76 244.856V246.102ZM138.379 238.92H140.451V240.53H138.379V238.92ZM138.393 249V241.846H140.437V249H138.393ZM148.366 246.326C148.366 246.951 148.216 247.479 147.918 247.908C147.619 248.328 147.222 248.641 146.728 248.846C146.242 249.042 145.71 249.14 145.132 249.14H144.908C144.245 249.14 143.648 249 143.116 248.72C142.584 248.44 142.164 248.039 141.856 247.516C141.557 246.984 141.408 246.354 141.408 245.626V245.22C141.408 244.501 141.562 243.876 141.87 243.344C142.178 242.812 142.593 242.406 143.116 242.126C143.648 241.846 144.245 241.706 144.908 241.706H145.132C145.71 241.706 146.247 241.827 146.742 242.07C147.236 242.303 147.633 242.649 147.932 243.106C148.23 243.554 148.38 244.086 148.38 244.702V245.766H143.48V246.102C143.48 246.569 143.615 246.961 143.886 247.278C144.166 247.586 144.544 247.74 145.02 247.74C145.449 247.74 145.785 247.623 146.028 247.39C146.28 247.147 146.406 246.793 146.406 246.326H148.366ZM144.922 243.106C144.511 243.106 144.175 243.251 143.914 243.54C143.662 243.829 143.517 244.198 143.48 244.646H146.308C146.308 244.17 146.196 243.797 145.972 243.526C145.757 243.246 145.407 243.106 144.922 243.106ZM151.095 242.896C151.683 242.103 152.444 241.706 153.377 241.706C154.105 241.706 154.703 241.902 155.169 242.294C155.645 242.686 155.883 243.255 155.883 244.002V249H153.839V244.45C153.839 244.086 153.732 243.787 153.517 243.554C153.312 243.311 153.046 243.19 152.719 243.19C152.355 243.19 152.043 243.33 151.781 243.61C151.52 243.881 151.389 244.212 151.389 244.604V249H149.345V241.846H150.871L151.095 242.896ZM158.889 246.102C158.889 246.569 159.01 246.961 159.253 247.278C159.496 247.586 159.822 247.74 160.233 247.74C160.662 247.74 160.998 247.609 161.241 247.348C161.493 247.077 161.619 246.681 161.619 246.158H163.551C163.551 246.821 163.406 247.376 163.117 247.824C162.837 248.272 162.464 248.603 161.997 248.818C161.53 249.033 161.017 249.14 160.457 249.14H160.233C159.188 249.14 158.357 248.832 157.741 248.216C157.125 247.591 156.817 246.727 156.817 245.626V245.22C156.817 244.492 156.962 243.867 157.251 243.344C157.55 242.812 157.956 242.406 158.469 242.126C158.982 241.846 159.57 241.706 160.233 241.706H160.457C161.008 241.706 161.516 241.827 161.983 242.07C162.459 242.303 162.837 242.649 163.117 243.106C163.406 243.554 163.551 244.086 163.551 244.702H161.521C161.521 244.217 161.414 243.829 161.199 243.54C160.984 243.251 160.667 243.106 160.247 243.106C159.827 243.106 159.496 243.274 159.253 243.61C159.01 243.937 158.889 244.352 158.889 244.856V246.102ZM171.158 246.326C171.158 246.951 171.009 247.479 170.71 247.908C170.412 248.328 170.015 248.641 169.52 248.846C169.035 249.042 168.503 249.14 167.924 249.14H167.7C167.038 249.14 166.44 249 165.908 248.72C165.376 248.44 164.956 248.039 164.648 247.516C164.35 246.984 164.2 246.354 164.2 245.626V245.22C164.2 244.501 164.354 243.876 164.662 243.344C164.97 242.812 165.386 242.406 165.908 242.126C166.44 241.846 167.038 241.706 167.7 241.706H167.924C168.503 241.706 169.04 241.827 169.534 242.07C170.029 242.303 170.426 242.649 170.724 243.106C171.023 243.554 171.172 244.086 171.172 244.702V245.766H166.272V246.102C166.272 246.569 166.408 246.961 166.678 247.278C166.958 247.586 167.336 247.74 167.812 247.74C168.242 247.74 168.578 247.623 168.82 247.39C169.072 247.147 169.198 246.793 169.198 246.326H171.158ZM167.714 243.106C167.304 243.106 166.968 243.251 166.706 243.54C166.454 243.829 166.31 244.198 166.272 244.646H169.1C169.1 244.17 168.988 243.797 168.764 243.526C168.55 243.246 168.2 243.106 167.714 243.106ZM174.322 246.186V245.374C174.322 245.066 174.401 244.805 174.56 244.59C174.719 244.375 174.966 244.109 175.302 243.792C175.638 243.484 175.89 243.209 176.058 242.966C176.235 242.723 176.324 242.434 176.324 242.098C176.324 241.725 176.217 241.426 176.002 241.202C175.797 240.969 175.484 240.852 175.064 240.852C174.569 240.852 174.224 240.992 174.028 241.272C173.841 241.552 173.748 241.869 173.748 242.224L173.762 242.672H171.788C171.76 242.42 171.746 242.247 171.746 242.154C171.746 241.669 171.881 241.202 172.152 240.754C172.432 240.306 172.824 239.947 173.328 239.676C173.832 239.396 174.406 239.256 175.05 239.256H175.358C176.011 239.256 176.576 239.387 177.052 239.648C177.528 239.909 177.887 240.259 178.13 240.698C178.382 241.137 178.508 241.613 178.508 242.126C178.508 242.555 178.433 242.929 178.284 243.246C178.144 243.563 177.976 243.825 177.78 244.03C177.584 244.226 177.332 244.445 177.024 244.688C176.744 244.921 176.539 245.108 176.408 245.248C176.287 245.388 176.226 245.551 176.226 245.738V246.186H174.322ZM174.238 246.942H176.296V249H174.238V246.942Z" fill="black"/>
<path d="M47.812 248.012L47.0779 248.691L47.0867 248.701L47.0958 248.71L47.812 248.012ZM47.968 250.43L47.1498 249.855L47.1498 249.855L47.968 250.43ZM47.045 251.171L46.6389 250.257L46.6265 250.263L46.6143 250.269L47.045 251.171ZM41.689 251.002L42.3182 250.225L42.316 250.223L41.689 251.002ZM41.429 248.961L40.6226 248.37L40.6191 248.374L41.429 248.961ZM42.144 248.376L42.5578 249.286L44.2153 248.533L42.6903 247.538L42.144 248.376ZM41.689 247.895L40.8111 248.374L40.8111 248.374L41.689 247.895ZM41.845 246.439L42.5924 247.103L42.5984 247.097L42.6043 247.09L41.845 246.439ZM42.651 245.919L42.9521 246.873L45.0336 246.215L43.1765 245.068L42.651 245.919ZM41.962 245.23L41.0953 245.729L41.1021 245.741L41.962 245.23ZM42.43 242.812L41.8036 242.032L41.7968 242.038L42.43 242.812ZM45.849 242.383L45.5405 243.334L45.9671 243.473L46.3542 243.246L45.849 242.383ZM46.59 241.746L45.7477 241.207L45.7477 241.207L46.59 241.746ZM46.824 241.161V240.161H45.919L45.829 241.061L46.824 241.161ZM48.306 241.161H49.306V240.161H48.306V241.161ZM46.928 242.877L46.6898 241.906L46.1538 242.037L45.9793 242.561L46.928 242.877ZM46.915 242.916L45.9663 242.6L45.7526 243.241L46.2678 243.678L46.915 242.916ZM47.279 245.373L48.1004 245.943L48.1076 245.933L47.279 245.373ZM46.356 246.127L46.7789 247.033L46.7875 247.029L46.356 246.127ZM43.496 246.569L42.8886 245.775L42.8768 245.784L42.8654 245.793L43.496 246.569ZM43.483 247.349L42.8916 248.155L42.9039 248.164L42.9165 248.173L43.483 247.349ZM43.86 245.035L43.2353 245.816L43.245 245.824L43.2549 245.831L43.86 245.035ZM45.511 245.035L46.1161 245.831L46.126 245.824L46.1357 245.816L45.511 245.035ZM45.511 243.618L44.8863 244.399L44.896 244.407L44.9059 244.414L45.511 243.618ZM43.86 243.618L44.4651 244.414L44.475 244.407L44.4847 244.399L43.86 243.618ZM46.304 250.066L45.6844 249.281L45.672 249.291L45.6599 249.301L46.304 250.066ZM46.343 249.156L47.0015 248.403L46.9878 248.391L46.9736 248.38L46.343 249.156ZM43.041 249.169L42.3825 248.416L42.3696 248.428L42.3571 248.439L43.041 249.169ZM46.421 248.492C46.833 248.492 46.9969 248.603 47.0779 248.691L48.5461 247.333C47.9858 246.727 47.2223 246.492 46.421 246.492V248.492ZM47.0958 248.71C47.2116 248.829 47.306 249.008 47.306 249.351H49.306C49.306 248.585 49.0711 247.871 48.5282 247.314L47.0958 248.71ZM47.306 249.351C47.306 249.548 47.2547 249.706 47.1498 249.855L48.7862 251.005C49.132 250.513 49.306 249.952 49.306 249.351H47.306ZM47.1498 249.855C47.0378 250.014 46.8786 250.151 46.6389 250.257L47.4511 252.085C47.9914 251.845 48.4476 251.487 48.7862 251.005L47.1498 249.855ZM46.6143 250.269C46.3813 250.38 46.1062 250.444 45.771 250.444V252.444C46.3718 252.444 46.946 252.326 47.4757 252.073L46.6143 250.269ZM45.771 250.444H43.028V252.444H45.771V250.444ZM43.028 250.444C42.6972 250.444 42.4813 250.357 42.3182 250.225L41.0598 251.779C41.6247 252.237 42.3015 252.444 43.028 252.444V250.444ZM42.316 250.223C42.2271 250.151 42.156 250.056 42.156 249.806H40.156C40.156 250.579 40.4403 251.281 41.062 251.781L42.316 250.223ZM42.156 249.806C42.156 249.703 42.1812 249.627 42.2389 249.548L40.6191 248.374C40.3128 248.797 40.156 249.285 40.156 249.806H42.156ZM42.2354 249.552C42.3275 249.427 42.4321 249.344 42.5578 249.286L41.7302 247.466C41.2839 247.668 40.9118 247.975 40.6226 248.37L42.2354 249.552ZM42.6903 247.538C42.6159 247.49 42.5843 247.448 42.5669 247.416L40.8111 248.374C41.0017 248.723 41.2735 249.002 41.5977 249.214L42.6903 247.538ZM42.5669 247.416C42.5461 247.378 42.533 247.336 42.533 247.271H40.533C40.533 247.657 40.6239 248.031 40.8111 248.374L42.5669 247.416ZM42.533 247.271C42.533 247.189 42.5514 247.149 42.5924 247.103L41.0976 245.775C40.7226 246.197 40.533 246.712 40.533 247.271H42.533ZM42.6043 247.09C42.681 247 42.7859 246.925 42.9521 246.873L42.3499 244.965C41.8575 245.121 41.425 245.392 41.0857 245.788L42.6043 247.09ZM43.1765 245.068C43.0087 244.965 42.8981 244.848 42.8219 244.719L41.1021 245.741C41.3552 246.167 41.704 246.509 42.1255 246.77L43.1765 245.068ZM42.8286 244.731C42.7487 244.592 42.715 244.46 42.715 244.32H40.715C40.715 244.821 40.846 245.296 41.0954 245.729L42.8286 244.731ZM42.715 244.32C42.715 244.005 42.8185 243.786 43.0632 243.586L41.7968 242.038C41.0882 242.618 40.715 243.404 40.715 244.32H42.715ZM43.0564 243.592C43.2955 243.399 43.7423 243.227 44.549 243.227V241.227C43.501 241.227 42.5351 241.445 41.8036 242.032L43.0564 243.592ZM44.549 243.227H44.757V241.227H44.549V243.227ZM44.757 243.227C45.0807 243.227 45.3377 243.268 45.5405 243.334L46.1575 241.432C45.7189 241.29 45.248 241.227 44.757 241.227V243.227ZM46.3542 243.246C46.7727 243.001 47.1722 242.691 47.4323 242.285L45.7477 241.207C45.7305 241.234 45.636 241.349 45.3438 241.52L46.3542 243.246ZM47.4323 242.285C47.6185 241.994 47.7804 241.647 47.819 241.261L45.829 241.061C45.8313 241.038 45.8351 241.038 45.824 241.066C45.8129 241.094 45.7904 241.14 45.7477 241.207L47.4323 242.285ZM46.824 242.161H48.306V240.161H46.824V242.161ZM47.306 241.161C47.306 241.451 47.236 241.585 47.1818 241.653C47.1251 241.723 46.9978 241.83 46.6898 241.906L47.1662 243.848C47.7768 243.698 48.3385 243.407 48.7412 242.905C49.1464 242.401 49.306 241.789 49.306 241.161H47.306ZM45.9793 242.561L45.9663 242.6L47.8637 243.232L47.8767 243.193L45.9793 242.561ZM46.2678 243.678C46.5295 243.9 46.604 244.1 46.604 244.32H48.604C48.604 243.448 48.2192 242.712 47.5622 242.154L46.2678 243.678ZM46.604 244.32C46.604 244.499 46.5571 244.655 46.4504 244.813L48.1076 245.933C48.4342 245.449 48.604 244.904 48.604 244.32H46.604ZM46.4576 244.803C46.3551 244.95 46.1925 245.097 45.9245 245.225L46.7875 247.029C47.3169 246.776 47.7696 246.42 48.1004 245.943L46.4576 244.803ZM45.9331 245.221C45.6981 245.33 45.3964 245.4 45.004 245.4V247.4C45.6343 247.4 46.2339 247.288 46.7789 247.033L45.9331 245.221ZM45.004 245.4H44.107V247.4H45.004V245.4ZM44.107 245.4C43.7137 245.4 43.2682 245.484 42.8886 245.775L44.1034 247.363C44.0836 247.379 44.0653 247.389 44.0509 247.396C44.0367 247.403 44.0276 247.406 44.0258 247.406C44.0242 247.407 44.0295 247.405 44.0432 247.403C44.0569 247.402 44.0779 247.4 44.107 247.4V245.4ZM42.8654 245.793C42.566 246.036 42.288 246.423 42.288 246.946H44.288C44.288 247.052 44.2596 247.151 44.2156 247.231C44.175 247.304 44.1334 247.34 44.1266 247.345L42.8654 245.793ZM42.288 246.946C42.288 247.41 42.483 247.856 42.8916 248.155L44.0744 246.543C44.1302 246.584 44.1927 246.65 44.2369 246.741C44.2799 246.83 44.288 246.906 44.288 246.946H42.288ZM42.9165 248.173C43.2984 248.436 43.7461 248.492 44.107 248.492V246.492C44.066 246.492 44.0339 246.49 44.0097 246.488C43.9855 246.485 43.9716 246.483 43.9664 246.482C43.9536 246.479 43.9913 246.485 44.0495 246.525L42.9165 248.173ZM44.107 248.492H46.421V246.492H44.107V248.492ZM42.535 244.32C42.535 244.895 42.7573 245.433 43.2353 245.816L44.4847 244.254C44.4864 244.256 44.4936 244.262 44.5027 244.273C44.512 244.285 44.5203 244.298 44.5266 244.312C44.5402 244.342 44.535 244.351 44.535 244.32H42.535ZM43.2549 245.831C43.6797 246.154 44.1783 246.282 44.679 246.282V244.282C44.521 244.282 44.4736 244.245 44.4651 244.239L43.2549 245.831ZM44.679 246.282C45.1817 246.282 45.6869 246.157 46.1161 245.831L44.9059 244.239C44.9018 244.242 44.8523 244.282 44.679 244.282V246.282ZM46.1357 245.816C46.6137 245.433 46.836 244.895 46.836 244.32H44.836C44.836 244.351 44.8308 244.342 44.8444 244.312C44.8507 244.298 44.859 244.285 44.8683 244.273C44.8774 244.262 44.8846 244.256 44.8863 244.254L46.1357 245.816ZM46.836 244.32C46.836 243.745 46.6126 243.199 46.1161 242.822L44.9059 244.414C44.9008 244.41 44.8903 244.401 44.8781 244.386C44.8658 244.371 44.8552 244.354 44.8473 244.337C44.8307 244.301 44.836 244.288 44.836 244.32H46.836ZM46.1357 242.837C45.7055 242.493 45.193 242.358 44.679 242.358V244.358C44.841 244.358 44.8831 244.396 44.8863 244.399L46.1357 242.837ZM44.679 242.358C44.1667 242.358 43.6609 242.497 43.2353 242.837L44.4847 244.399C44.4924 244.393 44.5326 244.358 44.679 244.358V242.358ZM43.2549 242.822C42.7584 243.199 42.535 243.745 42.535 244.32H44.535C44.535 244.288 44.5403 244.301 44.5237 244.337C44.5158 244.354 44.5052 244.371 44.4929 244.386C44.4807 244.401 44.4702 244.41 44.4651 244.414L43.2549 242.822ZM45.719 251.274C46.1681 251.274 46.5942 251.129 46.9481 250.831L45.6599 249.301C45.6619 249.299 45.6667 249.296 45.6742 249.291C45.6818 249.287 45.6904 249.283 45.6992 249.28C45.7184 249.273 45.7276 249.274 45.719 249.274V251.274ZM46.9236 250.851C47.2871 250.564 47.551 250.135 47.551 249.598H45.551C45.551 249.532 45.5676 249.455 45.6049 249.385C45.6399 249.318 45.6776 249.286 45.6844 249.281L46.9236 250.851ZM47.551 249.598C47.551 249.116 47.3417 248.701 47.0015 248.403L45.6845 249.909C45.6637 249.89 45.6255 249.85 45.5942 249.783C45.5622 249.715 45.551 249.649 45.551 249.598H47.551ZM46.9736 248.38C46.6143 248.088 46.1907 247.987 45.797 247.987V249.987C45.8272 249.987 45.8272 249.991 45.8068 249.985C45.7839 249.977 45.7487 249.962 45.7124 249.932L46.9736 248.38ZM45.797 247.987H43.535V249.987H45.797V247.987ZM43.535 247.987C43.1113 247.987 42.7103 248.13 42.3825 248.416L43.6995 249.922C43.6815 249.937 43.6523 249.957 43.6142 249.971C43.5766 249.985 43.5474 249.987 43.535 249.987V247.987ZM42.3571 248.439C42.0384 248.738 41.833 249.146 41.833 249.624H43.833C43.833 249.675 43.8218 249.736 43.7945 249.796C43.768 249.854 43.7373 249.887 43.7249 249.899L42.3571 248.439ZM41.833 249.624C41.833 250.102 42.0384 250.51 42.3571 250.809L43.7249 249.349C43.7373 249.361 43.768 249.394 43.7945 249.452C43.8218 249.512 43.833 249.573 43.833 249.624H41.833ZM42.3571 250.809C42.6817 251.113 43.0912 251.274 43.535 251.274V249.274C43.5556 249.274 43.5923 249.278 43.6357 249.295C43.679 249.312 43.7091 249.335 43.7249 249.349L42.3571 250.809ZM43.535 251.274H45.719V249.274H43.535V251.274ZM54.9395 246.517H55.9395V245.517H54.9395V246.517ZM54.5235 247.986L55.3385 248.566L55.3444 248.557L54.5235 247.986ZM53.4185 248.857L53.7929 249.784L53.8018 249.781L53.4185 248.857ZM50.0645 248.74L49.5987 249.625L49.5987 249.625L50.0645 248.74ZM48.8945 247.622L48.0225 248.112L48.0276 248.121L48.0329 248.13L48.8945 247.622ZM48.9075 243.748L49.7729 244.249L49.7729 244.249L48.9075 243.748ZM50.0645 242.617L49.5987 241.732L49.5922 241.736L50.0645 242.617ZM53.4315 242.565L52.991 243.463L52.9979 243.466L53.0048 243.469L53.4315 242.565ZM54.5365 243.527L53.6991 244.074L53.7044 244.082L54.5365 243.527ZM54.9525 245.997V246.997H55.9525V245.997H54.9525ZM50.4025 245.997V244.997H49.4025V245.997H50.4025ZM50.7795 247.401L50.0186 248.05L50.0289 248.062L50.0395 248.074L50.7795 247.401ZM52.7685 247.505L53.4616 248.226L53.4621 248.225L52.7685 247.505ZM53.1195 246.517V245.517H52.1195V246.517H53.1195ZM50.8055 243.93L50.0634 243.26L50.0573 243.266L50.0514 243.273L50.8055 243.93ZM50.4025 244.957L49.4059 244.874L49.3157 245.957H50.4025V244.957ZM53.0285 244.957V245.957H54.0285V244.957H53.0285ZM52.7165 243.917L51.9228 244.525L51.9342 244.54L51.9461 244.555L52.7165 243.917ZM53.9395 246.517C53.9395 246.934 53.842 247.214 53.7025 247.415L55.3444 248.557C55.7596 247.96 55.9395 247.261 55.9395 246.517H53.9395ZM53.7085 247.406C53.5443 247.637 53.3283 247.812 53.0351 247.933L53.8018 249.781C54.4273 249.521 54.9479 249.115 55.3384 248.566L53.7085 247.406ZM53.044 247.93C52.7243 248.059 52.359 248.13 51.9365 248.13V250.13C52.5886 250.13 53.2113 250.019 53.7929 249.784L53.044 247.93ZM51.9365 248.13H51.7285V250.13H51.9365V248.13ZM51.7285 248.13C51.2585 248.13 50.8663 248.032 50.5302 247.855L49.5987 249.625C50.2506 249.968 50.9677 250.13 51.7285 250.13V248.13ZM50.5302 247.855C50.2022 247.682 49.9486 247.441 49.756 247.114L48.0329 248.13C48.4123 248.774 48.9387 249.278 49.5987 249.625L50.5302 247.855ZM49.7664 247.132C49.5879 246.814 49.4785 246.405 49.4785 245.867H47.4785C47.4785 246.681 47.6463 247.442 48.0225 248.112L49.7664 247.132ZM49.4785 245.867V245.49H47.4785V245.867H49.4785ZM49.4785 245.49C49.4785 244.969 49.5889 244.567 49.7729 244.249L48.042 243.247C47.654 243.917 47.4785 244.677 47.4785 245.49H49.4785ZM49.7729 244.249C49.9693 243.91 50.2214 243.667 50.5367 243.498L49.5922 241.736C48.9368 242.087 48.4176 242.598 48.042 243.247L49.7729 244.249ZM50.5302 243.502C50.8663 243.325 51.2585 243.227 51.7285 243.227V241.227C50.9677 241.227 50.2506 241.389 49.5987 241.732L50.5302 243.502ZM51.7285 243.227H51.9365V241.227H51.7285V243.227ZM51.9365 243.227C52.329 243.227 52.6757 243.308 52.991 243.463L53.8719 241.667C53.2686 241.371 52.6186 241.227 51.9365 241.227V243.227ZM53.0048 243.469C53.2971 243.607 53.5232 243.804 53.6992 244.074L55.3737 242.98C54.9951 242.4 54.4845 241.956 53.8581 241.661L53.0048 243.469ZM53.7044 244.082C53.857 244.311 53.9525 244.605 53.9525 245.009H55.9525C55.9525 244.269 55.7705 243.575 55.3685 242.972L53.7044 244.082ZM53.9525 245.009V245.997H55.9525V245.009H53.9525ZM54.9525 244.997H50.4025V246.997H54.9525V244.997ZM49.4025 245.997V246.309H51.4025V245.997H49.4025ZM49.4025 246.309C49.4025 246.95 49.5944 247.553 50.0186 248.05L51.5403 246.752C51.4619 246.66 51.4025 246.535 51.4025 246.309H49.4025ZM50.0395 248.074C50.5171 248.599 51.1533 248.83 51.8325 248.83V246.83C51.6276 246.83 51.5618 246.775 51.5194 246.728L50.0395 248.074ZM51.8325 248.83C52.4153 248.83 53.0026 248.667 53.4616 248.226L52.0753 246.784C52.0726 246.787 52.0649 246.795 52.0374 246.804C52.0062 246.815 51.9425 246.83 51.8325 246.83V248.83ZM53.4621 248.225C53.9507 247.755 54.1195 247.128 54.1195 246.517H52.1195C52.1195 246.646 52.1018 246.719 52.0894 246.754C52.0834 246.771 52.0786 246.779 52.077 246.782C52.0755 246.784 52.075 246.784 52.0748 246.785L53.4621 248.225ZM53.1195 247.517H54.9395V245.517H53.1195V247.517ZM51.7415 242.527C51.0943 242.527 50.5068 242.769 50.0634 243.26L51.5476 244.6C51.5895 244.554 51.6259 244.527 51.7415 244.527V242.527ZM50.0514 243.273C49.6546 243.729 49.4551 244.283 49.4059 244.874L51.399 245.04C51.4191 244.799 51.4883 244.669 51.5595 244.587L50.0514 243.273ZM50.4025 245.957H53.0285V243.957H50.4025V245.957ZM54.0285 244.957C54.0285 244.365 53.8885 243.765 53.4868 243.279L51.9461 244.555C51.9604 244.572 52.0285 244.665 52.0285 244.957H54.0285ZM53.5101 243.309C53.0567 242.717 52.3784 242.527 51.7415 242.527V244.527C51.8745 244.527 51.936 244.547 51.9518 244.553C51.9585 244.556 51.9552 244.555 51.9466 244.549C51.9377 244.542 51.9292 244.534 51.9228 244.525L53.5101 243.309ZM57.4743 243.332L56.4963 243.541L56.9585 245.707L58.2776 243.927L57.4743 243.332ZM61.2573 242.773L60.614 243.539L60.6215 243.545L61.2573 242.773ZM61.9203 249V250H62.9203V249H61.9203ZM60.0223 249H59.0223V250H60.0223V249ZM59.7233 243.943L58.9599 244.589L58.9733 244.605L58.9873 244.62L59.7233 243.943ZM58.1113 243.995L58.8307 244.69L58.8365 244.684L58.8423 244.677L58.1113 243.995ZM57.7473 249V250H58.7473V249H57.7473ZM55.8493 249H54.8493V250H55.8493V249ZM55.8493 242.357V241.357H54.8493V242.357H55.8493ZM57.2663 242.357L58.2442 242.148L58.0754 241.357H57.2663V242.357ZM58.2776 243.927C58.6478 243.428 59.0642 243.227 59.5933 243.227V241.227C58.3889 241.227 57.3927 241.763 56.6709 242.737L58.2776 243.927ZM59.5933 243.227C60.0818 243.227 60.3944 243.354 60.6141 243.539L61.9004 242.007C61.2534 241.464 60.4567 241.227 59.5933 241.227V243.227ZM60.6215 243.545C60.7841 243.679 60.9203 243.895 60.9203 244.359H62.9203C62.9203 243.436 62.6144 242.595 61.893 242.001L60.6215 243.545ZM60.9203 244.359V249H62.9203V244.359H60.9203ZM61.9203 248H60.0223V250H61.9203V248ZM61.0223 249V244.775H59.0223V249H61.0223ZM61.0223 244.775C61.0223 244.226 60.8535 243.695 60.4592 243.266L58.9873 244.62C58.9917 244.625 59.0223 244.648 59.0223 244.775H61.0223ZM60.4866 243.297C60.1 242.84 59.5704 242.605 58.9823 242.605V244.605C58.996 244.605 59.0008 244.606 58.9986 244.606C58.9961 244.605 58.9892 244.604 58.98 244.599C58.9707 244.595 58.9633 244.59 58.9585 244.587C58.9539 244.583 58.9546 244.583 58.9599 244.589L60.4866 243.297ZM58.9823 242.605C58.3512 242.605 57.8009 242.862 57.3802 243.313L58.8423 244.677C58.8834 244.633 58.9098 244.62 58.9197 244.615C58.9283 244.611 58.9451 244.605 58.9823 244.605V242.605ZM57.3918 243.3C56.961 243.747 56.7473 244.307 56.7473 244.918H58.7473C58.7473 244.801 58.7762 244.746 58.8307 244.69L57.3918 243.3ZM56.7473 244.918V249H58.7473V244.918H56.7473ZM57.7473 248H55.8493V250H57.7473V248ZM56.8493 249V242.357H54.8493V249H56.8493ZM55.8493 243.357H57.2663V241.357H55.8493V243.357ZM56.2883 242.566L56.4963 243.541L58.4522 243.123L58.2442 242.148L56.2883 242.566ZM67.4151 248.168L68.3887 247.94L67.9028 245.866L66.6177 247.565L67.4151 248.168ZM64.1391 248.753L63.622 249.609L63.622 249.609L64.1391 248.753ZM63.1511 247.609L62.2477 248.038L63.1511 247.609ZM63.1251 243.735L62.2126 243.326L62.2126 243.326L63.1251 243.735ZM64.0351 242.604L63.4934 241.763L63.4848 241.769L64.0351 242.604ZM66.4401 242.487L65.9544 243.361L65.9646 243.367L66.4401 242.487ZM67.2071 243.124L66.4104 243.728L68.2071 246.097V243.124H67.2071ZM67.2071 239.64V238.64H66.2071V239.64H67.2071ZM69.1051 239.64H70.1051V238.64H69.1051V239.64ZM69.1051 249V250H70.1051V249H69.1051ZM67.6101 249L66.6365 249.228L66.8174 250H67.6101V249ZM65.0621 247.427L64.2978 248.072L64.3029 248.078L64.308 248.084L65.0621 247.427ZM66.8561 247.427L67.6102 248.084L67.6153 248.078L67.6204 248.072L66.8561 247.427ZM66.8561 244.008L66.102 244.665L66.102 244.665L66.8561 244.008ZM65.0621 244.008L65.8162 244.665L65.8162 244.665L65.0621 244.008ZM66.6177 247.565C66.3093 247.972 65.9731 248.13 65.5431 248.13V250.13C66.6384 250.13 67.5502 249.647 68.2125 248.771L66.6177 247.565ZM65.5431 248.13C65.1921 248.13 64.9052 248.048 64.6562 247.897L63.622 249.609C64.2049 249.961 64.854 250.13 65.5431 250.13V248.13ZM64.6562 247.897C64.4343 247.763 64.2272 247.544 64.0545 247.18L62.2477 248.038C62.5603 248.696 63.0119 249.24 63.622 249.609L64.6562 247.897ZM64.0545 247.18C63.8929 246.84 63.7871 246.364 63.7871 245.711H61.7871C61.7871 246.566 61.924 247.356 62.2477 248.038L64.0545 247.18ZM63.7871 245.711V245.568H61.7871V245.711H63.7871ZM63.7871 245.568C63.7871 244.948 63.8847 244.485 64.0376 244.144L62.2126 243.326C61.9148 243.99 61.7871 244.749 61.7871 245.568H63.7871ZM64.0376 244.144C64.2013 243.779 64.3929 243.566 64.5854 243.439L63.4848 241.769C62.9146 242.145 62.4995 242.686 62.2126 243.326L64.0376 244.144ZM64.5768 243.445C64.7976 243.302 65.0456 243.227 65.3481 243.227V241.227C64.6799 241.227 64.0525 241.403 63.4934 241.763L64.5768 243.445ZM65.3481 243.227C65.6225 243.227 65.8139 243.283 65.9544 243.361L66.9257 241.613C66.4422 241.344 65.9057 241.227 65.3481 241.227V243.227ZM65.9646 243.367C66.1792 243.483 66.3183 243.607 66.4104 243.728L68.0038 242.52C67.7145 242.138 67.3423 241.838 66.9156 241.607L65.9646 243.367ZM68.2071 243.124V239.64H66.2071V243.124H68.2071ZM67.2071 240.64H69.1051V238.64H67.2071V240.64ZM68.1051 239.64V249H70.1051V239.64H68.1051ZM69.1051 248H67.6101V250H69.1051V248ZM68.5837 248.772L68.3887 247.94L66.4415 248.396L66.6365 249.228L68.5837 248.772ZM63.7111 246.257C63.7111 246.905 63.862 247.555 64.2978 248.072L65.8264 246.782C65.7942 246.744 65.7111 246.614 65.7111 246.257H63.7111ZM64.308 248.084C64.7366 248.576 65.3131 248.83 65.9591 248.83V246.83C65.9027 246.83 65.8787 246.82 65.8717 246.817C65.8652 246.814 65.8466 246.805 65.8162 246.77L64.308 248.084ZM65.9591 248.83C66.6051 248.83 67.1816 248.576 67.6102 248.084L66.102 246.77C66.0716 246.805 66.053 246.814 66.0465 246.817C66.0395 246.82 66.0155 246.83 65.9591 246.83V248.83ZM67.6204 248.072C68.0562 247.555 68.2071 246.905 68.2071 246.257H66.2071C66.2071 246.614 66.124 246.744 66.0918 246.782L67.6204 248.072ZM68.2071 246.257V245.178H66.2071V246.257H68.2071ZM68.2071 245.178C68.2071 244.529 68.0596 243.867 67.6102 243.351L66.102 244.665C66.1206 244.686 66.2071 244.805 66.2071 245.178H68.2071ZM67.6102 243.351C67.1816 242.859 66.6051 242.605 65.9591 242.605V244.605C66.0155 244.605 66.0395 244.615 66.0465 244.618C66.053 244.621 66.0716 244.63 66.102 244.665L67.6102 243.351ZM65.9591 242.605C65.3131 242.605 64.7366 242.859 64.308 243.351L65.8162 244.665C65.8466 244.63 65.8652 244.621 65.8717 244.618C65.8787 244.615 65.9027 244.605 65.9591 244.605V242.605ZM64.308 243.351C63.8586 243.867 63.7111 244.529 63.7111 245.178H65.7111C65.7111 244.805 65.7976 244.686 65.8162 244.665L64.308 243.351ZM63.7111 245.178V246.257H65.7111V245.178H63.7111ZM76.4595 246.517H77.4595V245.517H76.4595V246.517ZM76.0435 247.986L76.8585 248.566L76.8644 248.557L76.0435 247.986ZM74.9385 248.857L75.313 249.784L75.3219 249.781L74.9385 248.857ZM71.5845 248.74L71.1188 249.625L71.1188 249.625L71.5845 248.74ZM70.4145 247.622L69.5425 248.112L69.5477 248.121L69.553 248.13L70.4145 247.622ZM70.4275 243.748L71.293 244.249L71.293 244.249L70.4275 243.748ZM71.5845 242.617L71.1188 241.732L71.1123 241.736L71.5845 242.617ZM74.9515 242.565L74.5111 243.463L74.518 243.466L74.5249 243.469L74.9515 242.565ZM76.0565 243.527L75.2192 244.074L75.2245 244.082L76.0565 243.527ZM76.4725 245.997V246.997H77.4725V245.997H76.4725ZM71.9225 245.997V244.997H70.9225V245.997H71.9225ZM72.2995 247.401L71.5387 248.05L71.549 248.062L71.5596 248.074L72.2995 247.401ZM74.2885 247.505L74.9816 248.226L74.9822 248.225L74.2885 247.505ZM74.6395 246.517V245.517H73.6395V246.517H74.6395ZM72.3255 243.93L71.5834 243.26L71.5774 243.266L71.5715 243.273L72.3255 243.93ZM71.9225 244.957L70.926 244.874L70.8357 245.957H71.9225V244.957ZM74.5485 244.957V245.957H75.5485V244.957H74.5485ZM74.2365 243.917L73.4429 244.525L73.4543 244.54L73.4661 244.555L74.2365 243.917ZM75.4595 246.517C75.4595 246.934 75.3621 247.214 75.2226 247.415L76.8644 248.557C77.2797 247.96 77.4595 247.261 77.4595 246.517H75.4595ZM75.2286 247.406C75.0644 247.637 74.8483 247.812 74.5552 247.933L75.3219 249.781C75.9474 249.521 76.468 249.115 76.8585 248.566L75.2286 247.406ZM74.5641 247.93C74.2444 248.059 73.8791 248.13 73.4565 248.13V250.13C74.1086 250.13 74.7314 250.019 75.313 249.784L74.5641 247.93ZM73.4565 248.13H73.2485V250.13H73.4565V248.13ZM73.2485 248.13C72.7786 248.13 72.3864 248.032 72.0503 247.855L71.1188 249.625C71.7706 249.968 72.4878 250.13 73.2485 250.13V248.13ZM72.0503 247.855C71.7223 247.682 71.4687 247.441 71.2761 247.114L69.553 248.13C69.9324 248.774 70.4588 249.278 71.1188 249.625L72.0503 247.855ZM71.2865 247.132C71.108 246.814 70.9985 246.405 70.9985 245.867H68.9985C68.9985 246.681 69.1664 247.442 69.5425 248.112L71.2865 247.132ZM70.9985 245.867V245.49H68.9985V245.867H70.9985ZM70.9985 245.49C70.9985 244.969 71.109 244.567 71.293 244.249L69.5621 243.247C69.174 243.917 68.9985 244.677 68.9985 245.49H70.9985ZM71.293 244.249C71.4894 243.91 71.7415 243.667 72.0568 243.498L71.1123 241.736C70.4569 242.087 69.9377 242.598 69.5621 243.247L71.293 244.249ZM72.0503 243.502C72.3864 243.325 72.7786 243.227 73.2485 243.227V241.227C72.4878 241.227 71.7706 241.389 71.1188 241.732L72.0503 243.502ZM73.2485 243.227H73.4565V241.227H73.2485V243.227ZM73.4565 243.227C73.8491 243.227 74.1958 243.308 74.5111 243.463L75.392 241.667C74.7886 241.371 74.1387 241.227 73.4565 241.227V243.227ZM74.5249 243.469C74.8171 243.607 75.0432 243.804 75.2193 244.074L76.8938 242.98C76.5152 242.4 76.0046 241.956 75.3782 241.661L74.5249 243.469ZM75.2245 244.082C75.3771 244.311 75.4725 244.605 75.4725 245.009H77.4725C77.4725 244.269 77.2906 243.575 76.8886 242.972L75.2245 244.082ZM75.4725 245.009V245.997H77.4725V245.009H75.4725ZM76.4725 244.997H71.9225V246.997H76.4725V244.997ZM70.9225 245.997V246.309H72.9225V245.997H70.9225ZM70.9225 246.309C70.9225 246.95 71.1145 247.553 71.5387 248.05L73.0604 246.752C72.9819 246.66 72.9225 246.535 72.9225 246.309H70.9225ZM71.5596 248.074C72.0372 248.599 72.6734 248.83 73.3525 248.83V246.83C73.1477 246.83 73.0819 246.775 73.0395 246.728L71.5596 248.074ZM73.3525 248.83C73.9354 248.83 74.5226 248.667 74.9816 248.226L73.5954 246.784C73.5927 246.787 73.585 246.795 73.5575 246.804C73.5263 246.815 73.4626 246.83 73.3525 246.83V248.83ZM74.9822 248.225C75.4708 247.755 75.6395 247.128 75.6395 246.517H73.6395C73.6395 246.646 73.6219 246.719 73.6095 246.754C73.6035 246.771 73.5987 246.779 73.5971 246.782C73.5956 246.784 73.5951 246.784 73.5949 246.785L74.9822 248.225ZM74.6395 247.517H76.4595V245.517H74.6395V247.517ZM73.2615 242.527C72.6144 242.527 72.0268 242.769 71.5834 243.26L73.0676 244.6C73.1096 244.554 73.146 244.527 73.2615 244.527V242.527ZM71.5715 243.273C71.1747 243.729 70.9752 244.283 70.926 244.874L72.9191 245.04C72.9392 244.799 73.0084 244.669 73.0796 244.587L71.5715 243.273ZM71.9225 245.957H74.5485V243.957H71.9225V245.957ZM75.5485 244.957C75.5485 244.365 75.4086 243.765 75.0069 243.279L73.4661 244.555C73.4805 244.572 73.5485 244.665 73.5485 244.957H75.5485ZM75.0301 243.309C74.5768 242.717 73.8985 242.527 73.2615 242.527V244.527C73.3946 244.527 73.4561 244.547 73.4719 244.553C73.4786 244.556 73.4752 244.555 73.4667 244.549C73.4577 244.542 73.4492 244.534 73.4429 244.525L75.0301 243.309ZM80.8793 243.943L80.0752 244.537L80.0815 244.546L80.088 244.554L80.8793 243.943ZM79.4753 244.008L78.6478 243.446L78.6433 243.453L79.4753 244.008ZM79.2413 249V250H80.2413V249H79.2413ZM77.3693 249H76.3693V250H77.3693V249ZM77.3693 242.357V241.357H76.3693V242.357H77.3693ZM78.7733 242.357L79.7457 242.124L79.5617 241.357H78.7733V242.357ZM79.0073 243.332L78.0349 243.565L78.8109 246.798L79.9471 243.674L79.0073 243.332ZM79.2673 242.929L78.5054 242.281L78.4958 242.293L78.4865 242.304L79.2673 242.929ZM79.8913 242.448L79.4221 241.565L79.4105 241.571L79.8913 242.448ZM82.2443 242.786L81.4863 243.438L81.495 243.448L82.2443 242.786ZM82.7123 244.658L81.7211 244.526L81.7167 244.559L81.7145 244.591L82.7123 244.658ZM82.6863 244.931V245.931H83.5335L83.6727 245.095L82.6863 244.931ZM81.1003 244.931H80.1003V245.931H81.1003V244.931ZM82.1003 244.632C82.1003 244.169 81.9688 243.717 81.6706 243.332L80.088 244.554C80.0906 244.558 80.0915 244.559 80.0929 244.564C80.0947 244.569 80.1003 244.59 80.1003 244.632H82.1003ZM81.6835 243.349C81.2941 242.822 80.7128 242.644 80.1773 242.644V244.644C80.2369 244.644 80.2361 244.654 80.2015 244.639C80.1834 244.631 80.1601 244.618 80.1355 244.599C80.1108 244.58 80.0905 244.558 80.0752 244.537L81.6835 243.349ZM80.1773 242.644C79.5562 242.644 79.0061 242.918 78.6479 243.446L80.3028 244.57C80.3038 244.568 80.2988 244.576 80.2861 244.587C80.273 244.599 80.2555 244.612 80.2346 244.623C80.1893 244.646 80.1616 244.644 80.1773 244.644V242.644ZM78.6433 243.453C78.3521 243.89 78.2413 244.391 78.2413 244.892H80.2413C80.2413 244.682 80.2865 244.594 80.3074 244.563L78.6433 243.453ZM78.2413 244.892V249H80.2413V244.892H78.2413ZM79.2413 248H77.3693V250H79.2413V248ZM78.3693 249V242.357H76.3693V249H78.3693ZM77.3693 243.357H78.7733V241.357H77.3693V243.357ZM77.8009 242.59L78.0349 243.565L79.9797 243.099L79.7457 242.124L77.8009 242.59ZM79.9471 243.674C79.9365 243.703 79.9279 243.719 79.9273 243.72C79.9262 243.722 79.9292 243.716 79.9386 243.702C79.9581 243.672 79.9926 243.623 80.0482 243.554L78.4865 242.304C78.341 242.486 78.1624 242.729 78.0675 242.99L79.9471 243.674ZM80.0293 243.577C80.0755 243.522 80.1756 243.433 80.3722 243.325L79.4105 241.571C79.0697 241.758 78.7538 241.989 78.5054 242.281L80.0293 243.577ZM80.3605 243.331C80.4686 243.274 80.6268 243.227 80.8663 243.227V241.227C80.3605 241.227 79.8687 241.328 79.4222 241.565L80.3605 243.331ZM80.8663 243.227C81.2419 243.227 81.3963 243.334 81.4863 243.438L83.0023 242.134C82.451 241.493 81.6868 241.227 80.8663 241.227V243.227ZM81.495 243.448C81.627 243.598 81.7383 243.836 81.7383 244.268H83.7383C83.7383 243.469 83.5204 242.72 82.9937 242.124L81.495 243.448ZM81.7383 244.268C81.7383 244.353 81.7326 244.439 81.7211 244.526L83.7036 244.79C83.7267 244.617 83.7383 244.443 83.7383 244.268H81.7383ZM81.7145 244.591C81.7106 244.651 81.707 244.696 81.7038 244.729C81.7004 244.765 81.6986 244.774 81.6999 244.767L83.6727 245.095C83.6904 244.989 83.7015 244.854 83.7101 244.725L81.7145 244.591ZM82.6863 243.931H81.1003V245.931H82.6863V243.931ZM82.1003 244.931V244.632H80.1003V244.931H82.1003ZM91.5001 248.012L90.766 248.691L90.7748 248.701L90.7839 248.71L91.5001 248.012ZM91.6561 250.43L90.8379 249.855L90.8379 249.855L91.6561 250.43ZM90.7331 251.171L90.327 250.257L90.3146 250.263L90.3024 250.269L90.7331 251.171ZM85.3771 251.002L86.0063 250.225L86.0041 250.223L85.3771 251.002ZM85.1171 248.961L84.3107 248.37L84.3072 248.374L85.1171 248.961ZM85.8321 248.376L86.2459 249.286L87.9034 248.533L86.3784 247.538L85.8321 248.376ZM85.3771 247.895L84.4992 248.374L84.4992 248.374L85.3771 247.895ZM85.5331 246.439L86.2805 247.103L86.2865 247.097L86.2924 247.09L85.5331 246.439ZM86.3391 245.919L86.6403 246.873L88.7218 246.215L86.8646 245.068L86.3391 245.919ZM85.6501 245.23L84.7834 245.729L84.7903 245.741L85.6501 245.23ZM86.1181 242.812L85.4917 242.032L85.4849 242.038L86.1181 242.812ZM89.5371 242.383L89.2286 243.334L89.6552 243.473L90.0423 243.246L89.5371 242.383ZM90.2781 241.746L89.4359 241.207L89.4359 241.207L90.2781 241.746ZM90.5121 241.161V240.161H89.6071L89.5171 241.061L90.5121 241.161ZM91.9941 241.161H92.9941V240.161H91.9941V241.161ZM90.6161 242.877L90.3779 241.906L89.842 242.037L89.6674 242.561L90.6161 242.877ZM90.6031 242.916L89.6544 242.6L89.4407 243.241L89.9559 243.678L90.6031 242.916ZM90.9671 245.373L91.7886 245.943L91.7957 245.933L90.9671 245.373ZM90.0441 246.127L90.467 247.033L90.4756 247.029L90.0441 246.127ZM87.1841 246.569L86.5767 245.775L86.565 245.784L86.5535 245.793L87.1841 246.569ZM87.1711 247.349L86.5798 248.155L86.592 248.164L86.6046 248.173L87.1711 247.349ZM87.5481 245.035L86.9234 245.816L86.9331 245.824L86.943 245.831L87.5481 245.035ZM89.1991 245.035L89.8042 245.831L89.8141 245.824L89.8238 245.816L89.1991 245.035ZM89.1991 243.618L88.5744 244.399L88.5841 244.407L88.594 244.414L89.1991 243.618ZM87.5481 243.618L88.1532 244.414L88.1631 244.407L88.1728 244.399L87.5481 243.618ZM89.9921 250.066L89.3725 249.281L89.3601 249.291L89.348 249.301L89.9921 250.066ZM90.0311 249.156L90.6896 248.403L90.6759 248.391L90.6617 248.38L90.0311 249.156ZM86.7291 249.169L86.0706 248.416L86.0577 248.428L86.0452 248.439L86.7291 249.169ZM90.1091 248.492C90.5211 248.492 90.685 248.603 90.766 248.691L92.2342 247.333C91.6739 246.727 90.9104 246.492 90.1091 246.492V248.492ZM90.7839 248.71C90.8997 248.829 90.9941 249.008 90.9941 249.351H92.9941C92.9941 248.585 92.7592 247.871 92.2164 247.314L90.7839 248.71ZM90.9941 249.351C90.9941 249.548 90.9428 249.706 90.8379 249.855L92.4743 251.005C92.8201 250.513 92.9941 249.952 92.9941 249.351H90.9941ZM90.8379 249.855C90.7259 250.014 90.5667 250.151 90.327 250.257L91.1393 252.085C91.6796 251.845 92.1357 251.487 92.4743 251.005L90.8379 249.855ZM90.3024 250.269C90.0695 250.38 89.7943 250.444 89.4591 250.444V252.444C90.06 252.444 90.6341 252.326 91.1639 252.073L90.3024 250.269ZM89.4591 250.444H86.7161V252.444H89.4591V250.444ZM86.7161 250.444C86.3853 250.444 86.1695 250.357 86.0063 250.225L84.7479 251.779C85.3128 252.237 85.9896 252.444 86.7161 252.444V250.444ZM86.0041 250.223C85.9152 250.151 85.8441 250.056 85.8441 249.806H83.8441C83.8441 250.579 84.1284 251.281 84.7501 251.781L86.0041 250.223ZM85.8441 249.806C85.8441 249.703 85.8693 249.627 85.9271 249.548L84.3072 248.374C84.0009 248.797 83.8441 249.285 83.8441 249.806H85.8441ZM85.9235 249.552C86.0156 249.427 86.1202 249.344 86.2459 249.286L85.4183 247.466C84.9721 247.668 84.6 247.975 84.3107 248.37L85.9235 249.552ZM86.3784 247.538C86.304 247.49 86.2724 247.448 86.255 247.416L84.4992 248.374C84.6898 248.723 84.9616 249.002 85.2859 249.214L86.3784 247.538ZM86.255 247.416C86.2342 247.378 86.2211 247.336 86.2211 247.271H84.2211C84.2211 247.657 84.312 248.031 84.4992 248.374L86.255 247.416ZM86.2211 247.271C86.2211 247.189 86.2395 247.149 86.2805 247.103L84.7857 245.775C84.4107 246.197 84.2211 246.712 84.2211 247.271H86.2211ZM86.2924 247.09C86.3691 247 86.474 246.925 86.6403 246.873L86.038 244.965C85.5456 245.121 85.1131 245.392 84.7739 245.788L86.2924 247.09ZM86.8646 245.068C86.6968 244.965 86.5863 244.848 86.51 244.719L84.7903 245.741C85.0433 246.167 85.3921 246.509 85.8136 246.77L86.8646 245.068ZM86.5167 244.731C86.4368 244.592 86.4031 244.46 86.4031 244.32H84.4031C84.4031 244.821 84.5341 245.296 84.7835 245.729L86.5167 244.731ZM86.4031 244.32C86.4031 244.005 86.5066 243.786 86.7514 243.586L85.4849 242.038C84.7763 242.618 84.4031 243.404 84.4031 244.32H86.4031ZM86.7445 243.592C86.9837 243.399 87.4304 243.227 88.2371 243.227V241.227C87.1891 241.227 86.2233 241.445 85.4917 242.032L86.7445 243.592ZM88.2371 243.227H88.4451V241.227H88.2371V243.227ZM88.4451 243.227C88.7688 243.227 89.0258 243.268 89.2286 243.334L89.8456 241.432C89.4071 241.29 88.9361 241.227 88.4451 241.227V243.227ZM90.0423 243.246C90.4608 243.001 90.8603 242.691 91.1204 242.285L89.4359 241.207C89.4186 241.234 89.3241 241.349 89.0319 241.52L90.0423 243.246ZM91.1204 242.285C91.3066 241.994 91.4685 241.647 91.5072 241.261L89.5171 241.061C89.5194 241.038 89.5232 241.038 89.5121 241.066C89.5011 241.094 89.4785 241.14 89.4359 241.207L91.1204 242.285ZM90.5121 242.161H91.9941V240.161H90.5121V242.161ZM90.9941 241.161C90.9941 241.451 90.9241 241.585 90.8699 241.653C90.8133 241.723 90.6859 241.83 90.3779 241.906L90.8543 243.848C91.465 243.698 92.0267 243.407 92.4293 242.905C92.8345 242.401 92.9941 241.789 92.9941 241.161H90.9941ZM89.6674 242.561L89.6544 242.6L91.5518 243.232L91.5648 243.193L89.6674 242.561ZM89.9559 243.678C90.2176 243.9 90.2921 244.1 90.2921 244.32H92.2921C92.2921 243.448 91.9073 242.712 91.2504 242.154L89.9559 243.678ZM90.2921 244.32C90.2921 244.499 90.2453 244.655 90.1385 244.813L91.7957 245.933C92.1223 245.449 92.2921 244.904 92.2921 244.32H90.2921ZM90.1458 244.803C90.0432 244.95 89.8806 245.097 89.6127 245.225L90.4756 247.029C91.005 246.776 91.4577 246.42 91.7885 245.943L90.1458 244.803ZM89.6212 245.221C89.3862 245.33 89.0845 245.4 88.6921 245.4V247.4C89.3224 247.4 89.922 247.288 90.467 247.033L89.6212 245.221ZM88.6921 245.4H87.7951V247.4H88.6921V245.4ZM87.7951 245.4C87.4018 245.4 86.9564 245.484 86.5767 245.775L87.7916 247.363C87.7717 247.379 87.7534 247.389 87.739 247.396C87.7248 247.403 87.7157 247.406 87.714 247.406C87.7123 247.407 87.7176 247.405 87.7313 247.403C87.745 247.402 87.766 247.4 87.7951 247.4V245.4ZM86.5535 245.793C86.2541 246.036 85.9761 246.423 85.9761 246.946H87.9761C87.9761 247.052 87.9477 247.151 87.9037 247.231C87.8631 247.304 87.8215 247.34 87.8147 247.345L86.5535 245.793ZM85.9761 246.946C85.9761 247.41 86.1712 247.856 86.5798 248.155L87.7625 246.543C87.8183 246.584 87.8808 246.65 87.925 246.741C87.9681 246.83 87.9761 246.906 87.9761 246.946H85.9761ZM86.6046 248.173C86.9865 248.436 87.4343 248.492 87.7951 248.492V246.492C87.7541 246.492 87.722 246.49 87.6979 246.488C87.6736 246.485 87.6598 246.483 87.6545 246.482C87.6418 246.479 87.6794 246.485 87.7377 246.525L86.6046 248.173ZM87.7951 248.492H90.1091V246.492H87.7951V248.492ZM86.2231 244.32C86.2231 244.895 86.4454 245.433 86.9234 245.816L88.1728 244.254C88.1746 244.256 88.1817 244.262 88.1908 244.273C88.2001 244.285 88.2084 244.298 88.2147 244.312C88.2283 244.342 88.2231 244.351 88.2231 244.32H86.2231ZM86.943 245.831C87.3679 246.154 87.8664 246.282 88.3671 246.282V244.282C88.2092 244.282 88.1617 244.245 88.1532 244.239L86.943 245.831ZM88.3671 246.282C88.8698 246.282 89.375 246.157 89.8042 245.831L88.594 244.239C88.5899 244.242 88.5405 244.282 88.3671 244.282V246.282ZM89.8238 245.816C90.3019 245.433 90.5241 244.895 90.5241 244.32H88.5241C88.5241 244.351 88.5189 244.342 88.5325 244.312C88.5389 244.298 88.5472 244.285 88.5564 244.273C88.5655 244.262 88.5727 244.256 88.5744 244.254L89.8238 245.816ZM90.5241 244.32C90.5241 243.745 90.3007 243.199 89.8042 242.822L88.594 244.414C88.5889 244.41 88.5784 244.401 88.5662 244.386C88.5539 244.371 88.5433 244.354 88.5354 244.337C88.5188 244.301 88.5241 244.288 88.5241 244.32H90.5241ZM89.8238 242.837C89.3937 242.493 88.8811 242.358 88.3671 242.358V244.358C88.5292 244.358 88.5712 244.396 88.5744 244.399L89.8238 242.837ZM88.3671 242.358C87.8549 242.358 87.3491 242.497 86.9234 242.837L88.1728 244.399C88.1805 244.393 88.2207 244.358 88.3671 244.358V242.358ZM86.943 242.822C86.4466 243.199 86.2231 243.745 86.2231 244.32H88.2231C88.2231 244.288 88.2285 244.301 88.2118 244.337C88.2039 244.354 88.1933 244.371 88.181 244.386C88.1689 244.401 88.1584 244.41 88.1532 244.414L86.943 242.822ZM89.4071 251.274C89.8562 251.274 90.2824 251.129 90.6363 250.831L89.348 249.301C89.35 249.299 89.3548 249.296 89.3623 249.291C89.3699 249.287 89.3785 249.283 89.3874 249.28C89.4066 249.273 89.4158 249.274 89.4071 249.274V251.274ZM90.6118 250.851C90.9753 250.564 91.2391 250.135 91.2391 249.598H89.2391C89.2391 249.532 89.2558 249.455 89.293 249.385C89.3281 249.318 89.3658 249.286 89.3725 249.281L90.6118 250.851ZM91.2391 249.598C91.2391 249.116 91.0298 248.701 90.6896 248.403L89.3726 249.909C89.3518 249.89 89.3136 249.85 89.2823 249.783C89.2503 249.715 89.2391 249.649 89.2391 249.598H91.2391ZM90.6617 248.38C90.3024 248.088 89.8788 247.987 89.4851 247.987V249.987C89.5153 249.987 89.5153 249.991 89.4949 249.985C89.4721 249.977 89.4368 249.962 89.4005 249.932L90.6617 248.38ZM89.4851 247.987H87.2231V249.987H89.4851V247.987ZM87.2231 247.987C86.7995 247.987 86.3984 248.13 86.0706 248.416L87.3876 249.922C87.3696 249.937 87.3404 249.957 87.3023 249.971C87.2648 249.985 87.2355 249.987 87.2231 249.987V247.987ZM86.0452 248.439C85.7265 248.738 85.5211 249.146 85.5211 249.624H87.5211C87.5211 249.675 87.5099 249.736 87.4826 249.796C87.4562 249.854 87.4254 249.887 87.4131 249.899L86.0452 248.439ZM85.5211 249.624C85.5211 250.102 85.7265 250.51 86.0452 250.809L87.4131 249.349C87.4254 249.361 87.4562 249.394 87.4826 249.452C87.5099 249.512 87.5211 249.573 87.5211 249.624H85.5211ZM86.0452 250.809C86.3698 251.113 86.7793 251.274 87.2231 251.274V249.274C87.2437 249.274 87.2805 249.278 87.3238 249.295C87.3672 249.312 87.3972 249.335 87.4131 249.349L86.0452 250.809ZM87.2231 251.274H89.4071V249.274H87.2231V251.274ZM95.9439 243.8L95.2368 244.507L95.245 244.515L95.2534 244.523L95.9439 243.8ZM94.4229 243.657L94.8333 244.569L94.8519 244.561L94.8701 244.551L94.4229 243.657ZM94.0199 243.956L93.2336 243.338L93.2194 243.356L93.2062 243.375L94.0199 243.956ZM93.8899 244.398V245.398H94.8899V244.398H93.8899ZM92.0569 244.398L91.0705 244.562L91.2098 245.398H92.0569V244.398ZM92.3949 243.163L91.6341 242.514L91.6285 242.521L91.623 242.527L92.3949 243.163ZM93.4349 242.474L93.0858 241.537L93.0858 241.537L93.4349 242.474ZM97.3609 242.786L96.7518 243.579L96.7609 243.586L97.3609 242.786ZM98.1929 247.713L97.4455 248.377L97.465 248.399L97.4858 248.42L98.1929 247.713ZM98.7519 247.778L98.4357 246.829L98.4357 246.829L98.7519 247.778ZM98.9989 247.687H99.9989V246.17L98.605 246.768L98.9989 247.687ZM98.9989 248.857L99.4925 249.727L99.9989 249.439V248.857H98.9989ZM96.7629 248.844L96.1415 249.627L96.1499 249.634L96.1585 249.641L96.7629 248.844ZM96.3209 248.012L97.3135 247.891L97.029 245.558L95.5453 247.381L96.3209 248.012ZM92.4599 248.727L91.9252 249.572L91.9252 249.572L92.4599 248.727ZM92.3429 245.789L93.0219 246.523L93.0227 246.522L92.3429 245.789ZM93.8119 245.126L93.9896 246.11L93.9896 246.11L93.8119 245.126ZM96.2299 244.957V245.957H97.2299V244.957H96.2299ZM96.2299 246.023H97.2299V245.023H96.2299V246.023ZM94.3839 246.27L94.7483 247.201L94.7587 247.197L94.3839 246.27ZM94.0199 247.661L93.406 248.45L93.43 248.469L93.4552 248.486L94.0199 247.661ZM95.4369 247.648L95.911 248.528L95.911 248.528L95.4369 247.648ZM95.9959 247.128L95.1737 246.559L95.1662 246.57L95.1589 246.581L95.9959 247.128ZM97.2299 244.515C97.2299 243.983 97.047 243.471 96.6344 243.077L95.2534 244.523C95.252 244.522 95.2476 244.517 95.2422 244.51C95.2369 244.502 95.2327 244.494 95.2299 244.487C95.2272 244.48 95.227 244.477 95.2276 244.481C95.2283 244.484 95.2299 244.495 95.2299 244.515H97.2299ZM96.651 243.093C96.194 242.636 95.5715 242.527 95.0469 242.527V244.527C95.1867 244.527 95.2622 244.543 95.292 244.552C95.3178 244.56 95.2842 244.555 95.2368 244.507L96.651 243.093ZM95.0469 242.527C94.6872 242.527 94.3184 242.591 93.9757 242.763L94.8701 244.551C94.874 244.549 94.9212 244.527 95.0469 244.527V242.527ZM94.0125 242.745C93.7256 242.874 93.4492 243.064 93.2336 243.338L94.8062 244.574C94.7945 244.589 94.7863 244.595 94.788 244.593C94.7902 244.592 94.8034 244.582 94.8333 244.569L94.0125 242.745ZM93.2062 243.375C93.0489 243.595 92.8899 243.909 92.8899 244.294H94.8899C94.8899 244.471 94.8176 244.56 94.8336 244.537L93.2062 243.375ZM92.8899 244.294V244.398H94.8899V244.294H92.8899ZM93.8899 243.398H92.0569V245.398H93.8899V243.398ZM93.0433 244.234C93.0367 244.194 93.0331 244.167 93.0313 244.151C93.0304 244.143 93.0302 244.14 93.0303 244.141C93.0303 244.142 93.0309 244.15 93.0309 244.164H91.0309C91.0309 244.302 91.0513 244.447 91.0705 244.562L93.0433 244.234ZM93.0309 244.164C93.0309 244.029 93.0677 243.919 93.1668 243.799L91.623 242.527C91.2368 242.996 91.0309 243.553 91.0309 244.164H93.0309ZM93.1557 243.812C93.2749 243.672 93.467 243.529 93.784 243.411L93.0858 241.537C92.5188 241.748 92.0175 242.064 91.6341 242.514L93.1557 243.812ZM93.784 243.411C94.0934 243.296 94.4785 243.227 94.9559 243.227V241.227C94.2893 241.227 93.6604 241.323 93.0858 241.537L93.784 243.411ZM94.9559 243.227H95.2289V241.227H94.9559V243.227ZM95.2289 243.227C96.055 243.227 96.5122 243.395 96.7519 243.579L97.9699 241.993C97.239 241.432 96.2748 241.227 95.2289 241.227V243.227ZM96.7609 243.586C96.9781 243.749 97.0889 243.946 97.0889 244.294H99.0889C99.0889 243.359 98.7144 242.551 97.9609 241.986L96.7609 243.586ZM97.0889 244.294V247.362H99.0889V244.294H97.0889ZM97.0889 247.362C97.0889 247.645 97.1492 248.044 97.4455 248.377L98.9403 247.049C99.0979 247.226 99.0889 247.391 99.0889 247.362H97.0889ZM97.4858 248.42C97.7387 248.673 98.0793 248.83 98.4659 248.83V246.83C98.5424 246.83 98.6283 246.845 98.7136 246.882C98.7976 246.918 98.8593 246.965 98.9 247.006L97.4858 248.42ZM98.4659 248.83C98.6842 248.83 98.8879 248.787 99.0681 248.727L98.4357 246.829C98.4228 246.834 98.419 246.834 98.4235 246.833C98.4281 246.832 98.4427 246.83 98.4659 246.83V248.83ZM99.0681 248.727C99.1837 248.688 99.2956 248.648 99.3928 248.606L98.605 246.768C98.5809 246.778 98.5281 246.799 98.4357 246.829L99.0681 248.727ZM97.9989 247.687V248.857H99.9989V247.687H97.9989ZM98.5053 247.987C98.3624 248.068 98.1582 248.13 97.8549 248.13V250.13C98.4355 250.13 98.994 250.01 99.4925 249.727L98.5053 247.987ZM97.8549 248.13C97.4906 248.13 97.376 248.054 97.3673 248.047L96.1585 249.641C96.6525 250.015 97.2658 250.13 97.8549 250.13V248.13ZM97.3843 248.061C97.3637 248.044 97.3291 248.018 97.3135 247.891L95.3282 248.133C95.3994 248.716 95.6594 249.245 96.1415 249.627L97.3843 248.061ZM95.5453 247.381C95.1097 247.916 94.6394 248.13 94.0849 248.13V250.13C95.2984 250.13 96.3188 249.599 97.0965 248.643L95.5453 247.381ZM94.0849 248.13C93.5578 248.13 93.2166 248.022 92.9945 247.882L91.9252 249.572C92.5525 249.969 93.2946 250.13 94.0849 250.13V248.13ZM92.9945 247.882C92.9864 247.877 92.8229 247.788 92.8229 247.193H90.8229C90.8229 248.106 91.084 249.04 91.9252 249.572L92.9945 247.882ZM92.8229 247.193C92.8229 246.767 92.9372 246.601 93.0219 246.523L91.6638 245.055C91.0552 245.618 90.8229 246.388 90.8229 247.193H92.8229ZM93.0227 246.522C93.2008 246.357 93.4964 246.199 93.9896 246.11L93.6342 244.142C92.8793 244.278 92.1956 244.562 91.6631 245.056L93.0227 246.522ZM93.9896 246.11C94.532 246.012 95.2725 245.957 96.2299 245.957V243.957C95.2113 243.957 94.3398 244.015 93.6342 244.142L93.9896 246.11ZM97.2299 244.957V244.515H95.2299V244.957H97.2299ZM96.2299 245.023C95.3705 245.023 94.5986 245.105 94.0091 245.343L94.7587 247.197C94.9839 247.106 95.4426 247.023 96.2299 247.023V245.023ZM94.0195 245.339C93.7012 245.463 93.3815 245.661 93.1418 245.974C92.8934 246.298 92.7859 246.674 92.7859 247.05H94.7859C94.7859 247.051 94.7856 247.07 94.7758 247.101C94.7657 247.133 94.7493 247.164 94.729 247.19C94.6886 247.243 94.6679 247.233 94.7483 247.201L94.0195 245.339ZM92.7859 247.05C92.7859 247.5 92.9116 248.066 93.406 248.45L94.6338 246.872C94.7145 246.934 94.759 247.009 94.7782 247.06C94.7942 247.101 94.7859 247.107 94.7859 247.05H92.7859ZM93.4552 248.486C93.8627 248.765 94.3487 248.83 94.7609 248.83V246.83C94.6501 246.83 94.5836 246.82 94.551 246.813C94.5183 246.805 94.5394 246.805 94.5846 246.836L93.4552 248.486ZM94.7609 248.83C95.173 248.83 95.56 248.717 95.911 248.528L94.9628 246.768C94.8632 246.821 94.7994 246.83 94.7609 246.83V248.83ZM95.911 248.528C96.2909 248.324 96.5992 248.033 96.8329 247.675L95.1589 246.581C95.098 246.674 95.0336 246.729 94.9628 246.768L95.911 248.528ZM96.8181 247.697C97.0913 247.303 97.2299 246.852 97.2299 246.374H95.2299C95.2299 246.451 95.2125 246.503 95.1737 246.559L96.8181 247.697ZM97.2299 246.374V246.023H95.2299V246.374H97.2299ZM101.1 243.189L100.127 243.417L100.613 245.491L101.898 243.792L101.1 243.189ZM104.376 242.604L103.859 243.46L103.859 243.46L104.376 242.604ZM105.364 243.748L106.268 243.319L106.268 243.319L105.364 243.748ZM105.39 247.622L104.478 247.213L104.478 247.213L105.39 247.622ZM104.467 248.753L103.926 247.912L103.917 247.918L104.467 248.753ZM102.062 248.87L101.577 249.744L101.587 249.75L102.062 248.87ZM101.308 248.233L102.105 247.629L100.308 245.26V248.233H101.308ZM101.308 251.353V252.353H102.308V251.353H101.308ZM99.4104 251.353H98.4104V252.353H99.4104V251.353ZM99.4104 242.357V241.357H98.4104V242.357H99.4104ZM100.905 242.357L101.879 242.129L101.698 241.357H100.905V242.357ZM103.453 243.93L102.699 244.587L102.699 244.587L103.453 243.93ZM101.659 243.93L102.414 244.587L102.414 244.587L101.659 243.93ZM101.659 247.349L100.895 247.994L100.9 248L100.905 248.006L101.659 247.349ZM103.453 247.349L104.208 248.006L104.213 248L104.218 247.994L103.453 247.349ZM101.898 243.792C102.206 243.385 102.542 243.227 102.972 243.227V241.227C101.877 241.227 100.965 241.71 100.303 242.586L101.898 243.792ZM102.972 243.227C103.323 243.227 103.61 243.309 103.859 243.46L104.894 241.748C104.311 241.396 103.661 241.227 102.972 241.227V243.227ZM103.859 243.46C104.081 243.594 104.288 243.813 104.461 244.177L106.268 243.319C105.955 242.661 105.504 242.117 104.894 241.748L103.859 243.46ZM104.461 244.177C104.623 244.517 104.728 244.993 104.728 245.646H106.728C106.728 244.791 106.592 244.001 106.268 243.319L104.461 244.177ZM104.728 245.646V245.789H106.728V245.646H104.728ZM104.728 245.789C104.728 246.409 104.631 246.872 104.478 247.213L106.303 248.031C106.601 247.367 106.728 246.608 106.728 245.789H104.728ZM104.478 247.213C104.317 247.573 104.125 247.784 103.926 247.912L105.009 249.594C105.59 249.219 106.013 248.677 106.303 248.031L104.478 247.213ZM103.917 247.918C103.71 248.055 103.47 248.13 103.167 248.13V250.13C103.836 250.13 104.463 249.954 105.018 249.588L103.917 247.918ZM103.167 248.13C102.894 248.13 102.693 248.074 102.538 247.99L101.587 249.75C102.073 250.013 102.609 250.13 103.167 250.13V248.13ZM102.548 247.996C102.341 247.881 102.202 247.756 102.105 247.629L100.512 248.837C100.797 249.213 101.159 249.512 101.577 249.744L102.548 247.996ZM100.308 248.233V251.353H102.308V248.233H100.308ZM101.308 250.353H99.4104V252.353H101.308V250.353ZM100.41 251.353V242.357H98.4104V251.353H100.41ZM99.4104 243.357H100.905V241.357H99.4104V243.357ZM99.9318 242.585L100.127 243.417L102.074 242.961L101.879 242.129L99.9318 242.585ZM104.804 245.1C104.804 244.451 104.657 243.789 104.208 243.273L102.699 244.587C102.718 244.608 102.804 244.727 102.804 245.1H104.804ZM104.208 243.273C103.779 242.781 103.202 242.527 102.556 242.527V244.527C102.613 244.527 102.637 244.537 102.644 244.54C102.65 244.543 102.669 244.552 102.699 244.587L104.208 243.273ZM102.556 242.527C101.91 242.527 101.334 242.781 100.905 243.273L102.414 244.587C102.444 244.552 102.462 244.543 102.469 244.54C102.476 244.537 102.5 244.527 102.556 244.527V242.527ZM100.905 243.273C100.456 243.789 100.308 244.451 100.308 245.1H102.308C102.308 244.727 102.395 244.608 102.414 244.587L100.905 243.273ZM100.308 245.1V246.179H102.308V245.1H100.308ZM100.308 246.179C100.308 246.827 100.459 247.477 100.895 247.994L102.424 246.704C102.392 246.666 102.308 246.536 102.308 246.179H100.308ZM100.905 248.006C101.334 248.498 101.91 248.752 102.556 248.752V246.752C102.5 246.752 102.476 246.742 102.469 246.739C102.462 246.736 102.444 246.727 102.414 246.692L100.905 248.006ZM102.556 248.752C103.202 248.752 103.779 248.498 104.208 248.006L102.699 246.692C102.669 246.727 102.65 246.736 102.644 246.739C102.637 246.742 102.613 246.752 102.556 246.752V248.752ZM104.218 247.994C104.654 247.477 104.804 246.827 104.804 246.179H102.804C102.804 246.536 102.721 246.666 102.689 246.704L104.218 247.994ZM104.804 246.179V245.1H102.804V246.179H104.804Z" fill="black"/>
</svg>
