<svg width="360" height="360" viewBox="0 0 360 360" fill="none" xmlns="http://www.w3.org/2000/svg">
<rect width="360" height="360" rx="20" fill="white"/>
<path fill-rule="evenodd" clip-rule="evenodd" d="M34.5099 47.2369V35.5203H49.6492V40.9645H39.9163V47.2369H34.5099Z" fill="black"/>
<path fill-rule="evenodd" clip-rule="evenodd" d="M53.222 47.2435V35.5359H68.3472V40.9549H58.657V47.2418L53.222 47.2435Z" fill="black"/>
<path fill-rule="evenodd" clip-rule="evenodd" d="M53.228 50.4094H58.6574V56.6897H68.3275V62.0971H53.228V50.4094Z" fill="black"/>
<path fill-rule="evenodd" clip-rule="evenodd" d="M71.9882 62.1232V50.4014H77.4055V56.6937H87.0983V62.116L71.9882 62.1232Z" fill="black"/>
<path fill-rule="evenodd" clip-rule="evenodd" d="M34.5038 56.6911H44.1821V50.3782H49.634V62.1153H34.5038V56.6911Z" fill="black"/>
<path fill-rule="evenodd" clip-rule="evenodd" d="M103.432 40.8722L101.683 41.1077C101.498 40.3003 100.758 39.8124 99.7146 39.8124C98.8735 39.8124 98.167 40.1152 98.167 40.6703C98.167 41.1918 98.6717 41.4778 99.4455 41.646L100.421 41.8479C102.103 42.218 103.533 42.689 103.533 44.3039C103.533 46.0533 101.885 47.0122 99.9333 47.0122C97.7633 47.0122 96.3671 45.7842 96.1989 44.287L98.0156 44.0179C98.167 44.9094 98.8062 45.5991 100.001 45.5991C101.027 45.5991 101.7 45.2291 101.7 44.5562C101.7 43.8833 100.976 43.6478 100.118 43.4628L99.0249 43.2273C97.5782 42.9245 96.4007 42.3357 96.4007 40.7881C96.4007 39.3078 97.9651 38.3994 99.8492 38.3994C101.582 38.3994 103.113 39.2573 103.432 40.8722ZM108.664 47.0122C105.922 47.0122 104.542 45.1113 104.542 42.7058C104.542 40.1657 106.174 38.3994 108.613 38.3994C111.238 38.3994 112.768 40.4012 112.617 43.2609H106.427C106.46 44.6235 107.369 45.515 108.63 45.515C109.808 45.515 110.396 44.9599 110.682 44.2198L112.482 44.4553C112.095 45.6832 110.901 47.0122 108.664 47.0122ZM108.63 39.8293C107.537 39.8293 106.494 40.4517 106.427 41.8815H110.716C110.666 40.6199 109.757 39.8293 108.63 39.8293ZM115.981 38.5676V39.5938C116.452 38.8536 117.344 38.3994 118.521 38.3994C119.581 38.3994 120.372 38.7527 120.843 39.4255C121.196 39.947 121.381 40.6535 121.381 41.7133V46.8103H119.514V42.1843C119.514 41.3096 119.43 40.704 119.06 40.3339C118.824 40.0984 118.437 39.947 117.933 39.947C116.503 39.947 115.981 41.0236 115.981 42.5376V46.8103H114.114V38.5676H115.981ZM129.96 40.8722L128.211 41.1077C128.026 40.3003 127.286 39.8124 126.243 39.8124C125.402 39.8124 124.695 40.1152 124.695 40.6703C124.695 41.1918 125.2 41.4778 125.973 41.646L126.949 41.8479C128.631 42.218 130.061 42.689 130.061 44.3039C130.061 46.0533 128.413 47.0122 126.461 47.0122C124.291 47.0122 122.895 45.7842 122.727 44.287L124.544 44.0179C124.695 44.9094 125.334 45.5991 126.529 45.5991C127.555 45.5991 128.228 45.2291 128.228 44.5562C128.228 43.8833 127.504 43.6478 126.646 43.4628L125.553 43.2273C124.106 42.9245 122.929 42.3357 122.929 40.7881C122.929 39.3078 124.493 38.3994 126.377 38.3994C128.11 38.3994 129.641 39.2573 129.96 40.8722ZM135.192 47.0122C132.45 47.0122 131.07 45.1113 131.07 42.7058C131.07 40.1657 132.702 38.3994 135.141 38.3994C137.766 38.3994 139.296 40.4012 139.145 43.2609H132.955C132.988 44.6235 133.897 45.515 135.158 45.515C136.336 45.515 136.924 44.9599 137.21 44.2198L139.01 44.4553C138.623 45.6832 137.429 47.0122 135.192 47.0122ZM135.158 39.8293C134.065 39.8293 133.022 40.4517 132.955 41.8815H137.244C137.194 40.6199 136.285 39.8293 135.158 39.8293ZM142.173 41.1245L140.44 41.0741C140.558 39.4424 141.887 38.3658 144.057 38.3658C146.446 38.3658 147.472 39.2237 147.472 41.5283C147.472 42.0666 147.438 43.4459 147.438 43.9001C147.438 44.9599 147.489 45.8178 147.606 46.8103H145.857L145.806 45.8178C145.285 46.5916 144.477 47.0122 143.132 47.0122C141.231 47.0122 140.154 45.7337 140.154 44.3207C140.154 43.5132 140.524 42.9076 141.063 42.5376C141.803 42.0329 142.812 41.8311 144.074 41.6797L145.621 41.5114V41.2255C145.621 40.0984 144.948 39.762 143.956 39.762C142.896 39.762 142.257 40.2498 142.173 41.1245ZM145.689 43.3787V42.874L144.124 43.0422C142.711 43.1936 142.089 43.5805 142.089 44.3375C142.089 45.044 142.644 45.5487 143.535 45.5487C144.629 45.5487 145.689 44.9263 145.689 43.3787ZM149.389 46.8103V35.6406H151.257V39.5433C151.778 38.8031 152.552 38.3994 153.662 38.3994C155.714 38.3994 157.195 40.0143 157.195 42.7226C157.195 45.3636 155.63 47.0122 153.528 47.0122C152.451 47.0122 151.677 46.558 151.223 45.9692L151.189 46.8103H149.389ZM153.275 39.8965C152.047 39.8965 151.173 40.8722 151.173 42.7226C151.173 44.5394 152.03 45.515 153.275 45.515C154.571 45.515 155.277 44.4048 155.277 42.7058C155.277 41.0068 154.587 39.8965 153.275 39.8965ZM160.593 35.6406V46.8103H158.726V35.6406H160.593ZM166.228 47.0122C163.486 47.0122 162.107 45.1113 162.107 42.7058C162.107 40.1657 163.738 38.3994 166.178 38.3994C168.802 38.3994 170.333 40.4012 170.181 43.2609H163.991C164.024 44.6235 164.933 45.515 166.194 45.515C167.372 45.515 167.961 44.9599 168.247 44.2198L170.047 44.4553C169.66 45.6832 168.465 47.0122 166.228 47.0122ZM166.194 39.8293C165.101 39.8293 164.058 40.4517 163.991 41.8815H168.28C168.23 40.6199 167.321 39.8293 166.194 39.8293Z" fill="black"/>
<path fill-rule="evenodd" clip-rule="evenodd" d="M100.32 53.4809C102.187 53.4809 103.668 54.5744 104.021 56.307L102.221 56.5593C102.053 55.6678 101.38 54.9781 100.27 54.9781C99.0586 54.9781 98.1502 55.9033 98.1502 57.7705C98.1502 59.6546 99.0754 60.5966 100.27 60.5966C101.212 60.5966 102.036 60.1256 102.272 58.9985L104.088 59.234C103.668 61.0676 102.086 62.0937 100.236 62.0937C97.696 62.0937 96.2325 60.2938 96.2325 57.7873C96.2325 55.2809 97.7296 53.4809 100.32 53.4809ZM105.501 53.6492H107.369V61.8919H105.501V53.6492ZM105.501 50.7222H107.369V52.6062H105.501V50.7222ZM109.707 53.6492V51.2605H111.574V53.6492H113.256V55.079H111.574V59.3518C111.574 60.2097 111.776 60.4115 112.566 60.4115H113.239V61.8919H111.877C110.077 61.8919 109.707 61.404 109.707 59.6882V55.079H108.462V53.6492H109.707ZM115.207 64.802H114.366V63.2376H115.073C115.88 63.2376 116.217 63.1367 116.604 62.0432L116.688 61.8414L113.643 53.6492H115.679L117.579 59.52L119.497 53.6492H121.398L118.437 61.875C117.647 64.045 117.092 64.802 115.207 64.802ZM127.908 50.7222V61.8919H126.041V50.7222H127.908ZM131.508 56.2061L129.775 56.1556C129.893 54.5239 131.222 53.4473 133.392 53.4473C135.781 53.4473 136.807 54.3052 136.807 56.6098C136.807 57.1481 136.773 58.5275 136.773 58.9817C136.773 60.0415 136.824 60.8994 136.941 61.8919H135.192L135.141 60.8994C134.62 61.6732 133.812 62.0937 132.467 62.0937C130.566 62.0937 129.489 60.8153 129.489 59.4022C129.489 58.5948 129.859 57.9892 130.398 57.6191C131.138 57.1145 132.147 56.9126 133.409 56.7612L134.956 56.593V56.307C134.956 55.1799 134.283 54.8435 133.291 54.8435C132.231 54.8435 131.592 55.3313 131.508 56.2061ZM135.024 58.4602V57.9555L133.459 58.1238C132.046 58.2752 131.424 58.6621 131.424 59.419C131.424 60.1256 131.979 60.6302 132.87 60.6302C133.964 60.6302 135.024 60.0078 135.024 58.4602ZM138.724 61.8919V50.7222H140.592V54.6248C141.113 53.8847 141.887 53.4809 142.997 53.4809C145.049 53.4809 146.53 55.0958 146.53 57.8042C146.53 60.4452 144.965 62.0937 142.863 62.0937C141.786 62.0937 141.012 61.6395 140.558 61.0508L140.524 61.8919H138.724ZM142.61 54.9781C141.382 54.9781 140.507 55.9538 140.507 57.8042C140.507 59.6209 141.365 60.5966 142.61 60.5966C143.906 60.5966 144.612 59.4863 144.612 57.7873C144.612 56.0883 143.922 54.9781 142.61 54.9781ZM149.642 61.8919H147.522V59.7723H149.642V61.8919Z" fill="black"/>
<path d="M33.99 231.832C33.99 232.795 34.2497 233.542 34.769 234.074C35.2883 234.593 35.947 234.853 36.745 234.853C37.6443 234.853 38.3093 234.612 38.74 234.131C39.1707 233.637 39.386 232.883 39.386 231.87H42.065C42.065 232.985 41.837 233.947 41.381 234.758C40.9377 235.556 40.3233 236.164 39.538 236.582C38.7527 236.987 37.866 237.19 36.878 237.19H36.612C35.5227 237.19 34.5473 236.968 33.686 236.525C32.8247 236.082 32.147 235.429 31.653 234.568C31.159 233.694 30.912 232.643 30.912 231.414V229.552C30.912 228.361 31.159 227.329 31.653 226.455C32.147 225.581 32.8183 224.916 33.667 224.46C34.5283 224.004 35.4847 223.776 36.536 223.776H36.802C37.8153 223.776 38.7147 223.979 39.5 224.384C40.298 224.777 40.925 225.378 41.381 226.189C41.837 226.987 42.065 227.969 42.065 229.134H39.272C39.272 228.146 39.0503 227.399 38.607 226.892C38.1763 226.373 37.5493 226.113 36.726 226.113C35.928 226.113 35.2693 226.379 34.75 226.911C34.2433 227.43 33.99 228.171 33.99 229.134V231.832ZM52.8307 232.421C52.8307 233.396 52.6217 234.245 52.2037 234.967C51.7984 235.689 51.2347 236.24 50.5127 236.62C49.7907 237 48.9801 237.19 48.0807 237.19H47.7767C46.8774 237.19 46.0667 237 45.3447 236.62C44.6227 236.24 44.0527 235.689 43.6347 234.967C43.2294 234.245 43.0267 233.396 43.0267 232.421V231.87C43.0267 230.895 43.2294 230.046 43.6347 229.324C44.0527 228.602 44.6227 228.051 45.3447 227.671C46.0667 227.291 46.8774 227.101 47.7767 227.101H48.0807C48.9801 227.101 49.7907 227.291 50.5127 227.671C51.2347 228.051 51.7984 228.602 52.2037 229.324C52.6217 230.046 52.8307 230.895 52.8307 231.87V232.421ZM50.0187 231.376C50.0187 230.603 49.8224 230.014 49.4297 229.609C49.0497 229.204 48.5494 229.001 47.9287 229.001C47.3081 229.001 46.8014 229.204 46.4087 229.609C46.0287 230.014 45.8387 230.603 45.8387 231.376V232.915C45.8387 233.688 46.0287 234.277 46.4087 234.682C46.8014 235.087 47.3081 235.29 47.9287 235.29C48.5494 235.29 49.0497 235.087 49.4297 234.682C49.8224 234.277 50.0187 233.688 50.0187 232.915V231.376ZM62.9684 234.72C62.9684 234.91 63.0254 235.056 63.1394 235.157C63.2534 235.246 63.3801 235.29 63.5194 235.29C63.6461 235.29 63.7854 235.265 63.9374 235.214C64.0894 235.163 64.2097 235.119 64.2984 235.081V236.791C63.8297 237.057 63.2724 237.19 62.6264 237.19C61.3597 237.19 60.6251 236.728 60.4224 235.803C59.6244 236.728 58.6491 237.19 57.4964 237.19C56.5084 237.19 55.6914 236.924 55.0454 236.392C54.4121 235.86 54.0954 235.087 54.0954 234.074V227.291H56.8694V233.466C56.8694 233.96 57.0087 234.372 57.2874 234.701C57.5787 235.018 57.9461 235.176 58.3894 235.176C58.8834 235.176 59.3077 234.992 59.6624 234.625C60.0171 234.245 60.1944 233.789 60.1944 233.257V227.291H62.9684V234.72ZM65.0072 237V223.32H67.7812V237H65.0072ZM75.8808 235.784C75.1715 236.721 74.2595 237.19 73.1448 237.19C72.3848 237.19 71.7008 237.006 71.0928 236.639C70.4848 236.272 70.0035 235.714 69.6488 234.967C69.2942 234.22 69.1168 233.295 69.1168 232.193V231.984C69.1168 230.933 69.2815 230.04 69.6108 229.305C69.9402 228.57 70.3835 228.019 70.9408 227.652C71.5108 227.285 72.1505 227.101 72.8598 227.101C73.4678 227.101 73.9998 227.228 74.4558 227.481C74.9245 227.734 75.2982 228.045 75.5768 228.412V223.32H78.3508V237H76.1658L75.8808 235.784ZM71.9288 232.991C71.9288 233.726 72.0998 234.296 72.4418 234.701C72.7838 235.094 73.2208 235.29 73.7528 235.29C74.2848 235.29 74.7218 235.094 75.0638 234.701C75.4058 234.296 75.5768 233.726 75.5768 232.991V231.414C75.5768 230.667 75.4058 230.097 75.0638 229.704C74.7218 229.311 74.2848 229.115 73.7528 229.115C73.2208 229.115 72.7838 229.311 72.4418 229.704C72.0998 230.097 71.9288 230.667 71.9288 231.414V232.991ZM88.9045 225.258C88.7398 225.207 88.5371 225.163 88.2965 225.125C88.0558 225.074 87.8658 225.049 87.7265 225.049C87.4225 225.049 87.1628 225.125 86.9475 225.277C86.7448 225.429 86.6435 225.733 86.6435 226.189V227.291H88.9045V229.191H86.6435V237H83.8695V229.191H82.7295V227.291H83.8695V226.018C83.8695 224.118 84.8448 223.168 86.7955 223.168C87.1121 223.168 87.4795 223.206 87.8975 223.282C88.3155 223.358 88.6511 223.453 88.9045 223.567V225.258ZM98.6568 233.371C98.6568 234.22 98.4541 234.935 98.0488 235.518C97.6435 236.088 97.1051 236.512 96.4338 236.791C95.7751 237.057 95.0531 237.19 94.2678 237.19H93.9638C93.0645 237.19 92.2538 237 91.5318 236.62C90.8098 236.24 90.2398 235.695 89.8218 234.986C89.4165 234.264 89.2138 233.409 89.2138 232.421V231.87C89.2138 230.895 89.4228 230.046 89.8408 229.324C90.2588 228.602 90.8225 228.051 91.5318 227.671C92.2538 227.291 93.0645 227.101 93.9638 227.101H94.2678C95.0531 227.101 95.7815 227.266 96.4528 227.595C97.1241 227.912 97.6625 228.38 98.0678 229.001C98.4731 229.609 98.6758 230.331 98.6758 231.167V232.611H92.0258V233.067C92.0258 233.7 92.2095 234.232 92.5768 234.663C92.9568 235.081 93.4698 235.29 94.1158 235.29C94.6985 235.29 95.1545 235.132 95.4838 234.815C95.8258 234.486 95.9968 234.004 95.9968 233.371H98.6568ZM93.9828 229.001C93.4255 229.001 92.9695 229.197 92.6148 229.59C92.2728 229.983 92.0765 230.483 92.0258 231.091H95.8638C95.8638 230.445 95.7118 229.938 95.4078 229.571C95.1165 229.191 94.6415 229.001 93.9828 229.001ZM105.23 227.101C105.851 227.101 106.408 227.234 106.902 227.5C107.396 227.766 107.776 228.152 108.042 228.659C108.701 227.62 109.645 227.101 110.873 227.101C111.785 227.101 112.539 227.38 113.134 227.937C113.742 228.482 114.046 229.242 114.046 230.217V237H111.272V230.768C111.272 230.236 111.158 229.831 110.93 229.552C110.702 229.261 110.386 229.115 109.98 229.115C109.537 229.115 109.163 229.292 108.859 229.647C108.555 230.002 108.403 230.445 108.403 230.977V237H105.629V230.768C105.629 230.249 105.509 229.843 105.268 229.552C105.04 229.261 104.724 229.115 104.318 229.115C103.875 229.115 103.501 229.292 103.197 229.647C102.906 230.002 102.76 230.445 102.76 230.977V237H99.9865V227.291H102.076C102.152 227.608 102.254 228.083 102.38 228.716C102.722 228.171 103.134 227.766 103.615 227.5C104.109 227.234 104.648 227.101 105.23 227.101ZM121.706 230.445C121.706 230.014 121.566 229.666 121.288 229.4C121.022 229.134 120.585 229.001 119.977 229.001C119.622 229.001 119.318 229.064 119.065 229.191C118.811 229.305 118.615 229.451 118.476 229.628C118.349 229.805 118.286 229.97 118.286 230.122V230.274H115.607C115.581 230.122 115.569 230.008 115.569 229.932C115.569 229.387 115.746 228.9 116.101 228.469C116.468 228.038 116.975 227.703 117.621 227.462C118.267 227.221 119.008 227.101 119.844 227.101H120.243C121.611 227.101 122.649 227.373 123.359 227.918C124.068 228.45 124.423 229.185 124.423 230.122V234.606C124.423 234.834 124.473 235.005 124.575 235.119C124.689 235.233 124.822 235.29 124.974 235.29C125.1 235.29 125.24 235.265 125.392 235.214C125.544 235.163 125.664 235.119 125.753 235.081V236.791C125.284 237.057 124.727 237.19 124.081 237.19C123.384 237.19 122.852 237.051 122.485 236.772C122.117 236.481 121.902 236.075 121.839 235.556C120.952 236.645 119.863 237.19 118.571 237.19C117.608 237.19 116.816 236.994 116.196 236.601C115.575 236.208 115.265 235.461 115.265 234.359C115.265 233.46 115.518 232.776 116.025 232.307C116.544 231.826 117.26 231.503 118.172 231.338C119.084 231.173 120.262 231.091 121.706 231.091V230.445ZM121.706 232.649C120.502 232.649 119.603 232.769 119.008 233.01C118.425 233.238 118.134 233.618 118.134 234.15C118.134 234.568 118.248 234.866 118.476 235.043C118.716 235.208 119.077 235.29 119.559 235.29C119.888 235.29 120.217 235.201 120.547 235.024C120.876 234.847 121.148 234.593 121.364 234.264C121.592 233.935 121.706 233.567 121.706 233.162V232.649ZM126.354 237V223.32H129.128V237H126.354ZM139.907 233.371C139.907 234.22 139.704 234.935 139.299 235.518C138.894 236.088 138.355 236.512 137.684 236.791C137.025 237.057 136.303 237.19 135.518 237.19H135.214C134.315 237.19 133.504 237 132.782 236.62C132.06 236.24 131.49 235.695 131.072 234.986C130.667 234.264 130.464 233.409 130.464 232.421V231.87C130.464 230.895 130.673 230.046 131.091 229.324C131.509 228.602 132.073 228.051 132.782 227.671C133.504 227.291 134.315 227.101 135.214 227.101H135.518C136.303 227.101 137.032 227.266 137.703 227.595C138.374 227.912 138.913 228.38 139.318 229.001C139.723 229.609 139.926 230.331 139.926 231.167V232.611H133.276V233.067C133.276 233.7 133.46 234.232 133.827 234.663C134.207 235.081 134.72 235.29 135.366 235.29C135.949 235.29 136.405 235.132 136.734 234.815C137.076 234.486 137.247 234.004 137.247 233.371H139.907ZM135.233 229.001C134.676 229.001 134.22 229.197 133.865 229.59C133.523 229.983 133.327 230.483 133.276 231.091H137.114C137.114 230.445 136.962 229.938 136.658 229.571C136.367 229.191 135.892 229.001 135.233 229.001ZM144.651 237V223.32H147.425V237H144.651ZM158.204 233.371C158.204 234.22 158.001 234.935 157.596 235.518C157.191 236.088 156.652 236.512 155.981 236.791C155.322 237.057 154.6 237.19 153.815 237.19H153.511C152.612 237.19 151.801 237 151.079 236.62C150.357 236.24 149.787 235.695 149.369 234.986C148.964 234.264 148.761 233.409 148.761 232.421V231.87C148.761 230.895 148.97 230.046 149.388 229.324C149.806 228.602 150.37 228.051 151.079 227.671C151.801 227.291 152.612 227.101 153.511 227.101H153.815C154.6 227.101 155.329 227.266 156 227.595C156.671 227.912 157.21 228.38 157.615 229.001C158.02 229.609 158.223 230.331 158.223 231.167V232.611H151.573V233.067C151.573 233.7 151.757 234.232 152.124 234.663C152.504 235.081 153.017 235.29 153.663 235.29C154.246 235.29 154.702 235.132 155.031 234.815C155.373 234.486 155.544 234.004 155.544 233.371H158.204ZM153.53 229.001C152.973 229.001 152.517 229.197 152.162 229.59C151.82 229.983 151.624 230.483 151.573 231.091H155.411C155.411 230.445 155.259 229.938 154.955 229.571C154.664 229.191 154.189 229.001 153.53 229.001ZM165.481 230.445C165.481 230.014 165.341 229.666 165.063 229.4C164.797 229.134 164.36 229.001 163.752 229.001C163.397 229.001 163.093 229.064 162.84 229.191C162.586 229.305 162.39 229.451 162.251 229.628C162.124 229.805 162.061 229.97 162.061 230.122V230.274H159.382C159.356 230.122 159.344 230.008 159.344 229.932C159.344 229.387 159.521 228.9 159.876 228.469C160.243 228.038 160.75 227.703 161.396 227.462C162.042 227.221 162.783 227.101 163.619 227.101H164.018C165.386 227.101 166.424 227.373 167.134 227.918C167.843 228.45 168.198 229.185 168.198 230.122V234.606C168.198 234.834 168.248 235.005 168.35 235.119C168.464 235.233 168.597 235.29 168.749 235.29C168.875 235.29 169.015 235.265 169.167 235.214C169.319 235.163 169.439 235.119 169.528 235.081V236.791C169.059 237.057 168.502 237.19 167.856 237.19C167.159 237.19 166.627 237.051 166.26 236.772C165.892 236.481 165.677 236.075 165.614 235.556C164.727 236.645 163.638 237.19 162.346 237.19C161.383 237.19 160.591 236.994 159.971 236.601C159.35 236.208 159.04 235.461 159.04 234.359C159.04 233.46 159.293 232.776 159.8 232.307C160.319 231.826 161.035 231.503 161.947 231.338C162.859 231.173 164.037 231.091 165.481 231.091V230.445ZM165.481 232.649C164.277 232.649 163.378 232.769 162.783 233.01C162.2 233.238 161.909 233.618 161.909 234.15C161.909 234.568 162.023 234.866 162.251 235.043C162.491 235.208 162.852 235.29 163.334 235.29C163.663 235.29 163.992 235.201 164.322 235.024C164.651 234.847 164.923 234.593 165.139 234.264C165.367 233.935 165.481 233.567 165.481 233.162V232.649ZM176.456 235.784C175.747 236.721 174.835 237.19 173.72 237.19C172.96 237.19 172.276 237.006 171.668 236.639C171.06 236.272 170.579 235.714 170.224 234.967C169.869 234.22 169.692 233.295 169.692 232.193V231.984C169.692 230.933 169.857 230.04 170.186 229.305C170.515 228.57 170.959 228.019 171.516 227.652C172.086 227.285 172.726 227.101 173.435 227.101C174.043 227.101 174.575 227.228 175.031 227.481C175.5 227.734 175.873 228.045 176.152 228.412V223.32H178.926V237H176.741L176.456 235.784ZM172.504 232.991C172.504 233.726 172.675 234.296 173.017 234.701C173.359 235.094 173.796 235.29 174.328 235.29C174.86 235.29 175.297 235.094 175.639 234.701C175.981 234.296 176.152 233.726 176.152 232.991V231.414C176.152 230.667 175.981 230.097 175.639 229.704C175.297 229.311 174.86 229.115 174.328 229.115C173.796 229.115 173.359 229.311 173.017 229.704C172.675 230.097 172.504 230.667 172.504 231.414V232.991ZM189.675 233.371C189.675 234.22 189.472 234.935 189.067 235.518C188.662 236.088 188.123 236.512 187.452 236.791C186.793 237.057 186.071 237.19 185.286 237.19H184.982C184.083 237.19 183.272 237 182.55 236.62C181.828 236.24 181.258 235.695 180.84 234.986C180.435 234.264 180.232 233.409 180.232 232.421V231.87C180.232 230.895 180.441 230.046 180.859 229.324C181.277 228.602 181.841 228.051 182.55 227.671C183.272 227.291 184.083 227.101 184.982 227.101H185.286C186.071 227.101 186.8 227.266 187.471 227.595C188.142 227.912 188.681 228.38 189.086 229.001C189.491 229.609 189.694 230.331 189.694 231.167V232.611H183.044V233.067C183.044 233.7 183.228 234.232 183.595 234.663C183.975 235.081 184.488 235.29 185.134 235.29C185.717 235.29 186.173 235.132 186.502 234.815C186.844 234.486 187.015 234.004 187.015 233.371H189.675ZM185.001 229.001C184.444 229.001 183.988 229.197 183.633 229.59C183.291 229.983 183.095 230.483 183.044 231.091H186.882C186.882 230.445 186.73 229.938 186.426 229.571C186.135 229.191 185.66 229.001 185.001 229.001ZM196.458 230.616C196.458 230.223 196.35 229.888 196.135 229.609C195.919 229.318 195.577 229.172 195.109 229.172C194.665 229.172 194.323 229.349 194.083 229.704C193.855 230.046 193.741 230.477 193.741 230.996V237H191.005V227.291H193.057L193.399 228.716C193.449 228.577 193.576 228.38 193.779 228.127C193.994 227.874 194.298 227.639 194.691 227.424C195.096 227.209 195.571 227.101 196.116 227.101C196.99 227.101 197.661 227.373 198.13 227.918C198.611 228.463 198.852 229.185 198.852 230.084C198.852 230.274 198.839 230.464 198.814 230.654C198.801 230.844 198.788 230.977 198.776 231.053H196.458V230.616ZM201.289 234.036C201.289 234.479 201.485 234.802 201.878 235.005C202.27 235.195 202.758 235.29 203.341 235.29C203.847 235.29 204.297 235.214 204.69 235.062C205.095 234.91 205.298 234.669 205.298 234.34C205.298 233.985 205.114 233.732 204.747 233.58C204.379 233.428 203.809 233.295 203.037 233.181C202.226 233.042 201.561 232.89 201.042 232.725C200.522 232.56 200.073 232.275 199.693 231.87C199.325 231.465 199.142 230.901 199.142 230.179C199.142 229.52 199.332 228.963 199.712 228.507C200.104 228.038 200.617 227.69 201.251 227.462C201.897 227.221 202.6 227.101 203.36 227.101H203.74C204.411 227.101 205.044 227.215 205.64 227.443C206.248 227.658 206.735 227.969 207.103 228.374C207.47 228.767 207.654 229.216 207.654 229.723C207.654 229.824 207.647 229.919 207.635 230.008C207.622 230.084 207.616 230.128 207.616 230.141H205.184C205.184 229.381 204.601 229.001 203.436 229.001C202.904 229.001 202.473 229.077 202.144 229.229C201.827 229.381 201.669 229.59 201.669 229.856C201.669 230.173 201.84 230.394 202.182 230.521C202.536 230.648 203.087 230.768 203.835 230.882C204.683 231.021 205.367 231.173 205.887 231.338C206.419 231.49 206.881 231.775 207.274 232.193C207.666 232.598 207.863 233.175 207.863 233.922C207.863 235.075 207.457 235.911 206.647 236.43C205.836 236.937 204.804 237.19 203.55 237.19H202.923C202.137 237.19 201.434 237.07 200.814 236.829C200.193 236.588 199.705 236.246 199.351 235.803C199.009 235.36 198.838 234.853 198.838 234.283L198.857 233.903H201.289V234.036ZM215.212 228.241C215.946 227.481 216.846 227.101 217.91 227.101C218.898 227.101 219.708 227.367 220.342 227.899C220.988 228.431 221.311 229.204 221.311 230.217V237H218.537V230.825C218.537 230.331 218.391 229.926 218.1 229.609C217.821 229.28 217.46 229.115 217.017 229.115C216.523 229.115 216.098 229.305 215.744 229.685C215.389 230.052 215.212 230.502 215.212 231.034V237H212.438V223.32H215.212V228.241ZM232.039 233.371C232.039 234.22 231.836 234.935 231.431 235.518C231.026 236.088 230.487 236.512 229.816 236.791C229.157 237.057 228.435 237.19 227.65 237.19H227.346C226.447 237.19 225.636 237 224.914 236.62C224.192 236.24 223.622 235.695 223.204 234.986C222.799 234.264 222.596 233.409 222.596 232.421V231.87C222.596 230.895 222.805 230.046 223.223 229.324C223.641 228.602 224.205 228.051 224.914 227.671C225.636 227.291 226.447 227.101 227.346 227.101H227.65C228.435 227.101 229.164 227.266 229.835 227.595C230.506 227.912 231.045 228.38 231.45 229.001C231.855 229.609 232.058 230.331 232.058 231.167V232.611H225.408V233.067C225.408 233.7 225.592 234.232 225.959 234.663C226.339 235.081 226.852 235.29 227.498 235.29C228.081 235.29 228.537 235.132 228.866 234.815C229.208 234.486 229.379 234.004 229.379 233.371H232.039ZM227.365 229.001C226.808 229.001 226.352 229.197 225.997 229.59C225.655 229.983 225.459 230.483 225.408 231.091H229.246C229.246 230.445 229.094 229.938 228.79 229.571C228.499 229.191 228.024 229.001 227.365 229.001ZM233.369 237V223.32H236.143V237H233.369ZM240.385 228.507C241.095 227.57 242.007 227.101 243.121 227.101C243.881 227.101 244.565 227.285 245.173 227.652C245.781 228.019 246.263 228.577 246.617 229.324C246.972 230.071 247.149 230.996 247.149 232.098V232.307C247.149 233.358 246.985 234.251 246.655 234.986C246.326 235.721 245.876 236.272 245.306 236.639C244.749 237.006 244.116 237.19 243.406 237.19C242.798 237.19 242.26 237.063 241.791 236.81C241.335 236.557 240.968 236.246 240.689 235.879V240.439H237.915V227.291H240.1L240.385 228.507ZM244.337 231.3C244.337 230.553 244.166 229.983 243.824 229.59C243.482 229.197 243.045 229.001 242.513 229.001C241.981 229.001 241.544 229.197 241.202 229.59C240.86 229.983 240.689 230.553 240.689 231.3V232.877C240.689 233.612 240.86 234.182 241.202 234.587C241.544 234.98 241.981 235.176 242.513 235.176C243.045 235.176 243.482 234.98 243.824 234.587C244.166 234.182 244.337 233.612 244.337 232.877V231.3ZM257.133 236.829C256.88 236.93 256.544 237.013 256.126 237.076C255.721 237.152 255.36 237.19 255.043 237.19C254.068 237.19 253.333 236.981 252.839 236.563C252.345 236.145 252.098 235.448 252.098 234.473V229.191H251.034V227.291H252.193L253.162 224.194H254.872V227.291H257.133V229.191H254.872V233.998C254.872 234.505 254.967 234.847 255.157 235.024C255.36 235.201 255.626 235.29 255.955 235.29C256.107 235.29 256.303 235.265 256.544 235.214C256.785 235.163 256.981 235.106 257.133 235.043V236.829ZM267.528 232.421C267.528 233.396 267.319 234.245 266.901 234.967C266.495 235.689 265.932 236.24 265.21 236.62C264.488 237 263.677 237.19 262.778 237.19H262.474C261.574 237.19 260.764 237 260.042 236.62C259.32 236.24 258.75 235.689 258.332 234.967C257.926 234.245 257.724 233.396 257.724 232.421V231.87C257.724 230.895 257.926 230.046 258.332 229.324C258.75 228.602 259.32 228.051 260.042 227.671C260.764 227.291 261.574 227.101 262.474 227.101H262.778C263.677 227.101 264.488 227.291 265.21 227.671C265.932 228.051 266.495 228.602 266.901 229.324C267.319 230.046 267.528 230.895 267.528 231.87V232.421ZM264.716 231.376C264.716 230.603 264.519 230.014 264.127 229.609C263.747 229.204 263.246 229.001 262.626 229.001C262.005 229.001 261.498 229.204 261.106 229.609C260.726 230.014 260.536 230.603 260.536 231.376V232.915C260.536 233.688 260.726 234.277 261.106 234.682C261.498 235.087 262.005 235.29 262.626 235.29C263.246 235.29 263.747 235.087 264.127 234.682C264.519 234.277 264.716 233.688 264.716 232.915V231.376ZM277.641 225.258C277.477 225.207 277.274 225.163 277.033 225.125C276.793 225.074 276.603 225.049 276.463 225.049C276.159 225.049 275.9 225.125 275.684 225.277C275.482 225.429 275.38 225.733 275.38 226.189V227.291H277.641V229.191H275.38V237H272.606V229.191H271.466V227.291H272.606V226.018C272.606 224.118 273.582 223.168 275.532 223.168C275.849 223.168 276.216 223.206 276.634 223.282C277.052 223.358 277.388 223.453 277.641 223.567V225.258ZM279.123 223.32H281.935V225.505H279.123V223.32ZM279.142 237V227.291H281.916V237H279.142ZM283.657 237V223.32H286.431V237H283.657ZM288.204 237V223.32H290.978V237H288.204ZM301.428 236.829C301.175 236.93 300.839 237.013 300.421 237.076C300.016 237.152 299.655 237.19 299.338 237.19C298.363 237.19 297.628 236.981 297.134 236.563C296.64 236.145 296.393 235.448 296.393 234.473V229.191H295.329V227.291H296.488L297.457 224.194H299.167V227.291H301.428V229.191H299.167V233.998C299.167 234.505 299.262 234.847 299.452 235.024C299.655 235.201 299.921 235.29 300.25 235.29C300.402 235.29 300.599 235.265 300.839 235.214C301.08 235.163 301.276 235.106 301.428 235.043V236.829ZM305.23 228.241C305.965 227.481 306.864 227.101 307.928 227.101C308.916 227.101 309.727 227.367 310.36 227.899C311.006 228.431 311.329 229.204 311.329 230.217V237H308.555V230.825C308.555 230.331 308.409 229.926 308.118 229.609C307.839 229.28 307.478 229.115 307.035 229.115C306.541 229.115 306.117 229.305 305.762 229.685C305.407 230.052 305.23 230.502 305.23 231.034V237H302.456V223.32H305.23V228.241ZM322.057 233.371C322.057 234.22 321.855 234.935 321.449 235.518C321.044 236.088 320.506 236.512 319.834 236.791C319.176 237.057 318.454 237.19 317.668 237.19H317.364C316.465 237.19 315.654 237 314.932 236.62C314.21 236.24 313.64 235.695 313.222 234.986C312.817 234.264 312.614 233.409 312.614 232.421V231.87C312.614 230.895 312.823 230.046 313.241 229.324C313.659 228.602 314.223 228.051 314.932 227.671C315.654 227.291 316.465 227.101 317.364 227.101H317.668C318.454 227.101 319.182 227.266 319.853 227.595C320.525 227.912 321.063 228.38 321.468 229.001C321.874 229.609 322.076 230.331 322.076 231.167V232.611H315.426V233.067C315.426 233.7 315.61 234.232 315.977 234.663C316.357 235.081 316.87 235.29 317.516 235.29C318.099 235.29 318.555 235.132 318.884 234.815C319.226 234.486 319.397 234.004 319.397 233.371H322.057ZM317.383 229.001C316.826 229.001 316.37 229.197 316.015 229.59C315.673 229.983 315.477 230.483 315.426 231.091H319.264C319.264 230.445 319.112 229.938 318.808 229.571C318.517 229.191 318.042 229.001 317.383 229.001ZM37.923 261.796C38.8097 261.796 39.4873 262.049 39.956 262.556C40.4373 263.05 40.678 263.702 40.678 264.513C40.678 265.096 40.5133 265.621 40.184 266.09C39.8547 266.559 39.405 266.92 38.835 267.173C38.2777 267.439 37.657 267.572 36.973 267.572H32.964C32.1913 267.572 31.539 267.357 31.007 266.926C30.4877 266.508 30.228 265.925 30.228 265.178C30.228 264.722 30.361 264.31 30.627 263.943C30.9057 263.563 31.254 263.278 31.672 263.088C31.3807 262.898 31.159 262.664 31.007 262.385C30.855 262.106 30.779 261.802 30.779 261.473C30.779 261.004 30.931 260.599 31.235 260.257C31.539 259.902 31.9317 259.649 32.413 259.497C31.9823 259.231 31.6467 258.895 31.406 258.49C31.1653 258.072 31.045 257.629 31.045 257.16C31.045 256.261 31.3933 255.526 32.09 254.956C32.7993 254.386 33.8317 254.101 35.187 254.101H35.491C36.0863 254.101 36.6183 254.177 37.087 254.329C37.6063 254.025 37.9673 253.715 38.17 253.398C38.3727 253.081 38.4867 252.796 38.512 252.543H40.678C40.678 253.886 40.0067 254.722 38.664 255.051L38.645 255.108C39.3163 255.678 39.652 256.362 39.652 257.16C39.652 257.717 39.4937 258.23 39.177 258.699C38.8603 259.155 38.4107 259.522 37.828 259.801C37.258 260.067 36.5993 260.2 35.852 260.2H34.541C34.161 260.2 33.8633 260.282 33.648 260.447C33.4453 260.612 33.344 260.795 33.344 260.998C33.344 261.251 33.439 261.448 33.629 261.587C33.8317 261.726 34.1357 261.796 34.541 261.796H37.923ZM33.705 257.16C33.705 257.603 33.8633 257.952 34.18 258.205C34.4967 258.446 34.8957 258.566 35.377 258.566C35.871 258.566 36.2763 258.446 36.593 258.205C36.9097 257.952 37.068 257.603 37.068 257.16C37.068 256.717 36.9097 256.375 36.593 256.134C36.2763 255.881 35.871 255.754 35.377 255.754C34.8957 255.754 34.4967 255.881 34.18 256.134C33.8633 256.375 33.705 256.717 33.705 257.16ZM36.897 265.862C37.2263 265.862 37.5113 265.761 37.752 265.558C37.9927 265.368 38.113 265.14 38.113 264.874C38.113 264.621 38.0117 264.405 37.809 264.228C37.6063 264.063 37.3403 263.981 37.011 263.981H33.705C33.4263 263.981 33.1857 264.07 32.983 264.247C32.7803 264.437 32.679 264.659 32.679 264.912C32.679 265.165 32.7803 265.387 32.983 265.577C33.1857 265.767 33.4263 265.862 33.705 265.862H36.897ZM50.373 260.371C50.373 261.22 50.1704 261.935 49.765 262.518C49.3597 263.088 48.8214 263.512 48.15 263.791C47.4914 264.057 46.7694 264.19 45.984 264.19H45.68C44.7807 264.19 43.97 264 43.248 263.62C42.526 263.24 41.956 262.695 41.538 261.986C41.1327 261.264 40.93 260.409 40.93 259.421V258.87C40.93 257.895 41.139 257.046 41.557 256.324C41.975 255.602 42.5387 255.051 43.248 254.671C43.97 254.291 44.7807 254.101 45.68 254.101H45.984C46.7694 254.101 47.4977 254.266 48.169 254.595C48.8404 254.912 49.3787 255.38 49.784 256.001C50.1894 256.609 50.392 257.331 50.392 258.167V259.611H43.742V260.067C43.742 260.7 43.9257 261.232 44.293 261.663C44.673 262.081 45.186 262.29 45.832 262.29C46.4147 262.29 46.8707 262.132 47.2 261.815C47.542 261.486 47.713 261.004 47.713 260.371H50.373ZM45.699 256.001C45.1417 256.001 44.6857 256.197 44.331 256.59C43.989 256.983 43.7927 257.483 43.742 258.091H47.58C47.58 257.445 47.428 256.938 47.124 256.571C46.8327 256.191 46.3577 256.001 45.699 256.001ZM54.0777 255.716C54.8757 254.639 55.9081 254.101 57.1747 254.101C58.1627 254.101 58.9734 254.367 59.6067 254.899C60.2528 255.431 60.5758 256.204 60.5758 257.217V264H57.8018V257.825C57.8018 257.331 57.6561 256.926 57.3647 256.609C57.0861 256.28 56.7251 256.115 56.2817 256.115C55.7877 256.115 55.3634 256.305 55.0087 256.685C54.6541 257.052 54.4767 257.502 54.4767 258.034V264H51.7027V254.291H53.7737L54.0777 255.716ZM68.6067 262.784C67.8973 263.721 66.9853 264.19 65.8707 264.19C65.1107 264.19 64.4267 264.006 63.8187 263.639C63.2107 263.272 62.7293 262.714 62.3747 261.967C62.02 261.22 61.8427 260.295 61.8427 259.193V258.984C61.8427 257.933 62.0073 257.04 62.3367 256.305C62.666 255.57 63.1093 255.019 63.6667 254.652C64.2367 254.285 64.8763 254.101 65.5857 254.101C66.1937 254.101 66.7257 254.228 67.1817 254.481C67.6503 254.734 68.024 255.045 68.3027 255.412V250.32H71.0767V264H68.8917L68.6067 262.784ZM64.6547 259.991C64.6547 260.726 64.8257 261.296 65.1677 261.701C65.5097 262.094 65.9467 262.29 66.4787 262.29C67.0107 262.29 67.4477 262.094 67.7897 261.701C68.1317 261.296 68.3027 260.726 68.3027 259.991V258.414C68.3027 257.667 68.1317 257.097 67.7897 256.704C67.4477 256.311 67.0107 256.115 66.4787 256.115C65.9467 256.115 65.5097 256.311 65.1677 256.704C64.8257 257.097 64.6547 257.667 64.6547 258.414V259.991ZM81.8255 260.371C81.8255 261.22 81.6228 261.935 81.2175 262.518C80.8121 263.088 80.2738 263.512 79.6025 263.791C78.9438 264.057 78.2218 264.19 77.4365 264.19H77.1325C76.2331 264.19 75.4225 264 74.7005 263.62C73.9785 263.24 73.4085 262.695 72.9905 261.986C72.5851 261.264 72.3825 260.409 72.3825 259.421V258.87C72.3825 257.895 72.5915 257.046 73.0095 256.324C73.4275 255.602 73.9911 255.051 74.7005 254.671C75.4225 254.291 76.2331 254.101 77.1325 254.101H77.4365C78.2218 254.101 78.9501 254.266 79.6215 254.595C80.2928 254.912 80.8311 255.38 81.2365 256.001C81.6418 256.609 81.8445 257.331 81.8445 258.167V259.611H75.1945V260.067C75.1945 260.7 75.3781 261.232 75.7455 261.663C76.1255 262.081 76.6385 262.29 77.2845 262.29C77.8671 262.29 78.3231 262.132 78.6525 261.815C78.9945 261.486 79.1655 261.004 79.1655 260.371H81.8255ZM77.1515 256.001C76.5941 256.001 76.1381 256.197 75.7835 256.59C75.4415 256.983 75.2451 257.483 75.1945 258.091H79.0325C79.0325 257.445 78.8805 256.938 78.5765 256.571C78.2851 256.191 77.8101 256.001 77.1515 256.001ZM88.6082 257.616C88.6082 257.223 88.5005 256.888 88.2852 256.609C88.0698 256.318 87.7278 256.172 87.2592 256.172C86.8158 256.172 86.4738 256.349 86.2332 256.704C86.0052 257.046 85.8912 257.477 85.8912 257.996V264H83.1552V254.291H85.2072L85.5492 255.716C85.5998 255.577 85.7265 255.38 85.9292 255.127C86.1445 254.874 86.4485 254.639 86.8412 254.424C87.2465 254.209 87.7215 254.101 88.2662 254.101C89.1402 254.101 89.8115 254.373 90.2802 254.918C90.7615 255.463 91.0022 256.185 91.0022 257.084C91.0022 257.274 90.9895 257.464 90.9642 257.654C90.9515 257.844 90.9388 257.977 90.9262 258.053H88.6082V257.616ZM101.775 261.796C102.662 261.796 103.339 262.049 103.808 262.556C104.289 263.05 104.53 263.702 104.53 264.513C104.53 265.096 104.365 265.621 104.036 266.09C103.707 266.559 103.257 266.92 102.687 267.173C102.13 267.439 101.509 267.572 100.825 267.572H96.8159C96.0432 267.572 95.3909 267.357 94.8589 266.926C94.3395 266.508 94.0799 265.925 94.0799 265.178C94.0799 264.722 94.2129 264.31 94.4789 263.943C94.7575 263.563 95.1059 263.278 95.5239 263.088C95.2325 262.898 95.0109 262.664 94.8589 262.385C94.7069 262.106 94.6309 261.802 94.6309 261.473C94.6309 261.004 94.7829 260.599 95.0869 260.257C95.3909 259.902 95.7835 259.649 96.2649 259.497C95.8342 259.231 95.4985 258.895 95.2579 258.49C95.0172 258.072 94.8969 257.629 94.8969 257.16C94.8969 256.261 95.2452 255.526 95.9419 254.956C96.6512 254.386 97.6835 254.101 99.0389 254.101H99.3429C99.9382 254.101 100.47 254.177 100.939 254.329C101.458 254.025 101.819 253.715 102.022 253.398C102.225 253.081 102.339 252.796 102.364 252.543H104.53C104.53 253.886 103.859 254.722 102.516 255.051L102.497 255.108C103.168 255.678 103.504 256.362 103.504 257.16C103.504 257.717 103.346 258.23 103.029 258.699C102.712 259.155 102.263 259.522 101.68 259.801C101.11 260.067 100.451 260.2 99.7039 260.2H98.3929C98.0129 260.2 97.7152 260.282 97.4999 260.447C97.2972 260.612 97.1959 260.795 97.1959 260.998C97.1959 261.251 97.2909 261.448 97.4809 261.587C97.6835 261.726 97.9875 261.796 98.3929 261.796H101.775ZM97.5569 257.16C97.5569 257.603 97.7152 257.952 98.0319 258.205C98.3485 258.446 98.7475 258.566 99.2289 258.566C99.7229 258.566 100.128 258.446 100.445 258.205C100.762 257.952 100.92 257.603 100.92 257.16C100.92 256.717 100.762 256.375 100.445 256.134C100.128 255.881 99.7229 255.754 99.2289 255.754C98.7475 255.754 98.3485 255.881 98.0319 256.134C97.7152 256.375 97.5569 256.717 97.5569 257.16ZM100.749 265.862C101.078 265.862 101.363 265.761 101.604 265.558C101.845 265.368 101.965 265.14 101.965 264.874C101.965 264.621 101.864 264.405 101.661 264.228C101.458 264.063 101.192 263.981 100.863 263.981H97.5569C97.2782 263.981 97.0375 264.07 96.8349 264.247C96.6322 264.437 96.5309 264.659 96.5309 264.912C96.5309 265.165 96.6322 265.387 96.8349 265.577C97.0375 265.767 97.2782 265.862 97.5569 265.862H100.749ZM110.721 257.445C110.721 257.014 110.581 256.666 110.303 256.4C110.037 256.134 109.6 256.001 108.992 256.001C108.637 256.001 108.333 256.064 108.08 256.191C107.826 256.305 107.63 256.451 107.491 256.628C107.364 256.805 107.301 256.97 107.301 257.122V257.274H104.622C104.596 257.122 104.584 257.008 104.584 256.932C104.584 256.387 104.761 255.9 105.116 255.469C105.483 255.038 105.99 254.703 106.636 254.462C107.282 254.221 108.023 254.101 108.859 254.101H109.258C110.626 254.101 111.664 254.373 112.374 254.918C113.083 255.45 113.438 256.185 113.438 257.122V261.606C113.438 261.834 113.488 262.005 113.59 262.119C113.704 262.233 113.837 262.29 113.989 262.29C114.115 262.29 114.255 262.265 114.407 262.214C114.559 262.163 114.679 262.119 114.768 262.081V263.791C114.299 264.057 113.742 264.19 113.096 264.19C112.399 264.19 111.867 264.051 111.5 263.772C111.132 263.481 110.917 263.075 110.854 262.556C109.967 263.645 108.878 264.19 107.586 264.19C106.623 264.19 105.831 263.994 105.211 263.601C104.59 263.208 104.28 262.461 104.28 261.359C104.28 260.46 104.533 259.776 105.04 259.307C105.559 258.826 106.275 258.503 107.187 258.338C108.099 258.173 109.277 258.091 110.721 258.091V257.445ZM110.721 259.649C109.517 259.649 108.618 259.769 108.023 260.01C107.44 260.238 107.149 260.618 107.149 261.15C107.149 261.568 107.263 261.866 107.491 262.043C107.731 262.208 108.092 262.29 108.574 262.29C108.903 262.29 109.232 262.201 109.562 262.024C109.891 261.847 110.163 261.593 110.379 261.264C110.607 260.935 110.721 260.567 110.721 260.162V259.649ZM117.839 255.507C118.548 254.57 119.46 254.101 120.575 254.101C121.335 254.101 122.019 254.285 122.627 254.652C123.235 255.019 123.716 255.577 124.071 256.324C124.426 257.071 124.603 257.996 124.603 259.098V259.307C124.603 260.358 124.438 261.251 124.109 261.986C123.78 262.721 123.33 263.272 122.76 263.639C122.203 264.006 121.569 264.19 120.86 264.19C120.252 264.19 119.714 264.063 119.245 263.81C118.789 263.557 118.422 263.246 118.143 262.879V267.439H115.369V254.291H117.554L117.839 255.507ZM121.791 258.3C121.791 257.553 121.62 256.983 121.278 256.59C120.936 256.197 120.499 256.001 119.967 256.001C119.435 256.001 118.998 256.197 118.656 256.59C118.314 256.983 118.143 257.553 118.143 258.3V259.877C118.143 260.612 118.314 261.182 118.656 261.587C118.998 261.98 119.435 262.176 119.967 262.176C120.499 262.176 120.936 261.98 121.278 261.587C121.62 261.182 121.791 260.612 121.791 259.877V258.3ZM129.305 250.32H132.117V252.505H129.305V250.32ZM129.324 264V254.291H132.098V264H129.324ZM136.227 255.716C137.025 254.639 138.057 254.101 139.324 254.101C140.312 254.101 141.122 254.367 141.756 254.899C142.402 255.431 142.725 256.204 142.725 257.217V264H139.951V257.825C139.951 257.331 139.805 256.926 139.514 256.609C139.235 256.28 138.874 256.115 138.431 256.115C137.937 256.115 137.512 256.305 137.158 256.685C136.803 257.052 136.626 257.502 136.626 258.034V264H133.852V254.291H135.923L136.227 255.716ZM149.591 261.036C149.591 261.479 149.788 261.802 150.18 262.005C150.573 262.195 151.061 262.29 151.643 262.29C152.15 262.29 152.6 262.214 152.992 262.062C153.398 261.91 153.6 261.669 153.6 261.34C153.6 260.985 153.417 260.732 153.049 260.58C152.682 260.428 152.112 260.295 151.339 260.181C150.529 260.042 149.864 259.89 149.344 259.725C148.825 259.56 148.375 259.275 147.995 258.87C147.628 258.465 147.444 257.901 147.444 257.179C147.444 256.52 147.634 255.963 148.014 255.507C148.407 255.038 148.92 254.69 149.553 254.462C150.199 254.221 150.902 254.101 151.662 254.101H152.042C152.714 254.101 153.347 254.215 153.942 254.443C154.55 254.658 155.038 254.969 155.405 255.374C155.773 255.767 155.956 256.216 155.956 256.723C155.956 256.824 155.95 256.919 155.937 257.008C155.925 257.084 155.918 257.128 155.918 257.141H153.486C153.486 256.381 152.904 256.001 151.738 256.001C151.206 256.001 150.776 256.077 150.446 256.229C150.13 256.381 149.971 256.59 149.971 256.856C149.971 257.173 150.142 257.394 150.484 257.521C150.839 257.648 151.39 257.768 152.137 257.882C152.986 258.021 153.67 258.173 154.189 258.338C154.721 258.49 155.184 258.775 155.576 259.193C155.969 259.598 156.165 260.175 156.165 260.922C156.165 262.075 155.76 262.911 154.949 263.43C154.139 263.937 153.106 264.19 151.852 264.19H151.225C150.44 264.19 149.737 264.07 149.116 263.829C148.496 263.588 148.008 263.246 147.653 262.803C147.311 262.36 147.14 261.853 147.14 261.283L147.159 260.903H149.591V261.036ZM159.701 260.067C159.701 260.7 159.865 261.232 160.195 261.663C160.524 262.081 160.967 262.29 161.525 262.29C162.107 262.29 162.563 262.113 162.893 261.758C163.235 261.391 163.406 260.852 163.406 260.143H166.028C166.028 261.042 165.831 261.796 165.439 262.404C165.059 263.012 164.552 263.462 163.919 263.753C163.285 264.044 162.589 264.19 161.829 264.19H161.525C160.106 264.19 158.979 263.772 158.143 262.936C157.307 262.087 156.889 260.916 156.889 259.421V258.87C156.889 257.882 157.085 257.033 157.478 256.324C157.883 255.602 158.434 255.051 159.131 254.671C159.827 254.291 160.625 254.101 161.525 254.101H161.829C162.576 254.101 163.266 254.266 163.9 254.595C164.546 254.912 165.059 255.38 165.439 256.001C165.831 256.609 166.028 257.331 166.028 258.167H163.273C163.273 257.508 163.127 256.983 162.836 256.59C162.544 256.197 162.114 256.001 161.544 256.001C160.974 256.001 160.524 256.229 160.195 256.685C159.865 257.128 159.701 257.692 159.701 258.376V260.067ZM167.327 250.32H170.139V252.505H167.327V250.32ZM167.346 264V254.291H170.12V264H167.346ZM180.88 260.371C180.88 261.22 180.677 261.935 180.272 262.518C179.867 263.088 179.328 263.512 178.657 263.791C177.998 264.057 177.276 264.19 176.491 264.19H176.187C175.288 264.19 174.477 264 173.755 263.62C173.033 263.24 172.463 262.695 172.045 261.986C171.64 261.264 171.437 260.409 171.437 259.421V258.87C171.437 257.895 171.646 257.046 172.064 256.324C172.482 255.602 173.046 255.051 173.755 254.671C174.477 254.291 175.288 254.101 176.187 254.101H176.491C177.276 254.101 178.005 254.266 178.676 254.595C179.347 254.912 179.886 255.38 180.291 256.001C180.696 256.609 180.899 257.331 180.899 258.167V259.611H174.249V260.067C174.249 260.7 174.433 261.232 174.8 261.663C175.18 262.081 175.693 262.29 176.339 262.29C176.922 262.29 177.378 262.132 177.707 261.815C178.049 261.486 178.22 261.004 178.22 260.371H180.88ZM176.206 256.001C175.649 256.001 175.193 256.197 174.838 256.59C174.496 256.983 174.3 257.483 174.249 258.091H178.087C178.087 257.445 177.935 256.938 177.631 256.571C177.34 256.191 176.865 256.001 176.206 256.001ZM184.585 255.716C185.383 254.639 186.415 254.101 187.682 254.101C188.67 254.101 189.48 254.367 190.114 254.899C190.76 255.431 191.083 256.204 191.083 257.217V264H188.309V257.825C188.309 257.331 188.163 256.926 187.872 256.609C187.593 256.28 187.232 256.115 186.789 256.115C186.295 256.115 185.87 256.305 185.516 256.685C185.161 257.052 184.984 257.502 184.984 258.034V264H182.21V254.291H184.281L184.585 255.716ZM195.162 260.067C195.162 260.7 195.326 261.232 195.656 261.663C195.985 262.081 196.428 262.29 196.986 262.29C197.568 262.29 198.024 262.113 198.354 261.758C198.696 261.391 198.867 260.852 198.867 260.143H201.489C201.489 261.042 201.292 261.796 200.9 262.404C200.52 263.012 200.013 263.462 199.38 263.753C198.746 264.044 198.05 264.19 197.29 264.19H196.986C195.567 264.19 194.44 263.772 193.604 262.936C192.768 262.087 192.35 260.916 192.35 259.421V258.87C192.35 257.882 192.546 257.033 192.939 256.324C193.344 255.602 193.895 255.051 194.592 254.671C195.288 254.291 196.086 254.101 196.986 254.101H197.29C198.037 254.101 198.727 254.266 199.361 254.595C200.007 254.912 200.52 255.38 200.9 256.001C201.292 256.609 201.489 257.331 201.489 258.167H198.734C198.734 257.508 198.588 256.983 198.297 256.59C198.005 256.197 197.575 256.001 197.005 256.001C196.435 256.001 195.985 256.229 195.656 256.685C195.326 257.128 195.162 257.692 195.162 258.376V260.067ZM211.813 260.371C211.813 261.22 211.61 261.935 211.205 262.518C210.8 263.088 210.261 263.512 209.59 263.791C208.931 264.057 208.209 264.19 207.424 264.19H207.12C206.221 264.19 205.41 264 204.688 263.62C203.966 263.24 203.396 262.695 202.978 261.986C202.573 261.264 202.37 260.409 202.37 259.421V258.87C202.37 257.895 202.579 257.046 202.997 256.324C203.415 255.602 203.979 255.051 204.688 254.671C205.41 254.291 206.221 254.101 207.12 254.101H207.424C208.209 254.101 208.938 254.266 209.609 254.595C210.28 254.912 210.819 255.38 211.224 256.001C211.629 256.609 211.832 257.331 211.832 258.167V259.611H205.182V260.067C205.182 260.7 205.366 261.232 205.733 261.663C206.113 262.081 206.626 262.29 207.272 262.29C207.855 262.29 208.311 262.132 208.64 261.815C208.982 261.486 209.153 261.004 209.153 260.371H211.813ZM207.139 256.001C206.582 256.001 206.126 256.197 205.771 256.59C205.429 256.983 205.233 257.483 205.182 258.091H209.02C209.02 257.445 208.868 256.938 208.564 256.571C208.273 256.191 207.798 256.001 207.139 256.001ZM216.107 260.181V259.079C216.107 258.661 216.214 258.306 216.43 258.015C216.645 257.724 216.981 257.363 217.437 256.932C217.893 256.514 218.235 256.14 218.463 255.811C218.703 255.482 218.824 255.089 218.824 254.633C218.824 254.126 218.678 253.721 218.387 253.417C218.108 253.1 217.684 252.942 217.114 252.942C216.442 252.942 215.974 253.132 215.708 253.512C215.454 253.892 215.328 254.323 215.328 254.804L215.347 255.412H212.668C212.63 255.07 212.611 254.836 212.611 254.709C212.611 254.05 212.794 253.417 213.162 252.809C213.542 252.201 214.074 251.713 214.758 251.346C215.442 250.966 216.221 250.776 217.095 250.776H217.513C218.399 250.776 219.166 250.953 219.812 251.308C220.458 251.663 220.945 252.138 221.275 252.733C221.617 253.328 221.788 253.974 221.788 254.671C221.788 255.254 221.686 255.76 221.484 256.191C221.294 256.622 221.066 256.976 220.8 257.255C220.534 257.521 220.192 257.819 219.774 258.148C219.394 258.465 219.115 258.718 218.938 258.908C218.773 259.098 218.691 259.32 218.691 259.573V260.181H216.107ZM215.993 261.207H218.786V264H215.993V261.207Z" fill="black"/>
<path d="M46.468 168.866C48.232 168.866 49.816 169.244 51.22 170C52.624 170.756 53.704 171.854 54.46 173.294C56.332 170.342 59.014 168.866 62.506 168.866C65.098 168.866 67.24 169.658 68.932 171.242C70.66 172.79 71.524 174.95 71.524 177.722V197H63.64V179.288C63.64 177.776 63.316 176.624 62.668 175.832C62.02 175.004 61.12 174.59 59.968 174.59C58.708 174.59 57.646 175.094 56.782 176.102C55.918 177.11 55.486 178.37 55.486 179.882V197H47.602V179.288C47.602 177.812 47.26 176.66 46.576 175.832C45.928 175.004 45.028 174.59 43.876 174.59C42.616 174.59 41.554 175.094 40.69 176.102C39.862 177.11 39.448 178.37 39.448 179.882V197H31.564V169.406H37.504C37.72 170.306 38.008 171.656 38.368 173.456C39.34 171.908 40.51 170.756 41.878 170C43.282 169.244 44.812 168.866 46.468 168.866ZM76.3363 158.12H84.3283V164.33H76.3363V158.12ZM76.3903 197V169.406H84.2743V197H76.3903ZM96.0096 173.456C98.2776 170.396 101.212 168.866 104.812 168.866C107.62 168.866 109.924 169.622 111.724 171.134C113.56 172.646 114.478 174.842 114.478 177.722V197H106.594V179.45C106.594 178.046 106.18 176.894 105.352 175.994C104.56 175.058 103.534 174.59 102.274 174.59C100.87 174.59 99.6636 175.13 98.6556 176.21C97.6476 177.254 97.1436 178.532 97.1436 180.044V197H89.2596V169.406H95.1456L96.0096 173.456ZM137.302 193.544C135.286 196.208 132.694 197.54 129.526 197.54C127.366 197.54 125.422 197.018 123.694 195.974C121.966 194.93 120.598 193.346 119.59 191.222C118.582 189.098 118.078 186.47 118.078 183.338V182.744C118.078 179.756 118.546 177.218 119.482 175.13C120.418 173.042 121.678 171.476 123.262 170.432C124.882 169.388 126.7 168.866 128.716 168.866C130.444 168.866 131.956 169.226 133.252 169.946C134.584 170.666 135.646 171.548 136.438 172.592V158.12H144.322V197H138.112L137.302 193.544ZM126.07 185.606C126.07 187.694 126.556 189.314 127.528 190.466C128.5 191.582 129.742 192.14 131.254 192.14C132.766 192.14 134.008 191.582 134.98 190.466C135.952 189.314 136.438 187.694 136.438 185.606V181.124C136.438 179 135.952 177.38 134.98 176.264C134.008 175.148 132.766 174.59 131.254 174.59C129.742 174.59 128.5 175.148 127.528 176.264C126.556 177.38 126.07 179 126.07 181.124V185.606ZM173.939 196.514C173.219 196.802 172.265 197.036 171.077 197.216C169.925 197.432 168.899 197.54 167.999 197.54C165.227 197.54 163.139 196.946 161.735 195.758C160.331 194.57 159.629 192.59 159.629 189.818V174.806H156.605V169.406H159.899L162.653 160.604H167.513V169.406H173.939V174.806H167.513V188.468C167.513 189.908 167.783 190.88 168.323 191.384C168.899 191.888 169.655 192.14 170.591 192.14C171.023 192.14 171.581 192.068 172.265 191.924C172.949 191.78 173.507 191.618 173.939 191.438V196.514ZM184.744 172.106C186.832 169.946 189.388 168.866 192.412 168.866C195.22 168.866 197.524 169.622 199.324 171.134C201.16 172.646 202.078 174.842 202.078 177.722V197H194.194V179.45C194.194 178.046 193.78 176.894 192.952 175.994C192.16 175.058 191.134 174.59 189.874 174.59C188.47 174.59 187.264 175.13 186.256 176.21C185.248 177.254 184.744 178.532 184.744 180.044V197H176.86V158.12H184.744V172.106ZM232.569 186.686C232.569 189.098 231.993 191.132 230.841 192.788C229.689 194.408 228.159 195.614 226.251 196.406C224.379 197.162 222.327 197.54 220.095 197.54H219.231C216.675 197.54 214.371 197 212.319 195.92C210.267 194.84 208.647 193.292 207.459 191.276C206.307 189.224 205.731 186.794 205.731 183.986V182.42C205.731 179.648 206.325 177.236 207.513 175.184C208.701 173.132 210.303 171.566 212.319 170.486C214.371 169.406 216.675 168.866 219.231 168.866H220.095C222.327 168.866 224.397 169.334 226.305 170.27C228.213 171.17 229.743 172.502 230.895 174.266C232.047 175.994 232.623 178.046 232.623 180.422V184.526H213.723V185.822C213.723 187.622 214.245 189.134 215.289 190.358C216.369 191.546 217.827 192.14 219.663 192.14C221.319 192.14 222.615 191.69 223.551 190.79C224.523 189.854 225.009 188.486 225.009 186.686H232.569ZM219.285 174.266C217.701 174.266 216.405 174.824 215.397 175.94C214.425 177.056 213.867 178.478 213.723 180.206H224.631C224.631 178.37 224.199 176.93 223.335 175.886C222.507 174.806 221.157 174.266 219.285 174.266ZM265.008 190.736C267.528 190.736 269.454 191.456 270.786 192.896C272.154 194.3 272.838 196.154 272.838 198.458C272.838 200.114 272.37 201.608 271.434 202.94C270.498 204.272 269.22 205.298 267.6 206.018C266.016 206.774 264.252 207.152 262.308 207.152H250.914C248.718 207.152 246.864 206.54 245.352 205.316C243.876 204.128 243.138 202.472 243.138 200.348C243.138 199.052 243.516 197.882 244.272 196.838C245.064 195.758 246.054 194.948 247.242 194.408C246.414 193.868 245.784 193.202 245.352 192.41C244.92 191.618 244.704 190.754 244.704 189.818C244.704 188.486 245.136 187.334 246 186.362C246.864 185.354 247.98 184.634 249.348 184.202C248.124 183.446 247.17 182.492 246.486 181.34C245.802 180.152 245.46 178.892 245.46 177.56C245.46 175.004 246.45 172.916 248.43 171.296C250.446 169.676 253.38 168.866 257.232 168.866H258.096C259.788 168.866 261.3 169.082 262.632 169.514C264.108 168.65 265.134 167.768 265.71 166.868C266.286 165.968 266.61 165.158 266.682 164.438H272.838C272.838 168.254 270.93 170.63 267.114 171.566L267.06 171.728C268.968 173.348 269.922 175.292 269.922 177.56C269.922 179.144 269.472 180.602 268.572 181.934C267.672 183.23 266.394 184.274 264.738 185.066C263.118 185.822 261.246 186.2 259.122 186.2H255.396C254.316 186.2 253.47 186.434 252.858 186.902C252.282 187.37 251.994 187.892 251.994 188.468C251.994 189.188 252.264 189.746 252.804 190.142C253.38 190.538 254.244 190.736 255.396 190.736H265.008ZM253.02 177.56C253.02 178.82 253.47 179.81 254.37 180.53C255.27 181.214 256.404 181.556 257.772 181.556C259.176 181.556 260.328 181.214 261.228 180.53C262.128 179.81 262.578 178.82 262.578 177.56C262.578 176.3 262.128 175.328 261.228 174.644C260.328 173.924 259.176 173.564 257.772 173.564C256.404 173.564 255.27 173.924 254.37 174.644C253.47 175.328 253.02 176.3 253.02 177.56ZM262.092 202.292C263.028 202.292 263.838 202.004 264.522 201.428C265.206 200.888 265.548 200.24 265.548 199.484C265.548 198.764 265.26 198.152 264.684 197.648C264.108 197.18 263.352 196.946 262.416 196.946H253.02C252.228 196.946 251.544 197.198 250.968 197.702C250.392 198.242 250.104 198.872 250.104 199.592C250.104 200.312 250.392 200.942 250.968 201.482C251.544 202.022 252.228 202.292 253.02 202.292H262.092ZM290.432 178.37C290.432 177.146 290.036 176.156 289.244 175.4C288.488 174.644 287.246 174.266 285.518 174.266C284.51 174.266 283.646 174.446 282.926 174.806C282.206 175.13 281.648 175.544 281.252 176.048C280.892 176.552 280.712 177.02 280.712 177.452V177.884H273.098C273.026 177.452 272.99 177.128 272.99 176.912C272.99 175.364 273.494 173.978 274.502 172.754C275.546 171.53 276.986 170.576 278.822 169.892C280.658 169.208 282.764 168.866 285.14 168.866H286.274C290.162 168.866 293.114 169.64 295.13 171.188C297.146 172.7 298.154 174.788 298.154 177.452V190.196C298.154 190.844 298.298 191.33 298.586 191.654C298.91 191.978 299.288 192.14 299.72 192.14C300.08 192.14 300.476 192.068 300.908 191.924C301.34 191.78 301.682 191.654 301.934 191.546V196.406C300.602 197.162 299.018 197.54 297.182 197.54C295.202 197.54 293.69 197.144 292.646 196.352C291.602 195.524 290.99 194.372 290.81 192.896C288.29 195.992 285.194 197.54 281.522 197.54C278.786 197.54 276.536 196.982 274.772 195.866C273.008 194.75 272.126 192.626 272.126 189.494C272.126 186.938 272.846 184.994 274.286 183.662C275.762 182.294 277.796 181.376 280.388 180.908C282.98 180.44 286.328 180.206 290.432 180.206V178.37ZM290.432 184.634C287.012 184.634 284.456 184.976 282.764 185.66C281.108 186.308 280.28 187.388 280.28 188.9C280.28 190.088 280.604 190.934 281.252 191.438C281.936 191.906 282.962 192.14 284.33 192.14C285.266 192.14 286.202 191.888 287.138 191.384C288.074 190.88 288.848 190.16 289.46 189.224C290.108 188.288 290.432 187.244 290.432 186.092V184.634ZM310.664 172.862C312.68 170.198 315.272 168.866 318.44 168.866C320.6 168.866 322.544 169.388 324.272 170.432C326 171.476 327.368 173.06 328.376 175.184C329.384 177.308 329.888 179.936 329.888 183.068V183.662C329.888 186.65 329.42 189.188 328.484 191.276C327.548 193.364 326.27 194.93 324.65 195.974C323.066 197.018 321.266 197.54 319.25 197.54C317.522 197.54 315.992 197.18 314.66 196.46C313.364 195.74 312.32 194.858 311.528 193.814V206.774H303.644V169.406H309.854L310.664 172.862ZM321.896 180.8C321.896 178.676 321.41 177.056 320.438 175.94C319.466 174.824 318.224 174.266 316.712 174.266C315.2 174.266 313.958 174.824 312.986 175.94C312.014 177.056 311.528 178.676 311.528 180.8V185.282C311.528 187.37 312.014 188.99 312.986 190.142C313.958 191.258 315.2 191.816 316.712 191.816C318.224 191.816 319.466 191.258 320.438 190.142C321.41 188.99 321.896 187.37 321.896 185.282V180.8Z" fill="#45E5D1"/>
</svg>
