<svg id="Layer_1" height="512" viewBox="0 0 512 512" width="512" xmlns="http://www.w3.org/2000/svg" xmlns:xlink="http://www.w3.org/1999/xlink" data-name="Layer 1"><linearGradient id="linear-gradient" gradientUnits="userSpaceOnUse" x1="256" x2="256" y1="24.979" y2="489.629"><stop offset="0" stop-color="#00efd1"/><stop offset="1" stop-color="#00acea"/></linearGradient><linearGradient id="linear-gradient-2" x1="128" x2="128" xlink:href="#linear-gradient" y1="24.979" y2="489.629"/><linearGradient id="linear-gradient-3" x1="192" x2="192" xlink:href="#linear-gradient" y1="24.979" y2="489.629"/><path d="m476.846 26h-441.692a5.867 5.867 0 0 0 -6.154 5.676v448.648a5.867 5.867 0 0 0 6.154 5.676h441.692a5.867 5.867 0 0 0 6.154-5.676v-448.648a5.867 5.867 0 0 0 -6.154-5.676zm-5.846 12v210h-181v-210zm-181 283v-61h181v61zm181 12v63h-181v-63zm-430 141v-436h112v436zm124 0v-436h113v210 12 61 12 63 12 66zm125 0v-66h181v66z" fill="url(#linear-gradient)"/><path d="m128 229a6 6 0 0 0 -6 6v41a6 6 0 0 0 12 0v-41a6 6 0 0 0 -6-6z" fill="url(#linear-gradient-2)"/><path d="m192 229a6 6 0 0 0 -6 6v41a6 6 0 0 0 12 0v-41a6 6 0 0 0 -6-6z" fill="url(#linear-gradient-3)"/></svg>