<?xml version="1.0" encoding="iso-8859-1"?>
<!-- Generator: Adobe Illustrator 19.0.0, SVG Export Plug-In . SVG Version: 6.00 Build 0)  -->
<svg version="1.1" id="Capa_1" xmlns="http://www.w3.org/2000/svg" xmlns:xlink="http://www.w3.org/1999/xlink" x="0px" y="0px"
	 viewBox="0 0 512 512" style="enable-background:new 0 0 512 512;" xml:space="preserve">
<linearGradient id="SVGID_1_" gradientUnits="userSpaceOnUse" x1="-53.3341" y1="583.6642" x2="9.5859" y2="646.5881" gradientTransform="matrix(8 0 0 -8 342.9998 5085)">
	<stop  offset="0" style="stop-color:#003F8A"/>
	<stop  offset="0.518" style="stop-color:#00D7DF"/>
	<stop  offset="1" style="stop-color:#006DF0"/>
</linearGradient>
<path style="fill:url(#SVGID_1_);" d="M256,48h-48V8c-0.019-0.946-0.209-1.881-0.56-2.76c-0.064-0.227-0.144-0.449-0.24-0.664
	c-0.36-0.782-0.843-1.5-1.432-2.128l-0.168-0.12c-0.512-0.516-1.094-0.957-1.728-1.312c-0.136-0.096-0.32-0.128-0.488-0.216
	c-0.214-0.097-0.433-0.183-0.656-0.256c-0.813-0.313-1.673-0.486-2.544-0.512c-0.064,0-0.12,0-0.184,0H64
	c-0.064,0-0.12,0.04-0.184,0.04c-0.871,0.026-1.731,0.199-2.544,0.512c-0.222,0.06-0.441,0.133-0.656,0.216
	c-0.168,0.08-0.352,0.112-0.52,0.208c-0.623,0.36-1.194,0.804-1.696,1.32l-0.128,0.12c-0.6,0.627-1.097,1.345-1.472,2.128
	c-0.091,0.217-0.172,0.439-0.24,0.664C56.209,6.119,56.019,7.054,56,8v40H8c-4.418,0-8,3.582-8,8v288c0,4.418,3.582,8,8,8h248
	c4.418,0,8-3.582,8-8V56C264,51.582,260.418,48,256,48L256,48z M132,40.456L92.264,16h79.472L132,40.456z M72,22.32l48.936,30.112
	C120.344,53.53,120.023,54.753,120,56v14.352l-2.344,6.944L72,47.248V22.32z M142.4,54.12c0.115-0.456,0.188-0.922,0.216-1.392
	L192,22.32v24.928l-45.656,30.048l-5.904-17.472L142.4,54.12z M16,64h48c1.122-0.005,2.229-0.251,3.248-0.72l50.272,33.08
	c0.762,0.485,1.6,0.837,2.48,1.04V336H16V64z M248,336H136V94.664c1.429,1.918,3.688,3.038,6.08,3.016c1.564,0,3.094-0.459,4.4-1.32
	l50.272-33.08c1.019,0.469,2.126,0.715,3.248,0.72h48V336z"/>
<linearGradient id="SVGID_2_" gradientUnits="userSpaceOnUse" x1="-50.835" y1="581.165" x2="12.089" y2="644.089" gradientTransform="matrix(8 0 0 -8 342.9998 5085)">
	<stop  offset="0" style="stop-color:#003F8A"/>
	<stop  offset="0.518" style="stop-color:#00D7DF"/>
	<stop  offset="1" style="stop-color:#006DF0"/>
</linearGradient>
<path style="fill:url(#SVGID_2_);" d="M152,128v96c0,4.418,3.582,8,8,8h72c4.418,0,8-3.582,8-8v-96c0-4.418-3.582-8-8-8h-72
	C155.582,120,152,123.582,152,128z M224,216h-56v-56h56V216z M168,136h56v8h-56V136z"/>
<linearGradient id="SVGID_3_" gradientUnits="userSpaceOnUse" x1="-33.5837" y1="563.9138" x2="29.3363" y2="626.8378" gradientTransform="matrix(8 0 0 -8 342.9998 5085)">
	<stop  offset="0" style="stop-color:#003F8A"/>
	<stop  offset="0.518" style="stop-color:#00D7DF"/>
	<stop  offset="1" style="stop-color:#006DF0"/>
</linearGradient>
<path style="fill:url(#SVGID_3_);" d="M504,0H280c-4.418,0-8,3.582-8,8v496c0,4.418,3.582,8,8,8h88c4.27,0.005,7.791-3.344,8-7.608
	L391.616,184h0.8L408,504.392c0.209,4.264,3.73,7.613,8,7.608h88c4.418,0,8-3.582,8-8V8C512,3.582,508.418,0,504,0z M496,32h-64V16
	h64V32z M416,16v16h-48V16H416z M288,16h64v16h-64V16z M376,175.608L360.384,496H288V48h96v120
	C379.73,167.995,376.209,171.344,376,175.608z M496,496h-72.384L408,175.608c-0.209-4.264-3.73-7.613-8-7.608V48h96V496z"/>
<linearGradient id="SVGID_4_" gradientUnits="userSpaceOnUse" x1="-18.835" y1="549.165" x2="44.089" y2="612.089" gradientTransform="matrix(8 0 0 -8 342.9998 5085)">
	<stop  offset="0" style="stop-color:#003F8A"/>
	<stop  offset="0.518" style="stop-color:#00D7DF"/>
	<stop  offset="1" style="stop-color:#006DF0"/>
</linearGradient>
<path style="fill:url(#SVGID_4_);" d="M472,424c4.418,0,8-3.582,8-8v-8c0-4.418-3.582-8-8-8s-8,3.582-8,8v8
	C464,420.418,467.582,424,472,424z"/>
<linearGradient id="SVGID_5_" gradientUnits="userSpaceOnUse" x1="-16.8339" y1="547.1639" x2="46.0861" y2="610.088" gradientTransform="matrix(8 0 0 -8 342.9998 5085)">
	<stop  offset="0" style="stop-color:#003F8A"/>
	<stop  offset="0.518" style="stop-color:#00D7DF"/>
	<stop  offset="1" style="stop-color:#006DF0"/>
</linearGradient>
<path style="fill:url(#SVGID_5_);" d="M472,456c4.418,0,8-3.582,8-8v-8c0-4.418-3.582-8-8-8s-8,3.582-8,8v8
	C464,452.418,467.582,456,472,456z"/>
<linearGradient id="SVGID_6_" gradientUnits="userSpaceOnUse" x1="-14.834" y1="545.164" x2="48.086" y2="608.088" gradientTransform="matrix(8 0 0 -8 342.9998 5085)">
	<stop  offset="0" style="stop-color:#003F8A"/>
	<stop  offset="0.518" style="stop-color:#00D7DF"/>
	<stop  offset="1" style="stop-color:#006DF0"/>
</linearGradient>
<path style="fill:url(#SVGID_6_);" d="M472,488c4.418,0,8-3.582,8-8v-8c0-4.418-3.582-8-8-8s-8,3.582-8,8v8
	C464,484.418,467.582,488,472,488z"/>
<linearGradient id="SVGID_7_" gradientUnits="userSpaceOnUse" x1="-41.4464" y1="571.7775" x2="21.4746" y2="634.7014" gradientTransform="matrix(8 0 0 -8 342.9998 5085)">
	<stop  offset="0" style="stop-color:#003F8A"/>
	<stop  offset="0.518" style="stop-color:#00D7DF"/>
	<stop  offset="1" style="stop-color:#006DF0"/>
</linearGradient>
<path style="fill:url(#SVGID_7_);" d="M90.568,400.52c-1.698-0.272-3.41-0.446-5.128-0.52H42.56c-1.718,0.074-3.43,0.248-5.128,0.52
	C16.127,403.066,0.067,421.103,0,442.56V488c0,4.418,3.582,8,8,8h112c4.418,0,8-3.582,8-8v-45.44
	C127.93,421.104,111.872,403.069,90.568,400.52z M80,416v12H48v-12H80z M16,442.56c0.017-10.575,6.3-20.134,16-24.344V436
	c0,4.418,3.582,8,8,8h48c4.418,0,8-3.582,8-8v-17.784c9.7,4.21,15.983,13.769,16,24.344V456H16V442.56z M112,480H16v-8h96V480z"/>
<linearGradient id="SVGID_8_" gradientUnits="userSpaceOnUse" x1="-32.9472" y1="563.2762" x2="29.9758" y2="626.2023" gradientTransform="matrix(8 0 0 -8 342.9998 5085)">
	<stop  offset="0" style="stop-color:#003F8A"/>
	<stop  offset="0.518" style="stop-color:#00D7DF"/>
	<stop  offset="1" style="stop-color:#006DF0"/>
</linearGradient>
<path style="fill:url(#SVGID_8_);" d="M226.568,400.52c-1.698-0.272-3.41-0.446-5.128-0.52h-42.88
	c-1.718,0.074-3.43,0.248-5.128,0.52c-21.305,2.546-37.365,20.583-37.432,42.04V488c0,4.418,3.582,8,8,8h112c4.418,0,8-3.582,8-8
	v-45.44C263.93,421.104,247.872,403.069,226.568,400.52L226.568,400.52z M216,416v12h-32v-12H216z M152,442.56
	c0.017-10.575,6.3-20.134,16-24.344V436c0,4.418,3.582,8,8,8h48c4.418,0,8-3.582,8-8v-17.784c9.7,4.21,15.983,13.769,16,24.344V456
	h-96V442.56z M248,480h-96v-8h96V480z"/>
<g>
</g>
<g>
</g>
<g>
</g>
<g>
</g>
<g>
</g>
<g>
</g>
<g>
</g>
<g>
</g>
<g>
</g>
<g>
</g>
<g>
</g>
<g>
</g>
<g>
</g>
<g>
</g>
<g>
</g>
</svg>
