<svg height="480pt" viewBox="-24 0 480 480.00038" width="480pt" xmlns="http://www.w3.org/2000/svg" xmlns:xlink="http://www.w3.org/1999/xlink"><linearGradient id="a"><stop offset="0" stop-color="#7ed4ef"/><stop offset=".229" stop-color="#66bfe6"/><stop offset=".711" stop-color="#298bd0"/><stop offset="1" stop-color="#0169c2"/></linearGradient><linearGradient id="b" gradientUnits="userSpaceOnUse" x1="-47.99816" x2="472.24984" xlink:href="#a" y1="240.000381" y2="240.000381"/><linearGradient id="c" gradientUnits="userSpaceOnUse" x1="-47.99816" x2="472.24984" xlink:href="#a" y1="416.000381" y2="416.000381"/><linearGradient id="d" gradientUnits="userSpaceOnUse" x1="-47.99816" x2="472.24984" xlink:href="#a" y1="200.000381" y2="200.000381"/><linearGradient id="e" gradientUnits="userSpaceOnUse" x1="-47.99816" x2="472.24984" xlink:href="#a" y1="328.000381" y2="328.000381"/><linearGradient id="f" gradientUnits="userSpaceOnUse" x1="-47.99816" x2="472.24984" xlink:href="#a" y1="360.000381" y2="360.000381"/><linearGradient id="g" gradientUnits="userSpaceOnUse" x1="-47.99816" x2="472.24984" xlink:href="#a" y1="116.000381" y2="116.000381"/><linearGradient id="h" gradientUnits="userSpaceOnUse" x1="-47.998437" x2="472.249563" xlink:href="#a" y1="208.000266" y2="208.000266"/><linearGradient id="i" gradientUnits="userSpaceOnUse" x1="-48.001178" x2="472.246822" xlink:href="#a" y1="340.001844" y2="340.001844"/><linearGradient id="j" gradientUnits="userSpaceOnUse" x1="-47.994864" x2="472.253136" xlink:href="#a" y1="383.995374" y2="383.995374"/><path d="m383.722656 37.894531h-.105468c-.65625-2.574219-2.570313-4.648437-5.085938-5.511719l-96-32c-.816406-.261718-1.671875-.3906245-2.53125-.382812h-128c-.859375.00390625-1.710938.144531-2.527344.417969l-96 32c-2.515625.859375-4.429687 2.933593-5.085937 5.511719h-.105469l-48 176c-1.140625 4.1875 1.265625 8.523437 5.425781 9.765624l74.292969 22.257813v226.046875c0 4.417969 3.582031 8 8 8h256c4.421875 0 8-3.582031 8-8v-226.046875l74.296875-22.289063c4.160156-1.246093 6.566406-5.578124 5.425781-9.769531zm-35.542968 95.441407c-8.835938-1.191407-17.59375-2.894532-26.234376-5.09375-7.910156-1.976563-12.800781-5.265626-12.390624-8.371094 1.453124-4.578125 5.644531-7.738282 10.445312-7.871094 9.84375.496094 18.984375-5.078125 23.058594-14.046875 3.648437-11.46875-.078125-24-9.402344-31.609375-3.878906-3.878906.210938-14.871094 10.34375-28.574219l22.707031 7.566407zm-116.179688-117.335938v16h-32v-16zm16 32v-32h24v24c0 30.929688-25.070312 56-56 56-30.925781 0-56-25.070312-56-56v-24h24v32zm-230.230469 162.578125 4.390625-16.097656 39.3125 13.105469 5.058594-15.203126-40.128906-13.351562 28.625-104.957031 24.972656 118.726562v36.414063zm142.335938 99.519531c4 2.855469 18.398437 10.703125 37.550781-8.441406 4.304688-4.296875 6.601562-2.96875 7.585938-2.398438 5.355468 4.363282 7.675781 11.449219 5.9375 18.132813-2.378907 8.769531-11.722657 10.609375-19.179688 10.609375-30.964844 0-42 12.398438-42 24s11.921875 24 34 24c4.214844-.574219 8.371094 1.386719 10.609375 5 1.183594 3.179688.398437 6.753906-2.007813 9.144531-5.382812 5.894531-16.625 6.726563-30.070312 2.273438-19.039062-7.242188-39.097656-11.429688-59.441406-12.410157-2.433594 0-4.792969.097657-7.089844.289063v-65.960937c17.996094-2.21875 33.226562-14.335938 39.433594-31.367188 4.746094-11.871094 9.921875-16.488281 12.902344-16.800781 1.542968-.015625 2.96875.808593 3.722656 2.152343 1.691406 2.378907 1.996094 5.472657.800781 8.136719-5.886719 11.511719-2.855469 25.574219 7.246094 33.640625zm175.894531-118.097656v272h-240v-16h72v-16h-72v-35.625c14.898438-1.597656 33.433594 1.875 61.472656 11.203125 6.648438 2.339844 13.628906 3.59375 20.671875 3.710937 9.847657.460938 19.421875-3.328124 26.289063-10.402343 6.683594-7.074219 8.566406-17.425781 4.800781-26.398438-4.707031-9.484375-14.667969-15.203125-25.234375-14.488281-11.8125 0-18-5.207031-18-8 0-2.136719 6.160156-8 26-8 25.832031 0 32.800781-15.710938 34.640625-22.472656 3.605469-13.664063-1.757813-28.117188-13.398437-36.128906-8.996094-4.988282-20.261719-2.914063-26.894532 4.945312-6.890625 6.898438-13.203125 9.449219-16.890625 6.777344-3.726562-3.484375-4.667969-9.027344-2.296875-13.542969 3.816406-7.917969 3.050782-17.273437-2-24.464844-4.070312-6.214843-11.269531-9.640625-18.664062-8.882812-7.269532.851562-17.671875 6.1875-25.925782 26.800781-3.835937 10.890625-13.210937 18.894531-24.570312 20.96875v-106c.003906-.554688-.054688-1.105469-.167969-1.648438l-30.535156-145.015624 78.703125-26.238282v20.902344c0 39.765625 32.238281 72 72 72 39.765625 0 72-32.234375 72-72v-20.902344l40.136719 13.382813c-16.847657 24.726562-12.800781 38.152343-5.789063 45.175781 5.148438 5.152344 7.421875 10.574219 5.925782 14.175781-1.660157 2.9375-4.925782 4.582031-8.273438 4.167969-12.886719.066406-23.925781 9.253906-26.324219 21.921875-.554687 4.496094-.433593 19.628906 24.390625 25.839844 8.828125 2.253906 17.777344 4.027343 26.800782 5.3125l-8.699219 41.277343c-.109375.542969-.167969 1.09375-.167969 1.648438zm16 37.25v-36.449219l25-118.761719 37.234375 136.503907zm0 0" fill="url(#b)"/><path d="m304 432h-32v16h48v-64h-16zm0 0" fill="url(#c)"/><path d="m312 152h-80c-4.417969 0-8 3.582031-8 8v80c0 4.417969 3.582031 8 8 8h80c4.421875 0 8-3.582031 8-8v-80c0-4.417969-3.578125-8-8-8zm-8 80h-64v-64h64zm0 0" fill="url(#d)"/><path d="m112 320h16v16h-16zm0 0" fill="url(#e)"/><path d="m120 352h16v16h-16zm0 0" fill="url(#f)"/><path d="m194.808594 128.503906c-58.503906-21.933594-66.574219-71.558594-66.886719-73.597656-.589844-4.152344-4.285156-7.144531-8.46875-6.855469-4.183594.289063-7.433594 3.757813-7.453125 7.949219v104c0 13.253906 10.746094 24 24 24 13.257812 0 24-10.746094 24-24v-31.550781c7.535156 5.136719 15.578125 9.488281 24 12.984375v34.566406h16v-40c.003906-3.335938-2.066406-6.324219-5.191406-7.496094zm-50.808594 31.496094c0 4.417969-3.578125 8-8 8-4.417969 0-8-3.582031-8-8v-64.105469c4.613281 7.046875 9.976562 13.566407 16 19.449219zm0 0" fill="url(#g)"/><path d="m170.347656 205.660156 11.3125-11.316406 15.996094 16-11.3125 11.3125zm0 0" fill="url(#h)"/><path d="m257.339844 347.566406 16.003906-24.003906 13.3125 8.875-16.003906 24.003906zm0 0" fill="url(#i)"/><path d="m226.347656 381.65625 11.3125-11.316406 15.996094 16-11.3125 11.3125zm0 0" fill="url(#j)"/></svg>