<svg width="406" height="242" viewBox="0 0 406 242" fill="none" xmlns="http://www.w3.org/2000/svg">
<g filter="url(#filter0_d)">
<rect x="4" width="398" height="234" fill="white"/>
</g>
<path d="M71.4498 191.38H73.6058L79.7658 207H77.1698L75.5198 202.754H69.4918L67.8638 207H65.2458L71.4498 191.38ZM75.0358 200.928L72.5278 194.218L69.9318 200.928H75.0358ZM86.4455 207V191.38H93.0015C93.7055 191.38 94.3509 191.527 94.9375 191.82C95.5389 192.113 96.0522 192.502 96.4775 192.986C96.9029 193.455 97.2329 193.998 97.4675 194.614C97.7169 195.215 97.8415 195.831 97.8415 196.462C97.8415 197.122 97.7242 197.76 97.4895 198.376C97.2695 198.977 96.9542 199.52 96.5435 200.004C96.1329 200.473 95.6342 200.855 95.0475 201.148C94.4755 201.427 93.8375 201.566 93.1335 201.566H88.9095V207H86.4455ZM88.9095 199.388H92.9795C93.3315 199.388 93.6469 199.315 93.9255 199.168C94.2189 199.021 94.4682 198.816 94.6735 198.552C94.8789 198.288 95.0402 197.98 95.1575 197.628C95.2749 197.276 95.3335 196.887 95.3335 196.462C95.3335 196.022 95.2675 195.626 95.1355 195.274C95.0035 194.922 94.8202 194.621 94.5855 194.372C94.3509 194.108 94.0795 193.91 93.7715 193.778C93.4782 193.631 93.1702 193.558 92.8475 193.558H88.9095V199.388ZM104.865 207.22C103.971 207.22 103.157 207.066 102.423 206.758C101.69 206.435 101.059 206.003 100.531 205.46C100.018 204.917 99.6146 204.287 99.3212 203.568C99.0426 202.849 98.9032 202.087 98.9032 201.28C98.9032 200.473 99.0426 199.711 99.3212 198.992C99.6146 198.259 100.018 197.621 100.531 197.078C101.059 196.521 101.69 196.088 102.423 195.78C103.157 195.457 103.978 195.296 104.887 195.296C105.782 195.296 106.589 195.457 107.307 195.78C108.041 196.103 108.664 196.535 109.177 197.078C109.691 197.606 110.079 198.229 110.343 198.948C110.622 199.652 110.761 200.393 110.761 201.17C110.761 201.346 110.754 201.515 110.739 201.676C110.725 201.823 110.71 201.947 110.695 202.05H101.477C101.521 202.563 101.639 203.025 101.829 203.436C102.035 203.847 102.291 204.206 102.599 204.514C102.922 204.807 103.281 205.035 103.677 205.196C104.088 205.357 104.513 205.438 104.953 205.438C105.276 205.438 105.591 205.401 105.899 205.328C106.222 205.24 106.515 205.123 106.779 204.976C107.043 204.815 107.278 204.624 107.483 204.404C107.689 204.184 107.85 203.942 107.967 203.678L110.035 204.272C109.639 205.137 108.979 205.849 108.055 206.406C107.146 206.949 106.083 207.22 104.865 207.22ZM108.363 200.378C108.319 199.894 108.195 199.447 107.989 199.036C107.799 198.625 107.549 198.281 107.241 198.002C106.933 197.709 106.574 197.481 106.163 197.32C105.753 197.159 105.32 197.078 104.865 197.078C104.411 197.078 103.978 197.159 103.567 197.32C103.171 197.481 102.819 197.709 102.511 198.002C102.203 198.281 101.954 198.625 101.763 199.036C101.573 199.447 101.455 199.894 101.411 200.378H108.363ZM119.203 197.584C118.265 197.613 117.429 197.833 116.695 198.244C115.977 198.64 115.463 199.212 115.155 199.96V207H112.735V195.494H114.979V198.068C115.375 197.276 115.889 196.645 116.519 196.176C117.165 195.692 117.854 195.428 118.587 195.384C118.734 195.384 118.851 195.384 118.939 195.384C119.042 195.384 119.13 195.391 119.203 195.406V197.584ZM125.144 207.22C124.22 207.22 123.296 207.073 122.372 206.78C121.462 206.472 120.678 206.039 120.018 205.482L120.986 203.942C121.675 204.441 122.357 204.822 123.032 205.086C123.706 205.335 124.396 205.46 125.1 205.46C125.818 205.46 126.383 205.321 126.794 205.042C127.219 204.763 127.432 204.367 127.432 203.854C127.432 203.37 127.197 203.018 126.728 202.798C126.258 202.578 125.525 202.336 124.528 202.072C123.809 201.881 123.193 201.698 122.68 201.522C122.166 201.346 121.748 201.141 121.426 200.906C121.103 200.671 120.868 200.4 120.722 200.092C120.575 199.784 120.502 199.41 120.502 198.97C120.502 198.383 120.612 197.863 120.832 197.408C121.066 196.953 121.382 196.572 121.778 196.264C122.188 195.941 122.665 195.699 123.208 195.538C123.75 195.377 124.337 195.296 124.968 195.296C125.833 195.296 126.64 195.428 127.388 195.692C128.136 195.956 128.803 196.337 129.39 196.836L128.356 198.288C127.285 197.437 126.148 197.012 124.946 197.012C124.33 197.012 123.809 197.144 123.384 197.408C122.973 197.657 122.768 198.061 122.768 198.618C122.768 198.853 122.812 199.051 122.9 199.212C122.988 199.373 123.127 199.513 123.318 199.63C123.523 199.747 123.78 199.857 124.088 199.96C124.41 200.048 124.806 200.151 125.276 200.268C126.053 200.459 126.72 200.649 127.278 200.84C127.85 201.031 128.319 201.258 128.686 201.522C129.052 201.771 129.324 202.072 129.5 202.424C129.676 202.761 129.764 203.172 129.764 203.656C129.764 204.756 129.346 205.629 128.51 206.274C127.688 206.905 126.566 207.22 125.144 207.22ZM137.048 207.22C136.138 207.22 135.317 207.059 134.584 206.736C133.865 206.413 133.249 205.981 132.736 205.438C132.222 204.895 131.826 204.265 131.548 203.546C131.269 202.813 131.13 202.05 131.13 201.258C131.13 200.466 131.269 199.711 131.548 198.992C131.826 198.259 132.222 197.621 132.736 197.078C133.264 196.535 133.887 196.103 134.606 195.78C135.339 195.457 136.153 195.296 137.048 195.296C137.942 195.296 138.749 195.457 139.468 195.78C140.201 196.103 140.824 196.535 141.338 197.078C141.866 197.621 142.269 198.259 142.548 198.992C142.826 199.711 142.966 200.466 142.966 201.258C142.966 202.05 142.826 202.813 142.548 203.546C142.269 204.265 141.866 204.895 141.338 205.438C140.824 205.981 140.201 206.413 139.468 206.736C138.749 207.059 137.942 207.22 137.048 207.22ZM133.616 201.28C133.616 201.837 133.704 202.351 133.88 202.82C134.056 203.289 134.298 203.7 134.606 204.052C134.914 204.389 135.273 204.661 135.684 204.866C136.109 205.057 136.564 205.152 137.048 205.152C137.532 205.152 137.979 205.057 138.39 204.866C138.815 204.661 139.182 204.382 139.49 204.03C139.798 203.678 140.04 203.267 140.216 202.798C140.392 202.329 140.48 201.815 140.48 201.258C140.48 200.715 140.392 200.209 140.216 199.74C140.04 199.256 139.798 198.838 139.49 198.486C139.182 198.134 138.815 197.863 138.39 197.672C137.979 197.467 137.532 197.364 137.048 197.364C136.578 197.364 136.131 197.467 135.706 197.672C135.295 197.877 134.936 198.156 134.628 198.508C134.32 198.86 134.07 199.278 133.88 199.762C133.704 200.231 133.616 200.737 133.616 201.28ZM155.43 207H153.01V200.554C153.01 199.469 152.834 198.684 152.482 198.2C152.145 197.701 151.639 197.452 150.964 197.452C150.612 197.452 150.26 197.518 149.908 197.65C149.556 197.782 149.226 197.973 148.918 198.222C148.61 198.457 148.331 198.743 148.082 199.08C147.847 199.403 147.664 199.762 147.532 200.158V207H145.112V195.494H147.312V197.804C147.752 197.027 148.39 196.418 149.226 195.978C150.062 195.523 150.986 195.296 151.998 195.296C152.687 195.296 153.252 195.421 153.692 195.67C154.132 195.919 154.477 196.264 154.726 196.704C154.99 197.129 155.173 197.628 155.276 198.2C155.379 198.757 155.43 199.351 155.43 199.982V207ZM161.297 207.22C160.74 207.22 160.219 207.132 159.735 206.956C159.266 206.765 158.855 206.509 158.503 206.186C158.166 205.863 157.894 205.482 157.689 205.042C157.498 204.602 157.403 204.125 157.403 203.612C157.403 203.069 157.52 202.578 157.755 202.138C157.99 201.698 158.32 201.317 158.745 200.994C159.185 200.671 159.698 200.422 160.285 200.246C160.886 200.07 161.546 199.982 162.265 199.982C162.808 199.982 163.343 200.033 163.871 200.136C164.399 200.224 164.876 200.349 165.301 200.51V199.718C165.301 198.867 165.059 198.207 164.575 197.738C164.091 197.254 163.394 197.012 162.485 197.012C161.869 197.012 161.26 197.129 160.659 197.364C160.072 197.584 159.464 197.907 158.833 198.332L158.085 196.792C159.566 195.795 161.106 195.296 162.705 195.296C164.289 195.296 165.521 195.699 166.401 196.506C167.281 197.313 167.721 198.471 167.721 199.982V204.14C167.721 204.653 167.934 204.917 168.359 204.932V207C168.124 207.044 167.919 207.073 167.743 207.088C167.582 207.103 167.42 207.11 167.259 207.11C166.79 207.11 166.423 206.993 166.159 206.758C165.91 206.523 165.756 206.223 165.697 205.856L165.631 205.13C165.118 205.805 164.48 206.325 163.717 206.692C162.969 207.044 162.162 207.22 161.297 207.22ZM161.957 205.438C162.544 205.438 163.094 205.335 163.607 205.13C164.135 204.91 164.546 204.609 164.839 204.228C165.147 203.964 165.301 203.685 165.301 203.392V201.874C164.89 201.713 164.45 201.588 163.981 201.5C163.526 201.412 163.079 201.368 162.639 201.368C161.774 201.368 161.062 201.559 160.505 201.94C159.962 202.307 159.691 202.798 159.691 203.414C159.691 203.986 159.904 204.47 160.329 204.866C160.754 205.247 161.297 205.438 161.957 205.438ZM170.679 190.94H173.099V203.678C173.099 204.103 173.209 204.441 173.429 204.69C173.649 204.925 173.957 205.042 174.353 205.042C174.514 205.042 174.698 205.013 174.903 204.954C175.123 204.895 175.328 204.829 175.519 204.756L175.871 206.648C175.519 206.809 175.101 206.934 174.617 207.022C174.133 207.125 173.7 207.176 173.319 207.176C172.483 207.176 171.83 206.949 171.361 206.494C170.906 206.039 170.679 205.394 170.679 204.558V190.94ZM177.274 207V195.494H179.694V207H177.274ZM177.274 193.602V190.94H179.694V193.602H177.274ZM181.766 205.482L188.674 197.21H182.008V195.494H191.226V197.012L184.362 205.284H191.292V207H181.766V205.482ZM198.365 207.22C197.471 207.22 196.657 207.066 195.923 206.758C195.19 206.435 194.559 206.003 194.031 205.46C193.518 204.917 193.115 204.287 192.821 203.568C192.543 202.849 192.403 202.087 192.403 201.28C192.403 200.473 192.543 199.711 192.821 198.992C193.115 198.259 193.518 197.621 194.031 197.078C194.559 196.521 195.19 196.088 195.923 195.78C196.657 195.457 197.478 195.296 198.387 195.296C199.282 195.296 200.089 195.457 200.807 195.78C201.541 196.103 202.164 196.535 202.677 197.078C203.191 197.606 203.579 198.229 203.843 198.948C204.122 199.652 204.261 200.393 204.261 201.17C204.261 201.346 204.254 201.515 204.239 201.676C204.225 201.823 204.21 201.947 204.195 202.05H194.977C195.021 202.563 195.139 203.025 195.329 203.436C195.535 203.847 195.791 204.206 196.099 204.514C196.422 204.807 196.781 205.035 197.177 205.196C197.588 205.357 198.013 205.438 198.453 205.438C198.776 205.438 199.091 205.401 199.399 205.328C199.722 205.24 200.015 205.123 200.279 204.976C200.543 204.815 200.778 204.624 200.983 204.404C201.189 204.184 201.35 203.942 201.467 203.678L203.535 204.272C203.139 205.137 202.479 205.849 201.555 206.406C200.646 206.949 199.583 207.22 198.365 207.22ZM201.863 200.378C201.819 199.894 201.695 199.447 201.489 199.036C201.299 198.625 201.049 198.281 200.741 198.002C200.433 197.709 200.074 197.481 199.663 197.32C199.253 197.159 198.82 197.078 198.365 197.078C197.911 197.078 197.478 197.159 197.067 197.32C196.671 197.481 196.319 197.709 196.011 198.002C195.703 198.281 195.454 198.625 195.263 199.036C195.073 199.447 194.955 199.894 194.911 200.378H201.863ZM210.921 207.22C210.144 207.22 209.425 207.066 208.765 206.758C208.105 206.435 207.533 206.003 207.049 205.46C206.565 204.917 206.184 204.287 205.905 203.568C205.641 202.835 205.509 202.05 205.509 201.214C205.509 200.407 205.634 199.652 205.883 198.948C206.147 198.229 206.507 197.599 206.961 197.056C207.431 196.513 207.973 196.088 208.589 195.78C209.22 195.457 209.909 195.296 210.657 195.296C211.581 195.296 212.395 195.523 213.099 195.978C213.803 196.418 214.353 196.983 214.749 197.672V190.94H217.169V204.14C217.169 204.419 217.213 204.617 217.301 204.734C217.404 204.851 217.58 204.917 217.829 204.932V207C217.58 207.044 217.375 207.073 217.213 207.088C217.067 207.103 216.942 207.11 216.839 207.11C216.355 207.11 215.959 206.985 215.651 206.736C215.343 206.487 215.175 206.164 215.145 205.768L215.101 204.91C214.676 205.629 214.097 206.193 213.363 206.604C212.63 207.015 211.816 207.22 210.921 207.22ZM211.515 205.152C211.867 205.152 212.219 205.093 212.571 204.976C212.923 204.859 213.246 204.697 213.539 204.492C213.833 204.287 214.082 204.045 214.287 203.766C214.507 203.487 214.661 203.187 214.749 202.864V199.85C214.617 199.483 214.427 199.146 214.177 198.838C213.943 198.53 213.671 198.266 213.363 198.046C213.055 197.826 212.725 197.657 212.373 197.54C212.036 197.423 211.691 197.364 211.339 197.364C210.855 197.364 210.408 197.474 209.997 197.694C209.601 197.914 209.257 198.207 208.963 198.574C208.67 198.941 208.435 199.359 208.259 199.828C208.098 200.297 208.017 200.781 208.017 201.28C208.017 201.808 208.105 202.307 208.281 202.776C208.472 203.245 208.729 203.656 209.051 204.008C209.374 204.36 209.741 204.639 210.151 204.844C210.577 205.049 211.031 205.152 211.515 205.152ZM236.701 204.822V207H225.987V191.38H236.503V193.558H228.451V198.002H235.425V200.048H228.451V204.822H236.701ZM240.21 195.494L243.026 199.432L243.224 199.806L243.422 199.432L246.216 195.494H248.746L244.544 201.258L248.79 207H246.26L243.422 203.084L243.224 202.732L243.026 203.084L240.188 207H237.658L241.904 201.258L237.702 195.494H240.21ZM256.963 207.22C256.039 207.22 255.225 207 254.521 206.56C253.817 206.12 253.259 205.548 252.849 204.844V211.686H250.429V195.494H252.563V197.562C253.003 196.873 253.567 196.323 254.257 195.912C254.961 195.501 255.753 195.296 256.633 195.296C257.425 195.296 258.151 195.457 258.811 195.78C259.471 196.103 260.043 196.535 260.527 197.078C261.011 197.621 261.385 198.251 261.649 198.97C261.927 199.689 262.067 200.444 262.067 201.236C262.067 202.072 261.942 202.857 261.693 203.59C261.443 204.309 261.091 204.939 260.637 205.482C260.182 206.01 259.639 206.435 259.009 206.758C258.393 207.066 257.711 207.22 256.963 207.22ZM256.171 205.152C256.684 205.152 257.146 205.042 257.557 204.822C257.982 204.602 258.341 204.309 258.635 203.942C258.943 203.575 259.177 203.157 259.339 202.688C259.5 202.219 259.581 201.735 259.581 201.236C259.581 200.708 259.485 200.209 259.295 199.74C259.119 199.271 258.869 198.86 258.547 198.508C258.239 198.156 257.865 197.877 257.425 197.672C256.985 197.467 256.508 197.364 255.995 197.364C255.687 197.364 255.364 197.423 255.027 197.54C254.689 197.657 254.374 197.819 254.081 198.024C253.787 198.229 253.531 198.471 253.311 198.75C253.091 199.014 252.937 199.307 252.849 199.63V202.644C252.995 202.996 253.186 203.326 253.421 203.634C253.655 203.942 253.912 204.206 254.191 204.426C254.484 204.646 254.799 204.822 255.137 204.954C255.474 205.086 255.819 205.152 256.171 205.152ZM269.457 207.22C268.562 207.22 267.748 207.066 267.015 206.758C266.282 206.435 265.651 206.003 265.123 205.46C264.61 204.917 264.206 204.287 263.913 203.568C263.634 202.849 263.495 202.087 263.495 201.28C263.495 200.473 263.634 199.711 263.913 198.992C264.206 198.259 264.61 197.621 265.123 197.078C265.651 196.521 266.282 196.088 267.015 195.78C267.748 195.457 268.57 195.296 269.479 195.296C270.374 195.296 271.18 195.457 271.899 195.78C272.632 196.103 273.256 196.535 273.769 197.078C274.282 197.606 274.671 198.229 274.935 198.948C275.214 199.652 275.353 200.393 275.353 201.17C275.353 201.346 275.346 201.515 275.331 201.676C275.316 201.823 275.302 201.947 275.287 202.05H266.069C266.113 202.563 266.23 203.025 266.421 203.436C266.626 203.847 266.883 204.206 267.191 204.514C267.514 204.807 267.873 205.035 268.269 205.196C268.68 205.357 269.105 205.438 269.545 205.438C269.868 205.438 270.183 205.401 270.491 205.328C270.814 205.24 271.107 205.123 271.371 204.976C271.635 204.815 271.87 204.624 272.075 204.404C272.28 204.184 272.442 203.942 272.559 203.678L274.627 204.272C274.231 205.137 273.571 205.849 272.647 206.406C271.738 206.949 270.674 207.22 269.457 207.22ZM272.955 200.378C272.911 199.894 272.786 199.447 272.581 199.036C272.39 198.625 272.141 198.281 271.833 198.002C271.525 197.709 271.166 197.481 270.755 197.32C270.344 197.159 269.912 197.078 269.457 197.078C269.002 197.078 268.57 197.159 268.159 197.32C267.763 197.481 267.411 197.709 267.103 198.002C266.795 198.281 266.546 198.625 266.355 199.036C266.164 199.447 266.047 199.894 266.003 200.378H272.955ZM283.795 197.584C282.856 197.613 282.02 197.833 281.287 198.244C280.568 198.64 280.055 199.212 279.747 199.96V207H277.327V195.494H279.571V198.068C279.967 197.276 280.48 196.645 281.111 196.176C281.756 195.692 282.446 195.428 283.179 195.384C283.326 195.384 283.443 195.384 283.531 195.384C283.634 195.384 283.722 195.391 283.795 195.406V197.584ZM285.556 207V195.494H287.976V207H285.556ZM285.556 193.602V190.94H287.976V193.602H285.556ZM296.098 207.22C295.203 207.22 294.389 207.066 293.656 206.758C292.922 206.435 292.292 206.003 291.764 205.46C291.25 204.917 290.847 204.287 290.554 203.568C290.275 202.849 290.136 202.087 290.136 201.28C290.136 200.473 290.275 199.711 290.554 198.992C290.847 198.259 291.25 197.621 291.764 197.078C292.292 196.521 292.922 196.088 293.656 195.78C294.389 195.457 295.21 195.296 296.12 195.296C297.014 195.296 297.821 195.457 298.54 195.78C299.273 196.103 299.896 196.535 300.41 197.078C300.923 197.606 301.312 198.229 301.576 198.948C301.854 199.652 301.994 200.393 301.994 201.17C301.994 201.346 301.986 201.515 301.972 201.676C301.957 201.823 301.942 201.947 301.928 202.05H292.71C292.754 202.563 292.871 203.025 293.062 203.436C293.267 203.847 293.524 204.206 293.832 204.514C294.154 204.807 294.514 205.035 294.91 205.196C295.32 205.357 295.746 205.438 296.186 205.438C296.508 205.438 296.824 205.401 297.132 205.328C297.454 205.24 297.748 205.123 298.012 204.976C298.276 204.815 298.51 204.624 298.716 204.404C298.921 204.184 299.082 203.942 299.2 203.678L301.268 204.272C300.872 205.137 300.212 205.849 299.288 206.406C298.378 206.949 297.315 207.22 296.098 207.22ZM299.596 200.378C299.552 199.894 299.427 199.447 299.222 199.036C299.031 198.625 298.782 198.281 298.474 198.002C298.166 197.709 297.806 197.481 297.396 197.32C296.985 197.159 296.552 197.078 296.098 197.078C295.643 197.078 295.21 197.159 294.8 197.32C294.404 197.481 294.052 197.709 293.744 198.002C293.436 198.281 293.186 198.625 292.996 199.036C292.805 199.447 292.688 199.894 292.644 200.378H299.596ZM314.286 207H311.866V200.554C311.866 199.469 311.69 198.684 311.338 198.2C311 197.701 310.494 197.452 309.82 197.452C309.468 197.452 309.116 197.518 308.764 197.65C308.412 197.782 308.082 197.973 307.774 198.222C307.466 198.457 307.187 198.743 306.938 199.08C306.703 199.403 306.52 199.762 306.388 200.158V207H303.968V195.494H306.168V197.804C306.608 197.027 307.246 196.418 308.082 195.978C308.918 195.523 309.842 195.296 310.854 195.296C311.543 195.296 312.108 195.421 312.548 195.67C312.988 195.919 313.332 196.264 313.582 196.704C313.846 197.129 314.029 197.628 314.132 198.2C314.234 198.757 314.286 199.351 314.286 199.982V207ZM316.347 201.236C316.347 200.429 316.486 199.667 316.765 198.948C317.043 198.229 317.439 197.599 317.953 197.056C318.481 196.513 319.111 196.088 319.845 195.78C320.578 195.457 321.399 195.296 322.309 195.296C323.497 195.296 324.516 195.56 325.367 196.088C326.232 196.601 326.877 197.291 327.303 198.156L324.949 198.904C324.67 198.42 324.296 198.046 323.827 197.782C323.357 197.503 322.837 197.364 322.265 197.364C321.781 197.364 321.326 197.459 320.901 197.65C320.49 197.841 320.131 198.112 319.823 198.464C319.515 198.801 319.273 199.205 319.097 199.674C318.921 200.143 318.833 200.664 318.833 201.236C318.833 201.793 318.921 202.314 319.097 202.798C319.287 203.267 319.537 203.678 319.845 204.03C320.167 204.382 320.534 204.661 320.945 204.866C321.37 205.057 321.817 205.152 322.287 205.152C322.58 205.152 322.873 205.115 323.167 205.042C323.46 204.954 323.724 204.837 323.959 204.69C324.208 204.543 324.421 204.375 324.597 204.184C324.787 203.993 324.927 203.788 325.015 203.568L327.391 204.272C327.009 205.137 326.371 205.849 325.477 206.406C324.582 206.949 323.526 207.22 322.309 207.22C321.414 207.22 320.6 207.059 319.867 206.736C319.133 206.413 318.503 205.981 317.975 205.438C317.461 204.881 317.058 204.243 316.765 203.524C316.486 202.805 316.347 202.043 316.347 201.236ZM334.49 207.22C333.596 207.22 332.782 207.066 332.048 206.758C331.315 206.435 330.684 206.003 330.156 205.46C329.643 204.917 329.24 204.287 328.946 203.568C328.668 202.849 328.528 202.087 328.528 201.28C328.528 200.473 328.668 199.711 328.946 198.992C329.24 198.259 329.643 197.621 330.156 197.078C330.684 196.521 331.315 196.088 332.048 195.78C332.782 195.457 333.603 195.296 334.512 195.296C335.407 195.296 336.214 195.457 336.932 195.78C337.666 196.103 338.289 196.535 338.802 197.078C339.316 197.606 339.704 198.229 339.968 198.948C340.247 199.652 340.386 200.393 340.386 201.17C340.386 201.346 340.379 201.515 340.364 201.676C340.35 201.823 340.335 201.947 340.32 202.05H331.102C331.146 202.563 331.264 203.025 331.454 203.436C331.66 203.847 331.916 204.206 332.224 204.514C332.547 204.807 332.906 205.035 333.302 205.196C333.713 205.357 334.138 205.438 334.578 205.438C334.901 205.438 335.216 205.401 335.524 205.328C335.847 205.24 336.14 205.123 336.404 204.976C336.668 204.815 336.903 204.624 337.108 204.404C337.314 204.184 337.475 203.942 337.592 203.678L339.66 204.272C339.264 205.137 338.604 205.849 337.68 206.406C336.771 206.949 335.708 207.22 334.49 207.22ZM337.988 200.378C337.944 199.894 337.82 199.447 337.614 199.036C337.424 198.625 337.174 198.281 336.866 198.002C336.558 197.709 336.199 197.481 335.788 197.32C335.378 197.159 334.945 197.078 334.49 197.078C334.036 197.078 333.603 197.159 333.192 197.32C332.796 197.481 332.444 197.709 332.136 198.002C331.828 198.281 331.579 198.625 331.388 199.036C331.198 199.447 331.08 199.894 331.036 200.378H337.988Z" fill="black"/>
<g clip-path="url(#clip0)">
<path d="M211.977 132.779H195.013C190.329 132.779 186.531 136.268 186.531 140.572V154.209H192.892V146.416C192.892 145.341 193.842 144.468 195.013 144.468C196.183 144.468 197.133 145.341 197.133 146.416V154.209H209.857V146.416C209.857 145.341 210.807 144.468 211.977 144.468C213.148 144.468 214.098 145.341 214.098 146.416V154.209H220.459V140.572C220.459 136.269 216.661 132.779 211.977 132.779Z" fill="#FFF511"/>
<path d="M167.446 132.779H150.482C145.798 132.779 142 136.269 142 140.572V154.209H148.362V146.416C148.362 145.341 149.311 144.468 150.482 144.468C151.653 144.468 152.603 145.341 152.603 146.416V154.209H165.326V146.416C165.326 145.341 166.276 144.468 167.446 144.468C168.617 144.468 169.567 145.341 169.567 146.416V154.209H175.928V140.572C175.928 136.269 172.131 132.779 167.446 132.779Z" fill="#4DB5FF"/>
<path d="M256.508 132.779H239.544C234.86 132.779 231.062 136.268 231.062 140.572V154.209H237.424V146.416C237.424 145.341 238.373 144.468 239.544 144.468C240.715 144.468 241.665 145.341 241.665 146.416V154.209H254.388V146.416C254.388 145.341 255.338 144.468 256.508 144.468C257.679 144.468 258.629 145.341 258.629 146.416V154.209H264.99V140.572C264.99 136.269 261.193 132.779 256.508 132.779Z" fill="#EF2648"/>
<path d="M256.508 121.091V113.298H239.544V121.091L231.062 117.195L235.75 108.58C238.074 104.308 242.827 101.61 248.026 101.61C253.225 101.61 257.978 104.308 260.302 108.58L264.99 117.195L256.508 121.091Z" fill="#FFA511"/>
<path d="M256.508 113.298V121.091C256.508 125.394 252.71 128.883 248.026 128.883C243.342 128.883 239.544 125.394 239.544 121.091V113.298H256.508Z" fill="#FFD4B0"/>
<path d="M195.013 113.298V121.091C195.013 125.394 198.811 128.883 203.495 128.883C208.179 128.883 211.977 125.394 211.977 121.091V113.298H195.013Z" fill="#FFD4B0"/>
<path d="M195.013 113.298L190.772 105.506H203.495C208.179 105.506 211.977 108.995 211.977 113.298H195.013Z" fill="#235087"/>
<path d="M167.446 113.298V121.091C167.446 125.394 163.649 128.883 158.964 128.883C154.28 128.883 150.482 125.394 150.482 121.091V113.298H167.446Z" fill="#FFD4B0"/>
<path d="M167.446 113.298H150.482V109.402C150.482 107.249 152.38 105.506 154.723 105.506H163.205C165.549 105.506 167.446 107.249 167.446 109.402V113.298V113.298Z" fill="#E94343"/>
<path d="M264.99 72.3877C264.997 63.7808 257.407 56.7969 248.039 56.791C238.668 56.7852 231.068 63.7574 231.062 72.3663C231.056 79.3638 236.13 85.5083 243.467 87.3883L248.026 95.7652L252.585 87.3883C259.914 85.5103 264.984 79.3775 264.99 72.3877Z" fill="#B7E5FF"/>
<path d="M253.425 57.6228C261.135 62.5029 263.077 72.2025 257.766 79.2859C253.478 85.0016 245.59 87.4212 238.424 85.2179C239.964 86.1919 241.667 86.9244 243.467 87.3881L248.026 95.765L252.585 87.3881C261.604 85.0855 266.882 76.504 264.378 68.2187C262.87 63.2372 258.769 59.267 253.434 57.6248L253.425 57.6228Z" fill="#99C8E0"/>
<path d="M220.459 72.3877C220.466 63.7808 212.876 56.7969 203.508 56.791C194.137 56.7852 186.537 63.7574 186.531 72.3663C186.525 79.3638 191.599 85.5083 198.936 87.3883L203.495 95.7652L208.054 87.3883C215.383 85.5103 220.453 79.3775 220.459 72.3877Z" fill="#B7E5FF"/>
<path d="M208.894 57.6228C216.604 62.5029 218.547 72.2025 213.235 79.2859C208.947 85.0016 201.059 87.4212 193.893 85.2179C195.433 86.1919 197.136 86.9244 198.936 87.3881L203.495 95.765L208.054 87.3881C217.073 85.0855 222.351 76.504 219.847 68.2187C218.339 63.2372 214.238 59.267 208.903 57.6248L208.894 57.6228Z" fill="#99C8E0"/>
<path d="M175.928 72.3877C175.935 63.7808 168.346 56.7969 158.977 56.791C149.606 56.7852 142.006 63.7576 142 72.3663C141.994 79.3638 147.068 85.5083 154.405 87.3883L158.964 95.7652L163.523 87.3883C170.852 85.5103 175.922 79.3775 175.928 72.3877Z" fill="#B7E5FF"/>
<path d="M248.026 82.9347L239.105 74.739C236.522 72.3643 236.522 68.5148 239.105 66.1401C241.554 63.9756 245.371 63.8141 248.026 65.764C250.679 63.8119 254.496 63.9697 256.947 66.1321C259.53 68.5069 259.53 72.3563 256.947 74.7311L248.026 82.9347ZM243.785 68.2557C242.472 68.2557 241.408 69.2316 241.406 70.4375C241.406 71.018 241.656 71.5733 242.103 71.9844L248.026 77.4256L253.949 71.9844C254.878 71.1312 254.878 69.7481 253.949 68.8946C253.02 68.0412 251.515 68.0414 250.586 68.8946L248.026 71.246L245.467 68.8946C245.021 68.4837 244.415 68.2537 243.785 68.2557Z" fill="#EF2648"/>
<path d="M203.495 82.1283C197.64 82.1283 192.892 77.7664 192.892 72.3877C192.892 67.009 197.64 62.647 203.495 62.647C209.35 62.647 214.098 67.009 214.098 72.3877C214.091 77.7646 209.348 82.1226 203.495 82.1283ZM203.495 66.5433C199.981 66.5433 197.133 69.1597 197.133 72.3877C197.133 75.6156 199.981 78.2321 203.495 78.2321C207.009 78.2321 209.857 75.6156 209.857 72.3877C209.857 69.1597 207.009 66.5433 203.495 66.5433Z" fill="#EF2648"/>
<path d="M198.64 79.6124L211.362 67.9243L208.364 65.1693L195.641 76.8574L198.64 79.6124Z" fill="#EF2648"/>
<path d="M167.446 70.4493H150.482V74.3455H167.446V70.4493Z" fill="#EF2648"/>
<path d="M164.363 57.6228C172.073 62.5029 174.015 72.2025 168.704 79.2859C164.416 85.0016 156.528 87.4212 149.362 85.2179C150.902 86.1919 152.605 86.9244 154.405 87.3881L158.964 95.765L163.523 87.3881C172.542 85.0855 177.82 76.504 175.316 68.2187C173.808 63.2372 169.707 59.267 164.372 57.6248L164.363 57.6228Z" fill="#99C8E0"/>
<path d="M165.326 119.143C165.332 123.44 161.545 126.929 156.869 126.935C155.13 126.937 153.434 126.448 152.007 125.533C154.687 129.063 159.974 129.929 163.816 127.467C166.085 126.014 167.44 123.633 167.446 121.091V113.298H165.326V119.143Z" fill="#EDC4A2"/>
<path d="M164.944 105.857C165.194 106.357 165.324 106.903 165.326 107.454V113.298H167.446V109.402C167.442 107.871 166.465 106.484 164.944 105.857Z" fill="#A91D14"/>
<path d="M209.857 113.298V119.143C209.863 123.44 206.076 126.929 201.4 126.935C199.661 126.937 197.965 126.448 196.538 125.533C199.218 129.063 204.505 129.929 208.347 127.467C210.616 126.014 211.971 123.633 211.977 121.091V113.298H209.857V113.298Z" fill="#EDC4A2"/>
<path d="M209.857 113.298H211.977C211.977 110.748 210.614 108.36 208.332 106.907C209.324 108.21 209.857 109.761 209.857 111.35V113.298Z" fill="#163768"/>
<path d="M254.388 113.298V119.143C254.394 123.44 250.607 126.929 245.931 126.935C244.192 126.937 242.496 126.448 241.069 125.533C243.749 129.063 249.036 129.929 252.878 127.467C255.147 126.014 256.502 123.633 256.508 121.091V113.298H254.388V113.298Z" fill="#EDC4A2"/>
<path d="M231.467 116.45L231.062 117.195L239.544 121.091V118.813C236.734 118.416 234.01 117.619 231.467 116.45Z" fill="#F08015"/>
<path d="M256.508 116.271V121.091L264.99 117.195L262.408 112.451C260.633 113.957 258.648 115.241 256.508 116.271Z" fill="#F08015"/>
<path d="M186.531 154.209H192.893V152.152C190.772 152.216 188.652 152.261 186.531 152.261V154.209Z" fill="#F0C015"/>
<path d="M197.133 154.209H209.857V150.93C205.658 151.411 201.417 151.76 197.133 151.98V154.209V154.209Z" fill="#F0C015"/>
<path d="M214.098 154.209H220.459V149.426C218.352 149.781 216.231 150.106 214.098 150.4V154.209Z" fill="#F0C015"/>
<path d="M169.567 154.209H175.928V151.98C173.797 151.869 171.677 151.725 169.567 151.548V154.209Z" fill="#3596D8"/>
<path d="M142 154.209H148.362V148.664C146.226 148.257 144.108 147.809 142 147.336V154.209Z" fill="#3596D8"/>
<path d="M152.603 154.209H165.326V151.152C161.04 150.706 156.799 150.131 152.603 149.426V154.209V154.209Z" fill="#3596D8"/>
<path d="M231.062 154.209H237.424V146.416C237.43 146.194 237.479 145.976 237.566 145.769C235.415 146.33 233.244 146.845 231.062 147.328V154.209Z" fill="#B20D24"/>
<path d="M241.665 146.416V154.209H254.388V146.416C254.388 145.341 255.338 144.468 256.508 144.468C257.679 144.468 258.629 145.341 258.629 146.416V154.209H264.99V140.572C264.982 139.272 264.617 137.997 263.93 136.861C256.428 140.005 248.707 142.688 240.816 144.887C241.347 145.245 241.66 145.812 241.665 146.416Z" fill="#B20D24"/>
</g>
<defs>
<filter id="filter0_d" x="0" y="0" width="406" height="242" filterUnits="userSpaceOnUse" color-interpolation-filters="sRGB">
<feFlood flood-opacity="0" result="BackgroundImageFix"/>
<feColorMatrix in="SourceAlpha" type="matrix" values="0 0 0 0 0 0 0 0 0 0 0 0 0 0 0 0 0 0 127 0"/>
<feOffset dy="4"/>
<feGaussianBlur stdDeviation="2"/>
<feColorMatrix type="matrix" values="0 0 0 0 0 0 0 0 0 0 0 0 0 0 0 0 0 0 0.25 0"/>
<feBlend mode="normal" in2="BackgroundImageFix" result="effect1_dropShadow"/>
<feBlend mode="normal" in="SourceGraphic" in2="effect1_dropShadow" result="shape"/>
</filter>
<clipPath id="clip0">
<rect width="123" height="113" fill="white" transform="translate(142 49)"/>
</clipPath>
</defs>
</svg>
