<svg width="406" height="242" viewBox="0 0 406 242" fill="none" xmlns="http://www.w3.org/2000/svg">
<g filter="url(#filter0_d)">
<rect x="4" width="398" height="234" fill="white"/>
</g>
<path d="M195.095 162.004C195.408 162.185 195.71 162.386 195.992 162.62C197.437 163.813 198.859 164.964 200.357 166.102C201.399 166.893 202.236 167.845 203.63 167.973C204.914 168.092 206.266 167.594 207.493 167.314C209.277 166.907 210.932 166.116 212.79 165.87C214.694 165.618 216.754 165.123 218.527 164.407C219.77 163.904 220.865 163.088 222.118 162.63C223.357 162.178 224.621 161.712 225.877 161.345C227.55 160.856 228.961 159.727 230.514 158.968C232.19 158.15 234.141 157.484 235.654 156.392C236.337 155.899 236.292 155.23 236.479 154.457C236.914 152.662 237.072 150.807 237.251 148.959C237.425 147.158 237.524 145.336 237.445 143.523C237.378 141.989 236.749 140.481 236.914 138.905C237.012 137.97 237.428 137.091 237.506 136.135C237.579 135.242 237.528 134.34 237.377 133.457C237.189 132.358 236.924 131.267 236.831 130.154C236.746 129.142 236.826 128.107 236.687 127.101C236.621 126.627 236.441 125.798 235.897 125.617C235.575 125.509 234.993 125.807 234.72 125.887C233.744 126.174 232.781 126.489 231.849 126.896C230.127 127.65 228.52 128.627 226.796 129.376C224.76 130.26 222.972 130.941 221.175 132.293C220.611 132.717 219.443 133.732 218.68 133.78C217.873 133.831 216.605 132.161 216.147 131.551C215.118 130.179 214.024 129.444 212.514 128.694C210.652 127.77 208.998 126.778 208.783 124.536C207.265 124.589 206.358 125.699 205.193 126.46C204.333 127.021 203.163 127.246 202.22 127.686C199.643 128.887 196.792 129.526 194.43 131.157C192.856 132.243 191.286 133.285 189.367 133.548C187.843 133.757 187.346 132.355 186.597 131.205C186.186 130.575 185.58 130.267 185.026 129.789C184.515 129.348 184.106 128.794 183.592 128.356C183.09 127.928 182.187 127.059 181.657 127.601C181.71 129.551 181.397 131.532 181.379 133.492C181.353 136.347 181.258 139.253 181.396 142.106C181.534 144.934 181.236 147.845 181.381 150.645C181.511 153.156 184.38 154.114 186.082 155.426C186.776 155.961 187.254 156.686 187.882 157.288C188.896 158.258 190.157 158.939 191.222 159.859C192.375 160.855 193.828 161.27 195.095 162.004Z" fill="#FFDC0F"/>
<path d="M236.412 111.814C232.142 112.682 228.134 114.939 224.068 116.442C220.308 117.832 216.659 119.477 212.975 121.04C212.041 121.436 210.747 122.158 210.004 122.853C209.632 123.202 209.42 123.805 209.494 124.337C209.599 125.088 210.126 125.742 210.584 126.303C211.165 127.015 211.575 127.82 212.295 128.408C213.209 129.157 214.314 129.626 215.27 130.317C216.074 130.899 216.747 131.666 217.405 132.387C217.896 132.926 218.296 133.467 219.061 133.208C220.658 132.667 222.106 131.418 223.677 130.755C226.098 129.733 228.484 128.621 230.893 127.57C233.492 126.435 236.22 125.554 238.82 124.425C240.223 123.816 241.597 123.095 242.998 122.465C244.478 121.799 245.956 120.984 247.338 120.148C248.284 119.575 248.853 119.1 248.347 118.058C247.608 116.535 245.886 115.811 244.704 114.617C243.491 113.393 242.272 112.342 240.66 111.604C240.108 111.351 239.516 111.172 238.907 111.127C237.573 111.029 236.937 111.412 236.412 111.814Z" fill="#FFDC7E"/>
<path d="M181.52 108.944C178.621 109.962 175.742 111.466 173.046 112.905C171.936 113.498 171.23 113.523 170.896 114.885C170.602 116.084 171.231 117.226 171.945 118.113C173.016 119.442 174.09 120.599 175.395 121.724C176.06 122.297 176.756 122.915 177.526 123.346C178.005 123.615 178.606 123.698 179.042 124.035C179.652 124.508 180.075 125.425 180.537 126.043C181.092 126.783 181.58 127.579 182.262 128.217C183.347 129.233 184.209 130.692 185.51 131.429C187.149 132.358 188.889 134.688 190.959 134.027C191.927 133.719 192.836 133.109 193.782 132.722C194.791 132.31 195.755 131.884 196.671 131.291C199.596 129.397 202.752 127.735 205.57 125.696C206.379 125.11 207.696 124.095 206.756 123.075C205.623 121.846 203.947 122.769 202.731 121.805C200.497 120.035 198.14 118.607 195.495 117.485C193.942 116.826 192.52 116.217 191.202 115.151C190.561 114.633 190.011 113.999 189.342 113.519C187.613 112.279 185.766 111.223 184.169 109.792C183.149 108.879 182.421 107.828 181.52 108.944Z" fill="#FFDC7E"/>
<path d="M185.652 106.893C185.963 106.675 186.36 106.574 186.716 106.456C187.527 106.187 188.293 105.841 189.095 105.526C190.061 105.146 191.072 104.99 192.057 104.673C193.099 104.338 194.094 103.88 195.156 103.619C199.573 102.533 203.3 99.7198 207.643 98.4876C209.06 98.0853 210.795 97.6968 212.034 96.9156C213.455 96.0186 210.471 94.2153 209.813 93.6083C207.984 91.9213 205.522 91.1306 203.314 90.0286C202.343 89.5441 201.156 88.5329 200.081 88.3776C198.345 88.1271 196.32 88.9344 194.701 89.4469C191.876 90.3411 189.199 91.5443 186.338 92.3333C184.116 92.9461 181.997 93.6171 179.858 94.4738C178.782 94.9051 177.805 95.3071 176.781 95.8306C176.257 96.0986 175.775 96.0486 175.266 96.2491C174.754 96.4508 174.01 97.1883 173.666 97.6138C173.03 98.4016 173.528 99.1956 174.182 99.9603C174.85 100.742 175.683 101.404 176.371 102.179C177.069 102.964 177.846 103.761 178.64 104.451C179.768 105.429 181.083 106.182 182.227 107.166C183.352 108.134 183.826 107.136 185.652 106.893Z" fill="#FFDC7E"/>
<path d="M249.861 103.681C249.806 102.81 248.755 102.4 248.201 101.92C247.107 100.972 245.94 100.523 244.688 99.8374C243.929 99.4219 243.262 98.8201 242.505 98.3946C241.272 97.7019 239.919 97.2614 238.668 96.5929C237.267 95.8441 235.78 95.2044 234.445 94.3509C233.162 93.5311 232.2 92.4561 231.162 91.3631C229.695 89.8181 227.638 88.6676 225.46 88.9014C222.508 89.2181 219.911 91.2689 217.514 92.8189C216.472 93.4931 215.474 94.1819 214.594 95.0559C213.882 95.7631 213.897 95.7591 214.582 96.5059C215.295 97.2834 216.155 97.7251 217.142 98.1461C218.45 98.7036 219.58 99.2696 220.777 100.068C222.342 101.112 224.094 101.714 225.668 102.73C226.981 103.577 228.443 104.174 229.767 105.013C231.221 105.936 232.733 106.786 234.071 107.869C234.884 108.526 235.981 109.943 236.986 110.249C237.958 110.545 239.34 109.949 240.28 109.668C241.46 109.316 242.839 108.597 243.865 107.918C245.034 107.146 246.227 106.344 247.557 105.869C248.534 105.52 249.945 105.004 249.861 103.681Z" fill="#FFDC7E"/>
<path d="M205.488 99.8544C202.18 101.235 198.513 101.712 195.152 102.93C193.745 103.44 192.362 104.077 190.971 104.637C189.548 105.208 188.303 106.089 186.906 106.692C186.068 107.054 183.401 107.421 183.757 108.705C184.198 110.295 186.45 110.673 187.72 111.252C189.229 111.941 190.715 112.684 192.19 113.426C194.245 114.459 195.254 116.412 196.959 117.83C198.714 119.289 200.799 120.314 202.931 121.109C203.911 121.474 205.27 121.981 206.052 122.677C206.848 123.385 207.263 124.076 208.482 123.859C209.535 123.671 210.247 122.961 211.166 122.475C212.73 121.648 214.473 121.22 216.104 120.578C218.34 119.698 220.182 118.166 222.369 117.216C224.123 116.454 226.012 115.912 227.766 115.161C229.369 114.475 231.035 113.954 232.579 113.143C233.332 112.748 234.085 112.283 234.892 112.016C235.238 111.902 236.278 111.814 236.553 111.5C237.014 110.971 236.383 109.962 236.037 109.528C235.115 108.378 233.553 107.924 232.333 107.135C230.871 106.188 229.167 105.432 227.563 104.779C226.088 104.178 224.787 103.06 223.395 102.266C221.713 101.305 219.902 100.612 218.19 99.6956C217.044 99.0824 215.897 98.4896 214.699 97.9939C213.862 97.6476 213.091 97.0361 212.155 97.0156C210.043 96.9691 206.965 98.3841 205.488 99.8544Z" fill="#93522E"/>
<path d="M175.107 46.0022C173.886 45.993 172.74 45.8822 171.829 46.77C170.912 47.663 169.616 48.0815 168.666 48.9627C167.598 49.9522 166.93 51.3772 166.593 52.766C166.366 53.7015 166.396 54.8615 166.478 55.819C166.557 56.753 166.742 57.8037 167.064 58.6817C167.235 59.1465 167.429 59.6272 167.773 59.9947C168.126 60.3712 168.593 60.4582 168.992 60.7625C169.27 60.9747 169.597 61.0992 169.882 61.3007C170.454 61.7045 171.038 61.9962 171.688 62.248C172.236 62.4602 172.877 62.3937 173.444 62.588C174.657 63.0042 175.133 64.8884 175.436 65.9627C175.565 66.4199 175.542 66.9052 175.698 67.3522C175.841 67.7597 175.979 68.1212 176.094 68.5372C176.348 69.4557 177.205 68.9394 177.858 68.8532C178.115 68.8192 178.368 68.8519 178.617 68.7852C178.951 68.6957 179.25 68.4639 179.556 68.3132C179.866 68.1602 180.194 68.0889 180.516 67.9702C180.958 67.8067 181.337 67.5237 181.725 67.2599C182.125 66.9884 182.531 66.8139 182.846 66.4439C183.087 66.1609 183.042 66.1324 182.975 65.7732C182.842 65.0637 182.641 64.3697 182.442 63.6762C182.34 63.3182 182.235 62.9602 182.143 62.5995C182.083 62.3657 181.951 62.2415 181.885 62.0522C181.67 61.4267 182.219 60.4622 182.587 59.9695C182.872 59.586 183.081 59.2702 183.234 58.8165C183.386 58.3675 183.649 57.9917 183.828 57.5515C183.986 57.1625 184.041 56.784 184.244 56.4077C184.489 55.9555 184.592 55.6062 184.577 55.0935C184.562 54.5632 184.594 53.9945 184.451 53.4782C184.288 52.8907 184.151 52.463 184.27 51.866C184.412 51.1575 184.098 50.7225 183.791 50.1142C183.593 49.7217 183.488 49.3372 183.173 49.014C182.579 48.4035 181.961 47.945 181.18 47.6095C180.745 47.4225 180.417 47.0915 179.998 46.8785C179.566 46.6592 179.098 46.6075 178.629 46.5087C178.094 46.3962 177.58 46.187 177.038 46.1105C176.407 46.0215 175.743 46.007 175.107 46.0022Z" fill="#FFDC0F"/>
<path d="M184.55 68.1107C184.162 68.7639 184.124 69.4889 183.586 70.0849C182.994 70.7394 182.568 71.1449 181.692 71.2534C181.347 71.2962 181.056 71.4699 180.72 71.5217C180.285 71.5887 179.85 71.5294 179.41 71.6284C178.827 71.7597 178.228 71.8854 177.672 71.5969C177.336 71.4227 176.825 70.9524 176.672 70.5992C176.448 70.0824 176.73 69.8522 177.119 69.5637C178.037 68.8839 179.092 68.5604 180.085 68.0049C180.833 67.5864 181.64 67.2169 182.415 66.8547C182.894 66.6309 183.082 66.529 183.641 66.6737C183.965 66.7579 184.258 67.2437 184.544 67.2247C184.555 67.2572 184.557 67.2904 184.55 67.3247C184.949 67.3487 184.549 67.8297 184.55 68.1107Z" fill="#FF8225"/>
<path d="M166.712 77.3707C166.244 77.7527 165.99 78.0607 165.875 78.6429C165.748 79.2817 165.343 79.7949 164.908 80.2727C164.218 81.0304 163.358 81.7579 162.853 82.6584C162.711 82.9127 162.733 83.0989 162.873 83.3287C163.104 83.7067 163.441 84.2494 163.885 84.4129C164.44 84.6169 164.997 84.5979 165.542 84.8957C165.946 85.1162 166.266 85.3717 166.547 85.7342C167.207 86.5857 167.188 87.5777 167.547 88.5439C167.665 88.3067 167.642 87.9797 167.708 87.7147C167.799 87.3482 167.974 87.0149 168.132 86.6747C168.444 86.0022 168.688 85.3419 169.087 84.7122C169.47 84.1072 169.878 83.5559 170.33 82.9992C170.575 82.6972 171.346 82.0457 171.328 81.6267C171.315 81.3294 171.013 81.2802 170.769 81.1787C170.027 80.8709 169.298 80.5369 168.571 80.1904C167.899 79.8694 167.396 79.2107 167.112 78.5257C166.94 78.1109 166.982 77.6279 166.746 77.2342" fill="#FFE1AE"/>
<path d="M197.847 64.4827C197.756 64.51 197.675 64.6197 197.613 64.8405C197.45 65.4142 197.255 65.9495 196.907 66.4432C196.52 66.9917 196.285 67.7115 195.854 68.213C195.467 68.664 194.863 69.1265 194.399 69.5132C194.14 69.7285 193.454 70.0247 193.432 70.4347C193.398 71.0867 194.687 71.3127 195.122 71.5075C195.833 71.8257 196.347 72.4777 196.844 73.061C197.239 73.525 197.526 74.084 197.896 74.5729C198.263 75.0574 198.364 75.6417 198.566 76.1997C198.887 74.9522 199.073 73.6779 199.701 72.5187C200.217 71.5685 201.01 70.7592 201.52 69.8192C201.979 68.9725 200.546 68.3712 200.056 67.858C199.225 66.9875 198.954 65.8972 198.349 64.903C198.178 64.6215 197.998 64.4375 197.847 64.4827Z" fill="#FFE1AE"/>
<path d="M228.801 66.1287C228.609 66.5325 228.514 66.987 228.32 67.3945C228.059 67.9405 227.722 68.4262 227.356 68.904C226.66 69.81 225.86 70.8752 224.944 71.5627C224.778 71.6872 224.285 71.9565 224.323 72.2277C224.355 72.459 224.84 72.6482 225.016 72.7562C225.962 73.338 226.999 73.7777 227.735 74.637C228.162 75.135 228.574 75.7157 228.909 76.2772C229.183 76.7372 229.618 77.314 229.704 77.8475C230.029 77.3337 229.986 76.4267 230.209 75.827C230.522 74.9867 230.938 74.156 231.429 73.4022C232.003 72.5205 232.732 71.7217 233.284 70.8405C232.67 70.0482 231.446 69.6157 230.565 69.1982C229.463 68.6767 228.324 67.4867 228.801 66.1287Z" fill="#FFE1AE"/>
<path d="M252.012 81.4027C251.724 82.6107 251.224 83.867 250.481 84.871C250.087 85.402 249.694 85.9905 249.257 86.4889C248.907 86.8894 248.341 87.1052 248.033 87.5362C247.489 88.2947 248.469 88.4114 248.945 88.7902C249.682 89.3769 250.918 89.6364 251.315 90.5827C251.7 91.5017 251.881 92.6114 252.5 93.4259C252.754 93.2684 252.815 92.6994 252.938 92.4184C253.203 91.8124 253.443 91.1857 253.75 90.5974C254.276 89.5909 254.735 88.6602 255.462 87.7662C256.029 87.0697 256.514 86.9942 255.93 86.1295C255.335 85.2495 254.436 84.6282 253.806 83.769C253.293 83.0675 252.69 82.1342 252.012 81.4027Z" fill="#FFE1AE"/>
<path d="M244.125 62.6777C244.501 62.3307 244.791 61.8847 245.123 61.4987C245.673 60.8582 246.273 60.244 246.852 59.6297C247.592 58.845 248.363 58.0985 249.099 57.3122C249.84 56.5205 250.711 55.8697 251.476 55.105C252.58 54.0025 253.589 52.8032 254.804 51.8147C255.787 51.0145 256.735 50.1893 257.747 49.4195C258.335 48.9715 258.809 48.415 259.506 48.112C260.148 47.8325 260.676 48.4118 261.19 48.7395C261.849 49.1595 262.486 49.667 263.004 50.2475C263.22 50.4898 263.477 50.7127 263.576 51.0242C263.711 51.4465 263.73 51.948 263.825 52.384C263.996 53.171 263.999 53.9932 264.249 54.7637C264.479 55.4737 264.659 55.784 264.206 56.4887C263.368 57.7907 262.213 58.8667 261.155 59.9875C259.631 61.6027 257.983 63.0967 256.412 64.6667C255.391 65.6875 254.397 66.7487 253.359 67.748C252.932 68.159 252.515 68.5707 252.128 69.0175C251.954 69.2187 251.573 69.8567 251.286 69.891C250.685 69.9625 250.755 68.576 250.677 68.2497C250.537 67.6695 250.517 67.0497 250.325 66.4845C250.215 66.165 250.021 65.592 249.781 65.3637C249.297 64.9025 248.483 64.5255 247.861 64.2817C247.058 63.9667 246.297 63.4892 245.423 63.4215C244.786 63.3725 243.815 63.2025 244.125 62.6777Z" fill="#FF9550"/>
<path d="M259.622 47.233C260.421 46.4397 261.383 46.048 262.385 45.5502C263.189 45.1507 263.997 44.8527 264.891 44.7552C265.292 44.7115 265.73 44.6772 266.129 44.6777C266.563 44.6782 267.017 44.5952 267.405 44.7992C267.678 44.943 267.896 45.1712 268.127 45.387C268.451 45.6887 268.917 45.8527 269.083 46.2772C269.275 46.765 269.131 47.3787 269.16 47.8895C269.199 48.5885 269.178 49.2837 268.888 49.9385C268.457 50.909 267.917 51.9605 267.23 52.7717C266.866 53.2007 266.503 53.6327 266.107 54.0317C265.897 54.242 265.598 54.6915 265.31 54.7812C265.224 54.4605 265.079 54.3165 264.888 54.0615C264.63 53.716 264.479 53.2547 264.337 52.8535C264.065 52.0835 263.691 51.2755 263.052 50.7345C262.659 50.4017 262.297 49.9545 261.889 49.6592C261.517 49.3895 261.079 49.204 260.705 48.9252C260.011 48.4072 258.865 47.5117 259.622 47.233Z" fill="#FF6E73"/>
<path d="M243.609 63.5659C243.457 63.7637 243.392 64.0497 243.318 64.2854C243.124 64.9072 242.936 65.5322 242.79 66.1669C242.63 66.8644 242.502 67.5277 242.379 68.2214C242.321 68.5542 242.118 68.7397 242.326 68.9732C242.442 69.1027 242.696 69.1342 242.85 69.2039C243.293 69.4052 243.701 69.5339 244.118 69.8189C244.657 70.1872 244.982 70.8779 245.167 71.4949C245.23 71.7039 245.286 72.2662 245.469 72.4097C245.704 72.5944 246.152 72.3394 246.367 72.2392C247.003 71.9437 247.661 71.6364 248.326 71.4157C248.635 71.3129 248.965 71.2659 249.266 71.1389C249.553 71.0169 249.804 70.8242 250.103 70.7219C250.448 70.6042 250.928 70.5289 251.126 70.1702C251.382 69.7077 251.142 68.9432 251.054 68.4677C250.931 67.8067 250.599 67.3227 250.35 66.7089C250.157 66.2329 249.921 65.7019 249.576 65.3182C249.234 64.9384 248.8 64.5597 248.343 64.3387C247.846 64.0977 247.335 64.0252 246.902 63.6842C246.517 63.3817 245.945 63.2352 245.46 63.1384C244.865 63.0199 244.169 63.1827 243.609 63.5659Z" fill="#FFE9D1"/>
<path d="M242.266 70.1609C242.266 71.0537 242.234 71.9424 242.232 72.8362C242.231 73.1369 242.166 73.7062 242.524 73.8174C242.721 73.8787 243.146 73.6947 243.342 73.6479C243.804 73.5382 244.103 73.3939 244.581 73.3734C245.048 73.3534 245.845 73.2169 245.908 72.6892C245.972 72.1562 245.662 71.4429 245.428 70.9792C245.224 70.5767 244.919 70.4362 244.566 70.1952C244.237 69.9709 244.001 69.7839 243.634 69.6344C243.385 69.5334 243.157 69.3637 242.886 69.3327C242.636 69.3039 242.477 69.4414 242.236 69.4484C242.252 69.5767 242.235 69.7122 242.266 70.1609Z" fill="#93522E"/>
<path d="M220.33 42.3808C219.044 43.151 218.086 44.6898 217.548 46.0295C217.004 47.3845 216.819 48.8272 216.473 50.2302C216.261 49.7327 215.22 49.705 214.787 49.7255C214.223 49.7522 213.692 49.715 213.129 49.6917C212.593 49.6697 212.069 49.803 211.537 49.7937C211.038 49.785 210.717 49.7402 210.221 49.9135C209.633 50.1187 209.02 50.2497 208.435 50.4605C207.033 50.966 205.678 51.4027 204.595 52.4567C203.821 53.2107 203.296 54.434 203.187 55.5245C203.151 55.8877 203.263 56.4477 203.44 56.769C203.662 57.1712 204.128 57.2552 204.536 57.379C206.021 57.8282 207.443 57.7185 208.983 57.7557C210.525 57.7932 212.067 57.9042 213.607 57.9712C217.493 58.14 221.307 57.057 225.197 57.4977C227.268 57.7325 229.273 57.2092 231.326 57.109C232.161 57.0682 233.028 57.0315 233.861 57.0387C234.473 57.044 235.096 57.1357 235.703 57.083C236.303 57.0307 236.849 56.897 237.438 56.798C237.761 56.7435 238.18 56.7875 238.48 56.63C239.398 56.148 239.739 54.5712 239.784 53.6485C239.812 53.0795 239.708 52.351 239.507 51.814C239.304 51.27 238.756 50.7517 238.385 50.3122C237.703 49.505 236.857 48.8335 235.85 48.497C234.456 48.0305 233.338 48.4735 231.953 48.7282C231.373 48.8347 230.998 48.841 230.659 48.3002C230.52 48.0797 230.518 47.846 230.415 47.6127C230.311 47.378 230.097 47.218 229.994 46.984C229.711 46.342 229.598 45.734 229.163 45.1485C228.71 44.5378 228.343 43.8943 227.768 43.3838C227.332 42.9963 226.706 42.674 226.151 42.4965C225.342 42.2378 224.436 41.8385 223.591 41.7655C223.05 41.7188 222.446 41.7943 221.916 41.903C221.475 41.9938 221.027 42.331 220.33 42.3808Z" fill="#DCEDF3"/>
<path d="M240.617 96.1366C238.566 94.8144 236.497 93.5196 234.434 92.2179C232.625 91.0759 230.508 89.9696 228.923 88.5541C227.818 87.5669 227.309 86.7639 225.714 86.8699C224.082 86.9784 222.594 88.1371 221.272 88.9616C219.469 90.0861 217.597 91.0754 215.888 92.3449C214.863 93.1064 213.725 93.7724 212.703 94.5589C210.444 93.1839 208.261 91.5866 206.078 90.1241C203.865 88.6419 202.249 86.4671 199.428 87.0221C195.74 87.7474 191.894 89.2831 188.349 90.5314C185.085 91.6804 181.784 92.6841 178.527 93.8519C176.62 94.5354 173.107 95.2069 171.629 96.6534C171.184 97.0896 171.198 97.6729 171.428 98.1989C171.961 99.4166 173.284 100.343 174.223 101.249C175.756 102.728 177.147 104.332 178.66 105.827C179.471 106.628 180.262 107.344 181.06 108.019C178.826 108.885 176.674 109.826 174.501 110.978C172.911 111.821 168.84 112.688 169.147 115.121C169.407 117.176 172.608 119.652 173.997 121.062C176.055 123.151 178.155 125.123 180.303 127.088C179.986 130.947 180.33 134.823 180.417 138.689C180.469 141.001 180.391 143.322 180.372 145.635C180.355 147.663 179.944 149.853 180.397 151.853C180.748 153.401 182.051 154.39 183.23 155.368C184.644 156.54 186.018 157.817 187.537 158.851C190.996 161.206 194.444 163.682 198.052 165.815C201.081 167.605 203.477 169.78 207.109 168.722C211.542 167.43 215.967 165.963 220.323 164.434C224.433 162.991 228.46 161.138 232.408 159.305C235.014 158.096 237.903 157.192 238.285 154.015C238.563 151.696 238.369 149.297 238.502 146.964C238.644 144.445 238.69 141.878 238.704 139.356C238.728 134.862 237.861 130.206 238.323 125.74C240.835 124.702 243.367 123.707 245.871 122.658C247.598 121.935 251.012 121.032 250.261 118.517C249.641 116.438 246.186 114.304 244.555 113.069C243.282 112.105 241.967 111.307 240.628 110.557C242.2 109.759 243.726 108.863 245.293 108.015C247.116 107.03 250.799 106.339 251.486 104.216C251.622 103.796 251.471 103.296 251.16 102.992C248.257 100.147 244.029 98.3369 240.617 96.1366ZM212.918 97.6399C213.206 97.8076 213.491 97.9811 213.784 98.1401C217.969 100.409 222.202 102.534 226.209 105.131C228.283 106.475 230.453 107.686 232.632 108.852C233.415 109.271 234.588 109.652 235.192 110.326C235.953 111.173 236.126 110.659 235.117 111.413C234.422 111.933 233.341 112.13 232.523 112.438C227.301 114.408 222.122 116.505 216.926 118.529C214.366 119.527 211.906 120.758 209.356 121.777C207.752 122.419 207.251 122.57 205.799 121.694C204.736 121.053 203.653 120.453 202.584 119.821C197.728 116.952 193.236 113.558 188.437 110.603C187.346 109.931 186.291 109.222 185.23 108.513C185.261 108.49 185.289 108.474 185.322 108.449C185.912 108.437 186.692 107.979 187.231 107.776C190.059 106.711 192.845 105.551 195.681 104.507C198.669 103.408 201.634 102.221 204.599 101.058C207.272 100.01 209.936 98.6389 212.662 97.7686C212.762 97.7366 212.845 97.6911 212.918 97.6399ZM180.627 104.311C179.447 103.161 178.385 101.899 177.23 100.724C176.44 99.9199 175.208 98.9966 174.366 98.0029C174.892 97.8444 175.479 97.7444 175.846 97.6171C176.981 97.2229 178.08 96.7256 179.213 96.3211C181.523 95.4969 183.875 94.8269 186.19 94.0349C188.828 93.1324 191.467 92.2589 194.114 91.3859C195.342 90.9809 196.576 90.5986 197.803 90.1909C199.456 89.6414 200.305 89.4049 201.895 90.3121C205.063 92.1199 207.934 94.4444 210.995 96.4531C204.925 97.8084 198.956 100.659 193.165 102.765C190.309 103.804 187.507 104.979 184.642 106.002C184.17 106.17 183.631 106.36 183.155 106.608C182.284 105.837 181.414 105.077 180.627 104.311ZM177.795 121.577C176.045 119.798 173.791 117.943 172.407 115.862C171.413 114.368 172.962 114.479 174.248 113.838C175.384 113.271 176.471 112.607 177.592 112.014C179.124 111.202 180.882 110.509 182.41 109.57C183.512 111.072 186.152 112.209 187.555 113.068C190.871 115.098 193.912 117.512 197.247 119.504C199.766 121.008 202.384 122.457 204.778 124.146C204.99 124.296 205.196 124.416 205.4 124.524C205.158 124.678 204.916 124.832 204.679 124.981C202.375 126.438 200.053 127.724 197.666 129.032C196.631 129.599 195.567 130.11 194.508 130.63C193.243 131.251 191.774 132.351 190.336 132.486C188.287 132.679 185.504 128.537 183.97 127.115C181.94 125.231 179.743 123.556 177.795 121.577ZM206.152 145.188C205.906 148.828 205.504 152.489 205.374 156.133C205.25 159.584 205.526 163.008 205.578 166.44C204.701 166.496 203.815 166.354 202.889 165.858C200.987 164.838 199.096 163.59 197.28 162.422C193.433 159.945 189.566 157.347 186.031 154.462C185.174 153.762 183.964 153.058 183.326 152.139C182.476 150.915 182.716 149.645 182.76 148.27C182.84 145.78 182.799 143.286 182.797 140.796C182.792 136.795 182.503 132.799 182.187 128.812C184.149 130.686 185.943 133.505 188.315 134.767C190.837 136.108 193.568 133.867 195.784 132.796C198.645 131.413 201.535 129.988 204.2 128.262C205.244 127.586 206.44 126.932 207.632 126.238C207.157 132.555 206.578 138.862 206.152 145.188ZM235.797 152.882C235.646 155.292 233.89 155.728 232.016 156.714C229.684 157.94 227.169 158.826 224.74 159.833C219.933 161.824 215.117 163.523 210.16 165.135C209.324 165.407 208.523 165.723 207.733 165.978C207.665 162.874 207.371 159.77 207.41 156.648C207.458 152.836 207.856 148.997 208.07 145.188C208.257 141.844 208.432 138.519 208.555 135.17C208.665 132.214 209.093 129.244 209.149 126.283C210.647 127.842 212.144 129.395 213.589 131.015C215.46 133.111 216.604 135.126 219.595 134.185C225.201 132.421 230.393 129.31 235.75 126.854C235.588 128.25 235.77 129.671 235.877 131.11C236.056 133.523 236.105 135.919 236.114 138.339C236.133 143.147 236.097 148.084 235.797 152.882ZM244.659 116.297C245.251 116.781 246.369 117.493 246.659 118.236C246.691 118.319 246.718 118.397 246.738 118.472C247.067 119.667 245.939 119.867 244.822 120.329C243.79 120.756 242.739 121.135 241.707 121.567C239.228 122.602 236.703 123.567 234.298 124.763C229.414 127.191 224.423 129.395 219.426 131.568C217.812 132.27 217.404 131.598 216.265 130.357C215.342 129.352 214.41 128.356 213.501 127.339C212.628 126.364 211.582 125.307 210.453 124.423C210.724 124.22 210.987 124.012 211.238 123.796C211.362 123.742 211.485 123.687 211.611 123.633C218.121 120.825 224.73 118.205 231.355 115.665C233.351 114.9 237.533 114.13 238.756 112.23C239.231 112.503 239.704 112.782 240.167 113.087C241.702 114.1 243.235 115.134 244.659 116.297ZM246.065 104.787C244.777 105.404 243.536 106.096 242.29 106.791C240.88 107.577 239.567 108.387 238.304 109.292C238.215 109.244 238.128 109.197 238.039 109.149C237.566 108.746 237.012 108.391 236.519 108.072C231.399 104.758 225.892 101.86 220.647 98.7281C218.83 97.6434 216.857 96.8089 214.972 95.8379C216.791 94.8291 218.61 93.3031 219.785 92.6226C221.284 91.7539 222.762 90.7671 224.295 89.9679C226.423 88.8581 227.105 90.5469 228.707 91.5421C232.004 93.5904 235.272 95.6971 238.551 97.7864C240.387 98.9561 242.173 100.191 244.048 101.3C245.478 102.145 247.02 102.899 248.349 103.907C247.582 104.22 246.405 104.624 246.065 104.787Z" fill="black"/>
<path d="M170.85 63.0812C171.562 63.3602 172.307 63.4775 173.018 63.7367C174.498 64.276 174.767 65.4685 175.167 66.8432C175.338 67.431 175.575 67.9992 175.728 68.592C175.887 69.2067 175.955 69.8457 176.173 70.4425C177.038 72.8092 180.056 72.3657 181.938 71.6735C184.228 70.8307 186.286 68.7897 184.981 66.2427C184.607 65.5127 184.077 64.8727 183.667 64.162C182.092 61.4365 184.025 60.5175 184.952 58.0877C187.607 51.1285 183.245 45.4848 176.102 44.9365C169.592 44.437 163.443 50.446 165.148 57.042C165.903 59.957 168.082 61.9965 170.85 63.0812ZM183.528 67.1325C184.126 69.1857 182.132 70.0167 180.422 70.4375C179.766 70.5987 178.959 70.7985 178.297 70.5252C177.904 70.3632 177.714 70.1872 177.587 69.9857C179.295 69.6227 182.223 68.5257 183.528 67.1325ZM173.858 46.788C177.153 46.1243 181.326 47.2725 183.096 50.2535C184.932 53.3462 183.741 57.0972 181.903 59.8462C180.972 61.2382 180.884 61.8857 181.497 63.4695C182.171 65.2085 182.371 65.8942 180.605 66.7957C180.038 64.1057 179.495 61.4207 178.864 58.7397C178.422 56.8625 178.704 54.3422 177.769 52.6387C177.658 52.437 177.388 52.2612 177.149 52.2857C175.972 52.4055 173.287 53.1185 172.595 54.1017C171.826 55.1942 173.078 56.4407 173.599 57.3655C174.611 59.1587 175.595 60.9617 176.634 62.7437C177.51 64.2457 178.044 66.1072 179.025 67.5817C177.58 68.2542 177.282 68.1775 176.908 66.603C176.624 65.408 176.635 64.013 175.726 63.0702C174.781 62.089 173.27 62.0445 172.048 61.6232C163.925 58.82 166.038 48.3632 173.858 46.788ZM178.642 63.5565C178.192 62.505 177.708 61.4602 177.109 60.4227C176.526 59.415 175.96 58.4092 175.419 57.3817C175.155 56.8822 174.908 56.2247 174.558 55.7792C173.812 54.8257 173.622 55.2265 174.724 54.748C176.292 54.0665 176.654 53.5135 176.915 55.2955C177.101 56.564 177.296 57.8397 177.596 59.0865C177.954 60.5785 178.307 62.0622 178.642 63.5565Z" fill="black"/>
<path d="M203.365 58.1852C204.876 59.0225 207.245 58.9122 208.896 58.929C209.934 58.9395 210.979 58.8742 212.023 58.7885C214.334 58.7772 216.702 58.4827 218.887 58.3607C221.108 58.2972 223.337 58.2602 225.549 58.082C228.221 57.9932 230.894 57.9365 233.572 57.9452C235.777 57.9525 239.133 58.7445 240.277 56.3275C241.564 53.6095 240.123 49.862 237.592 48.421C236.316 47.6942 234.665 47.3302 233.197 47.395C231.7 47.461 231.705 47.471 231.367 46.076C231.194 45.3582 230.658 44.663 230.184 44.1152C229.193 42.969 227.849 42.0197 226.422 41.4887C223.927 40.5607 221.037 40.9905 218.853 42.472C216.387 44.144 215.636 46.674 215.346 49.4047C214.044 49.103 212.906 48.8587 211.409 49.0797C209.235 49.4007 206.775 50.247 204.945 51.4805C202.884 52.8715 200.027 56.3352 203.365 58.1852ZM206.201 52.8167C207.485 52.0457 209.081 51.4582 210.546 51.1092C212.515 50.6405 214.021 50.9815 215.91 51.3575C216.506 51.4762 217.006 51.1037 217.046 50.4992C217.258 47.2547 218.192 44.0957 221.672 43.0757C224.37 42.2852 226.941 43.2227 228.628 45.4077C229.435 46.4527 229.194 48.9855 230.311 49.6147C231.102 50.0595 232.55 49.4517 233.433 49.3805C234.608 49.2855 235.63 49.4262 236.651 50.0582C238.338 51.1032 239.689 53.5602 238.335 55.3412C237.395 56.5782 235.917 56.198 234.411 56.2007C231.648 56.2055 228.899 56.2192 226.142 56.3527C221.262 56.5107 216.389 56.8805 211.51 56.986C210.223 57.0137 208.94 56.98 207.654 56.9762C206.901 56.9742 205.736 57.2367 205.029 56.9137C203.332 56.1385 205.213 53.4105 206.201 52.8167Z" fill="black"/>
<path d="M267.982 44.3215C265.289 42.4132 261.465 44.652 259.411 46.5015C256.239 49.3585 253.139 52.4875 250.206 55.5899C250.164 55.6342 250.143 55.6852 250.13 55.7377C247.7 57.7014 245.356 59.8122 243.584 62.3819C242.003 64.6742 241.706 67.5219 241.416 70.2097C241.25 71.7402 240.965 73.6172 241.85 74.9949C242.06 75.3234 242.444 75.4854 242.827 75.3897C245.136 74.8142 247.394 73.1719 249.599 72.2244C251.68 71.3307 252.618 70.2954 254.17 68.6802C257.894 64.8059 261.7 60.8092 265.099 56.5792C267.51 53.5797 272.748 47.6982 267.982 44.3215ZM243.103 73.5004C242.895 72.6344 242.925 71.3099 243.045 70.0094C243.417 70.1687 243.795 70.3234 244.109 70.6049C244.598 71.0442 245.031 71.8207 245.109 72.4709C245.111 72.4837 245.115 72.4944 245.117 72.5067C244.451 72.8842 243.78 73.2459 243.103 73.5004ZM247.696 71.1372C247.25 71.3229 246.801 71.5577 246.349 71.8082C246.095 70.8527 245.435 69.9452 244.635 69.4167C244.402 69.2627 243.751 68.9627 243.174 68.8624C243.312 67.8122 243.485 66.8804 243.608 66.3617C243.797 65.5614 244.108 64.8254 244.489 64.1292C245.907 64.2299 247.198 64.5829 248.384 65.5107C249.374 66.2852 249.982 67.3939 250.114 68.6354C250.295 70.3327 249.107 70.5489 247.696 71.1372ZM260.342 59.2522C257.692 62.2102 255.053 65.1809 252.324 68.0699C252.047 68.3632 251.79 68.6127 251.539 68.8449C251.692 66.9759 250.365 64.9454 248.792 64.1209C247.872 63.6392 246.474 62.8382 245.302 62.8492C246.126 61.7247 247.133 60.7114 248.168 59.7447C251.51 56.6229 255.85 53.5749 258.416 49.7025C258.687 49.512 258.951 49.3705 259.199 49.3155C260.448 49.038 262.621 51.8267 263.202 52.7455C264.933 55.4854 262.003 57.3982 260.342 59.2522ZM265.616 53.5877C265.322 52.6952 264.774 51.8447 264.237 51.1772C263.312 50.0275 261.854 48.1962 260.392 47.543C261.859 46.4812 263.676 45.2647 265.475 45.3242C269.923 45.4715 267.683 50.2222 265.616 53.5877Z" fill="black"/>
<path d="M212.413 82.8776C212.142 82.5026 211.641 82.4864 211.372 82.8776C210.711 83.8414 210.809 85.6156 210.733 86.7619C210.66 87.8739 210.652 89.4626 211.283 90.4239C211.567 90.8561 212.316 90.7124 212.302 90.1501C212.27 88.8649 212.252 87.5896 212.359 86.3089C212.446 85.2626 213.094 83.8181 212.413 82.8776Z" fill="black"/>
<path d="M212.999 80.0359C213.031 79.7411 213.303 79.3024 213.4 79.0139C213.639 78.3084 213.901 77.6149 214.101 76.8972C214.365 75.9442 215.043 74.7462 214.557 73.8119C214.31 73.3352 213.623 73.3964 213.36 73.8119C212.708 74.8429 212.638 76.2782 212.336 77.4402C212.133 78.2227 211.577 79.4364 212.011 80.2254C212.161 80.4969 212.485 80.5291 212.743 80.4156C212.908 80.3426 212.98 80.2074 212.999 80.0359Z" fill="black"/>
<path d="M215.344 71.706C216.022 70.9632 216.318 70.1465 216.717 69.243C217.225 68.0887 217.831 66.9792 218.368 65.8385C218.523 65.508 218.522 65.1035 218.237 64.8347C218.194 64.794 218.15 64.753 218.107 64.7122C217.914 64.5295 217.606 64.4782 217.372 64.618C216.39 65.203 215.963 67.1682 215.543 68.1672C215.292 68.7655 215.17 69.3855 214.956 69.9945C214.755 70.5695 214.534 70.9235 214.675 71.5307C214.741 71.8152 215.145 71.924 215.344 71.706Z" fill="black"/>
<path d="M187.987 81.6284C188.928 83.9052 189.67 86.1794 190.407 88.5232C190.562 89.0157 191.397 89.1024 191.503 88.5232C191.776 87.0329 191.275 85.4044 190.749 84.0217C190.376 83.0404 190.056 81.0612 188.912 80.7104C188.408 80.5562 187.766 81.0942 187.987 81.6284Z" fill="black"/>
<path d="M184.383 73.5205C183.909 73.3732 183.406 73.8605 183.562 74.335C183.723 74.8242 183.989 75.0617 184.32 75.4435C184.708 75.891 185.068 76.4027 185.422 76.8787C185.684 77.2307 185.828 77.6514 186.121 77.9834C186.46 78.3682 186.85 78.5737 187.065 79.0649C187.268 79.5289 188.069 79.2964 188.028 78.8062C187.994 78.4002 187.895 78.0057 187.678 77.6529C187.372 77.1547 187.096 76.6372 186.788 76.1405C186.206 75.201 185.499 73.867 184.383 73.5205Z" fill="black"/>
<path d="M236.355 84.2171C235.711 84.8366 235.385 85.8236 235.154 86.6634C234.85 87.7679 234.539 89.0131 234.836 90.1431C234.966 90.6366 235.626 90.5734 235.783 90.1431C236.144 89.1564 236.391 88.0931 236.672 87.0789C236.896 86.2719 236.971 85.4746 237.14 84.6704C237.233 84.2241 236.705 83.8809 236.355 84.2171Z" fill="black"/>
<path d="M239.65 77.0847C239.048 77.8177 238.709 78.4937 238.288 79.3369C237.91 80.0952 237.207 80.9234 237.575 81.8101C237.735 82.1959 238.259 82.3324 238.503 81.9306C238.935 81.2211 239.445 80.5391 239.829 79.8044C240.005 79.4692 240.147 79.1134 240.368 78.8039C240.609 78.4659 240.829 78.2517 240.982 77.8534C241.257 77.1304 240.145 76.4817 239.65 77.0847Z" fill="black"/>
<path d="M230.861 67.9002C230.291 67.0175 230.142 64.0872 229.047 63.7835C227.801 63.438 227.669 65.3655 227.552 66.2147C227.37 67.5325 226.949 68.731 226.007 69.7112C225.203 70.5482 224.144 71.11 223.335 71.9437C223.125 72.16 223.002 72.5065 223.106 72.8027C223.438 73.7487 223.781 73.5395 224.595 73.9055C225.753 74.4267 226.92 75.1195 227.643 76.2105C228.329 77.2475 228.301 78.442 228.767 79.5492C229.037 80.1885 230.004 80.5075 230.397 79.7607C231.038 78.5437 231.022 76.9942 231.496 75.6907C232.084 74.0752 233.27 73.165 234.091 71.7432C234.279 71.417 234.251 70.9132 233.949 70.6527C232.878 69.73 231.651 69.1222 230.861 67.9002ZM230.128 74.2437C229.84 74.8832 229.697 75.597 229.565 76.312C229.355 75.7237 229.082 75.1507 228.606 74.5962C227.974 73.8587 227.119 73.1707 226.256 72.7062C226.048 72.5942 225.793 72.463 225.561 72.4002C225.543 72.393 225.525 72.386 225.507 72.3787C225.581 72.327 225.618 72.2972 225.583 72.3162C226.042 72.0652 226.533 71.572 226.913 71.2132C227.533 70.6272 228.014 70.0275 228.39 69.2647C228.597 68.8447 228.747 68.4437 228.857 68.0502C228.921 68.1762 228.983 68.3025 229.058 68.4277C229.88 69.8165 230.949 70.5315 232.109 71.4627C231.438 72.3792 230.629 73.1307 230.128 74.2437Z" fill="black"/>
<path d="M193.464 71.8552C194.622 72.3764 195.79 73.0692 196.512 74.1602C197.199 75.1974 197.17 76.3917 197.636 77.4989C197.906 78.1384 198.874 78.4572 199.267 77.7104C199.908 76.4934 199.891 74.9439 200.366 73.6404C200.953 72.0252 202.14 71.1147 202.96 69.6929C203.149 69.3667 203.121 68.8629 202.819 68.6024C201.747 67.6797 200.52 67.0719 199.73 65.8499C199.16 64.9672 199.011 62.0369 197.916 61.7332C196.67 61.3877 196.538 63.3152 196.421 64.1644C196.239 65.4822 195.818 66.6807 194.876 67.6609C194.072 68.4979 193.013 69.0597 192.204 69.8934C191.994 70.1097 191.871 70.4562 191.975 70.7524C192.307 71.6982 192.651 71.4889 193.464 71.8552ZM194.452 70.2659C194.911 70.0149 195.402 69.5217 195.782 69.1629C196.402 68.5769 196.883 67.9772 197.259 67.2144C197.466 66.7944 197.616 66.3934 197.725 65.9999C197.79 66.1259 197.852 66.2522 197.926 66.3774C198.748 67.7662 199.818 68.4812 200.978 69.4124C200.307 70.3292 199.498 71.0809 198.997 72.1937C198.709 72.8332 198.566 73.5469 198.434 74.2619C198.224 73.6737 197.951 73.1007 197.475 72.5459C196.843 71.8084 195.988 71.1204 195.125 70.6559C194.917 70.5439 194.662 70.4127 194.43 70.3502C194.412 70.3429 194.394 70.3359 194.376 70.3287C194.45 70.2767 194.487 70.2469 194.452 70.2659Z" fill="black"/>
<path d="M172.105 82.1307C172.294 81.8044 172.266 81.3007 171.964 81.0402C170.892 80.1174 169.665 79.5097 168.875 78.2877C168.305 77.4049 168.156 74.4747 167.061 74.1709C165.815 73.8254 165.683 75.7529 165.566 76.6022C165.384 77.9199 164.962 79.1184 164.021 80.0987C163.217 80.9357 162.158 81.4974 161.349 82.3312C161.139 82.5474 161.016 82.8939 161.12 83.1902C161.452 84.1362 161.795 83.9269 162.608 84.2929C163.766 84.8142 164.934 85.5069 165.657 86.5979C166.343 87.6349 166.314 88.8294 166.781 89.9367C167.05 90.5761 168.018 90.8949 168.411 90.1482C169.052 88.9312 169.036 87.3817 169.51 86.0782C170.098 84.4627 171.284 83.5524 172.105 82.1307ZM168.142 84.6314C167.854 85.2709 167.711 85.9847 167.579 86.6997C167.369 86.1114 167.096 85.5384 166.62 84.9839C165.988 84.2464 165.133 83.5584 164.27 83.0939C164.063 82.9819 163.807 82.8507 163.575 82.7879C163.557 82.7807 163.539 82.7737 163.521 82.7664C163.595 82.7147 163.632 82.6849 163.597 82.7039C164.056 82.4529 164.547 81.9597 164.927 81.6009C165.547 81.0149 166.027 80.4152 166.404 79.6524C166.611 79.2324 166.761 78.8314 166.87 78.4379C166.935 78.5639 166.997 78.6902 167.071 78.8154C167.893 80.2042 168.962 80.9192 170.122 81.8504C169.452 82.7669 168.643 83.5184 168.142 84.6314Z" fill="black"/>
<path d="M254.278 83.3449C253.708 82.4622 253.559 79.5319 252.464 79.2282C251.218 78.8827 251.086 80.8102 250.969 81.6594C250.787 82.9772 250.366 84.1757 249.424 85.1559C248.62 85.9929 247.561 86.5547 246.752 87.3884C246.542 87.6047 246.419 87.9512 246.523 88.2474C246.855 89.1934 247.198 88.9842 248.012 89.3502C249.17 89.8714 250.337 90.5642 251.06 91.6552C251.746 92.6922 251.718 93.8867 252.184 94.9939C252.454 95.6334 253.421 95.9522 253.814 95.2054C254.455 93.9884 254.439 92.4389 254.913 91.1354C255.501 89.5199 256.687 88.6097 257.508 87.1879C257.696 86.8617 257.668 86.3579 257.366 86.0974C256.296 85.1747 255.068 84.5669 254.278 83.3449ZM253.545 89.6884C253.257 90.3279 253.114 91.0417 252.982 91.7567C252.772 91.1684 252.499 90.5954 252.023 90.0409C251.391 89.3034 250.535 88.6154 249.673 88.1509C249.465 88.0389 249.21 87.9077 248.978 87.8449C248.96 87.8377 248.942 87.8307 248.924 87.8234C248.998 87.7717 249.035 87.7419 249 87.7609C249.459 87.5099 249.95 87.0167 250.33 86.6579C250.95 86.0719 251.43 85.4722 251.807 84.7094C252.014 84.2894 252.164 83.8884 252.273 83.4949C252.338 83.6209 252.4 83.7472 252.474 83.8724C253.296 85.2612 254.366 85.9762 255.526 86.9074C254.855 87.8239 254.046 88.5757 253.545 89.6884Z" fill="black"/>
<path d="M163.718 193.558H158.526V207H156.04V193.558H150.826V191.38H163.718V193.558ZM166.135 207.22C165.578 207.22 165.057 207.132 164.573 206.956C164.104 206.765 163.693 206.509 163.341 206.186C163.004 205.863 162.732 205.482 162.527 205.042C162.336 204.602 162.241 204.125 162.241 203.612C162.241 203.069 162.358 202.578 162.593 202.138C162.828 201.698 163.158 201.317 163.583 200.994C164.023 200.671 164.536 200.422 165.123 200.246C165.724 200.07 166.384 199.982 167.103 199.982C167.646 199.982 168.181 200.033 168.709 200.136C169.237 200.224 169.714 200.349 170.139 200.51V199.718C170.139 198.867 169.897 198.207 169.413 197.738C168.929 197.254 168.232 197.012 167.323 197.012C166.707 197.012 166.098 197.129 165.497 197.364C164.91 197.584 164.302 197.907 163.671 198.332L162.923 196.792C164.404 195.795 165.944 195.296 167.543 195.296C169.127 195.296 170.359 195.699 171.239 196.506C172.119 197.313 172.559 198.471 172.559 199.982V204.14C172.559 204.653 172.772 204.917 173.197 204.932V207C172.962 207.044 172.757 207.073 172.581 207.088C172.42 207.103 172.258 207.11 172.097 207.11C171.628 207.11 171.261 206.993 170.997 206.758C170.748 206.523 170.594 206.223 170.535 205.856L170.469 205.13C169.956 205.805 169.318 206.325 168.555 206.692C167.807 207.044 167 207.22 166.135 207.22ZM166.795 205.438C167.382 205.438 167.932 205.335 168.445 205.13C168.973 204.91 169.384 204.609 169.677 204.228C169.985 203.964 170.139 203.685 170.139 203.392V201.874C169.728 201.713 169.288 201.588 168.819 201.5C168.364 201.412 167.917 201.368 167.477 201.368C166.612 201.368 165.9 201.559 165.343 201.94C164.8 202.307 164.529 202.798 164.529 203.414C164.529 203.986 164.742 204.47 165.167 204.866C165.592 205.247 166.135 205.438 166.795 205.438ZM183.503 207L179.829 201.698L177.915 203.502V207H175.495V190.94H177.915V201.126L183.195 195.516H185.835L181.369 200.334L186.077 207H183.503ZM192.16 207.22C191.265 207.22 190.451 207.066 189.718 206.758C188.985 206.435 188.354 206.003 187.826 205.46C187.313 204.917 186.909 204.287 186.616 203.568C186.337 202.849 186.198 202.087 186.198 201.28C186.198 200.473 186.337 199.711 186.616 198.992C186.909 198.259 187.313 197.621 187.826 197.078C188.354 196.521 188.985 196.088 189.718 195.78C190.451 195.457 191.273 195.296 192.182 195.296C193.077 195.296 193.883 195.457 194.602 195.78C195.335 196.103 195.959 196.535 196.472 197.078C196.985 197.606 197.374 198.229 197.638 198.948C197.917 199.652 198.056 200.393 198.056 201.17C198.056 201.346 198.049 201.515 198.034 201.676C198.019 201.823 198.005 201.947 197.99 202.05H188.772C188.816 202.563 188.933 203.025 189.124 203.436C189.329 203.847 189.586 204.206 189.894 204.514C190.217 204.807 190.576 205.035 190.972 205.196C191.383 205.357 191.808 205.438 192.248 205.438C192.571 205.438 192.886 205.401 193.194 205.328C193.517 205.24 193.81 205.123 194.074 204.976C194.338 204.815 194.573 204.624 194.778 204.404C194.983 204.184 195.145 203.942 195.262 203.678L197.33 204.272C196.934 205.137 196.274 205.849 195.35 206.406C194.441 206.949 193.377 207.22 192.16 207.22ZM195.658 200.378C195.614 199.894 195.489 199.447 195.284 199.036C195.093 198.625 194.844 198.281 194.536 198.002C194.228 197.709 193.869 197.481 193.458 197.32C193.047 197.159 192.615 197.078 192.16 197.078C191.705 197.078 191.273 197.159 190.862 197.32C190.466 197.481 190.114 197.709 189.806 198.002C189.498 198.281 189.249 198.625 189.058 199.036C188.867 199.447 188.75 199.894 188.706 200.378H195.658ZM203.088 207.22C202.531 207.22 202.01 207.132 201.526 206.956C201.057 206.765 200.646 206.509 200.294 206.186C199.957 205.863 199.685 205.482 199.48 205.042C199.289 204.602 199.194 204.125 199.194 203.612C199.194 203.069 199.311 202.578 199.546 202.138C199.781 201.698 200.111 201.317 200.536 200.994C200.976 200.671 201.489 200.422 202.076 200.246C202.677 200.07 203.337 199.982 204.056 199.982C204.599 199.982 205.134 200.033 205.662 200.136C206.19 200.224 206.667 200.349 207.092 200.51V199.718C207.092 198.867 206.85 198.207 206.366 197.738C205.882 197.254 205.185 197.012 204.276 197.012C203.66 197.012 203.051 197.129 202.45 197.364C201.863 197.584 201.255 197.907 200.624 198.332L199.876 196.792C201.357 195.795 202.897 195.296 204.496 195.296C206.08 195.296 207.312 195.699 208.192 196.506C209.072 197.313 209.512 198.471 209.512 199.982V204.14C209.512 204.653 209.725 204.917 210.15 204.932V207C209.915 207.044 209.71 207.073 209.534 207.088C209.373 207.103 209.211 207.11 209.05 207.11C208.581 207.11 208.214 206.993 207.95 206.758C207.701 206.523 207.547 206.223 207.488 205.856L207.422 205.13C206.909 205.805 206.271 206.325 205.508 206.692C204.76 207.044 203.953 207.22 203.088 207.22ZM203.748 205.438C204.335 205.438 204.885 205.335 205.398 205.13C205.926 204.91 206.337 204.609 206.63 204.228C206.938 203.964 207.092 203.685 207.092 203.392V201.874C206.681 201.713 206.241 201.588 205.772 201.5C205.317 201.412 204.87 201.368 204.43 201.368C203.565 201.368 202.853 201.559 202.296 201.94C201.753 202.307 201.482 202.798 201.482 203.414C201.482 203.986 201.695 204.47 202.12 204.866C202.545 205.247 203.088 205.438 203.748 205.438ZM226.491 195.494H228.801L223.961 207H221.959L219.825 201.654L217.691 207H215.689L210.827 195.494H213.137L216.855 204.668L218.527 200.4L216.525 195.516H218.505L219.825 199.124L221.123 195.516H223.103L221.123 200.4L222.795 204.668L226.491 195.494ZM233.188 207.22C232.63 207.22 232.11 207.132 231.626 206.956C231.156 206.765 230.746 206.509 230.394 206.186C230.056 205.863 229.785 205.482 229.58 205.042C229.389 204.602 229.294 204.125 229.294 203.612C229.294 203.069 229.411 202.578 229.646 202.138C229.88 201.698 230.21 201.317 230.636 200.994C231.076 200.671 231.589 200.422 232.176 200.246C232.777 200.07 233.437 199.982 234.156 199.982C234.698 199.982 235.234 200.033 235.762 200.136C236.29 200.224 236.766 200.349 237.192 200.51V199.718C237.192 198.867 236.95 198.207 236.466 197.738C235.982 197.254 235.285 197.012 234.376 197.012C233.76 197.012 233.151 197.129 232.55 197.364C231.963 197.584 231.354 197.907 230.724 198.332L229.976 196.792C231.457 195.795 232.997 195.296 234.596 195.296C236.18 195.296 237.412 195.699 238.292 196.506C239.172 197.313 239.612 198.471 239.612 199.982V204.14C239.612 204.653 239.824 204.917 240.25 204.932V207C240.015 207.044 239.81 207.073 239.634 207.088C239.472 207.103 239.311 207.11 239.15 207.11C238.68 207.11 238.314 206.993 238.05 206.758C237.8 206.523 237.646 206.223 237.588 205.856L237.522 205.13C237.008 205.805 236.37 206.325 235.608 206.692C234.86 207.044 234.053 207.22 233.188 207.22ZM233.848 205.438C234.434 205.438 234.984 205.335 235.498 205.13C236.026 204.91 236.436 204.609 236.73 204.228C237.038 203.964 237.192 203.685 237.192 203.392V201.874C236.781 201.713 236.341 201.588 235.872 201.5C235.417 201.412 234.97 201.368 234.53 201.368C233.664 201.368 232.953 201.559 232.396 201.94C231.853 202.307 231.582 202.798 231.582 203.414C231.582 203.986 231.794 204.47 232.22 204.866C232.645 205.247 233.188 205.438 233.848 205.438ZM242.664 209.706C242.884 209.75 243.097 209.787 243.302 209.816C243.522 209.845 243.698 209.86 243.83 209.86C244.021 209.86 244.182 209.816 244.314 209.728C244.461 209.655 244.608 209.515 244.754 209.31C244.901 209.105 245.048 208.811 245.194 208.43C245.356 208.063 245.539 207.587 245.744 207L241.014 195.494H243.5L247.064 204.866L250.232 195.494H252.52L247.306 209.662C247.072 210.322 246.661 210.872 246.074 211.312C245.502 211.767 244.762 211.994 243.852 211.994C243.676 211.994 243.493 211.979 243.302 211.95C243.112 211.935 242.899 211.891 242.664 211.818V209.706ZM258.222 207.22C257.298 207.22 256.374 207.073 255.45 206.78C254.541 206.472 253.756 206.039 253.096 205.482L254.064 203.942C254.753 204.441 255.435 204.822 256.11 205.086C256.785 205.335 257.474 205.46 258.178 205.46C258.897 205.46 259.461 205.321 259.872 205.042C260.297 204.763 260.51 204.367 260.51 203.854C260.51 203.37 260.275 203.018 259.806 202.798C259.337 202.578 258.603 202.336 257.606 202.072C256.887 201.881 256.271 201.698 255.758 201.522C255.245 201.346 254.827 201.141 254.504 200.906C254.181 200.671 253.947 200.4 253.8 200.092C253.653 199.784 253.58 199.41 253.58 198.97C253.58 198.383 253.69 197.863 253.91 197.408C254.145 196.953 254.46 196.572 254.856 196.264C255.267 195.941 255.743 195.699 256.286 195.538C256.829 195.377 257.415 195.296 258.046 195.296C258.911 195.296 259.718 195.428 260.466 195.692C261.214 195.956 261.881 196.337 262.468 196.836L261.434 198.288C260.363 197.437 259.227 197.012 258.024 197.012C257.408 197.012 256.887 197.144 256.462 197.408C256.051 197.657 255.846 198.061 255.846 198.618C255.846 198.853 255.89 199.051 255.978 199.212C256.066 199.373 256.205 199.513 256.396 199.63C256.601 199.747 256.858 199.857 257.166 199.96C257.489 200.048 257.885 200.151 258.354 200.268C259.131 200.459 259.799 200.649 260.356 200.84C260.928 201.031 261.397 201.258 261.764 201.522C262.131 201.771 262.402 202.072 262.578 202.424C262.754 202.761 262.842 203.172 262.842 203.656C262.842 204.756 262.424 205.629 261.588 206.274C260.767 206.905 259.645 207.22 258.222 207.22Z" fill="black"/>
<defs>
<filter id="filter0_d" x="0" y="0" width="406" height="242" filterUnits="userSpaceOnUse" color-interpolation-filters="sRGB">
<feFlood flood-opacity="0" result="BackgroundImageFix"/>
<feColorMatrix in="SourceAlpha" type="matrix" values="0 0 0 0 0 0 0 0 0 0 0 0 0 0 0 0 0 0 127 0"/>
<feOffset dy="4"/>
<feGaussianBlur stdDeviation="2"/>
<feColorMatrix type="matrix" values="0 0 0 0 0 0 0 0 0 0 0 0 0 0 0 0 0 0 0.25 0"/>
<feBlend mode="normal" in2="BackgroundImageFix" result="effect1_dropShadow"/>
<feBlend mode="normal" in="SourceGraphic" in2="effect1_dropShadow" result="shape"/>
</filter>
</defs>
</svg>
