<svg width="406" height="242" viewBox="0 0 406 242" fill="none" xmlns="http://www.w3.org/2000/svg">
<g filter="url(#filter0_d)">
<rect x="4" width="398" height="234" fill="white"/>
</g>
<path d="M126.791 202.974C126.791 203.605 126.659 204.169 126.395 204.668C126.146 205.167 125.801 205.592 125.361 205.944C124.936 206.281 124.43 206.545 123.843 206.736C123.256 206.912 122.633 207 121.973 207H114.515V191.38H122.567C123.11 191.38 123.601 191.497 124.041 191.732C124.481 191.967 124.855 192.275 125.163 192.656C125.471 193.023 125.706 193.448 125.867 193.932C126.043 194.401 126.131 194.878 126.131 195.362C126.131 196.125 125.933 196.843 125.537 197.518C125.156 198.178 124.606 198.669 123.887 198.992C124.782 199.256 125.486 199.74 125.999 200.444C126.527 201.133 126.791 201.977 126.791 202.974ZM124.261 202.512C124.261 202.189 124.202 201.881 124.085 201.588C123.982 201.295 123.836 201.038 123.645 200.818C123.469 200.598 123.249 200.422 122.985 200.29C122.721 200.158 122.435 200.092 122.127 200.092H116.979V204.866H121.973C122.296 204.866 122.596 204.807 122.875 204.69C123.154 204.558 123.396 204.389 123.601 204.184C123.806 203.964 123.968 203.715 124.085 203.436C124.202 203.143 124.261 202.835 124.261 202.512ZM116.979 193.514V198.112H121.511C121.819 198.112 122.098 198.053 122.347 197.936C122.611 197.819 122.838 197.665 123.029 197.474C123.234 197.269 123.388 197.027 123.491 196.748C123.608 196.469 123.667 196.161 123.667 195.824C123.667 195.149 123.476 194.599 123.095 194.174C122.714 193.734 122.23 193.514 121.643 193.514H116.979ZM134.267 207.22C133.372 207.22 132.558 207.066 131.825 206.758C131.091 206.435 130.461 206.003 129.933 205.46C129.419 204.917 129.016 204.287 128.723 203.568C128.444 202.849 128.305 202.087 128.305 201.28C128.305 200.473 128.444 199.711 128.723 198.992C129.016 198.259 129.419 197.621 129.933 197.078C130.461 196.521 131.091 196.088 131.825 195.78C132.558 195.457 133.379 195.296 134.289 195.296C135.183 195.296 135.99 195.457 136.709 195.78C137.442 196.103 138.065 196.535 138.579 197.078C139.092 197.606 139.481 198.229 139.745 198.948C140.023 199.652 140.163 200.393 140.163 201.17C140.163 201.346 140.155 201.515 140.141 201.676C140.126 201.823 140.111 201.947 140.097 202.05H130.879C130.923 202.563 131.04 203.025 131.231 203.436C131.436 203.847 131.693 204.206 132.001 204.514C132.323 204.807 132.683 205.035 133.079 205.196C133.489 205.357 133.915 205.438 134.355 205.438C134.677 205.438 134.993 205.401 135.301 205.328C135.623 205.24 135.917 205.123 136.181 204.976C136.445 204.815 136.679 204.624 136.885 204.404C137.09 204.184 137.251 203.942 137.369 203.678L139.437 204.272C139.041 205.137 138.381 205.849 137.457 206.406C136.547 206.949 135.484 207.22 134.267 207.22ZM137.765 200.378C137.721 199.894 137.596 199.447 137.391 199.036C137.2 198.625 136.951 198.281 136.643 198.002C136.335 197.709 135.975 197.481 135.565 197.32C135.154 197.159 134.721 197.078 134.267 197.078C133.812 197.078 133.379 197.159 132.969 197.32C132.573 197.481 132.221 197.709 131.913 198.002C131.605 198.281 131.355 198.625 131.165 199.036C130.974 199.447 130.857 199.894 130.813 200.378H137.765ZM152.455 207H150.035V200.554C150.035 199.498 149.844 198.721 149.463 198.222C149.096 197.709 148.561 197.452 147.857 197.452C147.519 197.452 147.182 197.518 146.845 197.65C146.507 197.782 146.185 197.973 145.877 198.222C145.583 198.457 145.319 198.743 145.085 199.08C144.85 199.403 144.674 199.762 144.557 200.158V207H142.137V190.94H144.557V197.804C144.997 197.012 145.591 196.396 146.339 195.956C147.101 195.516 147.93 195.296 148.825 195.296C149.543 195.296 150.13 195.428 150.585 195.692C151.054 195.941 151.428 196.279 151.707 196.704C151.985 197.129 152.176 197.628 152.279 198.2C152.396 198.757 152.455 199.351 152.455 199.982V207ZM155.264 207V195.494H157.684V207H155.264ZM155.264 193.602V190.94H157.684V193.602H155.264ZM170.91 207H168.49V200.554C168.49 199.469 168.314 198.684 167.962 198.2C167.624 197.701 167.118 197.452 166.444 197.452C166.092 197.452 165.74 197.518 165.388 197.65C165.036 197.782 164.706 197.973 164.398 198.222C164.09 198.457 163.811 198.743 163.562 199.08C163.327 199.403 163.144 199.762 163.012 200.158V207H160.592V195.494H162.792V197.804C163.232 197.027 163.87 196.418 164.706 195.978C165.542 195.523 166.466 195.296 167.478 195.296C168.167 195.296 168.732 195.421 169.172 195.67C169.612 195.919 169.956 196.264 170.206 196.704C170.47 197.129 170.653 197.628 170.756 198.2C170.858 198.757 170.91 199.351 170.91 199.982V207ZM178.405 207.22C177.627 207.22 176.909 207.066 176.249 206.758C175.589 206.435 175.017 206.003 174.533 205.46C174.049 204.917 173.667 204.287 173.389 203.568C173.125 202.835 172.993 202.05 172.993 201.214C172.993 200.407 173.117 199.652 173.367 198.948C173.631 198.229 173.99 197.599 174.445 197.056C174.914 196.513 175.457 196.088 176.073 195.78C176.703 195.457 177.393 195.296 178.141 195.296C179.065 195.296 179.879 195.523 180.583 195.978C181.287 196.418 181.837 196.983 182.233 197.672V190.94H184.653V204.14C184.653 204.419 184.697 204.617 184.785 204.734C184.887 204.851 185.063 204.917 185.313 204.932V207C185.063 207.044 184.858 207.073 184.697 207.088C184.55 207.103 184.425 207.11 184.323 207.11C183.839 207.11 183.443 206.985 183.135 206.736C182.827 206.487 182.658 206.164 182.629 205.768L182.585 204.91C182.159 205.629 181.58 206.193 180.847 206.604C180.113 207.015 179.299 207.22 178.405 207.22ZM178.999 205.152C179.351 205.152 179.703 205.093 180.055 204.976C180.407 204.859 180.729 204.697 181.023 204.492C181.316 204.287 181.565 204.045 181.771 203.766C181.991 203.487 182.145 203.187 182.233 202.864V199.85C182.101 199.483 181.91 199.146 181.661 198.838C181.426 198.53 181.155 198.266 180.847 198.046C180.539 197.826 180.209 197.657 179.857 197.54C179.519 197.423 179.175 197.364 178.823 197.364C178.339 197.364 177.891 197.474 177.481 197.694C177.085 197.914 176.74 198.207 176.447 198.574C176.153 198.941 175.919 199.359 175.743 199.828C175.581 200.297 175.501 200.781 175.501 201.28C175.501 201.808 175.589 202.307 175.765 202.776C175.955 203.245 176.212 203.656 176.535 204.008C176.857 204.36 177.224 204.639 177.635 204.844C178.06 205.049 178.515 205.152 178.999 205.152ZM199.564 206.406C199.256 206.553 198.831 206.721 198.288 206.912C197.745 207.088 197.166 207.176 196.55 207.176C196.169 207.176 195.809 207.125 195.472 207.022C195.135 206.919 194.834 206.765 194.57 206.56C194.321 206.355 194.123 206.091 193.976 205.768C193.829 205.431 193.756 205.027 193.756 204.558V197.364H192.238V195.494H193.756V191.71H196.176V195.494H198.684V197.364H196.176V203.788C196.205 204.199 196.33 204.499 196.55 204.69C196.785 204.866 197.071 204.954 197.408 204.954C197.745 204.954 198.068 204.895 198.376 204.778C198.684 204.661 198.911 204.565 199.058 204.492L199.564 206.406ZM211.558 207H209.138V200.554C209.138 199.498 208.947 198.721 208.566 198.222C208.199 197.709 207.664 197.452 206.96 197.452C206.623 197.452 206.285 197.518 205.948 197.65C205.611 197.782 205.288 197.973 204.98 198.222C204.687 198.457 204.423 198.743 204.188 199.08C203.953 199.403 203.777 199.762 203.66 200.158V207H201.24V190.94H203.66V197.804C204.1 197.012 204.694 196.396 205.442 195.956C206.205 195.516 207.033 195.296 207.928 195.296C208.647 195.296 209.233 195.428 209.688 195.692C210.157 195.941 210.531 196.279 210.81 196.704C211.089 197.129 211.279 197.628 211.382 198.2C211.499 198.757 211.558 199.351 211.558 199.982V207ZM219.581 207.22C218.686 207.22 217.872 207.066 217.139 206.758C216.406 206.435 215.775 206.003 215.247 205.46C214.734 204.917 214.33 204.287 214.037 203.568C213.758 202.849 213.619 202.087 213.619 201.28C213.619 200.473 213.758 199.711 214.037 198.992C214.33 198.259 214.734 197.621 215.247 197.078C215.775 196.521 216.406 196.088 217.139 195.78C217.872 195.457 218.694 195.296 219.603 195.296C220.498 195.296 221.304 195.457 222.023 195.78C222.756 196.103 223.38 196.535 223.893 197.078C224.406 197.606 224.795 198.229 225.059 198.948C225.338 199.652 225.477 200.393 225.477 201.17C225.477 201.346 225.47 201.515 225.455 201.676C225.44 201.823 225.426 201.947 225.411 202.05H216.193C216.237 202.563 216.354 203.025 216.545 203.436C216.75 203.847 217.007 204.206 217.315 204.514C217.638 204.807 217.997 205.035 218.393 205.196C218.804 205.357 219.229 205.438 219.669 205.438C219.992 205.438 220.307 205.401 220.615 205.328C220.938 205.24 221.231 205.123 221.495 204.976C221.759 204.815 221.994 204.624 222.199 204.404C222.404 204.184 222.566 203.942 222.683 203.678L224.751 204.272C224.355 205.137 223.695 205.849 222.771 206.406C221.862 206.949 220.798 207.22 219.581 207.22ZM223.079 200.378C223.035 199.894 222.91 199.447 222.705 199.036C222.514 198.625 222.265 198.281 221.957 198.002C221.649 197.709 221.29 197.481 220.879 197.32C220.468 197.159 220.036 197.078 219.581 197.078C219.126 197.078 218.694 197.159 218.283 197.32C217.887 197.481 217.535 197.709 217.227 198.002C216.919 198.281 216.67 198.625 216.479 199.036C216.288 199.447 216.171 199.894 216.127 200.378H223.079ZM246.329 207V195.758L241.687 204.272H240.323L235.659 195.758V207H233.195V191.38H235.835L241.005 200.928L246.175 191.38H248.815V207H246.329ZM252.029 207V195.494H254.449V207H252.029ZM252.029 193.602V190.94H254.449V193.602H252.029ZM263.825 197.584C262.887 197.613 262.051 197.833 261.317 198.244C260.599 198.64 260.085 199.212 259.777 199.96V207H257.357V195.494H259.601V198.068C259.997 197.276 260.511 196.645 261.141 196.176C261.787 195.692 262.476 195.428 263.209 195.384C263.356 195.384 263.473 195.384 263.561 195.384C263.664 195.384 263.752 195.391 263.825 195.406V197.584ZM272.054 197.584C271.115 197.613 270.279 197.833 269.546 198.244C268.827 198.64 268.314 199.212 268.006 199.96V207H265.586V195.494H267.83V198.068C268.226 197.276 268.739 196.645 269.37 196.176C270.015 195.692 270.704 195.428 271.438 195.384C271.584 195.384 271.702 195.384 271.79 195.384C271.892 195.384 271.98 195.391 272.054 195.406V197.584ZM278.404 207.22C277.495 207.22 276.674 207.059 275.94 206.736C275.222 206.413 274.606 205.981 274.092 205.438C273.579 204.895 273.183 204.265 272.904 203.546C272.626 202.813 272.486 202.05 272.486 201.258C272.486 200.466 272.626 199.711 272.904 198.992C273.183 198.259 273.579 197.621 274.092 197.078C274.62 196.535 275.244 196.103 275.962 195.78C276.696 195.457 277.51 195.296 278.404 195.296C279.299 195.296 280.106 195.457 280.824 195.78C281.558 196.103 282.181 196.535 282.694 197.078C283.222 197.621 283.626 198.259 283.904 198.992C284.183 199.711 284.322 200.466 284.322 201.258C284.322 202.05 284.183 202.813 283.904 203.546C283.626 204.265 283.222 204.895 282.694 205.438C282.181 205.981 281.558 206.413 280.824 206.736C280.106 207.059 279.299 207.22 278.404 207.22ZM274.972 201.28C274.972 201.837 275.06 202.351 275.236 202.82C275.412 203.289 275.654 203.7 275.962 204.052C276.27 204.389 276.63 204.661 277.04 204.866C277.466 205.057 277.92 205.152 278.404 205.152C278.888 205.152 279.336 205.057 279.746 204.866C280.172 204.661 280.538 204.382 280.846 204.03C281.154 203.678 281.396 203.267 281.572 202.798C281.748 202.329 281.836 201.815 281.836 201.258C281.836 200.715 281.748 200.209 281.572 199.74C281.396 199.256 281.154 198.838 280.846 198.486C280.538 198.134 280.172 197.863 279.746 197.672C279.336 197.467 278.888 197.364 278.404 197.364C277.935 197.364 277.488 197.467 277.062 197.672C276.652 197.877 276.292 198.156 275.984 198.508C275.676 198.86 275.427 199.278 275.236 199.762C275.06 200.231 274.972 200.737 274.972 201.28ZM292.937 197.584C291.998 197.613 291.162 197.833 290.429 198.244C289.71 198.64 289.197 199.212 288.889 199.96V207H286.469V195.494H288.713V198.068C289.109 197.276 289.622 196.645 290.253 196.176C290.898 195.692 291.587 195.428 292.321 195.384C292.467 195.384 292.585 195.384 292.673 195.384C292.775 195.384 292.863 195.391 292.937 195.406V197.584Z" fill="black"/>
<g clip-path="url(#clip0)">
<path d="M236.357 66.5283H169.043C167.657 66.5283 166.531 67.6177 166.531 68.9597V134.12C166.531 135.463 167.657 136.551 169.043 136.551H236.357C237.745 136.551 238.869 135.463 238.869 134.12V68.9597C238.869 67.6177 237.745 66.5283 236.357 66.5283V66.5283Z" fill="white"/>
<path d="M231.5 76.0942V126.987C231.5 128.329 230.374 129.418 228.988 129.418H176.412C175.026 129.418 173.901 128.329 173.901 126.987V76.0942C173.901 74.7513 175.026 73.6628 176.412 73.6628H228.988C230.374 73.6628 231.5 74.7513 231.5 76.0942Z" fill="#1C868E"/>
<path d="M206.719 45.8618C206.719 48.0111 204.92 49.752 202.7 49.752C200.481 49.752 198.681 48.0111 198.681 45.8618C198.681 43.7135 200.481 41.9716 202.7 41.9716C204.92 41.9716 206.719 43.7135 206.719 45.8618Z" fill="#F85252"/>
<path d="M188.97 157.137C188.97 159.287 187.171 161.027 184.951 161.027C182.732 161.027 180.932 159.287 180.932 157.137C180.932 154.989 182.732 153.247 184.951 153.247C187.171 153.247 188.97 154.989 188.97 157.137Z" fill="#F85252"/>
<path d="M157.238 118.722C157.238 120.871 155.438 122.612 153.219 122.612C151 122.612 149.2 120.871 149.2 118.722C149.2 116.574 151 114.832 153.219 114.832C155.438 114.832 157.238 116.574 157.238 118.722Z" fill="#F85252"/>
<path d="M255.949 84.3589C255.949 86.5073 254.15 88.2491 251.93 88.2491C249.711 88.2491 247.911 86.5073 247.911 84.3589C247.911 82.2106 249.711 80.4688 251.93 80.4688C254.15 80.4688 255.949 82.2106 255.949 84.3589Z" fill="#F85252"/>
<path d="M231.5 76.0942V126.987C231.5 128.329 230.374 129.418 228.988 129.418H186.962C185.575 129.418 184.45 128.329 184.45 126.987V76.0942C184.45 74.7513 185.575 73.6628 186.962 73.6628H228.988C230.374 73.6628 231.5 74.7513 231.5 76.0942Z" fill="#40C4DF"/>
<path d="M262.982 100.567H239.874V85.3315H247.009C247.475 87.5482 249.505 89.2216 251.93 89.2216C254.7 89.2216 256.954 87.0401 256.954 84.3589C256.954 81.6778 254.7 79.4962 251.93 79.4962C249.505 79.4962 247.475 81.1697 247.009 83.3864H239.874V68.9597C239.874 67.083 238.297 65.5558 236.357 65.5558H221.455V54.8578C221.455 54.3212 221.004 53.8853 220.45 53.8853C219.896 53.8853 219.445 54.3212 219.445 54.8578V65.5558H203.705V50.6276C205.995 50.1755 207.724 48.2105 207.724 45.8627C207.724 43.1816 205.47 41 202.7 41C199.93 41 197.677 43.1816 197.677 45.8627C197.677 48.2105 199.405 50.1755 201.695 50.6276V65.5567H185.956V49.7529C185.956 48.4679 183.947 48.466 183.947 49.7529V65.5567H169.043C167.104 65.5567 165.526 67.0839 165.526 68.9606V83.3864H147.944C146.618 83.3864 146.616 85.3315 147.944 85.3315H165.526V100.567H142.419C141.092 100.567 141.09 102.512 142.419 102.512H165.526V117.749H158.141C157.674 115.533 155.645 113.859 153.219 113.859C150.449 113.859 148.196 116.041 148.196 118.722C148.196 121.403 150.449 123.585 153.219 123.585C155.645 123.585 157.674 121.911 158.141 119.694H165.526V134.12C165.526 135.998 167.104 137.524 169.043 137.524H183.947V152.372C181.657 152.824 179.928 154.79 179.928 157.137C179.928 159.818 182.181 162 184.951 162C187.721 162 189.975 159.818 189.975 157.137C189.975 154.79 188.246 152.824 185.956 152.372V137.524H201.695V148.222C201.695 148.76 202.146 149.195 202.7 149.195C203.256 149.195 203.705 148.76 203.705 148.222V137.524H219.445V159.893C219.445 161.178 221.455 161.179 221.455 159.893V137.524H236.357C238.297 137.524 239.874 135.998 239.874 134.12V119.694H253.94C255.267 119.694 255.269 117.749 253.94 117.749H239.874V102.512H262.982C264.309 102.512 264.311 100.567 262.982 100.567V100.567ZM251.93 81.4413C253.592 81.4413 254.944 82.75 254.944 84.3589C254.944 85.9678 253.592 87.2766 251.93 87.2766C250.268 87.2766 248.916 85.9678 248.916 84.3589C248.916 82.75 250.268 81.4413 251.93 81.4413ZM153.219 121.639C151.557 121.639 150.205 120.332 150.205 118.722C150.205 117.113 151.557 115.804 153.219 115.804C154.881 115.804 156.233 117.113 156.233 118.722C156.233 120.332 154.881 121.639 153.219 121.639ZM199.686 45.8618C199.686 44.2529 201.038 42.9441 202.7 42.9441C204.362 42.9441 205.714 44.2529 205.714 45.8618C205.714 47.4716 204.362 48.7794 202.7 48.7794C201.038 48.7794 199.686 47.4716 199.686 45.8618ZM187.965 157.137C187.965 158.747 186.613 160.055 184.951 160.055C183.289 160.055 181.937 158.747 181.937 157.137C181.937 155.528 183.289 154.22 184.951 154.22C186.613 154.22 187.965 155.528 187.965 157.137ZM237.864 134.12C237.864 134.925 237.188 135.579 236.357 135.579H169.043C168.212 135.579 167.536 134.925 167.536 134.12V68.9597C167.536 68.1562 168.212 67.5009 169.043 67.5009H236.357C237.188 67.5009 237.864 68.1562 237.864 68.9597V134.12Z" fill="#491352"/>
<path d="M228.99 72.6884H176.411C174.472 72.6884 172.895 74.2156 172.895 76.0923V126.988C172.895 128.866 174.472 130.392 176.411 130.392H228.99C230.93 130.392 232.506 128.866 232.506 126.988V76.0923C232.506 74.2156 230.929 72.6884 228.99 72.6884ZM230.497 126.988C230.497 127.793 229.821 128.447 228.99 128.447H176.411C175.58 128.447 174.904 127.793 174.904 126.988V76.0923C174.904 75.2879 175.58 74.6335 176.411 74.6335H228.99C229.821 74.6335 230.497 75.2879 230.497 76.0923V126.988Z" fill="#491352"/>
</g>
<defs>
<filter id="filter0_d" x="0" y="0" width="406" height="242" filterUnits="userSpaceOnUse" color-interpolation-filters="sRGB">
<feFlood flood-opacity="0" result="BackgroundImageFix"/>
<feColorMatrix in="SourceAlpha" type="matrix" values="0 0 0 0 0 0 0 0 0 0 0 0 0 0 0 0 0 0 127 0"/>
<feOffset dy="4"/>
<feGaussianBlur stdDeviation="2"/>
<feColorMatrix type="matrix" values="0 0 0 0 0 0 0 0 0 0 0 0 0 0 0 0 0 0 0.25 0"/>
<feBlend mode="normal" in2="BackgroundImageFix" result="effect1_dropShadow"/>
<feBlend mode="normal" in="SourceGraphic" in2="effect1_dropShadow" result="shape"/>
</filter>
<clipPath id="clip0">
<rect width="125" height="121" fill="white" transform="translate(140 41)"/>
</clipPath>
</defs>
</svg>
