<svg width="329" height="60" viewBox="0 0 329 60" fill="none" xmlns="http://www.w3.org/2000/svg">
<path d="M15.5646 47.27C13.4406 47.27 11.3346 46.91 9.24663 46.19C7.15863 45.47 5.46663 44.39 4.17063 42.95C3.77463 42.518 3.61263 42.032 3.68463 41.492C3.75663 40.952 4.02663 40.484 4.49463 40.088C4.99863 39.728 5.52063 39.584 6.06063 39.656C6.60063 39.728 7.05063 39.962 7.41063 40.358C8.27463 41.366 9.40863 42.14 10.8126 42.68C12.2526 43.22 13.8366 43.49 15.5646 43.49C18.2286 43.49 20.1546 43.04 21.3426 42.14C22.5306 41.204 23.1426 40.088 23.1786 38.792C23.1786 37.496 22.5666 36.434 21.3426 35.606C20.1186 34.742 18.1026 34.076 15.2946 33.608C11.6586 33.032 8.99463 32.024 7.30263 30.584C5.61063 29.144 4.76463 27.434 4.76463 25.454C4.76463 23.618 5.25063 22.088 6.22263 20.864C7.19463 19.64 8.49063 18.722 10.1106 18.11C11.7306 17.498 13.5126 17.192 15.4566 17.192C17.8686 17.192 19.9386 17.606 21.6666 18.434C23.4306 19.262 24.8526 20.378 25.9326 21.782C26.2926 22.25 26.4366 22.736 26.3646 23.24C26.2926 23.744 26.0046 24.158 25.5006 24.482C25.0686 24.734 24.5646 24.824 23.9886 24.752C23.4486 24.644 22.9806 24.374 22.5846 23.942C21.6846 22.898 20.6406 22.142 19.4526 21.674C18.2646 21.17 16.8966 20.918 15.3486 20.918C13.3686 20.918 11.7846 21.332 10.5966 22.16C9.40863 22.952 8.81463 23.96 8.81463 25.184C8.81463 26.012 9.03063 26.732 9.46263 27.344C9.93063 27.956 10.7046 28.496 11.7846 28.964C12.9006 29.432 14.4486 29.828 16.4286 30.152C19.1286 30.584 21.2526 31.232 22.8006 32.096C24.3846 32.924 25.5006 33.914 26.1486 35.066C26.8326 36.182 27.1746 37.406 27.1746 38.738C27.1746 40.43 26.6706 41.924 25.6626 43.22C24.6906 44.48 23.3226 45.47 21.5586 46.19C19.8306 46.91 17.8326 47.27 15.5646 47.27ZM47.212 47.324C44.656 47.324 42.37 46.802 40.354 45.758C38.338 44.678 36.736 43.112 35.548 41.06C34.396 39.008 33.82 36.506 33.82 33.554V19.514C33.82 18.938 34.018 18.452 34.414 18.056C34.81 17.66 35.296 17.462 35.872 17.462C36.484 17.462 36.988 17.66 37.384 18.056C37.78 18.452 37.978 18.938 37.978 19.514V33.554C37.978 35.786 38.392 37.622 39.22 39.062C40.084 40.502 41.236 41.582 42.676 42.302C44.152 43.022 45.808 43.382 47.644 43.382C49.408 43.382 50.992 43.04 52.396 42.356C53.836 41.672 54.97 40.736 55.798 39.548C56.626 38.36 57.04 37.01 57.04 35.498H60.01C59.902 37.766 59.272 39.8 58.12 41.6C57.004 43.364 55.492 44.768 53.584 45.812C51.676 46.82 49.552 47.324 47.212 47.324ZM59.092 47C58.48 47 57.976 46.82 57.58 46.46C57.22 46.064 57.04 45.542 57.04 44.894V19.514C57.04 18.902 57.22 18.416 57.58 18.056C57.976 17.66 58.48 17.462 59.092 17.462C59.704 17.462 60.208 17.66 60.604 18.056C61 18.416 61.198 18.902 61.198 19.514V44.894C61.198 45.542 61 46.064 60.604 46.46C60.208 46.82 59.704 47 59.092 47ZM73.0109 59.636C72.3629 59.636 71.8409 59.438 71.4449 59.042C71.0849 58.682 70.9049 58.178 70.9049 57.53V32.042C70.9409 29.234 71.6069 26.714 72.9029 24.482C74.2349 22.214 76.0169 20.432 78.2489 19.136C80.5169 17.84 83.0549 17.192 85.8629 17.192C88.7429 17.192 91.3169 17.858 93.5849 19.19C95.8529 20.486 97.6349 22.268 98.9309 24.536C100.263 26.804 100.929 29.378 100.929 32.258C100.929 35.102 100.281 37.658 98.9849 39.926C97.7249 42.194 95.9969 43.994 93.8009 45.326C91.6049 46.622 89.1209 47.27 86.3489 47.27C83.9369 47.27 81.7409 46.766 79.7609 45.758C77.8169 44.714 76.2509 43.346 75.0629 41.654V57.53C75.0629 58.178 74.8649 58.682 74.4689 59.042C74.1089 59.438 73.6229 59.636 73.0109 59.636ZM85.8629 43.49C87.9509 43.49 89.8229 43.004 91.4789 42.032C93.1349 41.06 94.4309 39.728 95.3669 38.036C96.3389 36.308 96.8249 34.382 96.8249 32.258C96.8249 30.098 96.3389 28.172 95.3669 26.48C94.4309 24.788 93.1349 23.456 91.4789 22.484C89.8229 21.476 87.9509 20.972 85.8629 20.972C83.8109 20.972 81.9569 21.476 80.3009 22.484C78.6449 23.456 77.3489 24.788 76.4129 26.48C75.4769 28.172 75.0089 30.098 75.0089 32.258C75.0089 34.382 75.4769 36.308 76.4129 38.036C77.3489 39.728 78.6449 41.06 80.3009 42.032C81.9569 43.004 83.8109 43.49 85.8629 43.49ZM122.477 47.27C119.561 47.27 116.969 46.64 114.701 45.38C112.469 44.084 110.705 42.302 109.409 40.034C108.149 37.766 107.519 35.174 107.519 32.258C107.519 29.306 108.113 26.714 109.301 24.482C110.525 22.214 112.199 20.432 114.323 19.136C116.447 17.84 118.895 17.192 121.667 17.192C124.403 17.192 126.779 17.822 128.795 19.082C130.847 20.306 132.431 22.016 133.547 24.212C134.663 26.408 135.221 28.91 135.221 31.718C135.221 32.294 135.041 32.762 134.681 33.122C134.321 33.446 133.853 33.608 133.277 33.608H110.327V30.152H133.709L131.387 31.826C131.423 29.738 131.045 27.866 130.253 26.21C129.461 24.554 128.327 23.258 126.851 22.322C125.411 21.386 123.683 20.918 121.667 20.918C119.615 20.918 117.815 21.404 116.267 22.376C114.719 23.348 113.513 24.698 112.649 26.426C111.821 28.118 111.407 30.062 111.407 32.258C111.407 34.454 111.875 36.398 112.811 38.09C113.783 39.782 115.097 41.114 116.753 42.086C118.409 43.058 120.317 43.544 122.477 43.544C123.773 43.544 125.069 43.328 126.365 42.896C127.697 42.428 128.759 41.852 129.551 41.168C129.947 40.844 130.397 40.682 130.901 40.682C131.405 40.646 131.837 40.772 132.197 41.06C132.665 41.492 132.899 41.96 132.899 42.464C132.935 42.968 132.737 43.4 132.305 43.76C131.117 44.768 129.605 45.614 127.769 46.298C125.933 46.946 124.169 47.27 122.477 47.27ZM143.983 28.802C144.091 26.57 144.667 24.572 145.711 22.808C146.791 21.044 148.177 19.658 149.869 18.65C151.597 17.642 153.505 17.138 155.593 17.138C157.249 17.138 158.527 17.372 159.427 17.84C160.327 18.308 160.669 18.992 160.453 19.892C160.309 20.432 160.057 20.792 159.697 20.972C159.373 21.152 158.959 21.224 158.455 21.188C157.987 21.152 157.447 21.116 156.835 21.08C154.819 20.9 153.019 21.116 151.435 21.728C149.887 22.304 148.645 23.204 147.709 24.428C146.809 25.652 146.359 27.11 146.359 28.802H143.983ZM144.307 47C143.659 47 143.155 46.82 142.795 46.46C142.435 46.1 142.255 45.596 142.255 44.948V19.514C142.255 18.866 142.435 18.362 142.795 18.002C143.155 17.642 143.659 17.462 144.307 17.462C144.955 17.462 145.459 17.642 145.819 18.002C146.179 18.362 146.359 18.866 146.359 19.514V44.948C146.359 45.596 146.179 46.1 145.819 46.46C145.459 46.82 144.955 47 144.307 47ZM178.271 47.27C175.427 47.27 172.871 46.622 170.603 45.326C168.335 43.994 166.535 42.194 165.203 39.926C163.907 37.658 163.259 35.084 163.259 32.204C163.259 29.36 163.889 26.804 165.149 24.536C166.445 22.268 168.191 20.486 170.387 19.19C172.583 17.858 175.067 17.192 177.839 17.192C180.251 17.192 182.429 17.714 184.373 18.758C186.317 19.766 187.883 21.116 189.071 22.808V6.932C189.071 6.284 189.269 5.78 189.665 5.42C190.061 5.024 190.565 4.826 191.177 4.826C191.789 4.826 192.293 5.024 192.689 5.42C193.085 5.78 193.283 6.284 193.283 6.932V32.42C193.211 35.228 192.509 37.766 191.177 40.034C189.881 42.266 188.099 44.03 185.831 45.326C183.599 46.622 181.079 47.27 178.271 47.27ZM178.271 43.49C180.359 43.49 182.213 43.004 183.833 42.032C185.489 41.024 186.785 39.674 187.721 37.982C188.693 36.29 189.179 34.364 189.179 32.204C189.179 30.08 188.693 28.172 187.721 26.48C186.785 24.752 185.489 23.402 183.833 22.43C182.213 21.458 180.359 20.972 178.271 20.972C176.219 20.972 174.365 21.458 172.709 22.43C171.053 23.402 169.739 24.752 168.767 26.48C167.795 28.172 167.309 30.08 167.309 32.204C167.309 34.364 167.795 36.29 168.767 37.982C169.739 39.674 171.053 41.024 172.709 42.032C174.365 43.004 176.219 43.49 178.271 43.49ZM204.733 28.802C204.841 26.57 205.417 24.572 206.461 22.808C207.541 21.044 208.927 19.658 210.619 18.65C212.347 17.642 214.255 17.138 216.343 17.138C217.999 17.138 219.277 17.372 220.177 17.84C221.077 18.308 221.419 18.992 221.203 19.892C221.059 20.432 220.807 20.792 220.447 20.972C220.123 21.152 219.709 21.224 219.205 21.188C218.737 21.152 218.197 21.116 217.585 21.08C215.569 20.9 213.769 21.116 212.185 21.728C210.637 22.304 209.395 23.204 208.459 24.428C207.559 25.652 207.109 27.11 207.109 28.802H204.733ZM205.057 47C204.409 47 203.905 46.82 203.545 46.46C203.185 46.1 203.005 45.596 203.005 44.948V19.514C203.005 18.866 203.185 18.362 203.545 18.002C203.905 17.642 204.409 17.462 205.057 17.462C205.705 17.462 206.209 17.642 206.569 18.002C206.929 18.362 207.109 18.866 207.109 19.514V44.948C207.109 45.596 206.929 46.1 206.569 46.46C206.209 46.82 205.705 47 205.057 47ZM239.021 47.27C236.141 47.27 233.567 46.622 231.299 45.326C229.031 44.03 227.249 42.248 225.953 39.98C224.657 37.712 224.009 35.138 224.009 32.258C224.009 29.342 224.657 26.75 225.953 24.482C227.249 22.214 229.031 20.432 231.299 19.136C233.567 17.84 236.141 17.192 239.021 17.192C241.901 17.192 244.457 17.84 246.689 19.136C248.957 20.432 250.739 22.214 252.035 24.482C253.331 26.75 253.997 29.342 254.033 32.258C254.033 35.138 253.367 37.712 252.035 39.98C250.739 42.248 248.957 44.03 246.689 45.326C244.457 46.622 241.901 47.27 239.021 47.27ZM239.021 43.49C241.109 43.49 242.981 43.004 244.637 42.032C246.293 41.06 247.589 39.728 248.525 38.036C249.461 36.344 249.929 34.418 249.929 32.258C249.929 30.098 249.461 28.172 248.525 26.48C247.589 24.752 246.293 23.402 244.637 22.43C242.981 21.458 241.109 20.972 239.021 20.972C236.933 20.972 235.061 21.458 233.405 22.43C231.749 23.402 230.435 24.752 229.463 26.48C228.527 28.172 228.059 30.098 228.059 32.258C228.059 34.418 228.527 36.344 229.463 38.036C230.435 39.728 231.749 41.06 233.405 42.032C235.061 43.004 236.933 43.49 239.021 43.49ZM277.078 47.27C274.27 47.27 271.732 46.622 269.464 45.326C267.232 44.03 265.45 42.266 264.118 40.034C262.822 37.766 262.156 35.228 262.12 32.42V6.932C262.12 6.284 262.3 5.78 262.66 5.42C263.056 5.024 263.578 4.826 264.226 4.826C264.838 4.826 265.324 5.024 265.684 5.42C266.08 5.78 266.278 6.284 266.278 6.932V22.808C267.466 21.116 269.032 19.766 270.976 18.758C272.956 17.714 275.152 17.192 277.564 17.192C280.336 17.192 282.82 17.858 285.016 19.19C287.212 20.486 288.94 22.268 290.2 24.536C291.496 26.804 292.144 29.36 292.144 32.204C292.144 35.084 291.478 37.658 290.146 39.926C288.85 42.194 287.068 43.994 284.8 45.326C282.532 46.622 279.958 47.27 277.078 47.27ZM277.078 43.49C279.166 43.49 281.038 43.004 282.694 42.032C284.35 41.024 285.646 39.674 286.582 37.982C287.554 36.29 288.04 34.364 288.04 32.204C288.04 30.08 287.554 28.172 286.582 26.48C285.646 24.752 284.35 23.402 282.694 22.43C281.038 21.458 279.166 20.972 277.078 20.972C275.026 20.972 273.172 21.458 271.516 22.43C269.86 23.402 268.564 24.752 267.628 26.48C266.692 28.172 266.224 30.08 266.224 32.204C266.224 34.364 266.692 36.29 267.628 37.982C268.564 39.674 269.86 41.024 271.516 42.032C273.172 43.004 275.026 43.49 277.078 43.49ZM313.691 47.27C310.775 47.27 308.183 46.64 305.915 45.38C303.683 44.084 301.919 42.302 300.623 40.034C299.363 37.766 298.733 35.174 298.733 32.258C298.733 29.306 299.327 26.714 300.515 24.482C301.739 22.214 303.413 20.432 305.537 19.136C307.661 17.84 310.109 17.192 312.881 17.192C315.617 17.192 317.993 17.822 320.009 19.082C322.061 20.306 323.645 22.016 324.761 24.212C325.877 26.408 326.435 28.91 326.435 31.718C326.435 32.294 326.255 32.762 325.895 33.122C325.535 33.446 325.067 33.608 324.491 33.608H301.541V30.152H324.923L322.601 31.826C322.637 29.738 322.259 27.866 321.467 26.21C320.675 24.554 319.541 23.258 318.065 22.322C316.625 21.386 314.897 20.918 312.881 20.918C310.829 20.918 309.029 21.404 307.481 22.376C305.933 23.348 304.727 24.698 303.863 26.426C303.035 28.118 302.621 30.062 302.621 32.258C302.621 34.454 303.089 36.398 304.025 38.09C304.997 39.782 306.311 41.114 307.967 42.086C309.623 43.058 311.531 43.544 313.691 43.544C314.987 43.544 316.283 43.328 317.579 42.896C318.911 42.428 319.973 41.852 320.765 41.168C321.161 40.844 321.611 40.682 322.115 40.682C322.619 40.646 323.051 40.772 323.411 41.06C323.879 41.492 324.113 41.96 324.113 42.464C324.149 42.968 323.951 43.4 323.519 43.76C322.331 44.768 320.819 45.614 318.983 46.298C317.147 46.946 315.383 47.27 313.691 47.27Z" fill="url(#paint0_linear)"/>
<line x1="232.096" y1="27.9437" x2="236.944" y2="23.904" stroke="#01E5C4" stroke-width="1.5" stroke-linecap="round" stroke-linejoin="round"/>
<line x1="231.096" y1="31.9437" x2="235.944" y2="27.904" stroke="#01E5C4" stroke-width="1.5" stroke-linecap="round" stroke-linejoin="round"/>
<line x1="238" y1="25.9393" x2="237.939" y2="26" stroke="#01E5C4" stroke-width="1.5" stroke-linecap="round" stroke-linejoin="round"/>
<defs>
<linearGradient id="paint0_linear" x1="2.87882e-08" y1="38" x2="340.398" y2="39.4737" gradientUnits="userSpaceOnUse">
<stop stop-color="#0075FF"/>
<stop offset="0.494792" stop-color="#00E3EE"/>
<stop offset="0.874448" stop-color="#00FFB2"/>
</linearGradient>
</defs>
</svg>
