<svg id="Layer_1" height="512" viewBox="0 0 512 512" width="512" xmlns="http://www.w3.org/2000/svg" xmlns:xlink="http://www.w3.org/1999/xlink" data-name="Layer 1"><linearGradient id="linear-gradient" gradientUnits="userSpaceOnUse" x1="256" x2="256" y1="18.711" y2="482.401"><stop offset="0" stop-color="#00efd1"/><stop offset="1" stop-color="#00acea"/></linearGradient><linearGradient id="linear-gradient-3" x1="197" x2="197" xlink:href="#linear-gradient" y1="18.711" y2="482.401"/><linearGradient id="linear-gradient-4" x1="328.596" x2="328.596" xlink:href="#linear-gradient" y1="18.711" y2="482.401"/><path d="m435 46.614a31.614 31.614 0 0 0 -31.614-31.614h-294.772a31.614 31.614 0 0 0 -31.614 31.614v417.772a31.614 31.614 0 0 0 31.614 31.614h294.772a31.614 31.614 0 0 0 31.614-31.614zm-326.281-19.614h294.562c10.819 0 19.719 9.272 19.719 20.088v88.912h-334v-88.912c0-10.816 8.9-20.088 19.719-20.088zm294.562 458h-294.562c-10.819 0-19.719-9.272-19.719-20.088v-316.912h334v316.912c0 10.816-8.9 20.088-19.719 20.088z" fill="url(#linear-gradient)"/><path d="m256 179.842a126.369 126.369 0 1 0 126.369 126.368 126.512 126.512 0 0 0 -126.369-126.368zm0 240.737a114.369 114.369 0 1 1 114.369-114.369 114.5 114.5 0 0 1 -114.369 114.369z" fill="url(#linear-gradient)"/><path d="m253 56a6 6 0 0 0 -6-6h-100a6 6 0 0 0 -6 6v51a6 6 0 0 0 6 6h100a6 6 0 0 0 6-6zm-100 6h88v39h-88z" fill="url(#linear-gradient-3)"/><path d="m309.386 73h38.421a6 6 0 0 0 0-12h-38.421a6 6 0 0 0 0 12z" fill="url(#linear-gradient-4)"/><path d="m309.386 101h38.421a6 6 0 0 0 0-12h-38.421a6 6 0 0 0 0 12z" fill="url(#linear-gradient-4)"/><path d="m256 235.165a74.318 74.318 0 0 0 -19.58 146.011 6 6 0 0 0 7.519-4.922 12.186 12.186 0 0 1 24.122 0 6 6 0 0 0 7.519 4.922 74.318 74.318 0 0 0 -19.58-146.011zm21.921 132.651a24.157 24.157 0 0 0 -43.842 0 62.323 62.323 0 1 1 43.842 0z" fill="url(#linear-gradient)"/></svg>