<svg width="406" height="242" viewBox="0 0 406 242" fill="none" xmlns="http://www.w3.org/2000/svg">
<g filter="url(#filter0_d)">
<rect x="4" width="398" height="234" fill="white"/>
</g>
<path d="M104.312 194.936V208.288H105.923C106.152 208.288 106.331 208.363 106.46 208.514C106.596 208.671 106.664 208.882 106.664 209.147C106.664 209.405 106.6 209.609 106.471 209.76C106.342 209.91 106.166 209.985 105.944 209.985H102.646C102.389 209.985 102.181 209.917 102.023 209.781C101.866 209.652 101.787 209.484 101.787 209.276V193.969C101.787 193.761 101.866 193.593 102.023 193.464C102.181 193.328 102.389 193.26 102.646 193.26H105.944C106.166 193.26 106.342 193.335 106.471 193.485C106.6 193.636 106.664 193.84 106.664 194.098C106.664 194.363 106.596 194.57 106.46 194.721C106.331 194.864 106.152 194.936 105.923 194.936H104.312ZM121.682 203.647H121.864C122.251 203.647 122.541 203.748 122.734 203.948C122.928 204.142 123.024 204.428 123.024 204.808C123.024 205.23 122.921 205.535 122.713 205.721C122.512 205.907 122.169 206 121.682 206H120.038C119.83 206 119.669 205.961 119.555 205.882C119.447 205.796 119.394 205.681 119.394 205.538V204.786C119.043 205.266 118.591 205.635 118.04 205.893C117.489 206.143 116.869 206.269 116.182 206.269C114.778 206.269 113.604 205.792 112.658 204.84C111.713 203.88 111.24 202.684 111.24 201.252C111.24 199.762 111.716 198.527 112.669 197.546C113.629 196.565 114.846 196.074 116.321 196.074C116.83 196.074 117.324 196.16 117.804 196.332C118.291 196.497 118.735 196.733 119.136 197.041V194.323H117.707C117.213 194.323 116.862 194.23 116.654 194.044C116.447 193.851 116.343 193.546 116.343 193.131C116.343 192.708 116.447 192.404 116.654 192.218C116.862 192.032 117.213 191.938 117.707 191.938H121.048C121.291 191.938 121.456 191.989 121.542 192.089C121.635 192.189 121.682 192.375 121.682 192.647V203.647ZM116.644 198.362C115.942 198.362 115.358 198.627 114.893 199.157C114.434 199.68 114.205 200.346 114.205 201.155C114.205 201.986 114.434 202.666 114.893 203.196C115.351 203.719 115.935 203.98 116.644 203.98C117.353 203.98 117.936 203.715 118.395 203.186C118.86 202.656 119.093 201.979 119.093 201.155C119.093 200.353 118.86 199.687 118.395 199.157C117.929 198.627 117.345 198.362 116.644 198.362ZM127.396 201.671C127.583 202.466 127.941 203.06 128.471 203.454C129.008 203.848 129.72 204.045 130.608 204.045C131.496 204.045 132.374 203.83 133.24 203.4C134.107 202.964 134.63 202.745 134.809 202.745C135.074 202.745 135.288 202.845 135.453 203.046C135.625 203.239 135.711 203.49 135.711 203.798C135.711 204.471 135.213 205.051 134.218 205.538C133.222 206.025 131.991 206.269 130.522 206.269C128.789 206.269 127.379 205.782 126.29 204.808C125.209 203.834 124.668 202.58 124.668 201.048C124.668 199.522 125.209 198.273 126.29 197.299C127.379 196.325 128.789 195.838 130.522 195.838C132.069 195.838 133.351 196.296 134.368 197.213C135.385 198.122 135.894 199.24 135.894 200.564C135.894 200.987 135.79 201.277 135.582 201.435C135.382 201.592 134.963 201.671 134.325 201.671H127.396ZM133.187 199.995C133.065 199.329 132.75 198.813 132.241 198.448C131.74 198.083 131.085 197.9 130.275 197.9C129.495 197.9 128.865 198.076 128.385 198.427C127.912 198.771 127.583 199.293 127.396 199.995H133.187ZM140.695 205.85C140.509 205.993 140.316 206.1 140.115 206.172C139.922 206.251 139.721 206.29 139.514 206.29C139.206 206.29 138.987 206.208 138.858 206.043C138.737 205.878 138.676 205.57 138.676 205.119V203.69C138.676 203.218 138.755 202.885 138.912 202.691C139.07 202.491 139.342 202.391 139.729 202.391C140.151 202.391 140.495 202.595 140.76 203.003C140.917 203.225 141.05 203.39 141.157 203.497C141.508 203.812 141.916 204.049 142.382 204.206C142.847 204.364 143.377 204.442 143.972 204.442C144.487 204.442 144.899 204.342 145.207 204.142C145.515 203.941 145.669 203.68 145.669 203.357C145.669 202.777 144.842 202.376 143.188 202.154C142.822 202.111 142.536 202.072 142.328 202.036C141.082 201.864 140.155 201.528 139.546 201.026C138.937 200.518 138.633 199.838 138.633 198.985C138.633 197.976 138.998 197.195 139.729 196.644C140.459 196.092 141.501 195.816 142.854 195.816C143.32 195.816 143.796 195.856 144.283 195.935C144.777 196.006 145.282 196.121 145.798 196.278C145.948 196.099 146.106 195.967 146.271 195.881C146.442 195.795 146.632 195.752 146.84 195.752C147.133 195.752 147.355 195.845 147.506 196.031C147.663 196.21 147.742 196.482 147.742 196.848V198.169C147.742 198.477 147.663 198.717 147.506 198.889C147.348 199.053 147.126 199.136 146.84 199.136C146.546 199.136 146.041 198.882 145.325 198.373C144.616 197.857 143.904 197.6 143.188 197.6C142.629 197.6 142.196 197.693 141.888 197.879C141.58 198.058 141.426 198.309 141.426 198.631C141.426 199.132 142.07 199.469 143.359 199.641C143.732 199.684 144.025 199.719 144.24 199.748C145.859 199.984 146.969 200.339 147.57 200.812C148.179 201.277 148.483 201.972 148.483 202.896C148.483 203.977 148.082 204.815 147.28 205.409C146.485 205.996 145.354 206.29 143.886 206.29C143.313 206.29 142.761 206.251 142.231 206.172C141.701 206.1 141.189 205.993 140.695 205.85ZM158.248 203.647H160.558C161.052 203.647 161.403 203.737 161.61 203.916C161.818 204.095 161.922 204.392 161.922 204.808C161.922 205.23 161.814 205.535 161.6 205.721C161.392 205.907 161.045 206 160.558 206H153.296C152.809 206 152.458 205.907 152.243 205.721C152.035 205.535 151.932 205.23 151.932 204.808C151.932 204.392 152.032 204.095 152.232 203.916C152.44 203.737 152.795 203.647 153.296 203.647H155.605V198.427H154.392C153.912 198.427 153.568 198.337 153.36 198.158C153.153 197.972 153.049 197.668 153.049 197.245C153.049 196.823 153.149 196.522 153.35 196.343C153.55 196.164 153.897 196.074 154.392 196.074H157.625C157.826 196.074 157.979 196.117 158.087 196.203C158.194 196.282 158.248 196.393 158.248 196.536V203.647ZM156.701 191.219C157.224 191.219 157.571 191.319 157.743 191.52C157.915 191.72 158.001 192.2 158.001 192.959C158.001 193.689 157.922 194.144 157.765 194.323C157.614 194.495 157.253 194.581 156.68 194.581C156.121 194.581 155.759 194.499 155.595 194.334C155.437 194.169 155.358 193.84 155.358 193.346C155.358 192.429 155.441 191.845 155.605 191.595C155.77 191.344 156.135 191.219 156.701 191.219ZM169.495 198.083C168.793 198.083 168.21 198.337 167.744 198.846C167.286 199.354 167.057 200.002 167.057 200.79C167.057 201.563 167.286 202.204 167.744 202.713C168.21 203.214 168.793 203.465 169.495 203.465C170.204 203.465 170.788 203.214 171.246 202.713C171.712 202.204 171.944 201.563 171.944 200.79C171.944 200.002 171.712 199.354 171.246 198.846C170.788 198.337 170.204 198.083 169.495 198.083ZM172.159 197.073V196.515C172.159 196.371 172.209 196.264 172.31 196.192C172.417 196.114 172.575 196.074 172.782 196.074H174.533C175.027 196.074 175.375 196.167 175.575 196.354C175.776 196.533 175.876 196.83 175.876 197.245C175.876 197.632 175.776 197.925 175.575 198.126C175.382 198.326 175.095 198.427 174.716 198.427H174.533V205.828C174.533 207.396 174.107 208.535 173.255 209.244C172.403 209.953 171.035 210.308 169.151 210.308C167.984 210.308 167.125 210.193 166.573 209.964C166.029 209.735 165.757 209.373 165.757 208.879C165.757 208.535 165.868 208.256 166.09 208.041C166.312 207.826 166.605 207.719 166.971 207.719C167.064 207.719 167.372 207.751 167.895 207.815C168.417 207.88 168.901 207.912 169.345 207.912C170.369 207.912 171.074 207.719 171.461 207.332C171.855 206.945 172.052 206.251 172.052 205.248V204.765C171.543 205.058 171.038 205.277 170.537 205.42C170.043 205.556 169.527 205.624 168.99 205.624C167.551 205.624 166.373 205.176 165.456 204.281C164.547 203.379 164.092 202.222 164.092 200.812C164.092 199.358 164.568 198.162 165.521 197.224C166.48 196.285 167.705 195.816 169.194 195.816C169.839 195.816 170.405 195.92 170.892 196.128C171.379 196.328 171.801 196.644 172.159 197.073ZM187.682 203.626H187.821C188.222 203.626 188.523 203.726 188.724 203.927C188.924 204.12 189.024 204.414 189.024 204.808C189.024 205.23 188.921 205.535 188.713 205.721C188.512 205.907 188.169 206 187.682 206H185.039C184.559 206 184.212 205.907 183.997 205.721C183.789 205.535 183.686 205.23 183.686 204.808C183.686 204.414 183.786 204.12 183.986 203.927C184.194 203.726 184.502 203.626 184.91 203.626H185.039V200.521C185.039 199.662 184.917 199.053 184.674 198.695C184.438 198.33 184.04 198.147 183.481 198.147C182.887 198.147 182.4 198.366 182.021 198.803C181.648 199.232 181.462 199.805 181.462 200.521V203.626H181.591C181.999 203.626 182.303 203.726 182.504 203.927C182.704 204.12 182.805 204.414 182.805 204.808C182.805 205.23 182.701 205.535 182.493 205.721C182.285 205.907 181.942 206 181.462 206H178.798C178.318 206 177.974 205.907 177.767 205.721C177.559 205.535 177.455 205.23 177.455 204.808C177.455 204.414 177.555 204.12 177.756 203.927C177.956 203.726 178.261 203.626 178.669 203.626H178.798V198.427H178.615C178.229 198.427 177.935 198.33 177.734 198.137C177.534 197.936 177.434 197.646 177.434 197.267C177.434 196.844 177.537 196.54 177.745 196.354C177.953 196.167 178.304 196.074 178.798 196.074H180.624C180.825 196.074 180.975 196.114 181.075 196.192C181.183 196.271 181.236 196.386 181.236 196.536V197.374C181.566 196.858 181.985 196.472 182.493 196.214C183.009 195.949 183.603 195.816 184.276 195.816C185.422 195.816 186.274 196.164 186.833 196.858C187.399 197.553 187.682 198.613 187.682 200.038V203.626ZM207.555 204.99V207.912H208.919C209.406 207.912 209.753 208.005 209.961 208.191C210.176 208.378 210.283 208.682 210.283 209.104C210.283 209.52 210.179 209.817 209.972 209.996C209.764 210.175 209.413 210.265 208.919 210.265H204.364C203.87 210.265 203.523 210.175 203.322 209.996C203.122 209.824 203.021 209.527 203.021 209.104C203.021 208.682 203.122 208.378 203.322 208.191C203.53 208.005 203.877 207.912 204.364 207.912H204.998V198.427H204.826C204.447 198.427 204.157 198.326 203.956 198.126C203.756 197.925 203.655 197.632 203.655 197.245C203.655 196.823 203.756 196.522 203.956 196.343C204.157 196.164 204.504 196.074 204.998 196.074H206.652C206.86 196.074 207.014 196.114 207.114 196.192C207.215 196.264 207.265 196.371 207.265 196.515V197.288C207.63 196.801 208.07 196.436 208.586 196.192C209.109 195.942 209.696 195.816 210.348 195.816C211.816 195.816 213.033 196.285 214 197.224C214.967 198.162 215.45 199.343 215.45 200.769C215.45 202.258 214.981 203.493 214.043 204.475C213.105 205.449 211.923 205.936 210.498 205.936C209.918 205.936 209.374 205.857 208.865 205.699C208.364 205.535 207.927 205.298 207.555 204.99ZM210.036 198.104C209.327 198.104 208.743 198.366 208.285 198.889C207.827 199.411 207.598 200.081 207.598 200.897C207.598 201.714 207.827 202.383 208.285 202.906C208.743 203.429 209.327 203.69 210.036 203.69C210.745 203.69 211.329 203.429 211.787 202.906C212.253 202.376 212.485 201.707 212.485 200.897C212.485 200.081 212.256 199.411 211.798 198.889C211.34 198.366 210.752 198.104 210.036 198.104ZM222.325 200.167V203.647H224.86C225.347 203.647 225.691 203.737 225.892 203.916C226.099 204.095 226.203 204.392 226.203 204.808C226.203 205.23 226.099 205.535 225.892 205.721C225.691 205.907 225.347 206 224.86 206H218.855C218.361 206 218.01 205.907 217.803 205.721C217.595 205.535 217.491 205.23 217.491 204.808C217.491 204.392 217.591 204.095 217.792 203.916C218 203.737 218.354 203.647 218.855 203.647H219.672V198.427H219.21C218.723 198.427 218.376 198.337 218.168 198.158C217.967 197.972 217.867 197.668 217.867 197.245C217.867 196.823 217.964 196.522 218.157 196.343C218.358 196.164 218.709 196.074 219.21 196.074H221.498C221.691 196.074 221.842 196.117 221.949 196.203C222.057 196.282 222.11 196.393 222.11 196.536V198.126C222.891 197.288 223.618 196.69 224.291 196.332C224.971 195.974 225.702 195.795 226.482 195.795C227.191 195.795 227.754 195.956 228.169 196.278C228.584 196.593 228.792 197.02 228.792 197.557C228.792 197.972 228.649 198.316 228.362 198.588C228.076 198.853 227.707 198.985 227.256 198.985C226.934 198.985 226.55 198.867 226.106 198.631C225.67 198.395 225.365 198.276 225.193 198.276C224.85 198.276 224.445 198.43 223.979 198.738C223.514 199.046 222.963 199.522 222.325 200.167ZM236.021 198.104C235.184 198.104 234.493 198.38 233.948 198.932C233.411 199.476 233.143 200.174 233.143 201.026C233.143 201.886 233.411 202.598 233.948 203.164C234.493 203.723 235.184 204.002 236.021 204.002C236.859 204.002 237.55 203.723 238.095 203.164C238.639 202.598 238.911 201.886 238.911 201.026C238.911 200.174 238.639 199.476 238.095 198.932C237.558 198.38 236.867 198.104 236.021 198.104ZM236.021 195.838C237.762 195.838 239.173 196.325 240.254 197.299C241.335 198.273 241.876 199.522 241.876 201.048C241.876 202.58 241.335 203.834 240.254 204.808C239.173 205.782 237.762 206.269 236.021 206.269C234.288 206.269 232.881 205.782 231.8 204.808C230.718 203.834 230.178 202.58 230.178 201.048C230.178 199.522 230.718 198.273 231.8 197.299C232.888 196.325 234.296 195.838 236.021 195.838ZM252.425 196.654C252.511 196.375 252.643 196.167 252.822 196.031C253.008 195.888 253.245 195.816 253.531 195.816C253.918 195.816 254.194 195.935 254.358 196.171C254.523 196.4 254.605 196.801 254.605 197.374V199.136C254.605 199.573 254.516 199.895 254.337 200.103C254.158 200.31 253.882 200.414 253.51 200.414C253.245 200.414 253.023 200.353 252.844 200.231C252.665 200.11 252.475 199.877 252.274 199.533C251.988 199.046 251.612 198.688 251.146 198.459C250.681 198.223 250.112 198.104 249.438 198.104C248.601 198.104 247.913 198.38 247.376 198.932C246.846 199.476 246.581 200.174 246.581 201.026C246.581 201.922 246.857 202.641 247.408 203.186C247.96 203.73 248.701 204.002 249.632 204.002C250.477 204.002 251.315 203.769 252.146 203.304C252.983 202.831 253.495 202.595 253.682 202.595C253.947 202.595 254.165 202.699 254.337 202.906C254.516 203.107 254.605 203.361 254.605 203.669C254.605 204.342 254.093 204.944 253.069 205.474C252.052 206.004 250.842 206.269 249.438 206.269C247.705 206.269 246.295 205.782 245.206 204.808C244.125 203.834 243.584 202.58 243.584 201.048C243.584 199.551 244.121 198.305 245.195 197.31C246.27 196.314 247.623 195.816 249.256 195.816C249.807 195.816 250.344 195.884 250.867 196.021C251.39 196.157 251.909 196.368 252.425 196.654ZM259.525 201.671C259.712 202.466 260.07 203.06 260.6 203.454C261.137 203.848 261.849 204.045 262.737 204.045C263.625 204.045 264.503 203.83 265.369 203.4C266.236 202.964 266.758 202.745 266.938 202.745C267.202 202.745 267.417 202.845 267.582 203.046C267.754 203.239 267.84 203.49 267.84 203.798C267.84 204.471 267.342 205.051 266.347 205.538C265.351 206.025 264.119 206.269 262.651 206.269C260.918 206.269 259.507 205.782 258.419 204.808C257.338 203.834 256.797 202.58 256.797 201.048C256.797 199.522 257.338 198.273 258.419 197.299C259.507 196.325 260.918 195.838 262.651 195.838C264.198 195.838 265.48 196.296 266.497 197.213C267.514 198.122 268.022 199.24 268.022 200.564C268.022 200.987 267.919 201.277 267.711 201.435C267.51 201.592 267.091 201.671 266.454 201.671H259.525ZM265.315 199.995C265.194 199.329 264.879 198.813 264.37 198.448C263.869 198.083 263.214 197.9 262.404 197.9C261.624 197.9 260.993 198.076 260.514 198.427C260.041 198.771 259.712 199.293 259.525 199.995H265.315ZM272.824 205.85C272.638 205.993 272.445 206.1 272.244 206.172C272.051 206.251 271.85 206.29 271.643 206.29C271.335 206.29 271.116 206.208 270.987 206.043C270.866 205.878 270.805 205.57 270.805 205.119V203.69C270.805 203.218 270.883 202.885 271.041 202.691C271.199 202.491 271.471 202.391 271.857 202.391C272.28 202.391 272.624 202.595 272.889 203.003C273.046 203.225 273.179 203.39 273.286 203.497C273.637 203.812 274.045 204.049 274.511 204.206C274.976 204.364 275.506 204.442 276.101 204.442C276.616 204.442 277.028 204.342 277.336 204.142C277.644 203.941 277.798 203.68 277.798 203.357C277.798 202.777 276.971 202.376 275.316 202.154C274.951 202.111 274.665 202.072 274.457 202.036C273.211 201.864 272.284 201.528 271.675 201.026C271.066 200.518 270.762 199.838 270.762 198.985C270.762 197.976 271.127 197.195 271.857 196.644C272.588 196.092 273.63 195.816 274.983 195.816C275.449 195.816 275.925 195.856 276.412 195.935C276.906 196.006 277.411 196.121 277.927 196.278C278.077 196.099 278.235 195.967 278.399 195.881C278.571 195.795 278.761 195.752 278.969 195.752C279.262 195.752 279.484 195.845 279.635 196.031C279.792 196.21 279.871 196.482 279.871 196.848V198.169C279.871 198.477 279.792 198.717 279.635 198.889C279.477 199.053 279.255 199.136 278.969 199.136C278.675 199.136 278.17 198.882 277.454 198.373C276.745 197.857 276.033 197.6 275.316 197.6C274.758 197.6 274.325 197.693 274.017 197.879C273.709 198.058 273.555 198.309 273.555 198.631C273.555 199.132 274.199 199.469 275.488 199.641C275.861 199.684 276.154 199.719 276.369 199.748C277.988 199.984 279.098 200.339 279.699 200.812C280.308 201.277 280.612 201.972 280.612 202.896C280.612 203.977 280.211 204.815 279.409 205.409C278.614 205.996 277.483 206.29 276.015 206.29C275.442 206.29 274.89 206.251 274.36 206.172C273.83 206.1 273.318 205.993 272.824 205.85ZM286.037 205.85C285.851 205.993 285.658 206.1 285.457 206.172C285.264 206.251 285.063 206.29 284.855 206.29C284.548 206.29 284.329 206.208 284.2 206.043C284.078 205.878 284.018 205.57 284.018 205.119V203.69C284.018 203.218 284.096 202.885 284.254 202.691C284.411 202.491 284.684 202.391 285.07 202.391C285.493 202.391 285.837 202.595 286.102 203.003C286.259 203.225 286.392 203.39 286.499 203.497C286.85 203.812 287.258 204.049 287.724 204.206C288.189 204.364 288.719 204.442 289.313 204.442C289.829 204.442 290.241 204.342 290.549 204.142C290.857 203.941 291.011 203.68 291.011 203.357C291.011 202.777 290.184 202.376 288.529 202.154C288.164 202.111 287.878 202.072 287.67 202.036C286.424 201.864 285.496 201.528 284.888 201.026C284.279 200.518 283.975 199.838 283.975 198.985C283.975 197.976 284.34 197.195 285.07 196.644C285.801 196.092 286.843 195.816 288.196 195.816C288.662 195.816 289.138 195.856 289.625 195.935C290.119 196.006 290.624 196.121 291.14 196.278C291.29 196.099 291.448 195.967 291.612 195.881C291.784 195.795 291.974 195.752 292.182 195.752C292.475 195.752 292.697 195.845 292.848 196.031C293.005 196.21 293.084 196.482 293.084 196.848V198.169C293.084 198.477 293.005 198.717 292.848 198.889C292.69 199.053 292.468 199.136 292.182 199.136C291.888 199.136 291.383 198.882 290.667 198.373C289.958 197.857 289.245 197.6 288.529 197.6C287.971 197.6 287.537 197.693 287.229 197.879C286.922 198.058 286.768 198.309 286.768 198.631C286.768 199.132 287.412 199.469 288.701 199.641C289.074 199.684 289.367 199.719 289.582 199.748C291.201 199.984 292.311 200.339 292.912 200.812C293.521 201.277 293.825 201.972 293.825 202.896C293.825 203.977 293.424 204.815 292.622 205.409C291.827 205.996 290.696 206.29 289.228 206.29C288.655 206.29 288.103 206.251 287.573 206.172C287.043 206.1 286.531 205.993 286.037 205.85ZM301.076 208.288V194.936H299.476C299.239 194.936 299.053 194.864 298.917 194.721C298.788 194.57 298.724 194.363 298.724 194.098C298.724 193.833 298.788 193.629 298.917 193.485C299.046 193.335 299.225 193.26 299.454 193.26H302.752C303.003 193.26 303.207 193.328 303.364 193.464C303.529 193.6 303.611 193.768 303.611 193.969V209.276C303.611 209.477 303.529 209.645 303.364 209.781C303.207 209.917 303.003 209.985 302.752 209.985H299.454C299.225 209.985 299.046 209.91 298.917 209.76C298.788 209.617 298.724 209.412 298.724 209.147C298.724 208.882 298.788 208.671 298.917 208.514C299.053 208.363 299.239 208.288 299.476 208.288H301.076Z" fill="black"/>
<g clip-path="url(#clip0)">
<path d="M155.687 57.2804C147.279 66.0143 149 75.2921 149 103.478C149 126.884 144.916 150.348 166.289 155.872C172.964 157.588 232.099 157.588 238.764 155.863C247.663 153.567 254.903 146.349 255.893 133.763C256.031 132.007 256.031 74.98 255.889 73.1877C254.836 59.7815 246.584 52.0552 235.71 50.4904C233.218 50.1292 232.719 50.0222 219.932 50C174.577 50.0222 164.635 48.0026 155.687 57.2804V57.2804Z" fill="url(#paint0_linear)"/>
<path d="M202.491 63.9947C186.303 63.9947 170.931 62.5546 165.059 77.6238C162.634 83.8476 162.986 91.9306 162.986 103.504C162.986 113.661 162.66 123.206 165.059 129.381C170.917 144.459 186.414 143.014 202.482 143.014C217.984 143.014 233.967 144.628 239.91 129.381C242.34 123.094 241.983 115.132 241.983 103.504C241.983 88.0697 242.835 78.1053 235.349 70.6242C227.77 63.045 217.52 63.9947 202.473 63.9947H202.491ZM198.951 71.1146C232.719 71.0611 237.016 67.3072 234.645 119.456C233.802 137.9 219.758 135.876 202.496 135.876C171.02 135.876 170.115 134.976 170.115 103.487C170.115 71.6318 172.611 71.1325 198.951 71.1057V71.1146ZM223.579 77.6728C220.962 77.6728 218.84 79.795 218.84 82.412C218.84 85.0291 220.962 87.1513 223.579 87.1513C226.196 87.1513 228.318 85.0291 228.318 82.412C228.318 79.795 226.196 77.6728 223.579 77.6728V77.6728ZM202.491 83.2145C191.287 83.2145 182.206 92.3006 182.206 103.504C182.206 114.708 191.287 123.79 202.491 123.79C213.695 123.79 222.772 114.708 222.772 103.504C222.772 92.3006 213.695 83.2145 202.491 83.2145V83.2145ZM202.491 90.3345C219.901 90.3345 219.923 116.674 202.491 116.674C185.086 116.674 185.059 90.3345 202.491 90.3345Z" fill="white"/>
</g>
<defs>
<filter id="filter0_d" x="0" y="0" width="406" height="242" filterUnits="userSpaceOnUse" color-interpolation-filters="sRGB">
<feFlood flood-opacity="0" result="BackgroundImageFix"/>
<feColorMatrix in="SourceAlpha" type="matrix" values="0 0 0 0 0 0 0 0 0 0 0 0 0 0 0 0 0 0 127 0"/>
<feOffset dy="4"/>
<feGaussianBlur stdDeviation="2"/>
<feColorMatrix type="matrix" values="0 0 0 0 0 0 0 0 0 0 0 0 0 0 0 0 0 0 0.25 0"/>
<feBlend mode="normal" in2="BackgroundImageFix" result="effect1_dropShadow"/>
<feBlend mode="normal" in="SourceGraphic" in2="effect1_dropShadow" result="shape"/>
</filter>
<linearGradient id="paint0_linear" x1="155.893" y1="150.166" x2="255.338" y2="64.0971" gradientUnits="userSpaceOnUse">
<stop stop-color="#FFDD55"/>
<stop offset="0.5" stop-color="#FF543E"/>
<stop offset="1" stop-color="#C837AB"/>
</linearGradient>
<clipPath id="clip0">
<rect x="149" y="50" width="107" height="107" fill="white"/>
</clipPath>
</defs>
</svg>
