<svg width="406" height="242" viewBox="0 0 406 242" fill="none" xmlns="http://www.w3.org/2000/svg">
<g filter="url(#filter0_d)">
<rect x="4" width="398" height="234" fill="white"/>
</g>
<path d="M137.344 194.936V208.288H138.955C139.184 208.288 139.363 208.363 139.492 208.514C139.628 208.671 139.696 208.882 139.696 209.147C139.696 209.405 139.632 209.609 139.503 209.76C139.374 209.91 139.199 209.985 138.977 209.985H135.679C135.421 209.985 135.213 209.917 135.056 209.781C134.898 209.652 134.819 209.484 134.819 209.276V193.969C134.819 193.761 134.898 193.593 135.056 193.464C135.213 193.328 135.421 193.26 135.679 193.26H138.977C139.199 193.26 139.374 193.335 139.503 193.485C139.632 193.636 139.696 193.84 139.696 194.098C139.696 194.363 139.628 194.57 139.492 194.721C139.363 194.864 139.184 194.936 138.955 194.936H137.344ZM149.654 200.167V203.647H152.189C152.676 203.647 153.02 203.737 153.221 203.916C153.428 204.095 153.532 204.392 153.532 204.808C153.532 205.23 153.428 205.535 153.221 205.721C153.02 205.907 152.676 206 152.189 206H146.185C145.69 206 145.34 205.907 145.132 205.721C144.924 205.535 144.82 205.23 144.82 204.808C144.82 204.392 144.921 204.095 145.121 203.916C145.329 203.737 145.683 203.647 146.185 203.647H147.001V198.427H146.539C146.052 198.427 145.705 198.337 145.497 198.158C145.297 197.972 145.196 197.668 145.196 197.245C145.196 196.823 145.293 196.522 145.486 196.343C145.687 196.164 146.038 196.074 146.539 196.074H148.827C149.021 196.074 149.171 196.117 149.278 196.203C149.386 196.282 149.439 196.393 149.439 196.536V198.126C150.22 197.288 150.947 196.69 151.62 196.332C152.3 195.974 153.031 195.795 153.812 195.795C154.521 195.795 155.083 195.956 155.498 196.278C155.913 196.593 156.121 197.02 156.121 197.557C156.121 197.972 155.978 198.316 155.691 198.588C155.405 198.853 155.036 198.985 154.585 198.985C154.263 198.985 153.88 198.867 153.436 198.631C152.999 198.395 152.694 198.276 152.522 198.276C152.179 198.276 151.774 198.43 151.309 198.738C150.843 199.046 150.292 199.522 149.654 200.167ZM160.429 201.671C160.615 202.466 160.973 203.06 161.503 203.454C162.04 203.848 162.753 204.045 163.641 204.045C164.529 204.045 165.406 203.83 166.272 203.4C167.139 202.964 167.662 202.745 167.841 202.745C168.106 202.745 168.321 202.845 168.485 203.046C168.657 203.239 168.743 203.49 168.743 203.798C168.743 204.471 168.245 205.051 167.25 205.538C166.255 206.025 165.023 206.269 163.555 206.269C161.822 206.269 160.411 205.782 159.322 204.808C158.241 203.834 157.7 202.58 157.7 201.048C157.7 199.522 158.241 198.273 159.322 197.299C160.411 196.325 161.822 195.838 163.555 195.838C165.102 195.838 166.383 196.296 167.4 197.213C168.417 198.122 168.926 199.24 168.926 200.564C168.926 200.987 168.822 201.277 168.614 201.435C168.414 201.592 167.995 201.671 167.357 201.671H160.429ZM166.219 199.995C166.097 199.329 165.782 198.813 165.273 198.448C164.772 198.083 164.117 197.9 163.308 197.9C162.527 197.9 161.897 198.076 161.417 198.427C160.944 198.771 160.615 199.293 160.429 199.995H166.219ZM179.754 196.654C179.84 196.375 179.972 196.167 180.151 196.031C180.338 195.888 180.574 195.816 180.86 195.816C181.247 195.816 181.523 195.935 181.688 196.171C181.852 196.4 181.935 196.801 181.935 197.374V199.136C181.935 199.573 181.845 199.895 181.666 200.103C181.487 200.31 181.211 200.414 180.839 200.414C180.574 200.414 180.352 200.353 180.173 200.231C179.994 200.11 179.804 199.877 179.604 199.533C179.317 199.046 178.941 198.688 178.476 198.459C178.01 198.223 177.441 198.104 176.768 198.104C175.93 198.104 175.242 198.38 174.705 198.932C174.175 199.476 173.91 200.174 173.91 201.026C173.91 201.922 174.186 202.641 174.737 203.186C175.289 203.73 176.03 204.002 176.961 204.002C177.806 204.002 178.644 203.769 179.475 203.304C180.312 202.831 180.825 202.595 181.011 202.595C181.276 202.595 181.494 202.699 181.666 202.906C181.845 203.107 181.935 203.361 181.935 203.669C181.935 204.342 181.423 204.944 180.398 205.474C179.382 206.004 178.171 206.269 176.768 206.269C175.035 206.269 173.624 205.782 172.535 204.808C171.454 203.834 170.913 202.58 170.913 201.048C170.913 199.551 171.45 198.305 172.524 197.31C173.599 196.314 174.952 195.816 176.585 195.816C177.136 195.816 177.674 195.884 178.196 196.021C178.719 196.157 179.238 196.368 179.754 196.654ZM186.854 201.671C187.041 202.466 187.399 203.06 187.929 203.454C188.466 203.848 189.178 204.045 190.066 204.045C190.954 204.045 191.832 203.83 192.698 203.4C193.565 202.964 194.088 202.745 194.267 202.745C194.532 202.745 194.746 202.845 194.911 203.046C195.083 203.239 195.169 203.49 195.169 203.798C195.169 204.471 194.671 205.051 193.676 205.538C192.68 206.025 191.449 206.269 189.98 206.269C188.247 206.269 186.837 205.782 185.748 204.808C184.667 203.834 184.126 202.58 184.126 201.048C184.126 199.522 184.667 198.273 185.748 197.299C186.837 196.325 188.247 195.838 189.98 195.838C191.527 195.838 192.809 196.296 193.826 197.213C194.843 198.122 195.352 199.24 195.352 200.564C195.352 200.987 195.248 201.277 195.04 201.435C194.84 201.592 194.421 201.671 193.783 201.671H186.854ZM192.645 199.995C192.523 199.329 192.208 198.813 191.699 198.448C191.198 198.083 190.543 197.9 189.733 197.9C188.953 197.9 188.323 198.076 187.843 198.427C187.37 198.771 187.041 199.293 186.854 199.995H192.645ZM200.948 204.99V207.912H202.312C202.799 207.912 203.147 208.005 203.354 208.191C203.569 208.378 203.677 208.682 203.677 209.104C203.677 209.52 203.573 209.817 203.365 209.996C203.158 210.175 202.807 210.265 202.312 210.265H197.758C197.264 210.265 196.916 210.175 196.716 209.996C196.515 209.824 196.415 209.527 196.415 209.104C196.415 208.682 196.515 208.378 196.716 208.191C196.924 208.005 197.271 207.912 197.758 207.912H198.392V198.427H198.22C197.84 198.427 197.55 198.326 197.35 198.126C197.149 197.925 197.049 197.632 197.049 197.245C197.049 196.823 197.149 196.522 197.35 196.343C197.55 196.164 197.897 196.074 198.392 196.074H200.046C200.254 196.074 200.408 196.114 200.508 196.192C200.608 196.264 200.658 196.371 200.658 196.515V197.288C201.023 196.801 201.464 196.436 201.979 196.192C202.502 195.942 203.09 195.816 203.741 195.816C205.209 195.816 206.427 196.285 207.394 197.224C208.36 198.162 208.844 199.343 208.844 200.769C208.844 202.258 208.375 203.493 207.437 204.475C206.498 205.449 205.317 205.936 203.892 205.936C203.312 205.936 202.767 205.857 202.259 205.699C201.757 205.535 201.321 205.298 200.948 204.99ZM203.43 198.104C202.721 198.104 202.137 198.366 201.679 198.889C201.22 199.411 200.991 200.081 200.991 200.897C200.991 201.714 201.22 202.383 201.679 202.906C202.137 203.429 202.721 203.69 203.43 203.69C204.139 203.69 204.722 203.429 205.181 202.906C205.646 202.376 205.879 201.707 205.879 200.897C205.879 200.081 205.65 199.411 205.191 198.889C204.733 198.366 204.146 198.104 203.43 198.104ZM215.461 196.676H218.737C219.231 196.676 219.582 196.765 219.79 196.944C219.998 197.123 220.102 197.421 220.102 197.836C220.102 198.258 219.994 198.563 219.779 198.749C219.572 198.935 219.224 199.028 218.737 199.028H215.461V201.778C215.461 202.552 215.579 203.082 215.815 203.368C216.052 203.655 216.467 203.798 217.062 203.798C217.62 203.798 218.279 203.637 219.038 203.314C219.797 202.992 220.306 202.831 220.563 202.831C220.857 202.831 221.108 202.949 221.315 203.186C221.53 203.415 221.638 203.694 221.638 204.023C221.638 204.575 221.136 205.08 220.134 205.538C219.138 205.989 218.007 206.215 216.739 206.215C216.002 206.215 215.354 206.115 214.795 205.914C214.236 205.714 213.796 205.427 213.474 205.055C213.237 204.768 213.069 204.424 212.969 204.023C212.868 203.622 212.818 202.953 212.818 202.015V201.778V199.028H211.809C211.322 199.028 210.974 198.935 210.767 198.749C210.566 198.563 210.466 198.258 210.466 197.836C210.466 197.413 210.566 197.116 210.767 196.944C210.967 196.765 211.314 196.676 211.809 196.676H212.818V194.162C212.818 193.668 212.919 193.321 213.119 193.12C213.327 192.92 213.667 192.819 214.14 192.819C214.612 192.819 214.949 192.92 215.149 193.12C215.357 193.321 215.461 193.668 215.461 194.162V196.676ZM230.919 203.647H233.229C233.723 203.647 234.074 203.737 234.281 203.916C234.489 204.095 234.593 204.392 234.593 204.808C234.593 205.23 234.485 205.535 234.271 205.721C234.063 205.907 233.715 206 233.229 206H225.967C225.48 206 225.129 205.907 224.914 205.721C224.706 205.535 224.603 205.23 224.603 204.808C224.603 204.392 224.703 204.095 224.903 203.916C225.111 203.737 225.465 203.647 225.967 203.647H228.276V198.427H227.062C226.583 198.427 226.239 198.337 226.031 198.158C225.824 197.972 225.72 197.668 225.72 197.245C225.72 196.823 225.82 196.522 226.021 196.343C226.221 196.164 226.568 196.074 227.062 196.074H230.296C230.496 196.074 230.65 196.117 230.758 196.203C230.865 196.282 230.919 196.393 230.919 196.536V203.647ZM229.372 191.219C229.895 191.219 230.242 191.319 230.414 191.52C230.586 191.72 230.672 192.2 230.672 192.959C230.672 193.689 230.593 194.144 230.436 194.323C230.285 194.495 229.924 194.581 229.351 194.581C228.792 194.581 228.43 194.499 228.266 194.334C228.108 194.169 228.029 193.84 228.029 193.346C228.029 192.429 228.112 191.845 228.276 191.595C228.441 191.344 228.806 191.219 229.372 191.219ZM242.628 198.104C241.79 198.104 241.099 198.38 240.555 198.932C240.018 199.476 239.749 200.174 239.749 201.026C239.749 201.886 240.018 202.598 240.555 203.164C241.099 203.723 241.79 204.002 242.628 204.002C243.466 204.002 244.157 203.723 244.701 203.164C245.245 202.598 245.518 201.886 245.518 201.026C245.518 200.174 245.245 199.476 244.701 198.932C244.164 198.38 243.473 198.104 242.628 198.104ZM242.628 195.838C244.368 195.838 245.779 196.325 246.86 197.299C247.942 198.273 248.482 199.522 248.482 201.048C248.482 202.58 247.942 203.834 246.86 204.808C245.779 205.782 244.368 206.269 242.628 206.269C240.895 206.269 239.488 205.782 238.406 204.808C237.325 203.834 236.784 202.58 236.784 201.048C236.784 199.522 237.325 198.273 238.406 197.299C239.495 196.325 240.902 195.838 242.628 195.838ZM260.353 203.626H260.492C260.893 203.626 261.194 203.726 261.395 203.927C261.595 204.12 261.695 204.414 261.695 204.808C261.695 205.23 261.591 205.535 261.384 205.721C261.183 205.907 260.84 206 260.353 206H257.71C257.23 206 256.883 205.907 256.668 205.721C256.46 205.535 256.356 205.23 256.356 204.808C256.356 204.414 256.457 204.12 256.657 203.927C256.865 203.726 257.173 203.626 257.581 203.626H257.71V200.521C257.71 199.662 257.588 199.053 257.345 198.695C257.108 198.33 256.711 198.147 256.152 198.147C255.558 198.147 255.071 198.366 254.691 198.803C254.319 199.232 254.133 199.805 254.133 200.521V203.626H254.262C254.67 203.626 254.974 203.726 255.175 203.927C255.375 204.12 255.476 204.414 255.476 204.808C255.476 205.23 255.372 205.535 255.164 205.721C254.956 205.907 254.613 206 254.133 206H251.469C250.989 206 250.645 205.907 250.438 205.721C250.23 205.535 250.126 205.23 250.126 204.808C250.126 204.414 250.226 204.12 250.427 203.927C250.627 203.726 250.932 203.626 251.34 203.626H251.469V198.427H251.286C250.899 198.427 250.606 198.33 250.405 198.137C250.205 197.936 250.104 197.646 250.104 197.267C250.104 196.844 250.208 196.54 250.416 196.354C250.624 196.167 250.975 196.074 251.469 196.074H253.295C253.495 196.074 253.646 196.114 253.746 196.192C253.854 196.271 253.907 196.386 253.907 196.536V197.374C254.237 196.858 254.656 196.472 255.164 196.214C255.68 195.949 256.274 195.816 256.947 195.816C258.093 195.816 258.945 196.164 259.504 196.858C260.07 197.553 260.353 198.613 260.353 200.038V203.626ZM268.044 208.288V194.936H266.443C266.207 194.936 266.021 194.864 265.885 194.721C265.756 194.57 265.691 194.363 265.691 194.098C265.691 193.833 265.756 193.629 265.885 193.485C266.014 193.335 266.193 193.26 266.422 193.26H269.72C269.97 193.26 270.174 193.328 270.332 193.464C270.497 193.6 270.579 193.768 270.579 193.969V209.276C270.579 209.477 270.497 209.645 270.332 209.781C270.174 209.917 269.97 209.985 269.72 209.985H266.422C266.193 209.985 266.014 209.91 265.885 209.76C265.756 209.617 265.691 209.412 265.691 209.147C265.691 208.882 265.756 208.671 265.885 208.514C266.021 208.363 266.207 208.288 266.443 208.288H268.044Z" fill="black"/>
<path d="M236.409 50H168.591C157.305 50 148.156 59.1491 148.156 70.4347V114.915C148.156 126.201 157.305 135.35 168.591 135.35H178.324C178.787 135.35 179.162 135.725 179.162 136.188V158.13C179.162 160.724 182.335 161.982 184.112 160.092L207.133 135.614C207.292 135.445 207.513 135.35 207.744 135.35H236.409C247.695 135.35 256.844 126.201 256.844 114.915V70.4347C256.844 59.1491 247.695 50 236.409 50Z" fill="#EC5569"/>
<path d="M187.759 127.723C187.759 127.236 187.396 126.841 186.947 126.841H177.525C166.599 126.841 157.742 117.206 157.742 105.322V58.4816C157.742 56.4706 157.997 54.5244 158.471 52.678C152.309 56.1975 148.156 62.8308 148.156 70.4345V114.915C148.156 126.201 157.305 135.35 168.591 135.35H178.323C178.787 135.35 179.162 135.725 179.162 136.188V158.129C179.162 160.724 182.335 161.982 184.112 160.091L187.759 156.214V127.723H187.759Z" fill="#E63950"/>
<path d="M225.461 76.5195C220.272 71.3314 211.861 71.3314 206.672 76.5195L203.742 79.4502C203.043 80.1489 201.91 80.1489 201.211 79.4502L198.327 76.5664C193.139 71.3782 184.727 71.3782 179.539 76.5664C174.351 81.7545 174.351 90.1663 179.539 95.3546L201.213 117.028C201.911 117.727 203.045 117.727 203.743 117.028L225.46 95.3078C230.649 90.1194 230.649 81.7079 225.461 76.5195Z" fill="#EC5569"/>
<path d="M225.461 76.5195C220.272 71.3314 211.861 71.3314 206.672 76.5195L203.742 79.4502C203.043 80.1489 201.91 80.1489 201.211 79.4502L198.327 76.5664C193.139 71.3782 184.727 71.3782 179.539 76.5664C174.351 81.7545 174.351 90.1663 179.539 95.3546L201.213 117.028C201.911 117.727 203.045 117.727 203.743 117.028L225.46 95.3078C230.649 90.1194 230.649 81.7079 225.461 76.5195Z" fill="#FFF5F5"/>
<path d="M186.489 95.3547C181.3 90.1665 181.3 81.7548 186.489 76.5664C188.19 74.8646 190.24 73.7246 192.408 73.1395C187.966 71.9402 183.025 73.0801 179.539 76.5664C174.351 81.7546 174.351 90.1663 179.539 95.3547L201.213 117.029C201.912 117.727 203.045 117.727 203.744 117.029L205.953 114.819L186.489 95.3547Z" fill="#DCE6EB"/>
<defs>
<filter id="filter0_d" x="0" y="0" width="406" height="242" filterUnits="userSpaceOnUse" color-interpolation-filters="sRGB">
<feFlood flood-opacity="0" result="BackgroundImageFix"/>
<feColorMatrix in="SourceAlpha" type="matrix" values="0 0 0 0 0 0 0 0 0 0 0 0 0 0 0 0 0 0 127 0"/>
<feOffset dy="4"/>
<feGaussianBlur stdDeviation="2"/>
<feColorMatrix type="matrix" values="0 0 0 0 0 0 0 0 0 0 0 0 0 0 0 0 0 0 0.25 0"/>
<feBlend mode="normal" in2="BackgroundImageFix" result="effect1_dropShadow"/>
<feBlend mode="normal" in="SourceGraphic" in2="effect1_dropShadow" result="shape"/>
</filter>
</defs>
</svg>
