<svg width="406" height="242" viewBox="0 0 406 242" fill="none" xmlns="http://www.w3.org/2000/svg">
<g filter="url(#filter0_d)">
<rect x="4" width="398" height="234" fill="white"/>
</g>
<path d="M143.95 194.936V208.288H145.562C145.791 208.288 145.97 208.363 146.099 208.514C146.235 208.671 146.303 208.882 146.303 209.147C146.303 209.405 146.238 209.609 146.109 209.76C145.98 209.91 145.805 209.985 145.583 209.985H142.285C142.027 209.985 141.82 209.917 141.662 209.781C141.505 209.652 141.426 209.484 141.426 209.276V193.969C141.426 193.761 141.505 193.593 141.662 193.464C141.82 193.328 142.027 193.26 142.285 193.26H145.583C145.805 193.26 145.98 193.335 146.109 193.485C146.238 193.636 146.303 193.84 146.303 194.098C146.303 194.363 146.235 194.57 146.099 194.721C145.97 194.864 145.791 194.936 145.562 194.936H143.95ZM154.703 204.99V207.912H156.067C156.554 207.912 156.902 208.005 157.109 208.191C157.324 208.378 157.432 208.682 157.432 209.104C157.432 209.52 157.328 209.817 157.12 209.996C156.912 210.175 156.562 210.265 156.067 210.265H151.513C151.019 210.265 150.671 210.175 150.471 209.996C150.27 209.824 150.17 209.527 150.17 209.104C150.17 208.682 150.27 208.378 150.471 208.191C150.678 208.005 151.026 207.912 151.513 207.912H152.146V198.427H151.975C151.595 198.427 151.305 198.326 151.104 198.126C150.904 197.925 150.804 197.632 150.804 197.245C150.804 196.823 150.904 196.522 151.104 196.343C151.305 196.164 151.652 196.074 152.146 196.074H153.801C154.008 196.074 154.162 196.114 154.263 196.192C154.363 196.264 154.413 196.371 154.413 196.515V197.288C154.778 196.801 155.219 196.436 155.734 196.192C156.257 195.942 156.844 195.816 157.496 195.816C158.964 195.816 160.182 196.285 161.148 197.224C162.115 198.162 162.599 199.343 162.599 200.769C162.599 202.258 162.13 203.493 161.191 204.475C160.253 205.449 159.072 205.936 157.646 205.936C157.066 205.936 156.522 205.857 156.014 205.699C155.512 205.535 155.076 205.298 154.703 204.99ZM157.185 198.104C156.476 198.104 155.892 198.366 155.434 198.889C154.975 199.411 154.746 200.081 154.746 200.897C154.746 201.714 154.975 202.383 155.434 202.906C155.892 203.429 156.476 203.69 157.185 203.69C157.894 203.69 158.477 203.429 158.936 202.906C159.401 202.376 159.634 201.707 159.634 200.897C159.634 200.081 159.405 199.411 158.946 198.889C158.488 198.366 157.901 198.104 157.185 198.104ZM171.278 203.647H173.588C174.082 203.647 174.429 203.737 174.63 203.916C174.83 204.095 174.931 204.392 174.931 204.808C174.931 205.23 174.827 205.535 174.619 205.721C174.419 205.907 174.075 206 173.588 206H166.305C165.825 206 165.481 205.907 165.273 205.721C165.073 205.535 164.973 205.23 164.973 204.808C164.973 204.385 165.069 204.088 165.263 203.916C165.463 203.737 165.811 203.647 166.305 203.647H168.614V194.323H167.433C166.946 194.323 166.595 194.23 166.38 194.044C166.172 193.851 166.068 193.546 166.068 193.131C166.068 192.708 166.172 192.404 166.38 192.218C166.588 192.032 166.938 191.938 167.433 191.938H170.645C170.845 191.938 170.999 191.981 171.106 192.067C171.221 192.146 171.278 192.257 171.278 192.4V203.647ZM187.553 203.647H187.725C188.111 203.647 188.405 203.751 188.605 203.959C188.813 204.16 188.917 204.45 188.917 204.829C188.917 205.244 188.81 205.545 188.595 205.731C188.387 205.91 188.04 206 187.553 206H186.543C186.185 206 185.916 205.932 185.737 205.796C185.565 205.66 185.422 205.413 185.308 205.055C184.713 205.449 184.083 205.749 183.417 205.957C182.751 206.165 182.078 206.269 181.397 206.269C180.244 206.269 179.339 205.982 178.68 205.409C178.021 204.836 177.691 204.052 177.691 203.057C177.691 201.982 178.118 201.148 178.97 200.554C179.822 199.959 181.018 199.662 182.558 199.662C182.901 199.662 183.267 199.68 183.653 199.716C184.04 199.752 184.473 199.809 184.953 199.888V199.684C184.953 199.039 184.796 198.549 184.48 198.212C184.173 197.875 183.714 197.707 183.105 197.707C182.633 197.707 182.028 197.882 181.29 198.233C180.56 198.584 180.022 198.76 179.679 198.76C179.342 198.76 179.07 198.663 178.862 198.47C178.655 198.269 178.551 198.008 178.551 197.686C178.551 197.105 178.973 196.647 179.818 196.311C180.671 195.967 181.827 195.795 183.288 195.795C184.813 195.795 185.906 196.089 186.564 196.676C187.223 197.263 187.553 198.258 187.553 199.662V203.647ZM184.953 201.574C184.595 201.495 184.266 201.438 183.965 201.402C183.664 201.359 183.385 201.338 183.127 201.338C182.339 201.338 181.72 201.47 181.269 201.735C180.825 202 180.603 202.366 180.603 202.831C180.603 203.246 180.746 203.565 181.032 203.787C181.319 204.002 181.73 204.109 182.268 204.109C182.762 204.109 183.227 204.038 183.664 203.895C184.101 203.751 184.531 203.529 184.953 203.229V201.574ZM200.895 203.626H201.034C201.435 203.626 201.736 203.726 201.937 203.927C202.137 204.12 202.237 204.414 202.237 204.808C202.237 205.23 202.133 205.535 201.926 205.721C201.725 205.907 201.382 206 200.895 206H198.252C197.772 206 197.425 205.907 197.21 205.721C197.002 205.535 196.898 205.23 196.898 204.808C196.898 204.414 196.999 204.12 197.199 203.927C197.407 203.726 197.715 203.626 198.123 203.626H198.252V200.521C198.252 199.662 198.13 199.053 197.887 198.695C197.65 198.33 197.253 198.147 196.694 198.147C196.1 198.147 195.613 198.366 195.233 198.803C194.861 199.232 194.675 199.805 194.675 200.521V203.626H194.804C195.212 203.626 195.516 203.726 195.717 203.927C195.917 204.12 196.018 204.414 196.018 204.808C196.018 205.23 195.914 205.535 195.706 205.721C195.498 205.907 195.155 206 194.675 206H192.011C191.531 206 191.187 205.907 190.979 205.721C190.772 205.535 190.668 205.23 190.668 204.808C190.668 204.414 190.768 204.12 190.969 203.927C191.169 203.726 191.474 203.626 191.882 203.626H192.011V198.427H191.828C191.441 198.427 191.148 198.33 190.947 198.137C190.747 197.936 190.646 197.646 190.646 197.267C190.646 196.844 190.75 196.54 190.958 196.354C191.166 196.167 191.517 196.074 192.011 196.074H193.837C194.037 196.074 194.188 196.114 194.288 196.192C194.396 196.271 194.449 196.386 194.449 196.536V197.374C194.779 196.858 195.198 196.472 195.706 196.214C196.222 195.949 196.816 195.816 197.489 195.816C198.635 195.816 199.487 196.164 200.046 196.858C200.612 197.553 200.895 198.613 200.895 200.038V203.626ZM214.107 203.626H214.247C214.648 203.626 214.949 203.726 215.149 203.927C215.35 204.12 215.45 204.414 215.45 204.808C215.45 205.23 215.346 205.535 215.139 205.721C214.938 205.907 214.594 206 214.107 206H211.465C210.985 206 210.638 205.907 210.423 205.721C210.215 205.535 210.111 205.23 210.111 204.808C210.111 204.414 210.212 204.12 210.412 203.927C210.62 203.726 210.928 203.626 211.336 203.626H211.465V200.521C211.465 199.662 211.343 199.053 211.1 198.695C210.863 198.33 210.466 198.147 209.907 198.147C209.313 198.147 208.826 198.366 208.446 198.803C208.074 199.232 207.888 199.805 207.888 200.521V203.626H208.017C208.425 203.626 208.729 203.726 208.93 203.927C209.13 204.12 209.23 204.414 209.23 204.808C209.23 205.23 209.127 205.535 208.919 205.721C208.711 205.907 208.368 206 207.888 206H205.224C204.744 206 204.4 205.907 204.192 205.721C203.985 205.535 203.881 205.23 203.881 204.808C203.881 204.414 203.981 204.12 204.182 203.927C204.382 203.726 204.687 203.626 205.095 203.626H205.224V198.427H205.041C204.654 198.427 204.361 198.33 204.16 198.137C203.96 197.936 203.859 197.646 203.859 197.267C203.859 196.844 203.963 196.54 204.171 196.354C204.379 196.167 204.729 196.074 205.224 196.074H207.05C207.25 196.074 207.401 196.114 207.501 196.192C207.608 196.271 207.662 196.386 207.662 196.536V197.374C207.992 196.858 208.41 196.472 208.919 196.214C209.435 195.949 210.029 195.816 210.702 195.816C211.848 195.816 212.7 196.164 213.259 196.858C213.825 197.553 214.107 198.613 214.107 200.038V203.626ZM224.312 203.647H226.622C227.116 203.647 227.467 203.737 227.675 203.916C227.882 204.095 227.986 204.392 227.986 204.808C227.986 205.23 227.879 205.535 227.664 205.721C227.456 205.907 227.109 206 226.622 206H219.36C218.873 206 218.522 205.907 218.308 205.721C218.1 205.535 217.996 205.23 217.996 204.808C217.996 204.392 218.096 204.095 218.297 203.916C218.505 203.737 218.859 203.647 219.36 203.647H221.67V198.427H220.456C219.976 198.427 219.632 198.337 219.425 198.158C219.217 197.972 219.113 197.668 219.113 197.245C219.113 196.823 219.214 196.522 219.414 196.343C219.615 196.164 219.962 196.074 220.456 196.074H223.689C223.89 196.074 224.044 196.117 224.151 196.203C224.259 196.282 224.312 196.393 224.312 196.536V203.647ZM222.766 191.219C223.288 191.219 223.636 191.319 223.808 191.52C223.979 191.72 224.065 192.2 224.065 192.959C224.065 193.689 223.987 194.144 223.829 194.323C223.679 194.495 223.317 194.581 222.744 194.581C222.186 194.581 221.824 194.499 221.659 194.334C221.502 194.169 221.423 193.84 221.423 193.346C221.423 192.429 221.505 191.845 221.67 191.595C221.835 191.344 222.2 191.219 222.766 191.219ZM240.533 203.626H240.673C241.074 203.626 241.375 203.726 241.575 203.927C241.776 204.12 241.876 204.414 241.876 204.808C241.876 205.23 241.772 205.535 241.564 205.721C241.364 205.907 241.02 206 240.533 206H237.891C237.411 206 237.063 205.907 236.849 205.721C236.641 205.535 236.537 205.23 236.537 204.808C236.537 204.414 236.637 204.12 236.838 203.927C237.046 203.726 237.354 203.626 237.762 203.626H237.891V200.521C237.891 199.662 237.769 199.053 237.525 198.695C237.289 198.33 236.892 198.147 236.333 198.147C235.739 198.147 235.252 198.366 234.872 198.803C234.5 199.232 234.313 199.805 234.313 200.521V203.626H234.442C234.851 203.626 235.155 203.726 235.355 203.927C235.556 204.12 235.656 204.414 235.656 204.808C235.656 205.23 235.552 205.535 235.345 205.721C235.137 205.907 234.793 206 234.313 206H231.649C231.17 206 230.826 205.907 230.618 205.721C230.41 205.535 230.307 205.23 230.307 204.808C230.307 204.414 230.407 204.12 230.607 203.927C230.808 203.726 231.112 203.626 231.521 203.626H231.649V198.427H231.467C231.08 198.427 230.786 198.33 230.586 198.137C230.385 197.936 230.285 197.646 230.285 197.267C230.285 196.844 230.389 196.54 230.597 196.354C230.804 196.167 231.155 196.074 231.649 196.074H233.476C233.676 196.074 233.826 196.114 233.927 196.192C234.034 196.271 234.088 196.386 234.088 196.536V197.374C234.417 196.858 234.836 196.472 235.345 196.214C235.86 195.949 236.455 195.816 237.128 195.816C238.274 195.816 239.126 196.164 239.685 196.858C240.25 197.553 240.533 198.613 240.533 200.038V203.626ZM248.772 198.083C248.071 198.083 247.487 198.337 247.021 198.846C246.563 199.354 246.334 200.002 246.334 200.79C246.334 201.563 246.563 202.204 247.021 202.713C247.487 203.214 248.071 203.465 248.772 203.465C249.481 203.465 250.065 203.214 250.523 202.713C250.989 202.204 251.222 201.563 251.222 200.79C251.222 200.002 250.989 199.354 250.523 198.846C250.065 198.337 249.481 198.083 248.772 198.083ZM251.437 197.073V196.515C251.437 196.371 251.487 196.264 251.587 196.192C251.694 196.114 251.852 196.074 252.06 196.074H253.811C254.305 196.074 254.652 196.167 254.853 196.354C255.053 196.533 255.153 196.83 255.153 197.245C255.153 197.632 255.053 197.925 254.853 198.126C254.659 198.326 254.373 198.427 253.993 198.427H253.811V205.828C253.811 207.396 253.384 208.535 252.532 209.244C251.68 209.953 250.312 210.308 248.429 210.308C247.261 210.308 246.402 210.193 245.851 209.964C245.306 209.735 245.034 209.373 245.034 208.879C245.034 208.535 245.145 208.256 245.367 208.041C245.589 207.826 245.883 207.719 246.248 207.719C246.341 207.719 246.649 207.751 247.172 207.815C247.695 207.88 248.178 207.912 248.622 207.912C249.646 207.912 250.352 207.719 250.738 207.332C251.132 206.945 251.329 206.251 251.329 205.248V204.765C250.821 205.058 250.316 205.277 249.814 205.42C249.32 205.556 248.805 205.624 248.268 205.624C246.828 205.624 245.65 205.176 244.733 204.281C243.824 203.379 243.369 202.222 243.369 200.812C243.369 199.358 243.845 198.162 244.798 197.224C245.757 196.285 246.982 195.816 248.472 195.816C249.116 195.816 249.682 195.92 250.169 196.128C250.656 196.328 251.078 196.644 251.437 197.073ZM261.438 208.288V194.936H259.837C259.601 194.936 259.414 194.864 259.278 194.721C259.149 194.57 259.085 194.363 259.085 194.098C259.085 193.833 259.149 193.629 259.278 193.485C259.407 193.335 259.586 193.26 259.815 193.26H263.113C263.364 193.26 263.568 193.328 263.726 193.464C263.89 193.6 263.973 193.768 263.973 193.969V209.276C263.973 209.477 263.89 209.645 263.726 209.781C263.568 209.917 263.364 209.985 263.113 209.985H259.815C259.586 209.985 259.407 209.91 259.278 209.76C259.149 209.617 259.085 209.412 259.085 209.147C259.085 208.882 259.149 208.671 259.278 208.514C259.414 208.363 259.601 208.288 259.837 208.288H261.438Z" fill="black"/>
<path d="M165.914 51.6379H241.086V155H165.914V51.6379Z" fill="#FFEB99"/>
<path d="M241.086 51.6379V155H165.914V137.202C194.536 125.532 230.318 101.196 238.098 51.6379H241.086Z" fill="#FFE477"/>
<path d="M184.707 61.0345C184.707 63.1102 183.024 64.7931 180.948 64.7931C178.873 64.7931 177.19 63.1102 177.19 61.0345C177.19 58.9588 178.873 57.2759 180.948 57.2759C183.024 57.2759 184.707 58.9588 184.707 61.0345Z" fill="#FF7956"/>
<path d="M199.741 61.0345C199.741 63.1102 198.058 64.7931 195.983 64.7931C193.907 64.7931 192.224 63.1102 192.224 61.0345C192.224 58.9588 193.907 57.2759 195.983 57.2759C198.058 57.2759 199.741 58.9588 199.741 61.0345Z" fill="#FF7956"/>
<path d="M214.776 61.0345C214.776 63.1102 213.093 64.7931 211.017 64.7931C208.942 64.7931 207.259 63.1102 207.259 61.0345C207.259 58.9588 208.942 57.2759 211.017 57.2759C213.093 57.2759 214.776 58.9588 214.776 61.0345Z" fill="#FF7956"/>
<path d="M229.81 61.0345C229.81 63.1102 228.127 64.7931 226.052 64.7931C223.976 64.7931 222.293 63.1102 222.293 61.0345C222.293 58.9588 223.976 57.2759 226.052 57.2759C228.127 57.2759 229.81 58.9588 229.81 61.0345Z" fill="#FF7956"/>
<path d="M175.31 138.086H231.69V141.845H175.31V138.086Z" fill="#FFC477"/>
<path d="M175.31 123.052H231.69V126.81H175.31V123.052Z" fill="#FFC477"/>
<path d="M175.31 108.017H231.69V111.776H175.31V108.017Z" fill="#FFC477"/>
<path d="M175.31 92.9827H231.69V96.7413H175.31V92.9827Z" fill="#FFC477"/>
<path d="M175.31 77.9482H231.69V81.7069H175.31V77.9482Z" fill="#FFC477"/>
<path d="M179.069 46H182.828V59.1552H179.069V46Z" fill="#FF6243"/>
<path d="M194.103 46H197.862V59.1552H194.103V46Z" fill="#FF6243"/>
<path d="M209.138 46H212.897V59.1552H209.138V46Z" fill="#FF6243"/>
<path d="M224.172 46H227.931V59.1552H224.172V46Z" fill="#FF6243"/>
<defs>
<filter id="filter0_d" x="0" y="0" width="406" height="242" filterUnits="userSpaceOnUse" color-interpolation-filters="sRGB">
<feFlood flood-opacity="0" result="BackgroundImageFix"/>
<feColorMatrix in="SourceAlpha" type="matrix" values="0 0 0 0 0 0 0 0 0 0 0 0 0 0 0 0 0 0 127 0"/>
<feOffset dy="4"/>
<feGaussianBlur stdDeviation="2"/>
<feColorMatrix type="matrix" values="0 0 0 0 0 0 0 0 0 0 0 0 0 0 0 0 0 0 0.25 0"/>
<feBlend mode="normal" in2="BackgroundImageFix" result="effect1_dropShadow"/>
<feBlend mode="normal" in="SourceGraphic" in2="effect1_dropShadow" result="shape"/>
</filter>
</defs>
</svg>
