<svg width="406" height="242" viewBox="0 0 406 242" fill="none" xmlns="http://www.w3.org/2000/svg">
<g filter="url(#filter0_d)">
<rect x="4" width="398" height="234" fill="white"/>
</g>
<path d="M162.542 205.064C161.222 206.428 159.704 207.11 157.988 207.11C156.946 207.11 155.978 206.897 155.084 206.472C154.189 206.032 153.412 205.445 152.752 204.712C152.092 203.979 151.571 203.128 151.19 202.16C150.823 201.192 150.64 200.18 150.64 199.124C150.64 198.068 150.823 197.063 151.19 196.11C151.571 195.157 152.092 194.321 152.752 193.602C153.412 192.883 154.196 192.319 155.106 191.908C156.015 191.483 157.005 191.27 158.076 191.27C159.572 191.27 160.826 191.585 161.838 192.216C162.85 192.832 163.612 193.653 164.126 194.68L162.234 196.044C161.808 195.193 161.222 194.555 160.474 194.13C159.726 193.705 158.904 193.492 158.01 193.492C157.276 193.492 156.609 193.653 156.008 193.976C155.406 194.284 154.893 194.702 154.468 195.23C154.042 195.743 153.712 196.345 153.478 197.034C153.258 197.723 153.148 198.442 153.148 199.19C153.148 199.982 153.272 200.723 153.522 201.412C153.786 202.101 154.138 202.703 154.578 203.216C155.032 203.729 155.568 204.14 156.184 204.448C156.8 204.741 157.467 204.888 158.186 204.888C158.978 204.888 159.733 204.705 160.452 204.338C161.185 203.971 161.882 203.392 162.542 202.6V200.928H159.264V199.102H164.61V207H162.542V205.064ZM170.17 207.22C169.613 207.22 169.092 207.132 168.608 206.956C168.139 206.765 167.728 206.509 167.376 206.186C167.039 205.863 166.767 205.482 166.562 205.042C166.371 204.602 166.276 204.125 166.276 203.612C166.276 203.069 166.393 202.578 166.628 202.138C166.863 201.698 167.193 201.317 167.618 200.994C168.058 200.671 168.571 200.422 169.158 200.246C169.759 200.07 170.419 199.982 171.138 199.982C171.681 199.982 172.216 200.033 172.744 200.136C173.272 200.224 173.749 200.349 174.174 200.51V199.718C174.174 198.867 173.932 198.207 173.448 197.738C172.964 197.254 172.267 197.012 171.358 197.012C170.742 197.012 170.133 197.129 169.532 197.364C168.945 197.584 168.337 197.907 167.706 198.332L166.958 196.792C168.439 195.795 169.979 195.296 171.578 195.296C173.162 195.296 174.394 195.699 175.274 196.506C176.154 197.313 176.594 198.471 176.594 199.982V204.14C176.594 204.653 176.807 204.917 177.232 204.932V207C176.997 207.044 176.792 207.073 176.616 207.088C176.455 207.103 176.293 207.11 176.132 207.11C175.663 207.11 175.296 206.993 175.032 206.758C174.783 206.523 174.629 206.223 174.57 205.856L174.504 205.13C173.991 205.805 173.353 206.325 172.59 206.692C171.842 207.044 171.035 207.22 170.17 207.22ZM170.83 205.438C171.417 205.438 171.967 205.335 172.48 205.13C173.008 204.91 173.419 204.609 173.712 204.228C174.02 203.964 174.174 203.685 174.174 203.392V201.874C173.763 201.713 173.323 201.588 172.854 201.5C172.399 201.412 171.952 201.368 171.512 201.368C170.647 201.368 169.935 201.559 169.378 201.94C168.835 202.307 168.564 202.798 168.564 203.414C168.564 203.986 168.777 204.47 169.202 204.866C169.627 205.247 170.17 205.438 170.83 205.438ZM197.13 207H194.71V200.554C194.71 199.483 194.534 198.699 194.182 198.2C193.83 197.701 193.317 197.452 192.642 197.452C191.953 197.452 191.322 197.709 190.75 198.222C190.193 198.721 189.789 199.373 189.54 200.18V207H187.12V200.554C187.12 199.469 186.944 198.684 186.592 198.2C186.24 197.701 185.734 197.452 185.074 197.452C184.385 197.452 183.754 197.701 183.182 198.2C182.61 198.699 182.199 199.351 181.95 200.158V207H179.53V195.494H181.73V197.804C182.185 196.997 182.779 196.381 183.512 195.956C184.26 195.516 185.111 195.296 186.064 195.296C187.017 195.296 187.765 195.545 188.308 196.044C188.865 196.543 189.21 197.166 189.342 197.914C189.826 197.063 190.435 196.418 191.168 195.978C191.901 195.523 192.737 195.296 193.676 195.296C194.351 195.296 194.908 195.428 195.348 195.692C195.803 195.941 196.162 196.279 196.426 196.704C196.69 197.129 196.873 197.628 196.976 198.2C197.079 198.757 197.13 199.351 197.13 199.982V207ZM205.133 207.22C204.238 207.22 203.424 207.066 202.691 206.758C201.957 206.435 201.327 206.003 200.799 205.46C200.285 204.917 199.882 204.287 199.589 203.568C199.31 202.849 199.171 202.087 199.171 201.28C199.171 200.473 199.31 199.711 199.589 198.992C199.882 198.259 200.285 197.621 200.799 197.078C201.327 196.521 201.957 196.088 202.691 195.78C203.424 195.457 204.245 195.296 205.155 195.296C206.049 195.296 206.856 195.457 207.575 195.78C208.308 196.103 208.931 196.535 209.445 197.078C209.958 197.606 210.347 198.229 210.611 198.948C210.889 199.652 211.029 200.393 211.029 201.17C211.029 201.346 211.021 201.515 211.007 201.676C210.992 201.823 210.977 201.947 210.963 202.05H201.745C201.789 202.563 201.906 203.025 202.097 203.436C202.302 203.847 202.559 204.206 202.867 204.514C203.189 204.807 203.549 205.035 203.945 205.196C204.355 205.357 204.781 205.438 205.221 205.438C205.543 205.438 205.859 205.401 206.167 205.328C206.489 205.24 206.783 205.123 207.047 204.976C207.311 204.815 207.545 204.624 207.751 204.404C207.956 204.184 208.117 203.942 208.235 203.678L210.303 204.272C209.907 205.137 209.247 205.849 208.323 206.406C207.413 206.949 206.35 207.22 205.133 207.22ZM208.631 200.378C208.587 199.894 208.462 199.447 208.257 199.036C208.066 198.625 207.817 198.281 207.509 198.002C207.201 197.709 206.841 197.481 206.431 197.32C206.02 197.159 205.587 197.078 205.133 197.078C204.678 197.078 204.245 197.159 203.835 197.32C203.439 197.481 203.087 197.709 202.779 198.002C202.471 198.281 202.221 198.625 202.031 199.036C201.84 199.447 201.723 199.894 201.679 200.378H208.631ZM219.537 207.22C218.613 207.22 217.799 207 217.095 206.56C216.391 206.12 215.833 205.548 215.423 204.844V211.686H213.003V195.494H215.137V197.562C215.577 196.873 216.141 196.323 216.831 195.912C217.535 195.501 218.327 195.296 219.207 195.296C219.999 195.296 220.725 195.457 221.385 195.78C222.045 196.103 222.617 196.535 223.101 197.078C223.585 197.621 223.959 198.251 224.223 198.97C224.501 199.689 224.641 200.444 224.641 201.236C224.641 202.072 224.516 202.857 224.267 203.59C224.017 204.309 223.665 204.939 223.211 205.482C222.756 206.01 222.213 206.435 221.583 206.758C220.967 207.066 220.285 207.22 219.537 207.22ZM218.745 205.152C219.258 205.152 219.72 205.042 220.131 204.822C220.556 204.602 220.915 204.309 221.209 203.942C221.517 203.575 221.751 203.157 221.913 202.688C222.074 202.219 222.155 201.735 222.155 201.236C222.155 200.708 222.059 200.209 221.869 199.74C221.693 199.271 221.443 198.86 221.121 198.508C220.813 198.156 220.439 197.877 219.999 197.672C219.559 197.467 219.082 197.364 218.569 197.364C218.261 197.364 217.938 197.423 217.601 197.54C217.263 197.657 216.948 197.819 216.655 198.024C216.361 198.229 216.105 198.471 215.885 198.75C215.665 199.014 215.511 199.307 215.423 199.63V202.644C215.569 202.996 215.76 203.326 215.995 203.634C216.229 203.942 216.486 204.206 216.765 204.426C217.058 204.646 217.373 204.822 217.711 204.954C218.048 205.086 218.393 205.152 218.745 205.152ZM226.839 190.94H229.259V203.678C229.259 204.103 229.369 204.441 229.589 204.69C229.809 204.925 230.117 205.042 230.513 205.042C230.675 205.042 230.858 205.013 231.063 204.954C231.283 204.895 231.489 204.829 231.679 204.756L232.031 206.648C231.679 206.809 231.261 206.934 230.777 207.022C230.293 207.125 229.861 207.176 229.479 207.176C228.643 207.176 227.991 206.949 227.521 206.494C227.067 206.039 226.839 205.394 226.839 204.558V190.94ZM236.492 207.22C235.935 207.22 235.414 207.132 234.93 206.956C234.461 206.765 234.05 206.509 233.698 206.186C233.361 205.863 233.09 205.482 232.884 205.042C232.694 204.602 232.598 204.125 232.598 203.612C232.598 203.069 232.716 202.578 232.95 202.138C233.185 201.698 233.515 201.317 233.94 200.994C234.38 200.671 234.894 200.422 235.48 200.246C236.082 200.07 236.742 199.982 237.46 199.982C238.003 199.982 238.538 200.033 239.066 200.136C239.594 200.224 240.071 200.349 240.496 200.51V199.718C240.496 198.867 240.254 198.207 239.77 197.738C239.286 197.254 238.59 197.012 237.68 197.012C237.064 197.012 236.456 197.129 235.854 197.364C235.268 197.584 234.659 197.907 234.028 198.332L233.28 196.792C234.762 195.795 236.302 195.296 237.9 195.296C239.484 195.296 240.716 195.699 241.596 196.506C242.476 197.313 242.916 198.471 242.916 199.982V204.14C242.916 204.653 243.129 204.917 243.554 204.932V207C243.32 207.044 243.114 207.073 242.938 207.088C242.777 207.103 242.616 207.11 242.454 207.11C241.985 207.11 241.618 206.993 241.354 206.758C241.105 206.523 240.951 206.223 240.892 205.856L240.826 205.13C240.313 205.805 239.675 206.325 238.912 206.692C238.164 207.044 237.358 207.22 236.492 207.22ZM237.152 205.438C237.739 205.438 238.289 205.335 238.802 205.13C239.33 204.91 239.741 204.609 240.034 204.228C240.342 203.964 240.496 203.685 240.496 203.392V201.874C240.086 201.713 239.646 201.588 239.176 201.5C238.722 201.412 238.274 201.368 237.834 201.368C236.969 201.368 236.258 201.559 235.7 201.94C235.158 202.307 234.886 202.798 234.886 203.414C234.886 203.986 235.099 204.47 235.524 204.866C235.95 205.247 236.492 205.438 237.152 205.438ZM245.969 209.706C246.189 209.75 246.402 209.787 246.607 209.816C246.827 209.845 247.003 209.86 247.135 209.86C247.326 209.86 247.487 209.816 247.619 209.728C247.766 209.655 247.912 209.515 248.059 209.31C248.206 209.105 248.352 208.811 248.499 208.43C248.66 208.063 248.844 207.587 249.049 207L244.319 195.494H246.805L250.369 204.866L253.537 195.494H255.825L250.611 209.662C250.376 210.322 249.966 210.872 249.379 211.312C248.807 211.767 248.066 211.994 247.157 211.994C246.981 211.994 246.798 211.979 246.607 211.95C246.416 211.935 246.204 211.891 245.969 211.818V209.706Z" fill="black"/>
<g clip-path="url(#clip0)">
<path d="M257 103.057C257 104.13 256.966 105.208 256.901 106.28C256.782 108.267 256.555 110.225 256.228 112.148C256.205 112.281 256.182 112.414 256.159 112.545C252.344 133.924 235.952 150.942 214.918 155.679C211.722 156.401 208.419 156.838 205.038 156.96C204.344 156.988 203.645 157 202.943 157C201.914 157 200.884 156.97 199.855 156.909C198.074 156.808 196.298 156.618 194.537 156.337C191.842 155.911 189.179 155.287 186.578 154.458C185.083 153.979 183.606 153.437 182.157 152.827C162.662 144.667 148.977 125.397 149 102.943C149.031 73.1209 173.235 48.9686 203.057 48.9999C229.66 49.0271 251.752 68.29 256.186 93.6198C256.426 95.1845 256.665 96.75 256.8 98.328C256.873 99.1907 256.928 100.055 256.96 100.92C256.988 101.633 257 102.344 257 103.057Z" fill="#FF39B0"/>
<path d="M256.159 112.545C252.345 133.924 235.952 150.942 214.918 155.679C211.723 156.401 208.419 156.838 205.038 156.96L180.263 132.236L176.603 108.338L173.469 105.28L178.896 96.8424L191.056 79.183L197.235 85.3554L207.103 76.7341L213.11 82.7417L222.919 79.3058L256.159 112.545Z" fill="#D43F87"/>
<path d="M199.836 82.9214H206.164V103.638H199.836V82.9214Z" fill="#808AFF"/>
<path d="M203 82.9214H206.164V103.638H203V82.9214Z" fill="#666ECC"/>
<path d="M203 90.5283C199.796 90.5283 197.199 87.9311 197.199 84.7275V80.8351C197.199 77.6315 199.796 75.0343 203 75.0343C206.204 75.0343 208.801 77.6315 208.801 80.8351V84.7275C208.801 87.9311 206.204 90.5283 203 90.5283Z" fill="#5C6B99"/>
<path d="M203 75.0343V90.5283C206.204 90.5283 208.801 87.9311 208.801 84.7275V80.8351C208.801 77.6315 206.204 75.0343 203 75.0343Z" fill="#455373"/>
<path d="M183.448 84.3345L189.395 86.4991L182.31 105.966L176.363 103.802L183.448 84.3345Z" fill="#808AFF"/>
<path d="M179.335 104.883L186.42 85.4155L189.394 86.4982L182.308 105.965L179.335 104.883Z" fill="#666ECC"/>
<path d="M183.819 92.5652C180.809 91.4701 179.256 88.1413 180.352 85.1305L181.683 81.4728C182.779 78.4629 186.108 76.9105 189.118 78.0064C192.128 79.1023 193.681 82.4303 192.585 85.4411L191.253 89.0987C190.158 92.1095 186.829 93.6611 183.819 92.5652Z" fill="#5C6B99"/>
<path d="M189.118 78.0063L183.819 92.5652C186.83 93.661 190.158 92.1095 191.253 89.0987L192.585 85.4411C193.681 82.4303 192.128 79.1022 189.118 78.0063Z" fill="#455373"/>
<path d="M216.606 86.5007L222.553 84.3369L229.637 103.804L223.691 105.968L216.606 86.5007Z" fill="#808AFF"/>
<path d="M219.579 85.4188L222.553 84.3369L229.637 103.804L226.665 104.886L219.579 85.4188Z" fill="#666ECC"/>
<path d="M222.181 92.5652C219.171 93.6611 215.843 92.1095 214.747 89.0987L213.415 85.4411C212.319 82.4303 213.872 79.1014 216.882 78.0064C219.893 76.9105 223.221 78.4629 224.317 81.4728L225.649 85.1305C226.744 88.1413 225.192 91.4701 222.181 92.5652V92.5652Z" fill="#5C6B99"/>
<path d="M216.882 78.0064L222.181 92.5652C225.192 91.4701 226.744 88.1413 225.649 85.1305L224.317 81.4728C223.221 78.4629 219.892 76.9105 216.882 78.0064Z" fill="#455373"/>
<path d="M225.738 132.236H180.263L175.578 101.65H230.422L225.738 132.236Z" fill="#45E595"/>
<path d="M203 101.65V132.236H225.738L230.422 101.65H203Z" fill="#39BF7C"/>
<path d="M173.469 96.8416H232.531V105.279H173.469V96.8416Z" fill="white"/>
<path d="M203 96.8416H232.531V105.279H203V96.8416Z" fill="#EBEBEB"/>
</g>
<defs>
<filter id="filter0_d" x="0" y="0" width="406" height="242" filterUnits="userSpaceOnUse" color-interpolation-filters="sRGB">
<feFlood flood-opacity="0" result="BackgroundImageFix"/>
<feColorMatrix in="SourceAlpha" type="matrix" values="0 0 0 0 0 0 0 0 0 0 0 0 0 0 0 0 0 0 127 0"/>
<feOffset dy="4"/>
<feGaussianBlur stdDeviation="2"/>
<feColorMatrix type="matrix" values="0 0 0 0 0 0 0 0 0 0 0 0 0 0 0 0 0 0 0.25 0"/>
<feBlend mode="normal" in2="BackgroundImageFix" result="effect1_dropShadow"/>
<feBlend mode="normal" in="SourceGraphic" in2="effect1_dropShadow" result="shape"/>
</filter>
<clipPath id="clip0">
<rect width="108" height="108" fill="white" transform="translate(149 49)"/>
</clipPath>
</defs>
</svg>
