<svg width="512" height="661" viewBox="0 0 512 661" fill="none" xmlns="http://www.w3.org/2000/svg">
<path d="M40.6953 647.518L48.0078 626.406H51.6992L42.207 652H39.2188L29.7441 626.406H33.418L40.6953 647.518ZM52.9648 642.314C52.9648 640.451 53.3281 638.775 54.0547 637.287C54.793 635.799 55.8125 634.65 57.1133 633.842C58.4258 633.033 59.9199 632.629 61.5957 632.629C64.1855 632.629 66.2773 633.525 67.8711 635.318C69.4766 637.111 70.2793 639.496 70.2793 642.473V642.701C70.2793 644.553 69.9219 646.217 69.207 647.693C68.5039 649.158 67.4902 650.301 66.166 651.121C64.8535 651.941 63.3418 652.352 61.6309 652.352C59.0527 652.352 56.9609 651.455 55.3555 649.662C53.7617 647.869 52.9648 645.496 52.9648 642.543V642.314ZM56.2344 642.701C56.2344 644.811 56.7207 646.504 57.6934 647.781C58.6777 649.059 59.9902 649.697 61.6309 649.697C63.2832 649.697 64.5957 649.053 65.5684 647.764C66.541 646.463 67.0273 644.646 67.0273 642.314C67.0273 640.229 66.5293 638.541 65.5332 637.252C64.5488 635.951 63.2363 635.301 61.5957 635.301C59.9902 635.301 58.6953 635.939 57.7109 637.217C56.7266 638.494 56.2344 640.322 56.2344 642.701ZM77.8906 652H74.6387V632.98H77.8906V652ZM74.375 627.936C74.375 627.408 74.5332 626.963 74.8496 626.6C75.1777 626.236 75.6582 626.055 76.291 626.055C76.9238 626.055 77.4043 626.236 77.7324 626.6C78.0605 626.963 78.2246 627.408 78.2246 627.936C78.2246 628.463 78.0605 628.902 77.7324 629.254C77.4043 629.605 76.9238 629.781 76.291 629.781C75.6582 629.781 75.1777 629.605 74.8496 629.254C74.5332 628.902 74.375 628.463 74.375 627.936ZM90.7402 649.697C91.9004 649.697 92.9141 649.346 93.7812 648.643C94.6484 647.939 95.1289 647.061 95.2227 646.006H98.2988C98.2402 647.096 97.8652 648.133 97.1738 649.117C96.4824 650.102 95.5566 650.887 94.3965 651.473C93.248 652.059 92.0293 652.352 90.7402 652.352C88.1504 652.352 86.0879 651.49 84.5527 649.768C83.0293 648.033 82.2676 645.666 82.2676 642.666V642.121C82.2676 640.27 82.6074 638.623 83.2871 637.182C83.9668 635.74 84.9395 634.621 86.2051 633.824C87.4824 633.027 88.9883 632.629 90.7227 632.629C92.8555 632.629 94.625 633.268 96.0312 634.545C97.4492 635.822 98.2051 637.48 98.2988 639.52H95.2227C95.1289 638.289 94.6602 637.281 93.8164 636.496C92.9844 635.699 91.9531 635.301 90.7227 635.301C89.0703 635.301 87.7871 635.898 86.873 637.094C85.9707 638.277 85.5195 639.994 85.5195 642.244V642.859C85.5195 645.051 85.9707 646.738 86.873 647.922C87.7754 649.105 89.0645 649.697 90.7402 649.697ZM109.848 652.352C107.27 652.352 105.172 651.508 103.555 649.82C101.938 648.121 101.129 645.854 101.129 643.018V642.42C101.129 640.533 101.486 638.852 102.201 637.375C102.928 635.887 103.936 634.727 105.225 633.895C106.525 633.051 107.932 632.629 109.443 632.629C111.916 632.629 113.838 633.443 115.209 635.072C116.58 636.701 117.266 639.033 117.266 642.068V643.422H104.381C104.428 645.297 104.973 646.814 106.016 647.975C107.07 649.123 108.406 649.697 110.023 649.697C111.172 649.697 112.145 649.463 112.941 648.994C113.738 648.525 114.436 647.904 115.033 647.131L117.02 648.678C115.426 651.127 113.035 652.352 109.848 652.352ZM109.443 635.301C108.131 635.301 107.029 635.781 106.139 636.742C105.248 637.691 104.697 639.027 104.486 640.75H114.014V640.504C113.92 638.852 113.475 637.574 112.678 636.672C111.881 635.758 110.803 635.301 109.443 635.301ZM139.871 641.646H133.859V652H130.467V626.406H138.939C141.822 626.406 144.037 627.062 145.584 628.375C147.143 629.688 147.922 631.598 147.922 634.105C147.922 635.699 147.488 637.088 146.621 638.271C145.766 639.455 144.57 640.34 143.035 640.926L149.047 651.789V652H145.426L139.871 641.646ZM133.859 638.887H139.045C140.721 638.887 142.051 638.453 143.035 637.586C144.031 636.719 144.529 635.559 144.529 634.105C144.529 632.523 144.055 631.311 143.105 630.467C142.168 629.623 140.809 629.195 139.027 629.184H133.859V638.887ZM160.051 652.352C157.473 652.352 155.375 651.508 153.758 649.82C152.141 648.121 151.332 645.854 151.332 643.018V642.42C151.332 640.533 151.689 638.852 152.404 637.375C153.131 635.887 154.139 634.727 155.428 633.895C156.729 633.051 158.135 632.629 159.646 632.629C162.119 632.629 164.041 633.443 165.412 635.072C166.783 636.701 167.469 639.033 167.469 642.068V643.422H154.584C154.631 645.297 155.176 646.814 156.219 647.975C157.273 649.123 158.609 649.697 160.227 649.697C161.375 649.697 162.348 649.463 163.145 648.994C163.941 648.525 164.639 647.904 165.236 647.131L167.223 648.678C165.629 651.127 163.238 652.352 160.051 652.352ZM159.646 635.301C158.334 635.301 157.232 635.781 156.342 636.742C155.451 637.691 154.9 639.027 154.689 640.75H164.217V640.504C164.123 638.852 163.678 637.574 162.881 636.672C162.084 635.758 161.006 635.301 159.646 635.301ZM178.877 649.697C180.037 649.697 181.051 649.346 181.918 648.643C182.785 647.939 183.266 647.061 183.359 646.006H186.436C186.377 647.096 186.002 648.133 185.311 649.117C184.619 650.102 183.693 650.887 182.533 651.473C181.385 652.059 180.166 652.352 178.877 652.352C176.287 652.352 174.225 651.49 172.689 649.768C171.166 648.033 170.404 645.666 170.404 642.666V642.121C170.404 640.27 170.744 638.623 171.424 637.182C172.104 635.74 173.076 634.621 174.342 633.824C175.619 633.027 177.125 632.629 178.859 632.629C180.992 632.629 182.762 633.268 184.168 634.545C185.586 635.822 186.342 637.48 186.436 639.52H183.359C183.266 638.289 182.797 637.281 181.953 636.496C181.121 635.699 180.09 635.301 178.859 635.301C177.207 635.301 175.924 635.898 175.01 637.094C174.107 638.277 173.656 639.994 173.656 642.244V642.859C173.656 645.051 174.107 646.738 175.01 647.922C175.912 649.105 177.201 649.697 178.877 649.697ZM189.23 642.314C189.23 640.451 189.594 638.775 190.32 637.287C191.059 635.799 192.078 634.65 193.379 633.842C194.691 633.033 196.186 632.629 197.861 632.629C200.451 632.629 202.543 633.525 204.137 635.318C205.742 637.111 206.545 639.496 206.545 642.473V642.701C206.545 644.553 206.188 646.217 205.473 647.693C204.77 649.158 203.756 650.301 202.432 651.121C201.119 651.941 199.607 652.352 197.896 652.352C195.318 652.352 193.227 651.455 191.621 649.662C190.027 647.869 189.23 645.496 189.23 642.543V642.314ZM192.5 642.701C192.5 644.811 192.986 646.504 193.959 647.781C194.943 649.059 196.256 649.697 197.896 649.697C199.549 649.697 200.861 649.053 201.834 647.764C202.807 646.463 203.293 644.646 203.293 642.314C203.293 640.229 202.795 638.541 201.799 637.252C200.814 635.951 199.502 635.301 197.861 635.301C196.256 635.301 194.961 635.939 193.977 637.217C192.992 638.494 192.5 640.322 192.5 642.701ZM209.85 642.332C209.85 639.367 210.535 637.012 211.906 635.266C213.277 633.508 215.094 632.629 217.355 632.629C219.676 632.629 221.486 633.449 222.787 635.09L222.945 632.98H225.916V651.543C225.916 654.004 225.184 655.943 223.719 657.361C222.266 658.779 220.309 659.488 217.848 659.488C216.477 659.488 215.135 659.195 213.822 658.609C212.51 658.023 211.508 657.221 210.816 656.201L212.504 654.25C213.898 655.973 215.604 656.834 217.619 656.834C219.201 656.834 220.432 656.389 221.311 655.498C222.201 654.607 222.646 653.354 222.646 651.736V650.102C221.346 651.602 219.57 652.352 217.32 652.352C215.094 652.352 213.289 651.455 211.906 649.662C210.535 647.869 209.85 645.426 209.85 642.332ZM213.119 642.701C213.119 644.846 213.559 646.533 214.438 647.764C215.316 648.982 216.547 649.592 218.129 649.592C220.18 649.592 221.686 648.66 222.646 646.797V638.113C221.65 636.297 220.156 635.389 218.164 635.389C216.582 635.389 215.346 636.004 214.455 637.234C213.564 638.465 213.119 640.287 213.119 642.701ZM233.914 632.98L234.02 635.371C235.473 633.543 237.371 632.629 239.715 632.629C243.734 632.629 245.762 634.896 245.797 639.432V652H242.545V639.414C242.533 638.043 242.217 637.029 241.596 636.373C240.986 635.717 240.031 635.389 238.73 635.389C237.676 635.389 236.75 635.67 235.953 636.232C235.156 636.795 234.535 637.533 234.09 638.447V652H230.838V632.98H233.914ZM254.234 652H250.982V632.98H254.234V652ZM250.719 627.936C250.719 627.408 250.877 626.963 251.193 626.6C251.521 626.236 252.002 626.055 252.635 626.055C253.268 626.055 253.748 626.236 254.076 626.6C254.404 626.963 254.568 627.408 254.568 627.936C254.568 628.463 254.404 628.902 254.076 629.254C253.748 629.605 253.268 629.781 252.635 629.781C252.002 629.781 251.521 629.605 251.193 629.254C250.877 628.902 250.719 628.463 250.719 627.936ZM263.867 628.375V632.98H267.418V635.494H263.867V647.289C263.867 648.051 264.025 648.625 264.342 649.012C264.658 649.387 265.197 649.574 265.959 649.574C266.334 649.574 266.85 649.504 267.506 649.363V652C266.65 652.234 265.818 652.352 265.01 652.352C263.557 652.352 262.461 651.912 261.723 651.033C260.984 650.154 260.615 648.906 260.615 647.289V635.494H257.152V632.98H260.615V628.375H263.867ZM274.766 652H271.514V632.98H274.766V652ZM271.25 627.936C271.25 627.408 271.408 626.963 271.725 626.6C272.053 626.236 272.533 626.055 273.166 626.055C273.799 626.055 274.279 626.236 274.607 626.6C274.936 626.963 275.1 627.408 275.1 627.936C275.1 628.463 274.936 628.902 274.607 629.254C274.279 629.605 273.799 629.781 273.166 629.781C272.533 629.781 272.053 629.605 271.725 629.254C271.408 628.902 271.25 628.463 271.25 627.936ZM279.125 642.314C279.125 640.451 279.488 638.775 280.215 637.287C280.953 635.799 281.973 634.65 283.273 633.842C284.586 633.033 286.08 632.629 287.756 632.629C290.346 632.629 292.438 633.525 294.031 635.318C295.637 637.111 296.439 639.496 296.439 642.473V642.701C296.439 644.553 296.082 646.217 295.367 647.693C294.664 649.158 293.65 650.301 292.326 651.121C291.014 651.941 289.502 652.352 287.791 652.352C285.213 652.352 283.121 651.455 281.516 649.662C279.922 647.869 279.125 645.496 279.125 642.543V642.314ZM282.395 642.701C282.395 644.811 282.881 646.504 283.854 647.781C284.838 649.059 286.15 649.697 287.791 649.697C289.443 649.697 290.756 649.053 291.729 647.764C292.701 646.463 293.188 644.646 293.188 642.314C293.188 640.229 292.689 638.541 291.693 637.252C290.709 635.951 289.396 635.301 287.756 635.301C286.15 635.301 284.855 635.939 283.871 637.217C282.887 638.494 282.395 640.322 282.395 642.701ZM303.594 632.98L303.699 635.371C305.152 633.543 307.051 632.629 309.395 632.629C313.414 632.629 315.441 634.896 315.477 639.432V652H312.225V639.414C312.213 638.043 311.896 637.029 311.275 636.373C310.666 635.717 309.711 635.389 308.41 635.389C307.355 635.389 306.43 635.67 305.633 636.232C304.836 636.795 304.215 637.533 303.77 638.447V652H300.518V632.98H303.594ZM343.936 640.697H333.195V652H329.82V626.406H345.676V629.184H333.195V637.938H343.936V640.697ZM356.715 652.352C354.137 652.352 352.039 651.508 350.422 649.82C348.805 648.121 347.996 645.854 347.996 643.018V642.42C347.996 640.533 348.354 638.852 349.068 637.375C349.795 635.887 350.803 634.727 352.092 633.895C353.393 633.051 354.799 632.629 356.311 632.629C358.783 632.629 360.705 633.443 362.076 635.072C363.447 636.701 364.133 639.033 364.133 642.068V643.422H351.248C351.295 645.297 351.84 646.814 352.883 647.975C353.938 649.123 355.273 649.697 356.891 649.697C358.039 649.697 359.012 649.463 359.809 648.994C360.605 648.525 361.303 647.904 361.9 647.131L363.887 648.678C362.293 651.127 359.902 652.352 356.715 652.352ZM356.311 635.301C354.998 635.301 353.896 635.781 353.006 636.742C352.115 637.691 351.564 639.027 351.354 640.75H360.881V640.504C360.787 638.852 360.342 637.574 359.545 636.672C358.748 635.758 357.67 635.301 356.311 635.301ZM375.805 652.352C373.227 652.352 371.129 651.508 369.512 649.82C367.895 648.121 367.086 645.854 367.086 643.018V642.42C367.086 640.533 367.443 638.852 368.158 637.375C368.885 635.887 369.893 634.727 371.182 633.895C372.482 633.051 373.889 632.629 375.4 632.629C377.873 632.629 379.795 633.443 381.166 635.072C382.537 636.701 383.223 639.033 383.223 642.068V643.422H370.338C370.385 645.297 370.93 646.814 371.973 647.975C373.027 649.123 374.363 649.697 375.98 649.697C377.129 649.697 378.102 649.463 378.898 648.994C379.695 648.525 380.393 647.904 380.99 647.131L382.977 648.678C381.383 651.127 378.992 652.352 375.805 652.352ZM375.4 635.301C374.088 635.301 372.986 635.781 372.096 636.742C371.205 637.691 370.654 639.027 370.443 640.75H379.971V640.504C379.877 638.852 379.432 637.574 378.635 636.672C377.838 635.758 376.76 635.301 375.4 635.301ZM386.211 642.332C386.211 639.414 386.902 637.07 388.285 635.301C389.668 633.52 391.479 632.629 393.717 632.629C395.943 632.629 397.707 633.391 399.008 634.914V625H402.26V652H399.271L399.113 649.961C397.812 651.555 396.002 652.352 393.682 652.352C391.479 652.352 389.68 651.449 388.285 649.645C386.902 647.84 386.211 645.484 386.211 642.578V642.332ZM389.463 642.701C389.463 644.857 389.908 646.545 390.799 647.764C391.689 648.982 392.92 649.592 394.49 649.592C396.553 649.592 398.059 648.666 399.008 646.814V638.078C398.035 636.285 396.541 635.389 394.525 635.389C392.932 635.389 391.689 636.004 390.799 637.234C389.908 638.465 389.463 640.287 389.463 642.701ZM423.424 642.701C423.424 645.607 422.756 647.945 421.42 649.715C420.084 651.473 418.291 652.352 416.041 652.352C413.639 652.352 411.781 651.502 410.469 649.803L410.311 652H407.322V625H410.574V635.072C411.887 633.443 413.697 632.629 416.006 632.629C418.314 632.629 420.125 633.502 421.438 635.248C422.762 636.994 423.424 639.385 423.424 642.42V642.701ZM420.172 642.332C420.172 640.117 419.744 638.406 418.889 637.199C418.033 635.992 416.803 635.389 415.197 635.389C413.053 635.389 411.512 636.385 410.574 638.377V646.604C411.57 648.596 413.123 649.592 415.232 649.592C416.791 649.592 418.004 648.988 418.871 647.781C419.738 646.574 420.172 644.758 420.172 642.332ZM439.279 652C439.092 651.625 438.939 650.957 438.822 649.996C437.311 651.566 435.506 652.352 433.408 652.352C431.533 652.352 429.992 651.824 428.785 650.77C427.59 649.703 426.992 648.355 426.992 646.727C426.992 644.746 427.742 643.211 429.242 642.121C430.754 641.02 432.875 640.469 435.605 640.469H438.77V638.975C438.77 637.838 438.43 636.936 437.75 636.268C437.07 635.588 436.068 635.248 434.744 635.248C433.584 635.248 432.611 635.541 431.826 636.127C431.041 636.713 430.648 637.422 430.648 638.254H427.379C427.379 637.305 427.713 636.391 428.381 635.512C429.061 634.621 429.975 633.918 431.123 633.402C432.283 632.887 433.555 632.629 434.938 632.629C437.129 632.629 438.846 633.18 440.088 634.281C441.33 635.371 441.975 636.877 442.021 638.799V647.553C442.021 649.299 442.244 650.688 442.689 651.719V652H439.279ZM433.883 649.521C434.902 649.521 435.869 649.258 436.783 648.73C437.697 648.203 438.359 647.518 438.77 646.674V642.771H436.221C432.236 642.771 430.244 643.938 430.244 646.27C430.244 647.289 430.584 648.086 431.264 648.66C431.943 649.234 432.816 649.521 433.883 649.521ZM454.748 649.697C455.908 649.697 456.922 649.346 457.789 648.643C458.656 647.939 459.137 647.061 459.23 646.006H462.307C462.248 647.096 461.873 648.133 461.182 649.117C460.49 650.102 459.564 650.887 458.404 651.473C457.256 652.059 456.037 652.352 454.748 652.352C452.158 652.352 450.096 651.49 448.561 649.768C447.037 648.033 446.275 645.666 446.275 642.666V642.121C446.275 640.27 446.615 638.623 447.295 637.182C447.975 635.74 448.947 634.621 450.213 633.824C451.49 633.027 452.996 632.629 454.73 632.629C456.863 632.629 458.633 633.268 460.039 634.545C461.457 635.822 462.213 637.48 462.307 639.52H459.23C459.137 638.289 458.668 637.281 457.824 636.496C456.992 635.699 455.961 635.301 454.73 635.301C453.078 635.301 451.795 635.898 450.881 637.094C449.979 638.277 449.527 639.994 449.527 642.244V642.859C449.527 645.051 449.979 646.738 450.881 647.922C451.783 649.105 453.072 649.697 454.748 649.697ZM471.271 643.193L469.232 645.32V652H465.98V625H469.232V641.33L470.973 639.238L476.896 632.98H480.852L473.451 640.926L481.713 652H477.898L471.271 643.193Z" fill="#424242"/>
<path d="M290.133 8.53516H460.801C484.363 8.53516 503.465 27.6367 503.465 51.1992V170.668C503.465 194.23 484.363 213.332 460.801 213.332H290.133C266.57 213.332 247.465 194.23 247.465 170.668V51.1992C247.465 27.6367 266.57 8.53516 290.133 8.53516V8.53516Z" fill="#CAE4FC"/>
<path d="M290.133 8.53516H435.199C458.766 8.53516 477.867 27.6367 477.867 51.1992V170.668C477.867 194.23 458.766 213.332 435.199 213.332H290.133C266.57 213.332 247.465 194.23 247.465 170.668V51.1992C247.465 27.6367 266.57 8.53516 290.133 8.53516V8.53516Z" fill="#E8EDFC"/>
<path d="M315.734 204.801L307.199 273.066L401.066 204.801" fill="#E8EDFC"/>
<path d="M324.266 110.934C324.266 120.359 316.625 128 307.199 128C297.773 128 290.133 120.359 290.133 110.934C290.133 101.508 297.773 93.8672 307.199 93.8672C316.625 93.8672 324.266 101.508 324.266 110.934Z" fill="#E8EDFC"/>
<path d="M392.535 110.934C392.535 120.359 384.891 128 375.465 128C366.039 128 358.398 120.359 358.398 110.934C358.398 101.508 366.039 93.8672 375.465 93.8672C384.891 93.8672 392.535 101.508 392.535 110.934Z" fill="#E8EDFC"/>
<path d="M460.801 110.934C460.801 120.359 453.16 128 443.734 128C434.309 128 426.668 120.359 426.668 110.934C426.668 101.508 434.309 93.8672 443.734 93.8672C453.16 93.8672 460.801 101.508 460.801 110.934V110.934Z" fill="#E8EDFC"/>
<path d="M247.465 51.1992V170.668C247.465 194.23 266.57 213.332 290.133 213.332H314.668L307.199 273.066L335.359 252.586L340.266 213.332H315.734C292.168 213.332 273.066 194.23 273.066 170.668V51.1992C273.066 27.6367 292.168 8.53516 315.734 8.53516H290.133C266.57 8.53516 247.465 27.6367 247.465 51.1992V51.1992Z" fill="white"/>
<path d="M8.53516 401.066C3.82031 401.066 0 397.246 0 392.535V375.465C0 370.754 3.82031 366.934 8.53516 366.934C13.2461 366.934 17.0664 370.754 17.0664 375.465V392.535C17.0664 397.246 13.2461 401.066 8.53516 401.066Z" fill="url(#paint0_linear)"/>
<path d="M34.1328 409.602C29.4219 409.602 25.6016 405.781 25.6016 401.066V366.934C25.6016 362.219 29.4219 358.398 34.1328 358.398C38.8477 358.398 42.668 362.219 42.668 366.934V401.066C42.668 405.781 38.8477 409.602 34.1328 409.602V409.602Z" fill="url(#paint1_linear)"/>
<path d="M136.535 409.602C131.82 409.602 128 405.781 128 401.066V366.934C128 362.219 131.82 358.398 136.535 358.398C141.246 358.398 145.066 362.219 145.066 366.934V401.066C145.066 405.781 141.246 409.602 136.535 409.602V409.602Z" fill="url(#paint2_linear)"/>
<path d="M68.2656 426.668C63.5547 426.668 59.7344 422.848 59.7344 418.133V349.867C59.7344 345.152 63.5547 341.332 68.2656 341.332C72.9805 341.332 76.8008 345.152 76.8008 349.867V418.133C76.8008 422.848 72.9805 426.668 68.2656 426.668Z" fill="url(#paint3_linear)"/>
<path d="M102.398 426.668C97.6875 426.668 93.8672 422.848 93.8672 418.133V349.867C93.8672 345.152 97.6875 341.332 102.398 341.332C107.113 341.332 110.934 345.152 110.934 349.867V418.133C110.934 422.848 107.113 426.668 102.398 426.668Z" fill="url(#paint4_linear)"/>
<path d="M170.668 443.734C165.953 443.734 162.133 439.914 162.133 435.199V332.801C162.133 328.086 165.953 324.266 170.668 324.266C175.379 324.266 179.199 328.086 179.199 332.801V435.199C179.199 439.914 175.379 443.734 170.668 443.734Z" fill="url(#paint5_linear)"/>
<path d="M204.801 460.801C200.086 460.801 196.266 456.98 196.266 452.266V315.734C196.266 311.02 200.086 307.199 204.801 307.199C209.512 307.199 213.332 311.02 213.332 315.734V452.266C213.332 456.98 209.512 460.801 204.801 460.801V460.801Z" fill="url(#paint6_linear)"/>
<path d="M238.934 512C234.219 512 230.398 508.18 230.398 503.465V264.535C230.398 259.82 234.219 256 238.934 256C243.645 256 247.465 259.82 247.465 264.535V503.465C247.465 508.18 243.645 512 238.934 512Z" fill="url(#paint7_linear)"/>
<path d="M503.465 401.066C498.754 401.066 494.934 397.246 494.934 392.535V375.465C494.934 370.754 498.754 366.934 503.465 366.934C508.18 366.934 512 370.754 512 375.465V392.535C512 397.246 508.18 401.066 503.465 401.066V401.066Z" fill="url(#paint8_linear)"/>
<path d="M477.867 409.602C473.152 409.602 469.332 405.781 469.332 401.066V366.934C469.332 362.219 473.152 358.398 477.867 358.398C482.578 358.398 486.398 362.219 486.398 366.934V401.066C486.398 405.781 482.578 409.602 477.867 409.602V409.602Z" fill="url(#paint9_linear)"/>
<path d="M375.465 409.602C370.754 409.602 366.934 405.781 366.934 401.066V366.934C366.934 362.219 370.754 358.398 375.465 358.398C380.18 358.398 384 362.219 384 366.934V401.066C384 405.781 380.18 409.602 375.465 409.602V409.602Z" fill="url(#paint10_linear)"/>
<path d="M443.734 426.668C439.02 426.668 435.199 422.848 435.199 418.133V349.867C435.199 345.152 439.02 341.332 443.734 341.332C448.445 341.332 452.266 345.152 452.266 349.867V418.133C452.266 422.848 448.445 426.668 443.734 426.668Z" fill="url(#paint11_linear)"/>
<path d="M409.602 426.668C404.887 426.668 401.066 422.848 401.066 418.133V349.867C401.066 345.152 404.887 341.332 409.602 341.332C414.313 341.332 418.133 345.152 418.133 349.867V418.133C418.133 422.848 414.313 426.668 409.602 426.668V426.668Z" fill="url(#paint12_linear)"/>
<path d="M341.332 443.734C336.621 443.734 332.801 439.914 332.801 435.199V332.801C332.801 328.086 336.621 324.266 341.332 324.266C346.047 324.266 349.867 328.086 349.867 332.801V435.199C349.867 439.914 346.047 443.734 341.332 443.734Z" fill="url(#paint13_linear)"/>
<path d="M307.199 460.801C302.488 460.801 298.668 456.98 298.668 452.266V315.734C298.668 311.02 302.488 307.199 307.199 307.199C311.914 307.199 315.734 311.02 315.734 315.734V452.266C315.734 456.98 311.914 460.801 307.199 460.801V460.801Z" fill="url(#paint14_linear)"/>
<path d="M273.066 512C268.355 512 264.535 508.18 264.535 503.465V264.535C264.535 259.82 268.355 256 273.066 256C277.781 256 281.602 259.82 281.602 264.535V503.465C281.602 508.18 277.781 512 273.066 512V512Z" fill="url(#paint15_linear)"/>
<path d="M238.934 170.668V51.1992H256V170.668H238.934Z" fill="white"/>
<path d="M247.465 128C242.754 128 238.934 131.82 238.934 136.535V170.668H256V136.535C256 131.82 252.18 128 247.465 128Z" fill="url(#paint16_linear)"/>
<path d="M256 51.1992H238.934V68.2656C238.934 72.9805 242.754 76.8008 247.465 76.8008C252.18 76.8008 256 72.9805 256 68.2656V51.1992Z" fill="#33B8BB"/>
<path d="M238.934 102.398C238.965 104.66 239.852 106.824 241.406 108.457L242.687 109.484C243.164 109.805 243.68 110.062 244.223 110.25C244.707 110.496 245.227 110.668 245.762 110.762C246.324 110.859 246.894 110.914 247.465 110.934C249.727 110.898 251.891 110.016 253.523 108.457C254.297 107.644 254.906 106.687 255.316 105.644C256.605 102.461 255.902 98.8164 253.523 96.3398C252.711 95.5703 251.754 94.9609 250.711 94.5507C249.684 94.1132 248.582 93.8789 247.465 93.8672C245.195 93.8437 243.012 94.7343 241.406 96.3398C239.801 97.9453 238.91 100.129 238.934 102.398Z" fill="#49BCAD"/>
<path d="M314.711 221.867H290.133C261.867 221.84 238.961 198.934 238.934 170.668C238.934 165.953 242.754 162.133 247.465 162.133C252.18 162.133 256 165.953 256 170.668C256 189.52 271.281 204.801 290.133 204.801H314.711C319.422 204.801 323.242 208.621 323.242 213.332C323.242 218.047 319.422 221.867 314.711 221.867Z" fill="url(#paint17_linear)"/>
<path d="M460.801 221.867H389.375C384.664 221.867 380.844 218.047 380.844 213.332C380.844 208.621 384.664 204.801 389.375 204.801H460.801C479.652 204.801 494.934 189.52 494.934 170.668V51.1992C494.934 32.3477 479.652 17.0664 460.801 17.0664H290.133C271.281 17.0664 256 32.3477 256 51.1992C256 55.9141 252.18 59.7344 247.465 59.7344C242.754 59.7344 238.934 55.9141 238.934 51.1992C238.961 22.9336 261.867 0.0273438 290.133 0H460.801C489.066 0.0273438 511.973 22.9336 512 51.1992V170.668C511.973 198.934 489.066 221.84 460.801 221.867V221.867Z" fill="url(#paint18_linear)"/>
<path d="M307.199 281.602C304.754 281.598 302.422 280.547 300.805 278.715C299.184 276.879 298.43 274.438 298.734 272.008L307.269 203.742C307.953 199.16 312.168 195.957 316.766 196.531C321.363 197.109 324.664 201.246 324.199 205.859L318.113 254.582L396.051 197.898C399.863 195.125 405.199 195.969 407.969 199.781C410.742 203.594 409.898 208.934 406.086 211.703L312.219 279.969C310.758 281.031 309.004 281.602 307.199 281.602Z" fill="url(#paint19_linear)"/>
<path d="M307.199 136.535C293.062 136.535 281.602 125.07 281.602 110.934C281.602 96.793 293.062 85.332 307.199 85.332C321.34 85.332 332.801 96.793 332.801 110.934C332.801 125.07 321.34 136.535 307.199 136.535ZM307.199 102.398C302.488 102.398 298.668 106.219 298.668 110.934C298.668 115.645 302.488 119.465 307.199 119.465C311.914 119.465 315.734 115.645 315.734 110.934C315.734 106.219 311.914 102.398 307.199 102.398V102.398Z" fill="#4BBCAB"/>
<path d="M375.465 136.535C361.328 136.535 349.867 125.07 349.867 110.934C349.867 96.793 361.328 85.332 375.465 85.332C389.605 85.332 401.066 96.793 401.066 110.934C401.066 125.07 389.605 136.535 375.465 136.535V136.535ZM375.465 102.398C370.754 102.398 366.934 106.219 366.934 110.934C366.934 115.645 370.754 119.465 375.465 119.465C380.18 119.465 384 115.645 384 110.934C384 106.219 380.18 102.398 375.465 102.398V102.398Z" fill="#4BBCAB"/>
<path d="M443.734 136.535C429.594 136.535 418.133 125.07 418.133 110.934C418.133 96.793 429.594 85.332 443.734 85.332C457.871 85.332 469.332 96.793 469.332 110.934C469.332 125.07 457.871 136.535 443.734 136.535ZM443.734 102.398C439.02 102.398 435.199 106.219 435.199 110.934C435.199 115.645 439.02 119.465 443.734 119.465C448.445 119.465 452.266 115.645 452.266 110.934C452.266 106.219 448.445 102.398 443.734 102.398Z" fill="#4BBCAB"/>
<defs>
<linearGradient id="paint0_linear" x1="8.5332" y1="366.934" x2="8.5332" y2="401.066" gradientUnits="userSpaceOnUse">
<stop stop-color="#89C880"/>
<stop offset="1" stop-color="#FADD33"/>
</linearGradient>
<linearGradient id="paint1_linear" x1="34.1348" y1="358.398" x2="34.1348" y2="409.602" gradientUnits="userSpaceOnUse">
<stop stop-color="#89C880"/>
<stop offset="1" stop-color="#FADD33"/>
</linearGradient>
<linearGradient id="paint2_linear" x1="136.533" y1="358.398" x2="136.533" y2="409.602" gradientUnits="userSpaceOnUse">
<stop stop-color="#89C880"/>
<stop offset="1" stop-color="#FADD33"/>
</linearGradient>
<linearGradient id="paint3_linear" x1="68.2676" y1="341.332" x2="68.2676" y2="426.668" gradientUnits="userSpaceOnUse">
<stop stop-color="#89C880"/>
<stop offset="1" stop-color="#FADD33"/>
</linearGradient>
<linearGradient id="paint4_linear" x1="102.4" y1="341.332" x2="102.4" y2="426.668" gradientUnits="userSpaceOnUse">
<stop stop-color="#89C880"/>
<stop offset="1" stop-color="#FADD33"/>
</linearGradient>
<linearGradient id="paint5_linear" x1="170.666" y1="324.266" x2="170.666" y2="443.734" gradientUnits="userSpaceOnUse">
<stop stop-color="#89C880"/>
<stop offset="1" stop-color="#FADD33"/>
</linearGradient>
<linearGradient id="paint6_linear" x1="204.799" y1="307.199" x2="204.799" y2="460.801" gradientUnits="userSpaceOnUse">
<stop stop-color="#89C880"/>
<stop offset="1" stop-color="#FADD33"/>
</linearGradient>
<linearGradient id="paint7_linear" x1="238.932" y1="256" x2="238.932" y2="512" gradientUnits="userSpaceOnUse">
<stop stop-color="#89C880"/>
<stop offset="1" stop-color="#FADD33"/>
</linearGradient>
<linearGradient id="paint8_linear" x1="503.467" y1="366.934" x2="503.467" y2="401.066" gradientUnits="userSpaceOnUse">
<stop stop-color="#89C880"/>
<stop offset="1" stop-color="#FADD33"/>
</linearGradient>
<linearGradient id="paint9_linear" x1="477.865" y1="358.398" x2="477.865" y2="409.602" gradientUnits="userSpaceOnUse">
<stop stop-color="#89C880"/>
<stop offset="1" stop-color="#FADD33"/>
</linearGradient>
<linearGradient id="paint10_linear" x1="375.467" y1="358.398" x2="375.467" y2="409.602" gradientUnits="userSpaceOnUse">
<stop stop-color="#89C880"/>
<stop offset="1" stop-color="#FADD33"/>
</linearGradient>
<linearGradient id="paint11_linear" x1="443.732" y1="341.332" x2="443.732" y2="426.668" gradientUnits="userSpaceOnUse">
<stop stop-color="#89C880"/>
<stop offset="1" stop-color="#FADD33"/>
</linearGradient>
<linearGradient id="paint12_linear" x1="409.6" y1="341.332" x2="409.6" y2="426.668" gradientUnits="userSpaceOnUse">
<stop stop-color="#89C880"/>
<stop offset="1" stop-color="#FADD33"/>
</linearGradient>
<linearGradient id="paint13_linear" x1="341.334" y1="324.266" x2="341.334" y2="443.734" gradientUnits="userSpaceOnUse">
<stop stop-color="#89C880"/>
<stop offset="1" stop-color="#FADD33"/>
</linearGradient>
<linearGradient id="paint14_linear" x1="307.201" y1="307.199" x2="307.201" y2="460.801" gradientUnits="userSpaceOnUse">
<stop stop-color="#89C880"/>
<stop offset="1" stop-color="#FADD33"/>
</linearGradient>
<linearGradient id="paint15_linear" x1="273.068" y1="256" x2="273.068" y2="512" gradientUnits="userSpaceOnUse">
<stop stop-color="#89C880"/>
<stop offset="1" stop-color="#FADD33"/>
</linearGradient>
<linearGradient id="paint16_linear" x1="247.467" y1="128" x2="247.467" y2="170.668" gradientUnits="userSpaceOnUse">
<stop stop-color="#5CC09F"/>
<stop offset="1" stop-color="#61C09C"/>
</linearGradient>
<linearGradient id="paint17_linear" x1="281.088" y1="162.133" x2="281.088" y2="221.867" gradientUnits="userSpaceOnUse">
<stop stop-color="#5EC09E"/>
<stop offset="1" stop-color="#86C884"/>
</linearGradient>
<linearGradient id="paint18_linear" x1="375.467" y1="-1.7122e-08" x2="375" y2="222" gradientUnits="userSpaceOnUse">
<stop stop-color="#0DB0D4"/>
<stop offset="1" stop-color="#8AC880"/>
</linearGradient>
<linearGradient id="paint19_linear" x1="354.135" y1="196.265" x2="354.135" y2="281.602" gradientUnits="userSpaceOnUse">
<stop offset="0.9999" stop-color="#8BC97F"/>
<stop offset="1" stop-color="#5A6DEB"/>
</linearGradient>
</defs>
</svg>
