<svg width="360" height="361" viewBox="0 0 360 361" fill="none" xmlns="http://www.w3.org/2000/svg">
<rect width="360" height="360" rx="20" fill="url(#paint0_linear)"/>
<path d="M257.855 356.813H103.144C103.144 356.813 105.189 337.747 116.106 320.261C127.023 302.777 160.418 302.493 160.418 302.493V282.799C165.714 287.815 172.767 290.88 180.505 290.88C188.238 290.88 195.285 287.823 200.582 282.813V302.493C200.582 302.493 233.976 302.777 244.894 320.261C255.811 337.746 257.855 356.813 257.855 356.813Z" fill="#AD57D6"/>
<path d="M200.584 282.813V302.493C200.584 302.493 198.159 317.237 180.5 317.237C162.84 317.237 160.419 302.493 160.419 302.493V282.799C165.716 287.815 172.769 290.881 180.506 290.881C188.239 290.881 195.286 287.823 200.584 282.813Z" fill="#FFD4BE"/>
<path d="M180.5 234.384C168.165 234.384 157.612 236.457 151.286 238.064C154.017 223.916 166.061 213.262 180.5 213.262C188.728 213.262 196.181 216.723 201.572 222.316C205.642 226.538 208.54 231.977 209.717 238.064C203.391 236.457 192.837 234.384 180.5 234.384Z" fill="#FFD4BE"/>
<path d="M201.38 267.569L209.221 268.233C205.74 281.294 194.198 290.88 180.5 290.88C166.804 290.88 155.262 281.294 151.781 268.233L159.619 267.569C163.662 267.228 167.434 265.295 170.122 262.143C170.943 261.18 171.981 260.399 173.083 259.768C177.677 257.129 183.322 257.129 187.92 259.768C189.021 260.399 190.059 261.18 190.877 262.143C193.564 265.295 197.338 267.227 201.38 267.569Z" fill="#FFD4BE"/>
<path d="M180.5 234.383C164.948 234.383 152.227 237.68 147.243 239.181C145.899 239.586 144.976 240.863 144.976 242.315V265.268C144.976 267.176 146.546 268.677 148.379 268.521L159.619 267.569C163.663 267.228 167.435 265.294 170.123 262.142C170.942 261.18 171.98 260.399 173.081 259.767C177.678 257.128 183.321 257.128 187.919 259.767C189.019 260.399 190.057 261.18 190.877 262.142C193.564 265.294 197.337 267.228 201.38 267.569L212.621 268.521C214.453 268.677 216.023 267.176 216.023 265.268V242.315C216.023 240.863 215.102 239.586 213.757 239.181C208.772 237.68 196.053 234.383 180.5 234.383Z" fill="#868EAF"/>
<path d="M144.976 262.719H136.896C135.155 262.719 133.742 261.254 133.742 259.447V247.384C133.742 245.576 135.155 244.112 136.896 244.112H144.976V262.719Z" fill="#DFECFF"/>
<path d="M224.103 262.719H216.023V244.112H224.103C225.846 244.112 227.257 245.577 227.257 247.384V259.447C227.257 261.254 225.845 262.719 224.103 262.719Z" fill="#DFECFF"/>
<path d="M260.98 356.452C260.894 355.642 258.725 336.415 247.532 318.488C246.138 316.256 244.43 314.282 242.501 312.536C242.418 312.455 242.33 312.377 242.24 312.305C230.623 302.024 211.288 299.826 203.729 299.358V284.176C207.098 280.707 209.767 276.474 211.449 271.694L212.366 271.771C212.536 271.785 212.704 271.792 212.874 271.792C214.446 271.792 215.978 271.178 217.141 270.065C218.26 268.996 218.963 267.536 219.128 265.981H224.103C227.577 265.981 230.402 263.049 230.402 259.447V247.384C230.402 243.78 227.577 240.85 224.103 240.85H219.002C218.493 238.59 216.84 236.713 214.634 236.048C214.001 235.858 213.231 235.635 212.339 235.392C210.857 229.584 207.931 224.299 203.795 220.008C197.572 213.555 189.3 210 180.5 210C165.53 210 152.456 220.561 148.665 235.39C147.771 235.634 146.998 235.858 146.364 236.048C144.158 236.713 142.506 238.59 141.998 240.85H136.896C133.424 240.85 130.598 243.78 130.598 247.384V259.447C130.598 263.049 133.424 265.981 136.896 265.981H141.871C142.037 267.536 142.741 268.996 143.859 270.065C145.147 271.297 146.888 271.919 148.634 271.771L149.553 271.694C151.235 276.473 153.904 280.707 157.273 284.175V299.357C148.389 299.907 123.235 302.843 113.467 318.488C102.275 336.415 100.107 355.642 100.019 356.452C99.92 357.375 100.205 358.296 100.801 358.988C101.398 359.678 102.25 360.075 103.144 360.075H135.039H195.132C196.869 360.075 191.987 358.613 191.987 356.813C191.987 355.011 196.869 353.551 195.132 353.551H134.978V347.106C134.978 345.304 133.57 343.844 131.833 343.844C130.096 343.844 128.689 345.304 128.689 347.106V353.551H106.842C107.989 347.354 111.141 334.214 118.745 322.034C119.427 320.942 120.216 319.926 121.087 318.976C123.585 320.777 127.889 324.693 128.721 330.723C128.944 332.35 130.291 333.524 131.83 333.524C131.977 333.524 132.128 333.513 132.278 333.49C133.998 333.236 135.193 331.583 134.946 329.801C133.934 322.452 129.52 317.517 126.133 314.732C136.647 307.784 152.226 306.208 158.094 305.855C158.686 307.509 159.694 309.691 161.371 311.889C164.368 315.816 170.119 320.498 180.5 320.498C190.879 320.498 196.632 315.817 199.63 311.889C201.309 309.69 202.317 307.505 202.91 305.851C205.972 306.032 211.68 306.546 217.958 308.003C223.247 309.233 229.616 311.307 234.85 314.753C231.466 317.541 227.072 322.471 226.061 329.801C225.815 331.583 227.009 333.236 228.729 333.49C228.88 333.513 229.03 333.524 229.179 333.524C230.718 333.524 232.063 332.35 232.288 330.723C233.118 324.702 237.411 320.789 239.911 318.983C240.783 319.93 241.574 320.944 242.254 322.034C249.859 334.214 253.012 347.355 254.158 353.551H232.318V347.106C232.318 345.304 230.911 343.844 229.174 343.844C227.438 343.844 226.029 345.304 226.029 347.106V353.551H195.132C193.396 353.551 191.987 355.011 191.987 356.813C191.987 358.613 193.396 360.075 195.132 360.075H257.855C258.75 360.075 259.602 359.678 260.199 358.988C260.795 358.297 261.08 357.375 260.98 356.452ZM224.113 247.384L224.108 259.457C224.108 259.457 224.107 259.457 224.103 259.457H219.168V247.377L224.113 247.384ZM155.834 233.679C159.865 223.492 169.559 216.523 180.5 216.523C187.62 216.523 194.314 219.399 199.349 224.622C201.872 227.24 203.841 230.313 205.171 233.679C200.382 232.692 194.493 231.777 187.896 231.36C182.964 231.042 178.012 231.046 173.079 231.362C166.494 231.78 160.616 232.693 155.834 233.679ZM173.524 237.867C178.168 237.573 182.829 237.577 187.474 237.867C199.47 238.628 208.953 241.132 212.879 242.314V248.107C206.979 246.138 195.508 243.127 180.501 243.127C165.495 243.127 154.022 246.138 148.121 248.107L148.12 242.314C152.047 241.13 161.529 238.628 173.524 237.867ZM136.887 259.447L136.896 247.373H141.832V259.453L136.887 259.447ZM148.121 265.268V262.724V262.719V255C149.717 254.412 152.275 253.55 155.633 252.695C161.09 251.307 169.833 249.65 180.501 249.65C191.169 249.65 199.912 251.307 205.369 252.695C208.724 253.55 211.283 254.412 212.879 255L212.877 265.27L209.484 264.982C206.919 264.724 204.334 264.63 201.773 264.329C199.419 264.052 197.214 263.352 195.273 261.898C193.181 260.332 191.742 258.233 189.441 256.913C186.683 255.329 183.592 254.539 180.5 254.539C177.408 254.539 174.316 255.33 171.558 256.913C168.742 258.528 166.972 261.4 164.116 262.921C161.719 264.197 159.154 264.336 156.533 264.557L148.121 265.268ZM159.875 270.82C163.908 270.479 167.806 268.781 170.84 266.001C173.733 263.349 175.977 261.203 180.102 261.075C184.26 260.948 186.938 262.841 189.83 265.639C192.926 268.632 196.897 270.463 201.125 270.82L204.891 271.138C201.228 279.737 193.514 285.857 184.552 287.294C180.98 287.86 177.307 287.673 173.809 286.727C173.76 286.714 173.711 286.701 173.662 286.687C169.639 285.574 165.948 283.502 162.871 280.69C160.016 278.082 157.688 274.839 156.111 271.138L159.875 270.82ZM180.5 313.975C174.299 313.975 169.579 311.982 166.467 308.053C164.455 305.512 163.736 302.894 163.564 302.152V289.28C167.456 291.705 171.792 293.264 176.316 293.862C179.073 294.23 181.877 294.233 184.633 293.869C189.176 293.278 193.531 291.719 197.439 289.288V302.151C197.258 302.923 196.534 305.526 194.534 308.053C191.421 311.982 186.699 313.975 180.5 313.975Z" fill="black"/>
<path d="M174.754 279.636H186.554C188.29 279.636 189.699 278.175 189.699 276.375C189.699 274.573 188.29 273.113 186.554 273.113H174.754C173.017 273.113 171.609 274.573 171.609 276.375C171.609 278.175 173.017 279.636 174.754 279.636Z" fill="black"/>
<g filter="url(#filter0_d)">
<path d="M214 116.5C214 134.449 199.449 149 181.5 149C163.551 149 149 134.449 149 116.5C149 98.5505 163.551 84 181.5 84C199.449 84 214 98.5505 214 116.5Z" fill="#1571E6"/>
<path d="M214 116.5C214 114.963 213.891 113.452 213.685 111.972L198.681 96.9686H194.872V99.1754L190.539 94.8302C190.13 94.2773 189.474 93.9167 188.737 93.9167H188.278C187.75 93.9167 187.266 94.1017 186.882 94.4092L185.622 93.0157C185.209 92.5391 184.602 92.2361 183.926 92.2361H183.467C182.276 92.2361 181.296 93.1773 181.228 94.3526L180.811 93.8488C180.4 93.3712 179.793 93.0672 179.116 93.0672H178.657C177.422 93.0672 176.411 94.0779 176.411 95.3132V95.7585L176.028 95.2899C175.616 94.794 174.997 94.4766 174.306 94.4766H173.847C172.612 94.4766 171.601 95.4873 171.601 96.7226V104.842L165.777 99.0474H161.968V107.814L166.816 112.612H165.142V119.187L161.016 115.145H157.208V123.911L165.142 131.667V135.264L178.762 148.884C179.665 148.959 180.578 149 181.5 149C199.449 149 214 134.449 214 116.5Z" fill="#064CAD"/>
<path d="M173.622 113.536H188.661V136.453H173.622V113.536Z" fill="#FFDBA9"/>
<path d="M181.222 113.537H188.661V136.454H181.222V113.537Z" fill="#FFD199"/>
<path d="M184.845 115.45H177.438C174.228 115.45 171.601 112.823 171.601 109.613V100.717C171.601 98.6551 173.288 96.9685 175.349 96.9685H186.935C188.996 96.9685 190.683 98.6551 190.683 100.717V109.613C190.682 112.823 188.056 115.45 184.845 115.45Z" fill="#FFC473"/>
<path d="M190.682 100.716V109.613C190.682 112.823 188.056 115.45 184.845 115.45H181.222V96.968H186.935C188.997 96.968 190.682 98.6556 190.682 100.716Z" fill="#FFC473"/>
<path d="M174.306 104.5H173.847C172.612 104.5 171.601 103.49 171.601 102.254V96.7225C171.601 95.4872 172.612 94.4766 173.847 94.4766H174.306C175.541 94.4766 176.552 95.4872 176.552 96.7225V102.254C176.552 103.49 175.541 104.5 174.306 104.5Z" fill="#FFB74F"/>
<path d="M179.116 103.431H178.657C177.422 103.431 176.411 102.42 176.411 101.184V95.3132C176.411 94.0779 177.422 93.0673 178.657 93.0673H179.116C180.351 93.0673 181.362 94.0779 181.362 95.3132V101.184C181.362 102.42 180.351 103.431 179.116 103.431Z" fill="#FFD199"/>
<path d="M183.927 103.431H183.467C182.232 103.431 181.221 102.42 181.221 101.184V94.4821C181.221 93.2467 182.232 92.2361 183.467 92.2361H183.927C185.162 92.2361 186.172 93.2467 186.172 94.4821V101.185C186.172 102.42 185.162 103.431 183.927 103.431Z" fill="#FFAA20"/>
<path d="M188.737 104.28H188.278C187.042 104.28 186.032 103.27 186.032 102.034V96.1627C186.032 94.9274 187.042 93.9167 188.278 93.9167H188.737C189.972 93.9167 190.983 94.9274 190.983 96.1627V102.034C190.982 103.269 189.972 104.28 188.737 104.28Z" fill="#FFC473"/>
<path d="M180.325 115.492V112.238C180.325 109.449 182.586 107.189 185.375 107.189V105.378C183.032 105.378 180.951 103.88 180.209 101.658L179.947 100.873H186.608C189.114 100.873 191.145 102.905 191.145 105.41V109.857C191.145 112.77 188.783 115.492 185.869 115.492H180.325Z" fill="#FFDBA9"/>
<path d="M191.144 105.411V109.857C191.144 112.77 188.783 115.492 185.868 115.492H181.222V109.366C182.132 108.05 183.653 107.189 185.375 107.189V105.378C184.203 105.378 183.097 105.003 182.192 104.351C181.834 104.093 181.507 103.792 181.222 103.454V100.873H186.608C189.113 100.873 191.144 102.905 191.144 105.411Z" fill="#FFD199"/>
<path d="M173.622 116.433H188.661V140.199H173.622V116.433Z" fill="#FF0335"/>
<path d="M181.222 116.433H188.661V140.199H181.222V116.433Z" fill="#C2001B"/>
<path d="M173.622 121.314H188.661V125.123H173.622V121.314Z" fill="#FFEC97"/>
<path d="M181.222 121.314H188.661V125.123H181.222V121.314Z" fill="#FFDB2D"/>
<path d="M194.872 96.9685H198.681V107.536H194.872V96.9685Z" fill="#FFF5CB"/>
<path d="M200.056 112.611H203.865V126.444H200.056V112.611Z" fill="#FFF5CB"/>
<path d="M191.974 116.127H195.782V129.272H191.974V116.127Z" fill="#FFF5CB"/>
<path d="M191.974 131.764H195.782V136.067H191.974V131.764Z" fill="#FFF5CB"/>
<path d="M161.968 99.0474H165.777V107.814H161.968V99.0474Z" fill="white"/>
<path d="M157.208 115.145H161.016V123.911H157.208V115.145Z" fill="white"/>
<path d="M165.142 112.612H168.951V127.399H165.142V112.612Z" fill="white"/>
<path d="M165.142 129.891H168.951V135.264H165.142V129.891Z" fill="white"/>
</g>
<g filter="url(#filter1_d)">
<path d="M282.5 200C300.449 200 315 185.449 315 167.5C315 149.551 300.449 135 282.5 135C264.551 135 250 149.551 250 167.5C250 185.449 264.551 200 282.5 200Z" fill="#688CFF"/>
<path d="M283.05 199.993C299.874 199.713 313.587 186.652 314.897 170.098L297.398 152.6L291.021 161.313L277.671 147.962L274.877 151.633L286.111 162.867L280.033 168.29L271.023 159.28L262.703 162.42L274.53 174.174L267.759 184.739L283.05 199.993Z" fill="#6F6CFF"/>
<path d="M283.983 185.389V165.602H267.103V183.172C267.103 184.397 268.095 185.389 269.32 185.389H272.811C273.271 185.389 273.549 184.865 273.276 184.494C272.933 184.029 272.73 183.454 272.73 182.831C272.73 181.23 274.067 179.942 275.685 180.021C277.119 180.091 278.293 181.274 278.354 182.709C278.383 183.38 278.175 184.001 277.808 184.498C277.536 184.866 277.818 185.389 278.276 185.389H283.983Z" fill="#FFC61B"/>
<path d="M275.57 165.602V180.022C275.608 180.022 275.646 180.019 275.685 180.021C277.119 180.091 278.293 181.274 278.354 182.709C278.383 183.38 278.175 184.001 277.809 184.498C277.536 184.866 277.818 185.389 278.276 185.389H283.983V165.602H275.57Z" fill="#EAA22F"/>
<path d="M278.331 152.015V168.895H295.901C297.125 168.895 298.118 167.903 298.118 166.679V163.187C298.118 162.727 297.594 162.45 297.223 162.723C296.758 163.066 296.183 163.268 295.56 163.268C293.959 163.268 292.671 161.932 292.75 160.314C292.82 158.879 294.003 157.705 295.438 157.644C296.109 157.616 296.73 157.823 297.227 158.19C297.595 158.462 298.118 158.181 298.118 157.722V154.231C298.118 153.007 297.125 152.015 295.901 152.015H278.331Z" fill="#FEE187"/>
<path d="M295.438 157.644C296.109 157.616 296.73 157.823 297.227 158.19C297.595 158.462 298.118 158.181 298.118 157.723V154.231C298.118 153.007 297.125 152.015 295.901 152.015H289.649V168.895H295.901C297.125 168.895 298.118 167.903 298.118 166.679V163.187C298.118 162.727 297.594 162.45 297.223 162.723C296.758 163.066 296.183 163.268 295.56 163.268C293.959 163.268 292.671 161.932 292.75 160.314C292.82 158.879 294.003 157.705 295.438 157.644Z" fill="#FFC61B"/>
<path d="M281.303 157.644C281.975 157.616 282.595 157.823 283.092 158.19C283.46 158.462 283.983 158.181 283.983 157.722V154.232C283.983 153.007 282.991 152.015 281.766 152.015H278.493C278.063 152.015 277.783 151.551 277.995 151.176C278.271 150.687 278.405 150.106 278.34 149.49C278.202 148.195 277.157 147.145 275.863 147.002C274.166 146.815 272.729 148.139 272.729 149.798C272.729 150.299 272.861 150.769 273.091 151.176C273.303 151.551 273.023 152.015 272.592 152.015H269.319C268.095 152.015 267.103 153.007 267.103 154.231V157.607C267.103 158.058 266.605 158.326 266.226 158.083C265.741 157.772 265.155 157.607 264.528 157.647C263.118 157.739 261.973 158.906 261.905 160.317C261.828 161.933 263.116 163.268 264.715 163.268C265.277 163.268 265.8 163.103 266.238 162.819C266.611 162.577 267.103 162.859 267.103 163.303V166.678C267.103 167.902 268.095 168.895 269.319 168.895H281.766C282.991 168.895 283.983 167.902 283.983 166.678V163.187C283.983 162.726 283.459 162.449 283.089 162.722C282.623 163.065 282.048 163.268 281.425 163.268C279.824 163.268 278.536 161.931 278.615 160.313C278.686 158.879 279.868 157.705 281.303 157.644Z" fill="#EAA22F"/>
<path d="M281.303 157.644C281.975 157.616 282.595 157.823 283.092 158.19C283.46 158.462 283.983 158.181 283.983 157.723V154.231C283.983 153.007 282.991 152.015 281.766 152.015H278.493C278.063 152.015 277.783 151.551 277.995 151.176C278.271 150.687 278.405 150.106 278.34 149.49C278.202 148.195 277.157 147.145 275.863 147.003C275.764 146.992 275.666 146.987 275.57 146.986V168.895H281.767C282.991 168.895 283.983 167.903 283.983 166.679V163.187C283.983 162.727 283.459 162.45 283.089 162.723C282.623 163.066 282.048 163.269 281.425 163.269C279.825 163.269 278.536 161.932 278.615 160.314C278.686 158.879 279.868 157.705 281.303 157.644Z" fill="#E09112"/>
<path d="M292.439 182.709C292.467 183.38 292.26 184.001 291.893 184.498C291.621 184.866 291.902 185.389 292.36 185.389H295.851C297.076 185.389 298.068 184.396 298.068 183.172V179.899C298.068 179.468 298.532 179.189 298.907 179.4C299.396 179.677 299.977 179.811 300.593 179.746C301.888 179.607 302.938 178.563 303.08 177.269C303.268 175.572 301.944 174.135 300.285 174.135C299.784 174.135 299.314 174.267 298.907 174.497C298.532 174.709 298.068 174.429 298.068 173.998V170.725C298.068 169.501 297.076 168.508 295.852 168.508H292.475C292.025 168.508 291.757 168.011 292 167.632C292.31 167.147 292.476 166.561 292.435 165.933C292.343 164.524 291.176 163.379 289.766 163.311C288.149 163.234 286.814 164.522 286.814 166.121C286.814 166.683 286.98 167.205 287.264 167.644C287.505 168.017 287.223 168.508 286.779 168.508H283.404C282.18 168.508 281.188 169.501 281.188 170.725V183.172C281.188 184.397 282.18 185.389 283.404 185.389H286.896C287.356 185.389 287.633 184.865 287.36 184.494C287.017 184.029 286.814 183.454 286.814 182.831C286.814 181.23 288.151 179.942 289.769 180.021C291.204 180.091 292.378 181.274 292.439 182.709Z" fill="#FF5419"/>
<path d="M300.285 174.135C299.783 174.135 299.313 174.267 298.906 174.497C298.532 174.709 298.068 174.429 298.068 173.998V170.725C298.068 169.501 297.076 168.509 295.851 168.509H292.475C292.025 168.509 291.757 168.011 292 167.632C292.31 167.147 292.476 166.561 292.435 165.934C292.343 164.524 291.177 163.379 289.766 163.311C289.751 163.311 289.737 163.312 289.722 163.311V180.022C289.738 180.022 289.753 180.021 289.769 180.021C291.204 180.091 292.378 181.274 292.439 182.709C292.467 183.38 292.26 184.001 291.893 184.498C291.621 184.866 291.902 185.389 292.361 185.389H295.852C297.076 185.389 298.068 184.397 298.068 183.172V179.9C298.068 179.469 298.532 179.189 298.907 179.401C299.396 179.677 299.977 179.812 300.593 179.746C301.888 179.608 302.938 178.563 303.081 177.269C303.267 175.571 301.944 174.135 300.285 174.135Z" fill="#C92F00"/>
</g>
<g clip-path="url(#clip0)" filter="url(#filter2_d)">
<path d="M113 167.534C113 168.18 112.98 168.829 112.94 169.474C112.869 170.67 112.732 171.848 112.535 173.006C112.521 173.086 112.507 173.166 112.494 173.245C110.198 186.111 100.332 196.354 87.6728 199.205C85.7496 199.639 83.7615 199.902 81.7263 199.976C81.3087 199.992 80.8882 200 80.4657 200C79.8463 200 79.2264 199.982 78.607 199.945C77.5353 199.884 76.4667 199.77 75.4064 199.601C73.7843 199.345 72.182 198.969 70.6164 198.47C69.7163 198.182 68.8276 197.856 67.9558 197.489C56.2226 192.577 47.986 180.98 47.9999 167.466C48.0187 149.517 62.5856 134.981 80.5341 135C96.5456 135.016 109.841 146.61 112.51 161.854C112.655 162.796 112.798 163.738 112.879 164.688C112.924 165.207 112.957 165.728 112.976 166.248C112.992 166.677 113 167.105 113 167.534Z" fill="#FF39B0"/>
<path d="M112.494 173.245C110.198 186.112 100.332 196.354 87.6729 199.205C85.7497 199.64 83.7616 199.902 81.7264 199.976L66.8158 185.096L64.613 170.713L62.7266 168.872L65.9931 163.794L73.3118 153.166L77.0306 156.881L82.9691 151.692L86.5848 155.308L92.4881 153.24L112.494 173.245Z" fill="#D43F87"/>
<path d="M78.5957 155.416H82.4043V167.884H78.5957V155.416Z" fill="#808AFF"/>
<path d="M80.5 155.416H82.4043V167.884H80.5V155.416Z" fill="#666ECC"/>
<path d="M80.5 159.994C78.5719 159.994 77.0088 158.431 77.0088 156.503V154.16C77.0088 152.232 78.5719 150.669 80.5 150.669C82.4281 150.669 83.9912 152.232 83.9912 154.16V156.503C83.9912 158.431 82.4281 159.994 80.5 159.994Z" fill="#5C6B99"/>
<path d="M80.5 150.669V159.994C82.4281 159.994 83.9912 158.431 83.9912 156.503V154.16C83.9912 152.232 82.4281 150.669 80.5 150.669Z" fill="#455373"/>
<path d="M68.7325 156.266L72.3115 157.569L68.0477 169.285L64.4687 167.982L68.7325 156.266Z" fill="#808AFF"/>
<path d="M66.2574 168.633L70.5213 156.917L72.311 157.568L68.0467 169.285L66.2574 168.633Z" fill="#666ECC"/>
<path d="M68.9557 161.22C67.1441 160.561 66.2098 158.557 66.8694 156.745L67.6703 154.544C68.3298 152.732 70.3333 151.798 72.1449 152.458C73.9569 153.117 74.8912 155.12 74.2317 156.932L73.4303 159.133C72.7712 160.946 70.7677 161.879 68.9557 161.22Z" fill="#5C6B99"/>
<path d="M72.1449 152.458L68.9557 161.22C70.7677 161.879 72.7712 160.946 73.4303 159.133L74.2317 156.932C74.8912 155.12 73.957 153.117 72.1449 152.458Z" fill="#455373"/>
<path d="M88.689 157.57L92.268 156.268L96.5318 167.984L92.9528 169.286L88.689 157.57Z" fill="#808AFF"/>
<path d="M90.4782 156.919L92.268 156.268L96.5318 167.984L94.7425 168.635L90.4782 156.919Z" fill="#666ECC"/>
<path d="M92.0444 161.22C90.2328 161.879 88.2293 160.946 87.5697 159.133L86.7684 156.932C86.1088 155.12 87.0431 153.117 88.8552 152.458C90.6672 151.798 92.6702 152.732 93.3298 154.544L94.1312 156.745C94.7902 158.557 93.8564 160.561 92.0444 161.22Z" fill="#5C6B99"/>
<path d="M88.8551 152.458L92.0443 161.22C93.8564 160.561 94.7902 158.557 94.1311 156.745L93.3297 154.544C92.6701 152.732 90.6667 151.798 88.8551 152.458Z" fill="#455373"/>
<path d="M94.1847 185.096H66.8158L63.9961 166.688H97.0039L94.1847 185.096Z" fill="#45E595"/>
<path d="M80.5 166.688V185.096H94.1847L97.0039 166.688H80.5Z" fill="#39BF7C"/>
<path d="M62.7266 163.794H98.2734V168.872H62.7266V163.794Z" fill="white"/>
<path d="M80.5 163.794H98.2734V168.872H80.5V163.794Z" fill="#EBEBEB"/>
</g>
<defs>
<filter id="filter0_d" x="145" y="84" width="73" height="73" filterUnits="userSpaceOnUse" color-interpolation-filters="sRGB">
<feFlood flood-opacity="0" result="BackgroundImageFix"/>
<feColorMatrix in="SourceAlpha" type="matrix" values="0 0 0 0 0 0 0 0 0 0 0 0 0 0 0 0 0 0 127 0"/>
<feOffset dy="4"/>
<feGaussianBlur stdDeviation="2"/>
<feColorMatrix type="matrix" values="0 0 0 0 0 0 0 0 0 0 0 0 0 0 0 0 0 0 0.25 0"/>
<feBlend mode="normal" in2="BackgroundImageFix" result="effect1_dropShadow"/>
<feBlend mode="normal" in="SourceGraphic" in2="effect1_dropShadow" result="shape"/>
</filter>
<filter id="filter1_d" x="246" y="135" width="73" height="73" filterUnits="userSpaceOnUse" color-interpolation-filters="sRGB">
<feFlood flood-opacity="0" result="BackgroundImageFix"/>
<feColorMatrix in="SourceAlpha" type="matrix" values="0 0 0 0 0 0 0 0 0 0 0 0 0 0 0 0 0 0 127 0"/>
<feOffset dy="4"/>
<feGaussianBlur stdDeviation="2"/>
<feColorMatrix type="matrix" values="0 0 0 0 0 0 0 0 0 0 0 0 0 0 0 0 0 0 0.25 0"/>
<feBlend mode="normal" in2="BackgroundImageFix" result="effect1_dropShadow"/>
<feBlend mode="normal" in="SourceGraphic" in2="effect1_dropShadow" result="shape"/>
</filter>
<filter id="filter2_d" x="44" y="135" width="73" height="73" filterUnits="userSpaceOnUse" color-interpolation-filters="sRGB">
<feFlood flood-opacity="0" result="BackgroundImageFix"/>
<feColorMatrix in="SourceAlpha" type="matrix" values="0 0 0 0 0 0 0 0 0 0 0 0 0 0 0 0 0 0 127 0"/>
<feOffset dy="4"/>
<feGaussianBlur stdDeviation="2"/>
<feColorMatrix type="matrix" values="0 0 0 0 0 0 0 0 0 0 0 0 0 0 0 0 0 0 0.25 0"/>
<feBlend mode="normal" in2="BackgroundImageFix" result="effect1_dropShadow"/>
<feBlend mode="normal" in="SourceGraphic" in2="effect1_dropShadow" result="shape"/>
</filter>
<linearGradient id="paint0_linear" x1="180" y1="0" x2="180" y2="360" gradientUnits="userSpaceOnUse">
<stop stop-color="#FEFFD0"/>
<stop offset="1" stop-color="#F3EC43"/>
</linearGradient>
<clipPath id="clip0">
<rect width="65" height="65" fill="white" transform="translate(48 135)"/>
</clipPath>
</defs>
</svg>
