<svg width="512" height="661" viewBox="0 0 512 661" fill="none" xmlns="http://www.w3.org/2000/svg">
<path d="M172.803 640.17H161.711V649.24H174.596V652H158.336V626.406H174.42V629.184H161.711V637.41H172.803V640.17ZM184.053 647.236L188.482 632.98H191.963L184.316 654.936C183.133 658.1 181.252 659.682 178.674 659.682L178.059 659.629L176.846 659.4V656.764L177.725 656.834C178.826 656.834 179.682 656.611 180.291 656.166C180.912 655.721 181.422 654.906 181.82 653.723L182.541 651.789L175.756 632.98H179.307L184.053 647.236ZM202.527 652.352C199.949 652.352 197.852 651.508 196.234 649.82C194.617 648.121 193.809 645.854 193.809 643.018V642.42C193.809 640.533 194.166 638.852 194.881 637.375C195.607 635.887 196.615 634.727 197.904 633.895C199.205 633.051 200.611 632.629 202.123 632.629C204.596 632.629 206.518 633.443 207.889 635.072C209.26 636.701 209.945 639.033 209.945 642.068V643.422H197.061C197.107 645.297 197.652 646.814 198.695 647.975C199.75 649.123 201.086 649.697 202.703 649.697C203.852 649.697 204.824 649.463 205.621 648.994C206.418 648.525 207.115 647.904 207.713 647.131L209.699 648.678C208.105 651.127 205.715 652.352 202.527 652.352ZM202.123 635.301C200.811 635.301 199.709 635.781 198.818 636.742C197.928 637.691 197.377 639.027 197.166 640.75H206.693V640.504C206.6 638.852 206.154 637.574 205.357 636.672C204.561 635.758 203.482 635.301 202.123 635.301ZM240.145 629.184H231.918V652H228.561V629.184H220.352V626.406H240.145V629.184ZM251.289 635.898C250.797 635.816 250.264 635.775 249.689 635.775C247.557 635.775 246.109 636.684 245.348 638.5V652H242.096V632.98H245.26L245.312 635.178C246.379 633.479 247.891 632.629 249.848 632.629C250.48 632.629 250.961 632.711 251.289 632.875V635.898ZM265.334 652C265.146 651.625 264.994 650.957 264.877 649.996C263.365 651.566 261.561 652.352 259.463 652.352C257.588 652.352 256.047 651.824 254.84 650.77C253.645 649.703 253.047 648.355 253.047 646.727C253.047 644.746 253.797 643.211 255.297 642.121C256.809 641.02 258.93 640.469 261.66 640.469H264.824V638.975C264.824 637.838 264.484 636.936 263.805 636.268C263.125 635.588 262.123 635.248 260.799 635.248C259.639 635.248 258.666 635.541 257.881 636.127C257.096 636.713 256.703 637.422 256.703 638.254H253.434C253.434 637.305 253.768 636.391 254.436 635.512C255.115 634.621 256.029 633.918 257.178 633.402C258.338 632.887 259.609 632.629 260.992 632.629C263.184 632.629 264.9 633.18 266.143 634.281C267.385 635.371 268.029 636.877 268.076 638.799V647.553C268.076 649.299 268.299 650.688 268.744 651.719V652H265.334ZM259.938 649.521C260.957 649.521 261.924 649.258 262.838 648.73C263.752 648.203 264.414 647.518 264.824 646.674V642.771H262.275C258.291 642.771 256.299 643.938 256.299 646.27C256.299 647.289 256.639 648.086 257.318 648.66C257.998 649.234 258.871 649.521 259.938 649.521ZM280.803 649.697C281.963 649.697 282.977 649.346 283.844 648.643C284.711 647.939 285.191 647.061 285.285 646.006H288.361C288.303 647.096 287.928 648.133 287.236 649.117C286.545 650.102 285.619 650.887 284.459 651.473C283.311 652.059 282.092 652.352 280.803 652.352C278.213 652.352 276.15 651.49 274.615 649.768C273.092 648.033 272.33 645.666 272.33 642.666V642.121C272.33 640.27 272.67 638.623 273.35 637.182C274.029 635.74 275.002 634.621 276.268 633.824C277.545 633.027 279.051 632.629 280.785 632.629C282.918 632.629 284.688 633.268 286.094 634.545C287.512 635.822 288.268 637.48 288.361 639.52H285.285C285.191 638.289 284.723 637.281 283.879 636.496C283.047 635.699 282.016 635.301 280.785 635.301C279.133 635.301 277.85 635.898 276.936 637.094C276.033 638.277 275.582 639.994 275.582 642.244V642.859C275.582 645.051 276.033 646.738 276.936 647.922C277.838 649.105 279.127 649.697 280.803 649.697ZM297.326 643.193L295.287 645.32V652H292.035V625H295.287V641.33L297.027 639.238L302.951 632.98H306.906L299.506 640.926L307.768 652H303.953L297.326 643.193ZM313.797 652H310.545V632.98H313.797V652ZM310.281 627.936C310.281 627.408 310.439 626.963 310.756 626.6C311.084 626.236 311.564 626.055 312.197 626.055C312.83 626.055 313.311 626.236 313.639 626.6C313.967 626.963 314.131 627.408 314.131 627.936C314.131 628.463 313.967 628.902 313.639 629.254C313.311 629.605 312.83 629.781 312.197 629.781C311.564 629.781 311.084 629.605 310.756 629.254C310.439 628.902 310.281 628.463 310.281 627.936ZM322.094 632.98L322.199 635.371C323.652 633.543 325.551 632.629 327.895 632.629C331.914 632.629 333.941 634.896 333.977 639.432V652H330.725V639.414C330.713 638.043 330.396 637.029 329.775 636.373C329.166 635.717 328.211 635.389 326.91 635.389C325.855 635.389 324.93 635.67 324.133 636.232C323.336 636.795 322.715 637.533 322.27 638.447V652H319.018V632.98H322.094ZM338.107 642.332C338.107 639.367 338.793 637.012 340.164 635.266C341.535 633.508 343.352 632.629 345.613 632.629C347.934 632.629 349.744 633.449 351.045 635.09L351.203 632.98H354.174V651.543C354.174 654.004 353.441 655.943 351.977 657.361C350.523 658.779 348.566 659.488 346.105 659.488C344.734 659.488 343.393 659.195 342.08 658.609C340.768 658.023 339.766 657.221 339.074 656.201L340.762 654.25C342.156 655.973 343.861 656.834 345.877 656.834C347.459 656.834 348.689 656.389 349.568 655.498C350.459 654.607 350.904 653.354 350.904 651.736V650.102C349.604 651.602 347.828 652.352 345.578 652.352C343.352 652.352 341.547 651.455 340.164 649.662C338.793 647.869 338.107 645.426 338.107 642.332ZM341.377 642.701C341.377 644.846 341.816 646.533 342.695 647.764C343.574 648.982 344.805 649.592 346.387 649.592C348.438 649.592 349.943 648.66 350.904 646.797V638.113C349.908 636.297 348.414 635.389 346.422 635.389C344.84 635.389 343.604 636.004 342.713 637.234C341.822 638.465 341.377 640.287 341.377 642.701Z" fill="#424242"/>
<path d="M484.102 263.836L488.902 256L484.102 248.16C483.297 246.852 463.984 215.68 426.465 184.441C376.562 142.898 317.773 120.938 256.449 120.938C195.141 120.938 136.207 142.887 86.0195 184.41C48.2852 215.633 28.7539 246.781 27.9414 248.094L23.0391 256L27.9414 263.906C28.7539 265.219 48.2852 296.367 86.0195 327.59C136.207 369.113 195.141 391.062 256.449 391.062C317.773 391.062 376.562 369.102 426.465 327.559C463.984 296.32 483.297 265.148 484.102 263.836V263.836ZM406.473 305.16C361.582 342.254 311.105 361.059 256.449 361.059C201.773 361.059 151.133 342.242 105.938 305.125C82.5625 285.93 66.7148 266.492 58.9531 256C66.7188 245.5 82.5664 226.066 105.938 206.871C151.133 169.758 201.77 150.938 256.449 150.938C311.105 150.938 361.578 169.746 406.473 206.836C429.742 226.062 445.453 245.527 453.109 256C445.445 266.477 429.738 285.941 406.473 305.16Z" fill="url(#paint0_linear)"/>
<path d="M256 165.867C206.301 165.867 165.867 206.301 165.867 256C165.867 305.699 206.301 346.133 256 346.133C305.699 346.133 346.133 305.699 346.133 256C346.133 206.301 305.699 165.867 256 165.867ZM256 316.133C222.844 316.133 195.867 289.156 195.867 256C195.867 222.844 222.844 195.867 256 195.867C289.156 195.867 316.133 222.844 316.133 256C316.133 289.156 289.156 316.133 256 316.133Z" fill="url(#paint1_linear)"/>
<path d="M30 30H92.625V0H0V91.5H30V30Z" fill="#0DB0D4"/>
<path d="M419.375 0V30H482V91.5H512V0H419.375Z" fill="#0DB0D4"/>
<path d="M30 420.5H0V512H92.625V482H30V420.5Z" fill="#FADD33"/>
<path d="M482 482H419.375V512H512V420.5H482V482Z" fill="#FADD33"/>
<defs>
<linearGradient id="paint0_linear" x1="255.971" y1="120.938" x2="255.971" y2="391.062" gradientUnits="userSpaceOnUse">
<stop stop-color="#0DB0D4"/>
<stop offset="1" stop-color="#FADD33"/>
</linearGradient>
<linearGradient id="paint1_linear" x1="256" y1="165.867" x2="256" y2="346.133" gradientUnits="userSpaceOnUse">
<stop stop-color="#2899DC"/>
<stop offset="0.0001" stop-color="#3EBAB3"/>
<stop offset="1" stop-color="#CCD553"/>
</linearGradient>
</defs>
</svg>
