<svg width="406" height="242" viewBox="0 0 406 242" fill="none" xmlns="http://www.w3.org/2000/svg">
<g filter="url(#filter0_d)">
<rect x="4" width="398" height="234" fill="white"/>
</g>
<path d="M159.718 193.558H154.526V207H152.04V193.558H146.826V191.38H159.718V193.558ZM162.135 207.22C161.578 207.22 161.057 207.132 160.573 206.956C160.104 206.765 159.693 206.509 159.341 206.186C159.004 205.863 158.732 205.482 158.527 205.042C158.336 204.602 158.241 204.125 158.241 203.612C158.241 203.069 158.358 202.578 158.593 202.138C158.828 201.698 159.158 201.317 159.583 200.994C160.023 200.671 160.536 200.422 161.123 200.246C161.724 200.07 162.384 199.982 163.103 199.982C163.646 199.982 164.181 200.033 164.709 200.136C165.237 200.224 165.714 200.349 166.139 200.51V199.718C166.139 198.867 165.897 198.207 165.413 197.738C164.929 197.254 164.232 197.012 163.323 197.012C162.707 197.012 162.098 197.129 161.497 197.364C160.91 197.584 160.302 197.907 159.671 198.332L158.923 196.792C160.404 195.795 161.944 195.296 163.543 195.296C165.127 195.296 166.359 195.699 167.239 196.506C168.119 197.313 168.559 198.471 168.559 199.982V204.14C168.559 204.653 168.772 204.917 169.197 204.932V207C168.962 207.044 168.757 207.073 168.581 207.088C168.42 207.103 168.258 207.11 168.097 207.11C167.628 207.11 167.261 206.993 166.997 206.758C166.748 206.523 166.594 206.223 166.535 205.856L166.469 205.13C165.956 205.805 165.318 206.325 164.555 206.692C163.807 207.044 163 207.22 162.135 207.22ZM162.795 205.438C163.382 205.438 163.932 205.335 164.445 205.13C164.973 204.91 165.384 204.609 165.677 204.228C165.985 203.964 166.139 203.685 166.139 203.392V201.874C165.728 201.713 165.288 201.588 164.819 201.5C164.364 201.412 163.917 201.368 163.477 201.368C162.612 201.368 161.9 201.559 161.343 201.94C160.8 202.307 160.529 202.798 160.529 203.414C160.529 203.986 160.742 204.47 161.167 204.866C161.592 205.247 162.135 205.438 162.795 205.438ZM179.503 207L175.829 201.698L173.915 203.502V207H171.495V190.94H173.915V201.126L179.195 195.516H181.835L177.369 200.334L182.077 207H179.503ZM188.16 207.22C187.265 207.22 186.451 207.066 185.718 206.758C184.985 206.435 184.354 206.003 183.826 205.46C183.313 204.917 182.909 204.287 182.616 203.568C182.337 202.849 182.198 202.087 182.198 201.28C182.198 200.473 182.337 199.711 182.616 198.992C182.909 198.259 183.313 197.621 183.826 197.078C184.354 196.521 184.985 196.088 185.718 195.78C186.451 195.457 187.273 195.296 188.182 195.296C189.077 195.296 189.883 195.457 190.602 195.78C191.335 196.103 191.959 196.535 192.472 197.078C192.985 197.606 193.374 198.229 193.638 198.948C193.917 199.652 194.056 200.393 194.056 201.17C194.056 201.346 194.049 201.515 194.034 201.676C194.019 201.823 194.005 201.947 193.99 202.05H184.772C184.816 202.563 184.933 203.025 185.124 203.436C185.329 203.847 185.586 204.206 185.894 204.514C186.217 204.807 186.576 205.035 186.972 205.196C187.383 205.357 187.808 205.438 188.248 205.438C188.571 205.438 188.886 205.401 189.194 205.328C189.517 205.24 189.81 205.123 190.074 204.976C190.338 204.815 190.573 204.624 190.778 204.404C190.983 204.184 191.145 203.942 191.262 203.678L193.33 204.272C192.934 205.137 192.274 205.849 191.35 206.406C190.441 206.949 189.377 207.22 188.16 207.22ZM191.658 200.378C191.614 199.894 191.489 199.447 191.284 199.036C191.093 198.625 190.844 198.281 190.536 198.002C190.228 197.709 189.869 197.481 189.458 197.32C189.047 197.159 188.615 197.078 188.16 197.078C187.705 197.078 187.273 197.159 186.862 197.32C186.466 197.481 186.114 197.709 185.806 198.002C185.498 198.281 185.249 198.625 185.058 199.036C184.867 199.447 184.75 199.894 184.706 200.378H191.658ZM199.088 207.22C198.531 207.22 198.01 207.132 197.526 206.956C197.057 206.765 196.646 206.509 196.294 206.186C195.957 205.863 195.685 205.482 195.48 205.042C195.289 204.602 195.194 204.125 195.194 203.612C195.194 203.069 195.311 202.578 195.546 202.138C195.781 201.698 196.111 201.317 196.536 200.994C196.976 200.671 197.489 200.422 198.076 200.246C198.677 200.07 199.337 199.982 200.056 199.982C200.599 199.982 201.134 200.033 201.662 200.136C202.19 200.224 202.667 200.349 203.092 200.51V199.718C203.092 198.867 202.85 198.207 202.366 197.738C201.882 197.254 201.185 197.012 200.276 197.012C199.66 197.012 199.051 197.129 198.45 197.364C197.863 197.584 197.255 197.907 196.624 198.332L195.876 196.792C197.357 195.795 198.897 195.296 200.496 195.296C202.08 195.296 203.312 195.699 204.192 196.506C205.072 197.313 205.512 198.471 205.512 199.982V204.14C205.512 204.653 205.725 204.917 206.15 204.932V207C205.915 207.044 205.71 207.073 205.534 207.088C205.373 207.103 205.211 207.11 205.05 207.11C204.581 207.11 204.214 206.993 203.95 206.758C203.701 206.523 203.547 206.223 203.488 205.856L203.422 205.13C202.909 205.805 202.271 206.325 201.508 206.692C200.76 207.044 199.953 207.22 199.088 207.22ZM199.748 205.438C200.335 205.438 200.885 205.335 201.398 205.13C201.926 204.91 202.337 204.609 202.63 204.228C202.938 203.964 203.092 203.685 203.092 203.392V201.874C202.681 201.713 202.241 201.588 201.772 201.5C201.317 201.412 200.87 201.368 200.43 201.368C199.565 201.368 198.853 201.559 198.296 201.94C197.753 202.307 197.482 202.798 197.482 203.414C197.482 203.986 197.695 204.47 198.12 204.866C198.545 205.247 199.088 205.438 199.748 205.438ZM222.491 195.494H224.801L219.961 207H217.959L215.825 201.654L213.691 207H211.689L206.827 195.494H209.137L212.855 204.668L214.527 200.4L212.525 195.516H214.505L215.825 199.124L217.123 195.516H219.103L217.123 200.4L218.795 204.668L222.491 195.494ZM229.188 207.22C228.63 207.22 228.11 207.132 227.626 206.956C227.156 206.765 226.746 206.509 226.394 206.186C226.056 205.863 225.785 205.482 225.58 205.042C225.389 204.602 225.294 204.125 225.294 203.612C225.294 203.069 225.411 202.578 225.646 202.138C225.88 201.698 226.21 201.317 226.636 200.994C227.076 200.671 227.589 200.422 228.176 200.246C228.777 200.07 229.437 199.982 230.156 199.982C230.698 199.982 231.234 200.033 231.762 200.136C232.29 200.224 232.766 200.349 233.192 200.51V199.718C233.192 198.867 232.95 198.207 232.466 197.738C231.982 197.254 231.285 197.012 230.376 197.012C229.76 197.012 229.151 197.129 228.55 197.364C227.963 197.584 227.354 197.907 226.724 198.332L225.976 196.792C227.457 195.795 228.997 195.296 230.596 195.296C232.18 195.296 233.412 195.699 234.292 196.506C235.172 197.313 235.612 198.471 235.612 199.982V204.14C235.612 204.653 235.824 204.917 236.25 204.932V207C236.015 207.044 235.81 207.073 235.634 207.088C235.472 207.103 235.311 207.11 235.15 207.11C234.68 207.11 234.314 206.993 234.05 206.758C233.8 206.523 233.646 206.223 233.588 205.856L233.522 205.13C233.008 205.805 232.37 206.325 231.608 206.692C230.86 207.044 230.053 207.22 229.188 207.22ZM229.848 205.438C230.434 205.438 230.984 205.335 231.498 205.13C232.026 204.91 232.436 204.609 232.73 204.228C233.038 203.964 233.192 203.685 233.192 203.392V201.874C232.781 201.713 232.341 201.588 231.872 201.5C231.417 201.412 230.97 201.368 230.53 201.368C229.664 201.368 228.953 201.559 228.396 201.94C227.853 202.307 227.582 202.798 227.582 203.414C227.582 203.986 227.794 204.47 228.22 204.866C228.645 205.247 229.188 205.438 229.848 205.438ZM238.664 209.706C238.884 209.75 239.097 209.787 239.302 209.816C239.522 209.845 239.698 209.86 239.83 209.86C240.021 209.86 240.182 209.816 240.314 209.728C240.461 209.655 240.608 209.515 240.754 209.31C240.901 209.105 241.048 208.811 241.194 208.43C241.356 208.063 241.539 207.587 241.744 207L237.014 195.494H239.5L243.064 204.866L246.232 195.494H248.52L243.306 209.662C243.072 210.322 242.661 210.872 242.074 211.312C241.502 211.767 240.762 211.994 239.852 211.994C239.676 211.994 239.493 211.979 239.302 211.95C239.112 211.935 238.899 211.891 238.664 211.818V209.706ZM254.222 207.22C253.298 207.22 252.374 207.073 251.45 206.78C250.541 206.472 249.756 206.039 249.096 205.482L250.064 203.942C250.753 204.441 251.435 204.822 252.11 205.086C252.785 205.335 253.474 205.46 254.178 205.46C254.897 205.46 255.461 205.321 255.872 205.042C256.297 204.763 256.51 204.367 256.51 203.854C256.51 203.37 256.275 203.018 255.806 202.798C255.337 202.578 254.603 202.336 253.606 202.072C252.887 201.881 252.271 201.698 251.758 201.522C251.245 201.346 250.827 201.141 250.504 200.906C250.181 200.671 249.947 200.4 249.8 200.092C249.653 199.784 249.58 199.41 249.58 198.97C249.58 198.383 249.69 197.863 249.91 197.408C250.145 196.953 250.46 196.572 250.856 196.264C251.267 195.941 251.743 195.699 252.286 195.538C252.829 195.377 253.415 195.296 254.046 195.296C254.911 195.296 255.718 195.428 256.466 195.692C257.214 195.956 257.881 196.337 258.468 196.836L257.434 198.288C256.363 197.437 255.227 197.012 254.024 197.012C253.408 197.012 252.887 197.144 252.462 197.408C252.051 197.657 251.846 198.061 251.846 198.618C251.846 198.853 251.89 199.051 251.978 199.212C252.066 199.373 252.205 199.513 252.396 199.63C252.601 199.747 252.858 199.857 253.166 199.96C253.489 200.048 253.885 200.151 254.354 200.268C255.131 200.459 255.799 200.649 256.356 200.84C256.928 201.031 257.397 201.258 257.764 201.522C258.131 201.771 258.402 202.072 258.578 202.424C258.754 202.761 258.842 203.172 258.842 203.656C258.842 204.756 258.424 205.629 257.588 206.274C256.767 206.905 255.645 207.22 254.222 207.22Z" fill="black"/>
<g clip-path="url(#clip0)">
<path d="M257 103C257 132.824 232.824 157 203 157C173.176 157 149 132.824 149 103C149 73.1762 173.176 49 203 49C232.824 49 257 73.1762 257 103Z" fill="#1571E6"/>
<path d="M257 103C257 100.447 256.819 97.9359 256.476 95.4771L231.547 70.5478H225.218V74.2144L218.019 66.9948C217.339 66.076 216.249 65.477 215.024 65.477H214.261C213.385 65.477 212.58 65.7844 211.943 66.2952L209.849 63.9799C209.163 63.188 208.154 62.6846 207.032 62.6846H206.269C204.289 62.6846 202.661 64.2485 202.548 66.2013L201.855 65.3641C201.172 64.5706 200.163 64.0656 199.039 64.0656H198.276C196.224 64.0656 194.544 65.7448 194.544 67.7973V68.5373L193.907 67.7586C193.224 66.9346 192.195 66.4073 191.047 66.4073H190.284C188.232 66.4073 186.553 68.0865 186.553 70.1391V83.6292L176.875 74.0019H170.547V88.5673L178.601 96.5392H175.82V107.465L168.966 100.749H162.638V115.314L175.82 128.201V134.178L198.45 156.808C199.95 156.932 201.467 157 203 157C232.824 157 257 132.824 257 103Z" fill="#064CAD"/>
<path d="M189.911 98.0759H214.898V136.153H189.911V98.0759Z" fill="#FFDBA9"/>
<path d="M202.538 98.0768H214.899V136.153H202.538V98.0768Z" fill="#FFD199"/>
<path d="M208.559 101.256H196.252C190.917 101.256 186.553 96.891 186.553 91.5566V76.7753C186.553 73.3501 189.355 70.5477 192.779 70.5477H212.031C215.455 70.5477 218.258 73.3501 218.258 76.7753V91.5566C218.257 96.891 213.893 101.256 208.559 101.256V101.256Z" fill="#FFC473"/>
<path d="M218.257 76.7745V91.5566C218.257 96.891 213.893 101.256 208.559 101.256H202.538V70.5469H212.03C215.456 70.5469 218.257 73.3509 218.257 76.7745Z" fill="#FFC473"/>
<path d="M191.047 83.0622H190.284C188.232 83.0622 186.553 81.383 186.553 79.3296V70.139C186.553 68.0865 188.232 66.4072 190.284 66.4072H191.047C193.099 66.4072 194.778 68.0865 194.778 70.139V79.3296C194.778 81.383 193.099 83.0622 191.047 83.0622Z" fill="#FFB74F"/>
<path d="M199.039 81.285H198.277C196.224 81.285 194.544 79.6057 194.544 77.5524V67.7973C194.544 65.7448 196.224 64.0656 198.277 64.0656H199.039C201.092 64.0656 202.771 65.7448 202.771 67.7973V77.5524C202.771 79.6057 201.092 81.285 199.039 81.285Z" fill="#FFD199"/>
<path d="M207.032 81.285H206.269C204.216 81.285 202.537 79.6057 202.537 77.5524V66.4164C202.537 64.3638 204.216 62.6846 206.269 62.6846H207.032C209.084 62.6846 210.763 64.3638 210.763 66.4164V77.5532C210.763 79.6057 209.084 81.285 207.032 81.285Z" fill="#FFAA20"/>
<path d="M215.024 82.6965H214.261C212.209 82.6965 210.529 81.0172 210.529 78.9647V69.2088C210.529 67.1563 212.209 65.4771 214.261 65.4771H215.024C217.076 65.4771 218.756 67.1563 218.756 69.2088V78.9647C218.755 81.0164 217.076 82.6965 215.024 82.6965V82.6965Z" fill="#FFC473"/>
<path d="M201.048 101.326V95.918C201.048 91.2848 204.805 87.5291 209.438 87.5291V84.5199C205.545 84.5199 202.089 82.0307 200.854 78.3393L200.419 77.0358H211.488C215.65 77.0358 219.025 80.4108 219.025 84.5735V91.9621C219.025 96.8029 215.101 101.326 210.259 101.326H201.048Z" fill="#FFDBA9"/>
<path d="M219.025 84.5743V91.9621C219.025 96.8029 215.102 101.325 210.258 101.325H202.538V91.1472C204.051 88.9603 206.578 87.5299 209.438 87.5299V84.5199C207.491 84.5199 205.653 83.8978 204.149 82.8135C203.555 82.385 203.012 81.8849 202.538 81.3237V77.0358H211.488C215.65 77.0358 219.025 80.4108 219.025 84.5743Z" fill="#FFD199"/>
<path d="M189.911 102.888H214.898V142.376H189.911V102.888Z" fill="#FF0335"/>
<path d="M202.538 102.888H214.899V142.376H202.538V102.888Z" fill="#C2001B"/>
<path d="M189.911 110.999H214.898V117.327H189.911V110.999Z" fill="#FFEC97"/>
<path d="M202.538 110.999H214.899V117.327H202.538V110.999Z" fill="#FFDB2D"/>
<path d="M225.219 70.5477H231.547V88.1058H225.219V70.5477Z" fill="#FFF5CB"/>
<path d="M233.832 96.5391H240.16V119.523H233.832V96.5391Z" fill="#FFF5CB"/>
<path d="M220.402 102.38H226.73V124.221H220.402V102.38Z" fill="#FFF5CB"/>
<path d="M220.402 128.361H226.73V135.512H220.402V128.361Z" fill="#FFF5CB"/>
<path d="M170.547 74.0018H176.875V88.5672H170.547V74.0018Z" fill="white"/>
<path d="M162.638 100.749H168.966V115.314H162.638V100.749Z" fill="white"/>
<path d="M175.82 96.5392H182.148V121.109H175.82V96.5392Z" fill="white"/>
<path d="M175.82 125.249H182.148V134.178H175.82V125.249Z" fill="white"/>
</g>
<defs>
<filter id="filter0_d" x="0" y="0" width="406" height="242" filterUnits="userSpaceOnUse" color-interpolation-filters="sRGB">
<feFlood flood-opacity="0" result="BackgroundImageFix"/>
<feColorMatrix in="SourceAlpha" type="matrix" values="0 0 0 0 0 0 0 0 0 0 0 0 0 0 0 0 0 0 127 0"/>
<feOffset dy="4"/>
<feGaussianBlur stdDeviation="2"/>
<feColorMatrix type="matrix" values="0 0 0 0 0 0 0 0 0 0 0 0 0 0 0 0 0 0 0.25 0"/>
<feBlend mode="normal" in2="BackgroundImageFix" result="effect1_dropShadow"/>
<feBlend mode="normal" in="SourceGraphic" in2="effect1_dropShadow" result="shape"/>
</filter>
<clipPath id="clip0">
<rect width="108" height="108" fill="white" transform="translate(149 49)"/>
</clipPath>
</defs>
</svg>
