<svg width="512" height="661" viewBox="0 0 512 661" fill="none" xmlns="http://www.w3.org/2000/svg">
<path d="M125.932 652H122.539V640.17H109.637V652H106.262V626.406H109.637V637.41H122.539V626.406H125.932V652ZM139.309 652.352C136.73 652.352 134.633 651.508 133.016 649.82C131.398 648.121 130.59 645.854 130.59 643.018V642.42C130.59 640.533 130.947 638.852 131.662 637.375C132.389 635.887 133.396 634.727 134.686 633.895C135.986 633.051 137.393 632.629 138.904 632.629C141.377 632.629 143.299 633.443 144.67 635.072C146.041 636.701 146.727 639.033 146.727 642.068V643.422H133.842C133.889 645.297 134.434 646.814 135.477 647.975C136.531 649.123 137.867 649.697 139.484 649.697C140.633 649.697 141.605 649.463 142.402 648.994C143.199 648.525 143.896 647.904 144.494 647.131L146.48 648.678C144.887 651.127 142.496 652.352 139.309 652.352ZM138.904 635.301C137.592 635.301 136.49 635.781 135.6 636.742C134.709 637.691 134.158 639.027 133.947 640.75H143.475V640.504C143.381 638.852 142.936 637.574 142.139 636.672C141.342 635.758 140.264 635.301 138.904 635.301ZM162.248 652C162.061 651.625 161.908 650.957 161.791 649.996C160.279 651.566 158.475 652.352 156.377 652.352C154.502 652.352 152.961 651.824 151.754 650.77C150.559 649.703 149.961 648.355 149.961 646.727C149.961 644.746 150.711 643.211 152.211 642.121C153.723 641.02 155.844 640.469 158.574 640.469H161.738V638.975C161.738 637.838 161.398 636.936 160.719 636.268C160.039 635.588 159.037 635.248 157.713 635.248C156.553 635.248 155.58 635.541 154.795 636.127C154.01 636.713 153.617 637.422 153.617 638.254H150.348C150.348 637.305 150.682 636.391 151.35 635.512C152.029 634.621 152.943 633.918 154.092 633.402C155.252 632.887 156.523 632.629 157.906 632.629C160.098 632.629 161.814 633.18 163.057 634.281C164.299 635.371 164.943 636.877 164.99 638.799V647.553C164.99 649.299 165.213 650.688 165.658 651.719V652H162.248ZM156.852 649.521C157.871 649.521 158.838 649.258 159.752 648.73C160.666 648.203 161.328 647.518 161.738 646.674V642.771H159.189C155.205 642.771 153.213 643.938 153.213 646.27C153.213 647.289 153.553 648.086 154.232 648.66C154.912 649.234 155.785 649.521 156.852 649.521ZM179.281 635.898C178.789 635.816 178.256 635.775 177.682 635.775C175.549 635.775 174.102 636.684 173.34 638.5V652H170.088V632.98H173.252L173.305 635.178C174.371 633.479 175.883 632.629 177.84 632.629C178.473 632.629 178.953 632.711 179.281 632.875V635.898ZM187.578 628.375V632.98H191.129V635.494H187.578V647.289C187.578 648.051 187.736 648.625 188.053 649.012C188.369 649.387 188.908 649.574 189.67 649.574C190.045 649.574 190.561 649.504 191.217 649.363V652C190.361 652.234 189.529 652.352 188.721 652.352C187.268 652.352 186.172 651.912 185.434 651.033C184.695 650.154 184.326 648.906 184.326 647.289V635.494H180.863V632.98H184.326V628.375H187.578ZM213.77 641.646H207.758V652H204.365V626.406H212.838C215.721 626.406 217.936 627.062 219.482 628.375C221.041 629.688 221.82 631.598 221.82 634.105C221.82 635.699 221.387 637.088 220.52 638.271C219.664 639.455 218.469 640.34 216.934 640.926L222.945 651.789V652H219.324L213.77 641.646ZM207.758 638.887H212.943C214.619 638.887 215.949 638.453 216.934 637.586C217.93 636.719 218.428 635.559 218.428 634.105C218.428 632.523 217.953 631.311 217.004 630.467C216.066 629.623 214.707 629.195 212.926 629.184H207.758V638.887ZM237.799 652C237.611 651.625 237.459 650.957 237.342 649.996C235.83 651.566 234.025 652.352 231.928 652.352C230.053 652.352 228.512 651.824 227.305 650.77C226.109 649.703 225.512 648.355 225.512 646.727C225.512 644.746 226.262 643.211 227.762 642.121C229.273 641.02 231.395 640.469 234.125 640.469H237.289V638.975C237.289 637.838 236.949 636.936 236.27 636.268C235.59 635.588 234.588 635.248 233.264 635.248C232.104 635.248 231.131 635.541 230.346 636.127C229.561 636.713 229.168 637.422 229.168 638.254H225.898C225.898 637.305 226.232 636.391 226.9 635.512C227.58 634.621 228.494 633.918 229.643 633.402C230.803 632.887 232.074 632.629 233.457 632.629C235.648 632.629 237.365 633.18 238.607 634.281C239.85 635.371 240.494 636.877 240.541 638.799V647.553C240.541 649.299 240.764 650.688 241.209 651.719V652H237.799ZM232.402 649.521C233.422 649.521 234.389 649.258 235.303 648.73C236.217 648.203 236.879 647.518 237.289 646.674V642.771H234.74C230.756 642.771 228.764 643.938 228.764 646.27C228.764 647.289 229.104 648.086 229.783 648.66C230.463 649.234 231.336 649.521 232.402 649.521ZM250.051 628.375V632.98H253.602V635.494H250.051V647.289C250.051 648.051 250.209 648.625 250.525 649.012C250.842 649.387 251.381 649.574 252.143 649.574C252.518 649.574 253.033 649.504 253.689 649.363V652C252.834 652.234 252.002 652.352 251.193 652.352C249.74 652.352 248.645 651.912 247.906 651.033C247.168 650.154 246.799 648.906 246.799 647.289V635.494H243.336V632.98H246.799V628.375H250.051ZM265.309 652.352C262.73 652.352 260.633 651.508 259.016 649.82C257.398 648.121 256.59 645.854 256.59 643.018V642.42C256.59 640.533 256.947 638.852 257.662 637.375C258.389 635.887 259.396 634.727 260.686 633.895C261.986 633.051 263.393 632.629 264.904 632.629C267.377 632.629 269.299 633.443 270.67 635.072C272.041 636.701 272.727 639.033 272.727 642.068V643.422H259.842C259.889 645.297 260.434 646.814 261.477 647.975C262.531 649.123 263.867 649.697 265.484 649.697C266.633 649.697 267.605 649.463 268.402 648.994C269.199 648.525 269.896 647.904 270.494 647.131L272.48 648.678C270.887 651.127 268.496 652.352 265.309 652.352ZM264.904 635.301C263.592 635.301 262.49 635.781 261.6 636.742C260.709 637.691 260.158 639.027 259.947 640.75H269.475V640.504C269.381 638.852 268.936 637.574 268.139 636.672C267.342 635.758 266.264 635.301 264.904 635.301ZM290.305 626.406L298.672 647.289L307.039 626.406H311.416V652H308.041V642.033L308.357 631.275L299.955 652H297.371L288.986 631.328L289.32 642.033V652H285.945V626.406H290.305ZM316.004 642.314C316.004 640.451 316.367 638.775 317.094 637.287C317.832 635.799 318.852 634.65 320.152 633.842C321.465 633.033 322.959 632.629 324.635 632.629C327.225 632.629 329.316 633.525 330.91 635.318C332.516 637.111 333.318 639.496 333.318 642.473V642.701C333.318 644.553 332.961 646.217 332.246 647.693C331.543 649.158 330.529 650.301 329.205 651.121C327.893 651.941 326.381 652.352 324.67 652.352C322.092 652.352 320 651.455 318.395 649.662C316.801 647.869 316.004 645.496 316.004 642.543V642.314ZM319.273 642.701C319.273 644.811 319.76 646.504 320.732 647.781C321.717 649.059 323.029 649.697 324.67 649.697C326.322 649.697 327.635 649.053 328.607 647.764C329.58 646.463 330.066 644.646 330.066 642.314C330.066 640.229 329.568 638.541 328.572 637.252C327.588 635.951 326.275 635.301 324.635 635.301C323.029 635.301 321.734 635.939 320.75 637.217C319.766 638.494 319.273 640.322 319.273 642.701ZM340.473 632.98L340.578 635.371C342.031 633.543 343.93 632.629 346.273 632.629C350.293 632.629 352.32 634.896 352.355 639.432V652H349.104V639.414C349.092 638.043 348.775 637.029 348.154 636.373C347.545 635.717 346.59 635.389 345.289 635.389C344.234 635.389 343.309 635.67 342.512 636.232C341.715 636.795 341.094 637.533 340.648 638.447V652H337.396V632.98H340.473ZM360.793 652H357.541V632.98H360.793V652ZM357.277 627.936C357.277 627.408 357.436 626.963 357.752 626.6C358.08 626.236 358.561 626.055 359.193 626.055C359.826 626.055 360.307 626.236 360.635 626.6C360.963 626.963 361.127 627.408 361.127 627.936C361.127 628.463 360.963 628.902 360.635 629.254C360.307 629.605 359.826 629.781 359.193 629.781C358.561 629.781 358.08 629.605 357.752 629.254C357.436 628.902 357.277 628.463 357.277 627.936ZM370.426 628.375V632.98H373.977V635.494H370.426V647.289C370.426 648.051 370.584 648.625 370.9 649.012C371.217 649.387 371.756 649.574 372.518 649.574C372.893 649.574 373.408 649.504 374.064 649.363V652C373.209 652.234 372.377 652.352 371.568 652.352C370.115 652.352 369.02 651.912 368.281 651.033C367.543 650.154 367.174 648.906 367.174 647.289V635.494H363.711V632.98H367.174V628.375H370.426ZM376.578 642.314C376.578 640.451 376.941 638.775 377.668 637.287C378.406 635.799 379.426 634.65 380.727 633.842C382.039 633.033 383.533 632.629 385.209 632.629C387.799 632.629 389.891 633.525 391.484 635.318C393.09 637.111 393.893 639.496 393.893 642.473V642.701C393.893 644.553 393.535 646.217 392.82 647.693C392.117 649.158 391.104 650.301 389.779 651.121C388.467 651.941 386.955 652.352 385.244 652.352C382.666 652.352 380.574 651.455 378.969 649.662C377.375 647.869 376.578 645.496 376.578 642.543V642.314ZM379.848 642.701C379.848 644.811 380.334 646.504 381.307 647.781C382.291 649.059 383.604 649.697 385.244 649.697C386.896 649.697 388.209 649.053 389.182 647.764C390.154 646.463 390.641 644.646 390.641 642.314C390.641 640.229 390.143 638.541 389.146 637.252C388.162 635.951 386.85 635.301 385.209 635.301C383.604 635.301 382.309 635.939 381.324 637.217C380.34 638.494 379.848 640.322 379.848 642.701ZM407.164 635.898C406.672 635.816 406.139 635.775 405.564 635.775C403.432 635.775 401.984 636.684 401.223 638.5V652H397.971V632.98H401.135L401.188 635.178C402.254 633.479 403.766 632.629 405.723 632.629C406.355 632.629 406.836 632.711 407.164 632.875V635.898Z" fill="#424242"/>
<path d="M168 56H152V40H168V56ZM136 40H120V56H136V40ZM104 40H88V56H104V40ZM40 280V120C40 111.176 47.176 104 56 104H200C208.824 104 216 111.176 216 120V280C216 288.824 208.824 296 200 296H56C47.176 296 40 288.824 40 280ZM200.008 280L200 208H163.84L124.712 256.904L101.536 179.648L84.528 208H56V280H200.008ZM56 120V192H75.472L106.464 140.352L131.288 223.096L156.16 192H200.008L200 120H56ZM96 360H160V344H96V360ZM504 236.28C504 240.296 502.824 244.184 500.592 247.528L492.36 259.88C489.312 264.448 487.344 269.744 486.656 275.192L480.992 320.56C480.128 327.456 477.472 334.04 473.304 339.592L456 362.664V376H472V456H384V480C384 493.232 373.232 504 360 504H272C258.768 504 248 493.232 248 480V432C248 427.584 244.408 424 240 424H208C203.592 424 200 427.584 200 432V480C200 493.232 189.232 504 176 504H144C130.768 504 120 493.232 120 480V424H96V392H48C25.944 392 8 374.056 8 352V48C8 25.944 25.944 8 48 8H208C230.056 8 248 25.944 248 48V352C248 374.056 230.056 392 208 392H160V424H136V480C136 484.416 139.592 488 144 488H176C180.408 488 184 484.416 184 480V432C184 418.768 194.768 408 208 408H240C253.232 408 264 418.768 264 432V480C264 484.416 267.592 488 272 488H360C364.408 488 368 484.416 368 480V456H280V376H296V361.888L284.224 338.336C281.464 332.816 280 326.624 280 320.448V256C280 242.768 290.768 232 304 232C307.16 232 310.16 232.648 312.928 233.76C315.696 223.56 324.936 216 336 216C339.16 216 342.16 216.648 344.928 217.76C347.696 207.56 356.936 200 368 200C370.816 200 373.488 200.576 376 201.472V184H344V36.688L353.376 27.312C365.824 14.856 382.384 8 400 8C417.616 8 434.176 14.856 446.624 27.312L456 36.688V184H424V286.112L426.44 291L433.152 257.456C437.952 233.44 459.216 216 483.72 216C494.904 216 504 225.104 504 236.28V236.28ZM232 88H24V312H232V88ZM24 48V72H232V48C232 34.768 221.232 24 208 24H48C34.768 24 24 34.768 24 48ZM48 376H208C221.232 376 232 365.232 232 352V328H24V352C24 365.232 34.768 376 48 376ZM112 408H144V392H112V408ZM440 72H360V120H440V72ZM360 43.312V56H440V43.312L435.312 38.624C425.88 29.192 413.344 24 400 24C386.656 24 374.12 29.192 364.688 38.624L360 43.312ZM360 168H440V136H360V168ZM456 392H296V440H456V392ZM488 236.28C488 233.92 486.08 232 483.72 232C466.824 232 452.152 244.024 448.84 260.592L438.56 312H419.056L408 289.888V184H392V224V272H376V224C376 219.584 372.408 216 368 216C363.592 216 360 219.584 360 224V240V272H344V240C344 235.584 340.408 232 336 232C331.592 232 328 235.584 328 240V256V272H312V256C312 251.584 308.408 248 304 248C299.592 248 296 251.584 296 256V320.448C296 324.152 296.872 327.872 298.536 331.184L312 358.112V376H440V357.336L460.504 330C463 326.664 464.6 322.712 465.12 318.576L470.784 273.208C471.776 265.304 474.632 257.624 479.056 251.008L487.28 238.656C487.752 237.952 488 237.136 488 236.28V236.28ZM392 104V88H376V104H392ZM424 88H408V104H424V88Z" fill="url(#paint0_linear)"/>
<defs>
<linearGradient id="paint0_linear" x1="256" y1="504" x2="256" y2="8" gradientUnits="userSpaceOnUse">
<stop stop-color="#FADD33"/>
<stop offset="1" stop-color="#0BB1D3"/>
</linearGradient>
</defs>
</svg>
