<svg width="513" height="644" viewBox="0 0 513 644" fill="none" xmlns="http://www.w3.org/2000/svg">
<path d="M440.168 261.52C362.824 247.648 297.768 240 257 240C216.232 240 151.184 247.648 73.832 261.52C54.808 264.944 41 281.488 41 300.872V445.512L44.272 447.912C62.336 461.12 85.152 466.584 107.536 462.856L109.464 462.28C125.536 455.176 183.672 432 257 432C330.328 432 388.464 455.176 404.528 462.288L406.456 462.864C411.016 463.616 415.656 464 420.248 464C438.136 464 455.24 458.416 469.72 447.848L473 445.456V300.872C473 281.488 459.184 264.944 440.168 261.52V261.52ZM345 304H457V320H345V304ZM410.04 447.232C391.984 439.352 332.064 416 257 416C181.936 416 122.016 439.352 103.96 447.232C87.416 449.728 70.72 446.104 57 437.256V304H73V288H60.8C64.28 282.52 69.896 278.488 76.656 277.272C153.112 263.552 217.16 256 257 256C296.848 256 360.888 263.552 437.336 277.272C444.104 278.488 449.712 282.52 453.2 288H121V304H329V336H457V437.184C443.168 446.104 426.496 449.704 410.04 447.232ZM89 288H105V304H89V288ZM73 384H89V400H73V384ZM73 352H89V368H73V352ZM73 416H89V432H73V416ZM475.232 242.544L472.912 214.672C464.768 116.96 392.84 37.824 297.128 19.896C295.168 8.528 285.44 0 273.576 0H240.416C228.552 0 218.824 8.528 216.864 19.896C121.16 37.824 49.232 116.96 41.088 214.672L38.768 242.544C20.568 255.72 9 277.104 9 300.872V456L9.36 459.664L11.704 462.008C33.616 483.928 62.76 496 93.752 496C101.76 496 109.808 495.168 117.656 493.512L119.504 492.88C120.104 492.592 179.736 464 257 464C334.064 464 393.896 492.592 394.496 492.88L396.344 493.512C404.192 495.168 412.24 496 420.248 496C451.24 496 480.384 483.928 502.624 461.688L505 459.336V300.872C505 277.104 493.432 255.72 475.232 242.544V242.544ZM456.976 216L458.432 233.504C454.4 231.992 450.192 230.816 445.816 230.032C439.4 228.88 432.664 227.704 425.728 226.52L425.072 218.664C419.184 148.008 367.808 87.656 299.28 69.608L298.048 36.392C384.744 54.376 449.544 126.824 456.976 216V216ZM211.248 163.232C208.808 163.512 206.488 163.752 203.944 164.072C184.024 166.56 169 183.624 169 203.752V214.528C147.184 217.208 125.184 220.456 104.544 223.816L104.864 219.992C110.064 157.656 154.392 104.12 214.104 86.328L211.248 163.232ZM185 203.752C185 191.672 194 181.44 205.928 179.944C226.552 177.36 244.208 176 257 176C269.792 176 287.448 177.36 308.072 179.944C320 181.44 329 191.672 329 203.752V212.664C303.224 209.84 278.312 208 257 208C235.688 208 210.776 209.84 185 212.656V203.752ZM310.056 164.072C307.512 163.752 305.192 163.512 302.752 163.232L299.904 86.32C359.616 104.112 403.936 157.648 409.144 219.992L409.464 223.816C388.816 220.456 366.816 217.208 345.008 214.528V203.752C345 183.624 329.976 166.56 310.056 164.072V164.072ZM240.424 16H273.584C277.904 16 281.416 19.384 281.584 23.704L286.688 161.576C275.36 160.568 265.304 160 257 160C248.696 160 238.64 160.568 227.312 161.576L232.416 23.704C232.584 19.384 236.104 16 240.424 16V16ZM57.024 216C64.464 126.824 129.256 54.376 215.944 36.384L214.712 69.6C146.184 87.648 94.808 148 88.92 218.648L88.264 226.512C81.328 227.696 74.592 228.872 68.176 230.024C63.808 230.808 59.592 231.984 55.56 233.496L57.024 216ZM489 452.632C470.352 470.304 446.048 480 420.248 480C413.656 480 407.032 479.336 400.552 478.04C392.176 474.128 333.48 448 257 448C180.52 448 121.824 474.128 113.448 478.04C106.968 479.336 100.344 480 93.752 480C68.112 480 43.944 470.424 25 452.616V300.872C25 273.728 44.352 250.552 71.008 245.776C126.36 235.84 203.56 224 257 224C310.44 224 387.64 235.84 442.992 245.776C469.648 250.56 489 273.728 489 300.872V452.632ZM265 112H249V96H265V112ZM265 144H249V128H265V144ZM265 80H249V64H265V80Z" fill="url(#paint0_linear)"/>
<path d="M8.49023 626.932L8.98242 630.307L9.70312 627.266L14.7656 609.406H17.6133L22.5527 627.266L23.2559 630.359L23.8008 626.914L27.7734 609.406H31.166L24.9609 635H21.8848L16.6113 616.35L16.207 614.398L15.8027 616.35L10.3359 635H7.25977L1.07227 609.406H4.44727L8.49023 626.932ZM37.9512 635H34.6992V615.98H37.9512V635ZM34.4355 610.936C34.4355 610.408 34.5938 609.963 34.9102 609.6C35.2383 609.236 35.7188 609.055 36.3516 609.055C36.9844 609.055 37.4648 609.236 37.793 609.6C38.1211 609.963 38.2852 610.408 38.2852 610.936C38.2852 611.463 38.1211 611.902 37.793 612.254C37.4648 612.605 36.9844 612.781 36.3516 612.781C35.7188 612.781 35.2383 612.605 34.9102 612.254C34.5938 611.902 34.4355 611.463 34.4355 610.936ZM46.248 615.98L46.3535 618.371C47.8066 616.543 49.7051 615.629 52.0488 615.629C56.0684 615.629 58.0957 617.896 58.1309 622.432V635H54.8789V622.414C54.8672 621.043 54.5508 620.029 53.9297 619.373C53.3203 618.717 52.3652 618.389 51.0645 618.389C50.0098 618.389 49.084 618.67 48.2871 619.232C47.4902 619.795 46.8691 620.533 46.4238 621.447V635H43.1719V615.98H46.248ZM62.2441 625.332C62.2441 622.414 62.9355 620.07 64.3184 618.301C65.7012 616.52 67.5117 615.629 69.75 615.629C71.9766 615.629 73.7402 616.391 75.041 617.914V608H78.293V635H75.3047L75.1465 632.961C73.8457 634.555 72.0352 635.352 69.7148 635.352C67.5117 635.352 65.7129 634.449 64.3184 632.645C62.9355 630.84 62.2441 628.484 62.2441 625.578V625.332ZM65.4961 625.701C65.4961 627.857 65.9414 629.545 66.832 630.764C67.7227 631.982 68.9531 632.592 70.5234 632.592C72.5859 632.592 74.0918 631.666 75.041 629.814V621.078C74.0684 619.285 72.5742 618.389 70.5586 618.389C68.9648 618.389 67.7227 619.004 66.832 620.234C65.9414 621.465 65.4961 623.287 65.4961 625.701ZM82.4941 625.314C82.4941 623.451 82.8574 621.775 83.584 620.287C84.3223 618.799 85.3418 617.65 86.6426 616.842C87.9551 616.033 89.4492 615.629 91.125 615.629C93.7148 615.629 95.8066 616.525 97.4004 618.318C99.0059 620.111 99.8086 622.496 99.8086 625.473V625.701C99.8086 627.553 99.4512 629.217 98.7363 630.693C98.0332 632.158 97.0195 633.301 95.6953 634.121C94.3828 634.941 92.8711 635.352 91.1602 635.352C88.582 635.352 86.4902 634.455 84.8848 632.662C83.291 630.869 82.4941 628.496 82.4941 625.543V625.314ZM85.7637 625.701C85.7637 627.811 86.25 629.504 87.2227 630.781C88.207 632.059 89.5195 632.697 91.1602 632.697C92.8125 632.697 94.125 632.053 95.0977 630.764C96.0703 629.463 96.5566 627.646 96.5566 625.314C96.5566 623.229 96.0586 621.541 95.0625 620.252C94.0781 618.951 92.7656 618.301 91.125 618.301C89.5195 618.301 88.2246 618.939 87.2402 620.217C86.2559 621.494 85.7637 623.322 85.7637 625.701ZM120.727 630.518L124.383 615.98H127.635L122.098 635H119.461L114.838 620.586L110.338 635H107.701L102.182 615.98H105.416L109.16 630.219L113.59 615.98H116.209L120.727 630.518ZM142.031 629.955C142.031 629.076 141.697 628.396 141.029 627.916C140.373 627.424 139.219 627.002 137.566 626.65C135.926 626.299 134.619 625.877 133.646 625.385C132.686 624.893 131.971 624.307 131.502 623.627C131.045 622.947 130.816 622.139 130.816 621.201C130.816 619.643 131.473 618.324 132.785 617.246C134.109 616.168 135.797 615.629 137.848 615.629C140.004 615.629 141.75 616.186 143.086 617.299C144.434 618.412 145.107 619.836 145.107 621.57H141.838C141.838 620.68 141.457 619.912 140.695 619.268C139.945 618.623 138.996 618.301 137.848 618.301C136.664 618.301 135.738 618.559 135.07 619.074C134.402 619.59 134.068 620.264 134.068 621.096C134.068 621.881 134.379 622.473 135 622.871C135.621 623.27 136.74 623.65 138.357 624.014C139.986 624.377 141.305 624.811 142.312 625.314C143.32 625.818 144.064 626.428 144.545 627.143C145.037 627.846 145.283 628.707 145.283 629.727C145.283 631.426 144.604 632.791 143.244 633.822C141.885 634.842 140.121 635.352 137.953 635.352C136.43 635.352 135.082 635.082 133.91 634.543C132.738 634.004 131.818 633.254 131.15 632.293C130.494 631.32 130.166 630.271 130.166 629.146H133.418C133.477 630.236 133.91 631.104 134.719 631.748C135.539 632.381 136.617 632.697 137.953 632.697C139.184 632.697 140.168 632.451 140.906 631.959C141.656 631.455 142.031 630.787 142.031 629.955ZM163.318 609.406L171.686 630.289L180.053 609.406H184.43V635H181.055V625.033L181.371 614.275L172.969 635H170.385L162 614.328L162.334 625.033V635H158.959V609.406H163.318ZM193.412 635H190.16V615.98H193.412V635ZM189.896 610.936C189.896 610.408 190.055 609.963 190.371 609.6C190.699 609.236 191.18 609.055 191.812 609.055C192.445 609.055 192.926 609.236 193.254 609.6C193.582 609.963 193.746 610.408 193.746 610.936C193.746 611.463 193.582 611.902 193.254 612.254C192.926 612.605 192.445 612.781 191.812 612.781C191.18 612.781 190.699 612.605 190.371 612.254C190.055 611.902 189.896 611.463 189.896 610.936ZM205.014 622.924L209.232 615.98H213.029L206.807 625.385L213.223 635H209.461L205.066 627.881L200.672 635H196.893L203.309 625.385L197.086 615.98H200.848L205.014 622.924ZM224.033 635.352C221.455 635.352 219.357 634.508 217.74 632.82C216.123 631.121 215.314 628.854 215.314 626.018V625.42C215.314 623.533 215.672 621.852 216.387 620.375C217.113 618.887 218.121 617.727 219.41 616.895C220.711 616.051 222.117 615.629 223.629 615.629C226.102 615.629 228.023 616.443 229.395 618.072C230.766 619.701 231.451 622.033 231.451 625.068V626.422H218.566C218.613 628.297 219.158 629.814 220.201 630.975C221.256 632.123 222.592 632.697 224.209 632.697C225.357 632.697 226.33 632.463 227.127 631.994C227.924 631.525 228.621 630.904 229.219 630.131L231.205 631.678C229.611 634.127 227.221 635.352 224.033 635.352ZM223.629 618.301C222.316 618.301 221.215 618.781 220.324 619.742C219.434 620.691 218.883 622.027 218.672 623.75H228.199V623.504C228.105 621.852 227.66 620.574 226.863 619.672C226.066 618.758 224.988 618.301 223.629 618.301ZM234.439 625.332C234.439 622.414 235.131 620.07 236.514 618.301C237.896 616.52 239.707 615.629 241.945 615.629C244.172 615.629 245.936 616.391 247.236 617.914V608H250.488V635H247.5L247.342 632.961C246.041 634.555 244.23 635.352 241.91 635.352C239.707 635.352 237.908 634.449 236.514 632.645C235.131 630.84 234.439 628.484 234.439 625.578V625.332ZM237.691 625.701C237.691 627.857 238.137 629.545 239.027 630.764C239.918 631.982 241.148 632.592 242.719 632.592C244.781 632.592 246.287 631.666 247.236 629.814V621.078C246.264 619.285 244.77 618.389 242.754 618.389C241.16 618.389 239.918 619.004 239.027 620.234C238.137 621.465 237.691 623.287 237.691 625.701ZM274.377 624.646H268.365V635H264.973V609.406H273.445C276.328 609.406 278.543 610.062 280.09 611.375C281.648 612.688 282.428 614.598 282.428 617.105C282.428 618.699 281.994 620.088 281.127 621.271C280.271 622.455 279.076 623.34 277.541 623.926L283.553 634.789V635H279.932L274.377 624.646ZM268.365 621.887H273.551C275.227 621.887 276.557 621.453 277.541 620.586C278.537 619.719 279.035 618.559 279.035 617.105C279.035 615.523 278.561 614.311 277.611 613.467C276.674 612.623 275.314 612.195 273.533 612.184H268.365V621.887ZM294.557 635.352C291.979 635.352 289.881 634.508 288.264 632.82C286.646 631.121 285.838 628.854 285.838 626.018V625.42C285.838 623.533 286.195 621.852 286.91 620.375C287.637 618.887 288.645 617.727 289.934 616.895C291.234 616.051 292.641 615.629 294.152 615.629C296.625 615.629 298.547 616.443 299.918 618.072C301.289 619.701 301.975 622.033 301.975 625.068V626.422H289.09C289.137 628.297 289.682 629.814 290.725 630.975C291.779 632.123 293.115 632.697 294.732 632.697C295.881 632.697 296.854 632.463 297.65 631.994C298.447 631.525 299.145 630.904 299.742 630.131L301.729 631.678C300.135 634.127 297.744 635.352 294.557 635.352ZM294.152 618.301C292.84 618.301 291.738 618.781 290.848 619.742C289.957 620.691 289.406 622.027 289.195 623.75H298.723V623.504C298.629 621.852 298.184 620.574 297.387 619.672C296.59 618.758 295.512 618.301 294.152 618.301ZM317.496 635C317.309 634.625 317.156 633.957 317.039 632.996C315.527 634.566 313.723 635.352 311.625 635.352C309.75 635.352 308.209 634.824 307.002 633.77C305.807 632.703 305.209 631.355 305.209 629.727C305.209 627.746 305.959 626.211 307.459 625.121C308.971 624.02 311.092 623.469 313.822 623.469H316.986V621.975C316.986 620.838 316.646 619.936 315.967 619.268C315.287 618.588 314.285 618.248 312.961 618.248C311.801 618.248 310.828 618.541 310.043 619.127C309.258 619.713 308.865 620.422 308.865 621.254H305.596C305.596 620.305 305.93 619.391 306.598 618.512C307.277 617.621 308.191 616.918 309.34 616.402C310.5 615.887 311.771 615.629 313.154 615.629C315.346 615.629 317.062 616.18 318.305 617.281C319.547 618.371 320.191 619.877 320.238 621.799V630.553C320.238 632.299 320.461 633.688 320.906 634.719V635H317.496ZM312.1 632.521C313.119 632.521 314.086 632.258 315 631.73C315.914 631.203 316.576 630.518 316.986 629.674V625.771H314.438C310.453 625.771 308.461 626.938 308.461 629.27C308.461 630.289 308.801 631.086 309.48 631.66C310.16 632.234 311.033 632.521 312.1 632.521ZM328.869 635H325.617V608H328.869V635ZM337.623 635H334.371V615.98H337.623V635ZM334.107 610.936C334.107 610.408 334.266 609.963 334.582 609.6C334.91 609.236 335.391 609.055 336.023 609.055C336.656 609.055 337.137 609.236 337.465 609.6C337.793 609.963 337.957 610.408 337.957 610.936C337.957 611.463 337.793 611.902 337.465 612.254C337.137 612.605 336.656 612.781 336.023 612.781C335.391 612.781 334.91 612.605 334.582 612.254C334.266 611.902 334.107 611.463 334.107 610.936ZM347.256 611.375V615.98H350.807V618.494H347.256V630.289C347.256 631.051 347.414 631.625 347.73 632.012C348.047 632.387 348.586 632.574 349.348 632.574C349.723 632.574 350.238 632.504 350.895 632.363V635C350.039 635.234 349.207 635.352 348.398 635.352C346.945 635.352 345.85 634.912 345.111 634.033C344.373 633.154 344.004 631.906 344.004 630.289V618.494H340.541V615.98H344.004V611.375H347.256ZM360.844 630.236L365.273 615.98H368.754L361.107 637.936C359.924 641.1 358.043 642.682 355.465 642.682L354.85 642.629L353.637 642.4V639.764L354.516 639.834C355.617 639.834 356.473 639.611 357.082 639.166C357.703 638.721 358.213 637.906 358.611 636.723L359.332 634.789L352.547 615.98H356.098L360.844 630.236ZM400.781 635H397.389V623.17H384.486V635H381.111V609.406H384.486V620.41H397.389V609.406H400.781V635ZM414.158 635.352C411.58 635.352 409.482 634.508 407.865 632.82C406.248 631.121 405.439 628.854 405.439 626.018V625.42C405.439 623.533 405.797 621.852 406.512 620.375C407.238 618.887 408.246 617.727 409.535 616.895C410.836 616.051 412.242 615.629 413.754 615.629C416.227 615.629 418.148 616.443 419.52 618.072C420.891 619.701 421.576 622.033 421.576 625.068V626.422H408.691C408.738 628.297 409.283 629.814 410.326 630.975C411.381 632.123 412.717 632.697 414.334 632.697C415.482 632.697 416.455 632.463 417.252 631.994C418.049 631.525 418.746 630.904 419.344 630.131L421.33 631.678C419.736 634.127 417.346 635.352 414.158 635.352ZM413.754 618.301C412.441 618.301 411.34 618.781 410.449 619.742C409.559 620.691 409.008 622.027 408.797 623.75H418.324V623.504C418.23 621.852 417.785 620.574 416.988 619.672C416.191 618.758 415.113 618.301 413.754 618.301ZM437.098 635C436.91 634.625 436.758 633.957 436.641 632.996C435.129 634.566 433.324 635.352 431.227 635.352C429.352 635.352 427.811 634.824 426.604 633.77C425.408 632.703 424.811 631.355 424.811 629.727C424.811 627.746 425.561 626.211 427.061 625.121C428.572 624.02 430.693 623.469 433.424 623.469H436.588V621.975C436.588 620.838 436.248 619.936 435.568 619.268C434.889 618.588 433.887 618.248 432.562 618.248C431.402 618.248 430.43 618.541 429.645 619.127C428.859 619.713 428.467 620.422 428.467 621.254H425.197C425.197 620.305 425.531 619.391 426.199 618.512C426.879 617.621 427.793 616.918 428.941 616.402C430.102 615.887 431.373 615.629 432.756 615.629C434.947 615.629 436.664 616.18 437.906 617.281C439.148 618.371 439.793 619.877 439.84 621.799V630.553C439.84 632.299 440.062 633.688 440.508 634.719V635H437.098ZM431.701 632.521C432.721 632.521 433.688 632.258 434.602 631.73C435.516 631.203 436.178 630.518 436.588 629.674V625.771H434.039C430.055 625.771 428.062 626.938 428.062 629.27C428.062 630.289 428.402 631.086 429.082 631.66C429.762 632.234 430.635 632.521 431.701 632.521ZM444.146 625.332C444.146 622.414 444.838 620.07 446.221 618.301C447.604 616.52 449.414 615.629 451.652 615.629C453.879 615.629 455.643 616.391 456.943 617.914V608H460.195V635H457.207L457.049 632.961C455.748 634.555 453.938 635.352 451.617 635.352C449.414 635.352 447.615 634.449 446.221 632.645C444.838 630.84 444.146 628.484 444.146 625.578V625.332ZM447.398 625.701C447.398 627.857 447.844 629.545 448.734 630.764C449.625 631.982 450.855 632.592 452.426 632.592C454.488 632.592 455.994 631.666 456.943 629.814V621.078C455.971 619.285 454.477 618.389 452.461 618.389C450.867 618.389 449.625 619.004 448.734 620.234C447.844 621.465 447.398 623.287 447.398 625.701ZM476.332 629.955C476.332 629.076 475.998 628.396 475.33 627.916C474.674 627.424 473.52 627.002 471.867 626.65C470.227 626.299 468.92 625.877 467.947 625.385C466.986 624.893 466.271 624.307 465.803 623.627C465.346 622.947 465.117 622.139 465.117 621.201C465.117 619.643 465.773 618.324 467.086 617.246C468.41 616.168 470.098 615.629 472.148 615.629C474.305 615.629 476.051 616.186 477.387 617.299C478.734 618.412 479.408 619.836 479.408 621.57H476.139C476.139 620.68 475.758 619.912 474.996 619.268C474.246 618.623 473.297 618.301 472.148 618.301C470.965 618.301 470.039 618.559 469.371 619.074C468.703 619.59 468.369 620.264 468.369 621.096C468.369 621.881 468.68 622.473 469.301 622.871C469.922 623.27 471.041 623.65 472.658 624.014C474.287 624.377 475.605 624.811 476.613 625.314C477.621 625.818 478.365 626.428 478.846 627.143C479.338 627.846 479.584 628.707 479.584 629.727C479.584 631.426 478.904 632.791 477.545 633.822C476.186 634.842 474.422 635.352 472.254 635.352C470.73 635.352 469.383 635.082 468.211 634.543C467.039 634.004 466.119 633.254 465.451 632.293C464.795 631.32 464.467 630.271 464.467 629.146H467.719C467.777 630.236 468.211 631.104 469.02 631.748C469.84 632.381 470.918 632.697 472.254 632.697C473.484 632.697 474.469 632.451 475.207 631.959C475.957 631.455 476.332 630.787 476.332 629.955ZM491.713 635.352C489.135 635.352 487.037 634.508 485.42 632.82C483.803 631.121 482.994 628.854 482.994 626.018V625.42C482.994 623.533 483.352 621.852 484.066 620.375C484.793 618.887 485.801 617.727 487.09 616.895C488.391 616.051 489.797 615.629 491.309 615.629C493.781 615.629 495.703 616.443 497.074 618.072C498.445 619.701 499.131 622.033 499.131 625.068V626.422H486.246C486.293 628.297 486.838 629.814 487.881 630.975C488.936 632.123 490.271 632.697 491.889 632.697C493.037 632.697 494.01 632.463 494.807 631.994C495.604 631.525 496.301 630.904 496.898 630.131L498.885 631.678C497.291 634.127 494.9 635.352 491.713 635.352ZM491.309 618.301C489.996 618.301 488.895 618.781 488.004 619.742C487.113 620.691 486.562 622.027 486.352 623.75H495.879V623.504C495.785 621.852 495.34 620.574 494.543 619.672C493.746 618.758 492.668 618.301 491.309 618.301ZM507.322 611.375V615.98H510.873V618.494H507.322V630.289C507.322 631.051 507.48 631.625 507.797 632.012C508.113 632.387 508.652 632.574 509.414 632.574C509.789 632.574 510.305 632.504 510.961 632.363V635C510.105 635.234 509.273 635.352 508.465 635.352C507.012 635.352 505.916 634.912 505.178 634.033C504.439 633.154 504.07 631.906 504.07 630.289V618.494H500.607V615.98H504.07V611.375H507.322Z" fill="#424242"/>
<defs>
<linearGradient id="paint0_linear" x1="257" y1="496" x2="257" y2="0" gradientUnits="userSpaceOnUse">
<stop stop-color="#FFDE2F"/>
<stop offset="1" stop-color="#0BB1D3"/>
</linearGradient>
</defs>
</svg>
