<svg width="2917" height="268" viewBox="0 0 2917 268" fill="none" xmlns="http://www.w3.org/2000/svg">
<path d="M128.079 0C87.232 0 54 32.9714 54 73.4996C54 114.028 87.232 147 128.079 147C168.926 147 202.157 114.028 202.157 73.4996C202.157 32.9714 168.926 0 128.079 0ZM170.616 61.0849L124.076 107.261C122.097 109.224 119.467 110.305 116.669 110.305C113.87 110.305 111.24 109.224 109.261 107.261L85.5414 83.727C83.5625 81.7636 82.4726 79.1536 82.4726 76.3772C82.4726 73.6001 83.5625 70.9901 85.5414 69.0267C87.5195 67.0633 90.15 65.9819 92.9491 65.9819C95.7473 65.9819 98.3786 67.0633 100.357 69.0275L116.668 85.2103L155.799 46.3847C157.778 44.4213 160.409 43.3406 163.207 43.3406C166.005 43.3406 168.636 44.4213 170.615 46.3847C174.701 50.4388 174.701 57.0323 170.616 61.0849Z" fill="#77DB81"/>
<path d="M1406.08 0C1365.23 0 1332 32.9714 1332 73.4996C1332 114.028 1365.23 147 1406.08 147C1446.93 147 1480.16 114.028 1480.16 73.4996C1480.16 32.9714 1446.93 0 1406.08 0ZM1448.62 61.0849L1402.08 107.261C1400.1 109.224 1397.47 110.305 1394.67 110.305C1391.87 110.305 1389.24 109.224 1387.26 107.261L1363.54 83.727C1361.56 81.7636 1360.47 79.1536 1360.47 76.3772C1360.47 73.6001 1361.56 70.9901 1363.54 69.0267C1365.52 67.0633 1368.15 65.9819 1370.95 65.9819C1373.75 65.9819 1376.38 67.0633 1378.36 69.0275L1394.67 85.2103L1433.8 46.3847C1435.78 44.4213 1438.41 43.3406 1441.21 43.3406C1444.01 43.3406 1446.64 44.4213 1448.61 46.3847C1452.7 50.4388 1452.7 57.0323 1448.62 61.0849Z" fill="#77DB81"/>
<path d="M2694.08 0C2653.23 0 2620 32.9714 2620 73.4996C2620 114.028 2653.23 147 2694.08 147C2734.93 147 2768.16 114.028 2768.16 73.4996C2768.16 32.9714 2734.93 0 2694.08 0ZM2736.62 61.0849L2690.08 107.261C2688.1 109.224 2685.47 110.305 2682.67 110.305C2679.87 110.305 2677.24 109.224 2675.26 107.261L2651.54 83.727C2649.56 81.7636 2648.47 79.1536 2648.47 76.3772C2648.47 73.6001 2649.56 70.9901 2651.54 69.0267C2653.52 67.0633 2656.15 65.9819 2658.95 65.9819C2661.75 65.9819 2664.38 67.0633 2666.36 69.0275L2682.67 85.2103L2721.8 46.3847C2723.78 44.4213 2726.41 43.3406 2729.21 43.3406C2732.01 43.3406 2734.64 44.4213 2736.61 46.3847C2740.7 50.4388 2740.7 57.0323 2736.62 61.0849Z" fill="#77DB81"/>
<rect x="191" y="58" width="1163" height="38" fill="#77DB81"/>
<rect x="1474" y="55" width="1163" height="38" fill="#77DB81"/>
<path d="M21 262V238H9V232H21V226H27V220H45V226H33V232H45V238H33V262H21ZM57 262V256H51V238H57V232H87V238H93V256H87V262H57ZM63 256H81V238H63V256ZM105 262V256H99V238H105V232H141V238H111V256H141V262H105ZM153 262V256H147V232H159V256H177V232H189V262H153ZM195 262V256H225V250H201V244H195V238H201V232H231V238H207V244H231V250H237V256H231V262H195Z" fill="black"/>
<path d="M2483.5 262V256H2477.5V238H2483.5V232H2519.5V238H2489.5V256H2519.5V262H2483.5ZM2531.5 262V256H2525.5V238H2531.5V232H2561.5V238H2567.5V256H2561.5V262H2531.5ZM2537.5 256H2555.5V238H2537.5V256ZM2573.5 262V232H2609.5V238H2615.5V262H2603.5V238H2585.5V262H2573.5ZM2627.5 262V238H2621.5V232H2627.5V226H2633.5V220H2651.5V226H2639.5V232H2663.5V262H2651.5V238H2639.5V262H2627.5ZM2675.5 262V256H2669.5V238H2675.5V232H2699.5V220H2711.5V262H2675.5ZM2681.5 256H2699.5V238H2681.5V256ZM2723.5 262V256H2717.5V238H2723.5V232H2753.5V238H2759.5V250H2729.5V256H2753.5V262H2723.5ZM2729.5 244H2747.5V238H2729.5V244ZM2765.5 262V232H2801.5V238H2807.5V262H2795.5V238H2777.5V262H2765.5ZM2819.5 262V256H2813.5V238H2819.5V232H2855.5V238H2825.5V256H2855.5V262H2819.5ZM2867.5 262V256H2861.5V238H2867.5V232H2897.5V238H2903.5V250H2873.5V256H2897.5V262H2867.5ZM2873.5 244H2891.5V238H2873.5V244Z" fill="black"/>
<path d="M1123.5 262V256H1117.5V250H1123.5V244H1147.5V238H1123.5V232H1153.5V238H1159.5V262H1123.5ZM1129.5 256H1147.5V250H1129.5V256ZM1183.5 238H1189.5V244H1183.5V262H1171.5V232H1183.5V238ZM1207.5 232V238H1189.5V232H1207.5ZM1231.5 262V238H1219.5V232H1231.5V220H1243.5V232H1255.5V238H1243.5V262H1231.5ZM1279.5 226V220H1291.5V226H1279.5ZM1267.5 262V256H1279.5V238H1273.5V232H1291.5V256H1303.5V262H1267.5ZM1315.5 262V256H1309.5V238H1315.5V232H1351.5V238H1321.5V256H1351.5V262H1315.5ZM1363.5 262V256H1357.5V232H1369.5V256H1387.5V232H1399.5V262H1363.5ZM1411.5 262V256H1423.5V226H1417.5V220H1435.5V256H1447.5V262H1411.5ZM1459.5 262V256H1453.5V250H1459.5V244H1483.5V238H1459.5V232H1489.5V238H1495.5V262H1459.5ZM1465.5 256H1483.5V250H1465.5V256ZM1519.5 262V238H1507.5V232H1519.5V220H1531.5V232H1543.5V238H1531.5V262H1519.5ZM1567.5 226V220H1579.5V226H1567.5ZM1555.5 262V256H1567.5V238H1561.5V232H1579.5V256H1591.5V262H1555.5ZM1603.5 262V256H1597.5V238H1603.5V232H1633.5V238H1639.5V256H1633.5V262H1603.5ZM1609.5 256H1627.5V238H1609.5V256ZM1645.5 262V232H1681.5V238H1687.5V262H1675.5V238H1657.5V262H1645.5Z" fill="black"/>
</svg>
