<svg width="406" height="242" viewBox="0 0 406 242" fill="none" xmlns="http://www.w3.org/2000/svg">
<g filter="url(#filter0_d)">
<rect x="4" width="398" height="234" fill="white"/>
</g>
<path d="M146.106 205.064C144.786 206.428 143.268 207.11 141.552 207.11C140.511 207.11 139.543 206.897 138.648 206.472C137.753 206.032 136.976 205.445 136.316 204.712C135.656 203.979 135.135 203.128 134.754 202.16C134.387 201.192 134.204 200.18 134.204 199.124C134.204 198.068 134.387 197.063 134.754 196.11C135.135 195.157 135.656 194.321 136.316 193.602C136.976 192.883 137.761 192.319 138.67 191.908C139.579 191.483 140.569 191.27 141.64 191.27C143.136 191.27 144.39 191.585 145.402 192.216C146.414 192.832 147.177 193.653 147.69 194.68L145.798 196.044C145.373 195.193 144.786 194.555 144.038 194.13C143.29 193.705 142.469 193.492 141.574 193.492C140.841 193.492 140.173 193.653 139.572 193.976C138.971 194.284 138.457 194.702 138.032 195.23C137.607 195.743 137.277 196.345 137.042 197.034C136.822 197.723 136.712 198.442 136.712 199.19C136.712 199.982 136.837 200.723 137.086 201.412C137.35 202.101 137.702 202.703 138.142 203.216C138.597 203.729 139.132 204.14 139.748 204.448C140.364 204.741 141.031 204.888 141.75 204.888C142.542 204.888 143.297 204.705 144.016 204.338C144.749 203.971 145.446 203.392 146.106 202.6V200.928H142.828V199.102H148.174V207H146.106V205.064ZM153.735 207.22C153.177 207.22 152.657 207.132 152.173 206.956C151.703 206.765 151.293 206.509 150.941 206.186C150.603 205.863 150.332 205.482 150.127 205.042C149.936 204.602 149.841 204.125 149.841 203.612C149.841 203.069 149.958 202.578 150.193 202.138C150.427 201.698 150.757 201.317 151.183 200.994C151.623 200.671 152.136 200.422 152.723 200.246C153.324 200.07 153.984 199.982 154.703 199.982C155.245 199.982 155.781 200.033 156.309 200.136C156.837 200.224 157.313 200.349 157.739 200.51V199.718C157.739 198.867 157.497 198.207 157.013 197.738C156.529 197.254 155.832 197.012 154.923 197.012C154.307 197.012 153.698 197.129 153.097 197.364C152.51 197.584 151.901 197.907 151.271 198.332L150.523 196.792C152.004 195.795 153.544 195.296 155.143 195.296C156.727 195.296 157.959 195.699 158.839 196.506C159.719 197.313 160.159 198.471 160.159 199.982V204.14C160.159 204.653 160.371 204.917 160.797 204.932V207C160.562 207.044 160.357 207.073 160.181 207.088C160.019 207.103 159.858 207.11 159.697 207.11C159.227 207.11 158.861 206.993 158.597 206.758C158.347 206.523 158.193 206.223 158.135 205.856L158.069 205.13C157.555 205.805 156.917 206.325 156.155 206.692C155.407 207.044 154.6 207.22 153.735 207.22ZM154.395 205.438C154.981 205.438 155.531 205.335 156.045 205.13C156.573 204.91 156.983 204.609 157.277 204.228C157.585 203.964 157.739 203.685 157.739 203.392V201.874C157.328 201.713 156.888 201.588 156.419 201.5C155.964 201.412 155.517 201.368 155.077 201.368C154.211 201.368 153.5 201.559 152.943 201.94C152.4 202.307 152.129 202.798 152.129 203.414C152.129 203.986 152.341 204.47 152.767 204.866C153.192 205.247 153.735 205.438 154.395 205.438ZM180.695 207H178.275V200.554C178.275 199.483 178.099 198.699 177.747 198.2C177.395 197.701 176.881 197.452 176.207 197.452C175.517 197.452 174.887 197.709 174.315 198.222C173.757 198.721 173.354 199.373 173.105 200.18V207H170.685V200.554C170.685 199.469 170.509 198.684 170.157 198.2C169.805 197.701 169.299 197.452 168.639 197.452C167.949 197.452 167.319 197.701 166.747 198.2C166.175 198.699 165.764 199.351 165.515 200.158V207H163.095V195.494H165.295V197.804C165.749 196.997 166.343 196.381 167.077 195.956C167.825 195.516 168.675 195.296 169.629 195.296C170.582 195.296 171.33 195.545 171.873 196.044C172.43 196.543 172.775 197.166 172.907 197.914C173.391 197.063 173.999 196.418 174.733 195.978C175.466 195.523 176.302 195.296 177.241 195.296C177.915 195.296 178.473 195.428 178.913 195.692C179.367 195.941 179.727 196.279 179.991 196.704C180.255 197.129 180.438 197.628 180.541 198.2C180.643 198.757 180.695 199.351 180.695 199.982V207ZM188.697 207.22C187.803 207.22 186.989 207.066 186.255 206.758C185.522 206.435 184.891 206.003 184.363 205.46C183.85 204.917 183.447 204.287 183.153 203.568C182.875 202.849 182.735 202.087 182.735 201.28C182.735 200.473 182.875 199.711 183.153 198.992C183.447 198.259 183.85 197.621 184.363 197.078C184.891 196.521 185.522 196.088 186.255 195.78C186.989 195.457 187.81 195.296 188.719 195.296C189.614 195.296 190.421 195.457 191.139 195.78C191.873 196.103 192.496 196.535 193.009 197.078C193.523 197.606 193.911 198.229 194.175 198.948C194.454 199.652 194.593 200.393 194.593 201.17C194.593 201.346 194.586 201.515 194.571 201.676C194.557 201.823 194.542 201.947 194.527 202.05H185.309C185.353 202.563 185.471 203.025 185.661 203.436C185.867 203.847 186.123 204.206 186.431 204.514C186.754 204.807 187.113 205.035 187.509 205.196C187.92 205.357 188.345 205.438 188.785 205.438C189.108 205.438 189.423 205.401 189.731 205.328C190.054 205.24 190.347 205.123 190.611 204.976C190.875 204.815 191.11 204.624 191.315 204.404C191.521 204.184 191.682 203.942 191.799 203.678L193.867 204.272C193.471 205.137 192.811 205.849 191.887 206.406C190.978 206.949 189.915 207.22 188.697 207.22ZM192.195 200.378C192.151 199.894 192.027 199.447 191.821 199.036C191.631 198.625 191.381 198.281 191.073 198.002C190.765 197.709 190.406 197.481 189.995 197.32C189.585 197.159 189.152 197.078 188.697 197.078C188.243 197.078 187.81 197.159 187.399 197.32C187.003 197.481 186.651 197.709 186.343 198.002C186.035 198.281 185.786 198.625 185.595 199.036C185.405 199.447 185.287 199.894 185.243 200.378H192.195ZM202.311 207V191.38H207.855C209.116 191.38 210.216 191.585 211.155 191.996C212.108 192.407 212.9 192.964 213.531 193.668C214.176 194.372 214.66 195.201 214.983 196.154C215.305 197.093 215.467 198.097 215.467 199.168C215.467 200.356 215.283 201.434 214.917 202.402C214.565 203.355 214.059 204.177 213.399 204.866C212.739 205.541 211.939 206.069 211.001 206.45C210.062 206.817 209.013 207 207.855 207H202.311ZM212.959 199.168C212.959 198.347 212.841 197.591 212.607 196.902C212.387 196.213 212.057 195.626 211.617 195.142C211.177 194.643 210.641 194.255 210.011 193.976C209.38 193.697 208.661 193.558 207.855 193.558H204.775V204.822H207.855C208.676 204.822 209.402 204.683 210.033 204.404C210.678 204.111 211.213 203.715 211.639 203.216C212.079 202.703 212.409 202.101 212.629 201.412C212.849 200.723 212.959 199.975 212.959 199.168ZM222.965 207.22C222.07 207.22 221.256 207.066 220.523 206.758C219.789 206.435 219.159 206.003 218.631 205.46C218.117 204.917 217.714 204.287 217.421 203.568C217.142 202.849 217.003 202.087 217.003 201.28C217.003 200.473 217.142 199.711 217.421 198.992C217.714 198.259 218.117 197.621 218.631 197.078C219.159 196.521 219.789 196.088 220.523 195.78C221.256 195.457 222.077 195.296 222.987 195.296C223.881 195.296 224.688 195.457 225.407 195.78C226.14 196.103 226.763 196.535 227.277 197.078C227.79 197.606 228.179 198.229 228.443 198.948C228.721 199.652 228.861 200.393 228.861 201.17C228.861 201.346 228.853 201.515 228.839 201.676C228.824 201.823 228.809 201.947 228.795 202.05H219.577C219.621 202.563 219.738 203.025 219.929 203.436C220.134 203.847 220.391 204.206 220.699 204.514C221.021 204.807 221.381 205.035 221.777 205.196C222.187 205.357 222.613 205.438 223.053 205.438C223.375 205.438 223.691 205.401 223.999 205.328C224.321 205.24 224.615 205.123 224.879 204.976C225.143 204.815 225.377 204.624 225.583 204.404C225.788 204.184 225.949 203.942 226.067 203.678L228.135 204.272C227.739 205.137 227.079 205.849 226.155 206.406C225.245 206.949 224.182 207.22 222.965 207.22ZM226.463 200.378C226.419 199.894 226.294 199.447 226.089 199.036C225.898 198.625 225.649 198.281 225.341 198.002C225.033 197.709 224.673 197.481 224.263 197.32C223.852 197.159 223.419 197.078 222.965 197.078C222.51 197.078 222.077 197.159 221.667 197.32C221.271 197.481 220.919 197.709 220.611 198.002C220.303 198.281 220.053 198.625 219.863 199.036C219.672 199.447 219.555 199.894 219.511 200.378H226.463ZM235.015 207.22C234.091 207.22 233.167 207.073 232.243 206.78C231.333 206.472 230.549 206.039 229.889 205.482L230.857 203.942C231.546 204.441 232.228 204.822 232.903 205.086C233.577 205.335 234.267 205.46 234.971 205.46C235.689 205.46 236.254 205.321 236.665 205.042C237.09 204.763 237.303 204.367 237.303 203.854C237.303 203.37 237.068 203.018 236.599 202.798C236.129 202.578 235.396 202.336 234.399 202.072C233.68 201.881 233.064 201.698 232.551 201.522C232.037 201.346 231.619 201.141 231.297 200.906C230.974 200.671 230.739 200.4 230.593 200.092C230.446 199.784 230.373 199.41 230.373 198.97C230.373 198.383 230.483 197.863 230.703 197.408C230.937 196.953 231.253 196.572 231.649 196.264C232.059 195.941 232.536 195.699 233.079 195.538C233.621 195.377 234.208 195.296 234.839 195.296C235.704 195.296 236.511 195.428 237.259 195.692C238.007 195.956 238.674 196.337 239.261 196.836L238.227 198.288C237.156 197.437 236.019 197.012 234.817 197.012C234.201 197.012 233.68 197.144 233.255 197.408C232.844 197.657 232.639 198.061 232.639 198.618C232.639 198.853 232.683 199.051 232.771 199.212C232.859 199.373 232.998 199.513 233.189 199.63C233.394 199.747 233.651 199.857 233.959 199.96C234.281 200.048 234.677 200.151 235.147 200.268C235.924 200.459 236.591 200.649 237.149 200.84C237.721 201.031 238.19 201.258 238.557 201.522C238.923 201.771 239.195 202.072 239.371 202.424C239.547 202.761 239.635 203.172 239.635 203.656C239.635 204.756 239.217 205.629 238.381 206.274C237.559 206.905 236.437 207.22 235.015 207.22ZM241.749 207V195.494H244.169V207H241.749ZM241.749 193.602V190.94H244.169V193.602H241.749ZM251.631 207.11C250.854 207.11 250.142 206.956 249.497 206.648C248.852 206.325 248.294 205.893 247.825 205.35C247.37 204.807 247.011 204.184 246.747 203.48C246.498 202.776 246.373 202.035 246.373 201.258C246.373 200.437 246.505 199.667 246.769 198.948C247.033 198.215 247.4 197.584 247.869 197.056C248.338 196.513 248.896 196.088 249.541 195.78C250.201 195.457 250.927 195.296 251.719 195.296C252.643 195.296 253.45 195.516 254.139 195.956C254.843 196.396 255.422 196.968 255.877 197.672V195.494H258.011V206.67C258.011 207.506 257.857 208.247 257.549 208.892C257.241 209.537 256.808 210.08 256.251 210.52C255.708 210.975 255.063 211.319 254.315 211.554C253.567 211.789 252.76 211.906 251.895 211.906C250.619 211.906 249.556 211.686 248.705 211.246C247.869 210.821 247.165 210.219 246.593 209.442L247.957 208.166C248.397 208.782 248.962 209.251 249.651 209.574C250.355 209.897 251.103 210.058 251.895 210.058C252.394 210.058 252.863 209.992 253.303 209.86C253.758 209.728 254.154 209.523 254.491 209.244C254.828 208.965 255.092 208.613 255.283 208.188C255.488 207.763 255.591 207.257 255.591 206.67V204.91C255.18 205.614 254.616 206.157 253.897 206.538C253.178 206.919 252.423 207.11 251.631 207.11ZM252.423 205.152C252.79 205.152 253.142 205.093 253.479 204.976C253.816 204.844 254.124 204.675 254.403 204.47C254.696 204.25 254.946 204.008 255.151 203.744C255.356 203.465 255.503 203.172 255.591 202.864V199.85C255.444 199.483 255.254 199.153 255.019 198.86C254.784 198.552 254.513 198.288 254.205 198.068C253.912 197.848 253.596 197.679 253.259 197.562C252.922 197.43 252.584 197.364 252.247 197.364C251.719 197.364 251.242 197.481 250.817 197.716C250.406 197.936 250.054 198.237 249.761 198.618C249.468 198.985 249.24 199.403 249.079 199.872C248.918 200.341 248.837 200.825 248.837 201.324C248.837 201.852 248.925 202.351 249.101 202.82C249.292 203.275 249.548 203.678 249.871 204.03C250.194 204.367 250.568 204.639 250.993 204.844C251.433 205.049 251.91 205.152 252.423 205.152ZM271.231 207H268.811V200.554C268.811 199.469 268.635 198.684 268.283 198.2C267.946 197.701 267.44 197.452 266.765 197.452C266.413 197.452 266.061 197.518 265.709 197.65C265.357 197.782 265.027 197.973 264.719 198.222C264.411 198.457 264.132 198.743 263.883 199.08C263.648 199.403 263.465 199.762 263.333 200.158V207H260.913V195.494H263.113V197.804C263.553 197.027 264.191 196.418 265.027 195.978C265.863 195.523 266.787 195.296 267.799 195.296C268.488 195.296 269.053 195.421 269.493 195.67C269.933 195.919 270.278 196.264 270.527 196.704C270.791 197.129 270.974 197.628 271.077 198.2C271.18 198.757 271.231 199.351 271.231 199.982V207Z" fill="black"/>
<path d="M203 157C232.823 157 257 132.823 257 103C257 73.1766 232.823 49 203 49C173.177 49 149 73.1766 149 103C149 132.823 173.177 157 203 157Z" fill="#688CFF"/>
<path d="M203.915 156.988C231.868 156.524 254.652 134.822 256.828 107.317L227.754 78.2435L217.158 92.72L194.976 70.5374L190.334 76.6362L209 95.3027L198.9 104.312L183.93 89.3414L170.107 94.56L189.758 114.089L178.508 131.644L203.915 156.988Z" fill="#6F6CFF"/>
<path d="M205.465 132.723V99.8466H177.417V129.04C177.417 131.074 179.066 132.723 181.1 132.723H186.902C187.666 132.723 188.127 131.852 187.673 131.237C187.104 130.463 186.767 129.508 186.767 128.473C186.767 125.813 188.988 123.673 191.676 123.804C194.059 123.921 196.01 125.886 196.111 128.271C196.159 129.386 195.814 130.417 195.205 131.242C194.752 131.854 195.22 132.723 195.981 132.723H205.465Z" fill="#FFC61B"/>
<path d="M191.485 99.8466V123.805C191.549 123.806 191.612 123.801 191.676 123.804C194.06 123.921 196.011 125.886 196.112 128.271C196.159 129.386 195.815 130.417 195.205 131.242C194.753 131.854 195.22 132.723 195.981 132.723H205.465V99.8466H191.485Z" fill="#EAA22F"/>
<path d="M196.073 77.2709V105.318H225.267C227.301 105.318 228.949 103.669 228.949 101.635V95.8338C228.949 95.0694 228.079 94.6087 227.463 95.0622C226.69 95.6319 225.735 95.969 224.7 95.969C222.04 95.969 219.899 93.7483 220.031 91.0599C220.147 88.6763 222.112 86.7253 224.497 86.6243C225.612 86.577 226.644 86.9213 227.469 87.5309C228.081 87.9833 228.949 87.5157 228.949 86.7542V80.9538C228.949 78.9196 227.301 77.2709 225.267 77.2709H196.073V77.2709Z" fill="#FEE187"/>
<path d="M224.497 86.6243C225.612 86.5771 226.644 86.9213 227.469 87.5309C228.081 87.9834 228.95 87.5158 228.95 86.7545V80.9537C228.95 78.9194 227.301 77.2708 225.267 77.2708H214.879V105.318H225.267C227.301 105.318 228.95 103.67 228.95 101.635V95.8339C228.95 95.0692 228.079 94.6087 227.463 95.0623C226.69 95.632 225.735 95.9691 224.7 95.9691C222.04 95.9691 219.899 93.7479 220.031 91.0599C220.148 88.6761 222.113 86.7256 224.497 86.6243Z" fill="#FFC61B"/>
<path d="M201.012 86.6243C202.127 86.5771 203.159 86.9213 203.983 87.5309C204.595 87.9834 205.464 87.5157 205.464 86.7542V80.9539C205.464 78.9196 203.815 77.2709 201.781 77.2709H196.343C195.627 77.2709 195.162 76.4999 195.514 75.877C195.974 75.0639 196.197 74.0997 196.088 73.076C195.858 70.924 194.123 69.18 191.972 68.9425C189.152 68.6315 186.766 70.8308 186.766 73.5875C186.766 74.4205 186.984 75.2014 187.367 75.8777C187.719 76.5001 187.254 77.2705 186.538 77.2705H181.1C179.065 77.2705 177.417 78.9196 177.417 80.9535V86.5625C177.417 87.3113 176.59 87.7566 175.96 87.3527C175.155 86.8369 174.181 86.5617 173.138 86.6294C170.796 86.7817 168.893 88.7206 168.781 91.0645C168.653 93.7504 170.793 95.9682 173.45 95.9682C174.384 95.9682 175.252 95.6936 175.981 95.2217C176.599 94.8207 177.417 95.289 177.417 96.0264V101.634C177.417 103.669 179.066 105.317 181.1 105.317H201.781C203.815 105.317 205.464 103.668 205.464 101.634V95.833C205.464 95.0686 204.594 94.6079 203.978 95.0614C203.204 95.6311 202.249 95.9682 201.214 95.9682C198.555 95.9682 196.414 93.7475 196.546 91.0591C196.662 88.6761 198.627 86.7256 201.012 86.6243Z" fill="#EAA22F"/>
<path d="M201.012 86.6242C202.127 86.577 203.159 86.9212 203.983 87.5309C204.595 87.9833 205.464 87.5157 205.464 86.7544V80.9536C205.464 78.9193 203.816 77.2706 201.781 77.2706H196.343C195.627 77.2706 195.162 76.4997 195.514 75.8768C195.974 75.0636 196.197 74.0996 196.088 73.0757C195.858 70.9237 194.123 69.1797 191.972 68.9426C191.808 68.9245 191.646 68.9169 191.485 68.9154V105.318H201.781C203.816 105.318 205.464 103.67 205.464 101.635V95.834C205.464 95.0693 204.594 94.6089 203.978 95.0624C203.205 95.6321 202.25 95.9692 201.214 95.9692C198.555 95.9692 196.414 93.748 196.546 91.06C196.662 88.676 198.627 86.7255 201.012 86.6242Z" fill="#E09112"/>
<path d="M219.513 128.271C219.561 129.386 219.216 130.417 218.607 131.242C218.154 131.854 218.622 132.723 219.384 132.723H225.184C227.218 132.723 228.867 131.074 228.867 129.04V123.602C228.867 122.886 229.638 122.421 230.261 122.773C231.074 123.233 232.038 123.456 233.062 123.347C235.214 123.117 236.958 121.382 237.195 119.231C237.506 116.411 235.307 114.025 232.55 114.025C231.717 114.025 230.936 114.243 230.26 114.626C229.638 114.978 228.867 114.513 228.867 113.797V108.358C228.867 106.324 227.218 104.675 225.184 104.675H219.574C218.826 104.675 218.38 103.849 218.784 103.219C219.3 102.414 219.575 101.44 219.508 100.397C219.355 98.055 217.416 96.1521 215.072 96.0401C212.386 95.9121 210.169 98.0518 210.169 100.709C210.169 101.643 210.443 102.511 210.915 103.239C211.316 103.858 210.848 104.676 210.11 104.676H204.503C202.468 104.676 200.82 106.325 200.82 108.359V129.04C200.82 131.074 202.468 132.723 204.503 132.723H210.304C211.068 132.723 211.529 131.853 211.076 131.237C210.506 130.463 210.169 129.508 210.169 128.473C210.169 125.813 212.389 123.673 215.078 123.804C217.461 123.921 219.412 125.886 219.513 128.271Z" fill="#FF5419"/>
<path d="M232.55 114.025C231.717 114.025 230.936 114.244 230.26 114.626C229.637 114.978 228.867 114.513 228.867 113.797V108.359C228.867 106.324 227.218 104.676 225.184 104.676H219.574C218.826 104.676 218.38 103.849 218.784 103.219C219.3 102.414 219.575 101.44 219.508 100.397C219.355 98.055 217.417 96.1521 215.072 96.0401C215.048 96.039 215.025 96.0412 215 96.0405V123.805C215.027 123.806 215.052 123.803 215.078 123.805C217.462 123.921 219.413 125.886 219.514 128.271C219.561 129.386 219.217 130.418 218.607 131.242C218.155 131.854 218.622 132.723 219.384 132.723H225.184C227.218 132.723 228.867 131.074 228.867 129.04V123.602C228.867 122.887 229.638 122.421 230.261 122.773C231.074 123.233 232.038 123.456 233.062 123.347C235.214 123.117 236.958 121.382 237.196 119.231C237.506 116.411 235.307 114.025 232.55 114.025Z" fill="#C92F00"/>
<defs>
<filter id="filter0_d" x="0" y="0" width="406" height="242" filterUnits="userSpaceOnUse" color-interpolation-filters="sRGB">
<feFlood flood-opacity="0" result="BackgroundImageFix"/>
<feColorMatrix in="SourceAlpha" type="matrix" values="0 0 0 0 0 0 0 0 0 0 0 0 0 0 0 0 0 0 127 0"/>
<feOffset dy="4"/>
<feGaussianBlur stdDeviation="2"/>
<feColorMatrix type="matrix" values="0 0 0 0 0 0 0 0 0 0 0 0 0 0 0 0 0 0 0.25 0"/>
<feBlend mode="normal" in2="BackgroundImageFix" result="effect1_dropShadow"/>
<feBlend mode="normal" in="SourceGraphic" in2="effect1_dropShadow" result="shape"/>
</filter>
</defs>
</svg>
