<svg width="896" height="277" viewBox="0 0 896 277" fill="none" xmlns="http://www.w3.org/2000/svg">
<path d="M419 212V203H410V194H401V185H392V149H410V176H419V185H428V176H437V149H455V185H446V194H437V203H428V212H419ZM464 212V149H518V158H527V185H509V194H518V203H527V212H500V203H491V194H482V212H464ZM482 185H500V176H509V158H482V185ZM545 212V203H536V194H545V185H581V176H545V167H590V176H599V212H545ZM554 203H581V194H554V203ZM635 212V203H626V194H617V167H635V194H653V167H671V194H662V203H653V212H635ZM689 212V203H680V176H689V167H734V176H743V194H698V203H734V212H689ZM698 185H725V176H698V185ZM779 176H788V185H779V212H761V167H779V176ZM815 167V176H788V167H815ZM833 221V212H869V203H833V194H824V167H842V194H869V167H887V212H878V221H833Z" fill="black"/>
<path d="M213.855 272.813H59.1443C59.1443 272.813 61.1895 253.747 72.1057 236.261C83.0231 218.777 116.418 218.493 116.418 218.493V198.799C121.714 203.815 128.767 206.88 136.505 206.88C144.238 206.88 151.285 203.823 156.582 198.813V218.493C156.582 218.493 189.976 218.777 200.894 236.261C211.811 253.746 213.855 272.813 213.855 272.813Z" fill="#AD57D6"/>
<path d="M156.584 198.813V218.493C156.584 218.493 154.16 233.237 136.5 233.237C118.84 233.237 116.419 218.493 116.419 218.493V198.799C121.716 203.815 128.769 206.881 136.506 206.881C144.24 206.881 151.287 203.823 156.584 198.813Z" fill="#FFD4BE"/>
<path d="M136.5 150.384C124.165 150.384 113.612 152.457 107.286 154.064C110.017 139.916 122.061 129.262 136.5 129.262C144.728 129.262 152.181 132.723 157.572 138.316C161.643 142.538 164.54 147.977 165.717 154.064C159.391 152.457 148.837 150.384 136.5 150.384Z" fill="#FFD4BE"/>
<path d="M157.38 183.569L165.221 184.233C161.74 197.294 150.198 206.88 136.5 206.88C122.804 206.88 111.262 197.294 107.781 184.233L115.619 183.569C119.662 183.228 123.434 181.295 126.122 178.143C126.943 177.18 127.981 176.399 129.083 175.768C133.677 173.129 139.322 173.129 143.92 175.768C145.021 176.399 146.059 177.18 146.877 178.143C149.564 181.295 153.338 183.227 157.38 183.569Z" fill="#FFD4BE"/>
<path d="M136.5 150.383C120.948 150.383 108.227 153.68 103.243 155.181C101.899 155.586 100.976 156.863 100.976 158.315V181.268C100.976 183.176 102.546 184.677 104.379 184.521L115.619 183.569C119.663 183.228 123.435 181.294 126.123 178.142C126.942 177.18 127.98 176.399 129.081 175.767C133.678 173.128 139.321 173.128 143.919 175.767C145.019 176.399 146.057 177.18 146.877 178.142C149.564 181.294 153.336 183.228 157.38 183.569L168.621 184.521C170.453 184.677 172.023 183.176 172.023 181.268V158.315C172.023 156.863 171.102 155.586 169.757 155.181C164.772 153.68 152.053 150.383 136.5 150.383Z" fill="#868EAF"/>
<path d="M100.976 178.719H92.8964C91.1546 178.719 89.7421 177.254 89.7421 175.447V163.384C89.7421 161.576 91.1546 160.112 92.8964 160.112H100.976V178.719Z" fill="#DFECFF"/>
<path d="M180.103 178.719H172.023V160.112H180.103C181.846 160.112 183.257 161.577 183.257 163.384V175.447C183.257 177.254 181.845 178.719 180.103 178.719Z" fill="#DFECFF"/>
<path d="M216.98 272.452C216.894 271.642 214.725 252.415 203.532 234.488C202.138 232.256 200.43 230.282 198.501 228.536C198.418 228.455 198.33 228.377 198.24 228.305C186.623 218.024 167.288 215.826 159.729 215.358V200.176C163.098 196.707 165.767 192.474 167.449 187.694L168.366 187.771C168.536 187.785 168.704 187.792 168.874 187.792C170.446 187.792 171.978 187.178 173.141 186.065C174.26 184.996 174.963 183.536 175.128 181.981H180.103C183.577 181.981 186.402 179.049 186.402 175.447V163.384C186.402 159.78 183.577 156.85 180.103 156.85H175.002C174.493 154.59 172.84 152.713 170.634 152.048C170.001 151.858 169.231 151.635 168.339 151.392C166.857 145.584 163.931 140.299 159.795 136.008C153.572 129.555 145.3 126 136.5 126C121.53 126 108.456 136.561 104.665 151.39C103.771 151.634 102.998 151.858 102.364 152.048C100.158 152.713 98.5063 154.59 97.9977 156.85H92.8965C89.424 156.85 86.5976 159.78 86.5976 163.384V175.447C86.5976 179.049 89.424 181.981 92.8965 181.981H97.8712C98.037 183.536 98.7409 184.996 99.8587 186.065C101.147 187.297 102.888 187.919 104.634 187.771L105.553 187.694C107.235 192.473 109.904 196.707 113.273 200.175V215.357C104.389 215.907 79.235 218.843 69.4673 234.488C58.2747 252.415 56.1067 271.642 56.0195 272.452C55.92 273.375 56.205 274.296 56.8007 274.988C57.3977 275.678 58.2501 276.075 59.1444 276.075H91.0392H151.132C152.869 276.075 147.987 274.613 147.987 272.813C147.987 271.011 152.869 269.551 151.132 269.551H90.9778V263.106C90.9778 261.304 89.5701 259.844 87.8333 259.844C86.0964 259.844 84.6888 261.304 84.6888 263.106V269.551H62.8416C63.9889 263.354 67.1408 250.214 74.7454 238.034C75.4271 236.942 76.2157 235.926 77.0866 234.976C79.585 236.777 83.8891 240.693 84.7207 246.723C84.9443 248.35 86.2905 249.524 87.8296 249.524C87.977 249.524 88.1281 249.513 88.2779 249.49C89.9976 249.236 91.1928 247.583 90.9459 245.801C89.9337 238.452 85.5203 233.517 82.1326 230.732C92.6471 223.784 108.226 222.208 114.094 221.855C114.686 223.509 115.694 225.691 117.371 227.889C120.368 231.816 126.119 236.498 136.5 236.498C146.879 236.498 152.632 231.817 155.63 227.889C157.309 225.69 158.317 223.505 158.91 221.851C161.972 222.032 167.68 222.546 173.958 224.003C179.247 225.233 185.616 227.307 190.85 230.753C187.466 233.541 183.072 238.471 182.061 245.801C181.815 247.583 183.009 249.236 184.729 249.49C184.88 249.513 185.03 249.524 185.179 249.524C186.718 249.524 188.063 248.35 188.288 246.723C189.118 240.702 193.411 236.789 195.911 234.983C196.783 235.93 197.574 236.944 198.254 238.034C205.859 250.214 209.012 263.355 210.158 269.551H188.318V263.106C188.318 261.304 186.911 259.844 185.174 259.844C183.438 259.844 182.029 261.304 182.029 263.106V269.551H151.132C149.396 269.551 147.987 271.011 147.987 272.813C147.987 274.613 149.396 276.075 151.132 276.075H213.855C214.75 276.075 215.602 275.678 216.199 274.988C216.795 274.297 217.08 273.375 216.98 272.452ZM180.113 163.384L180.108 175.457C180.108 175.457 180.107 175.457 180.103 175.457H175.168V163.377L180.113 163.384ZM111.834 149.679C115.865 139.492 125.559 132.523 136.5 132.523C143.62 132.523 150.314 135.399 155.349 140.622C157.872 143.24 159.841 146.313 161.171 149.679C156.382 148.692 150.493 147.777 143.896 147.36C138.964 147.042 134.012 147.046 129.079 147.362C122.494 147.78 116.616 148.693 111.834 149.679ZM129.524 153.867C134.168 153.573 138.829 153.577 143.474 153.867C155.47 154.628 164.953 157.132 168.879 158.314V164.107C162.979 162.138 151.508 159.127 136.501 159.127C121.495 159.127 110.022 162.138 104.121 164.107L104.12 158.314C108.047 157.13 117.529 154.628 129.524 153.867ZM92.8867 175.447L92.8965 163.373H97.8319V175.453L92.8867 175.447ZM104.121 181.268V178.724V178.719V171C105.717 170.412 108.275 169.55 111.633 168.695C117.09 167.307 125.833 165.65 136.501 165.65C147.169 165.65 155.912 167.307 161.369 168.695C164.724 169.55 167.283 170.412 168.879 171L168.877 181.27L165.484 180.982C162.919 180.724 160.334 180.63 157.773 180.329C155.419 180.052 153.214 179.352 151.273 177.898C149.181 176.332 147.742 174.233 145.441 172.913C142.683 171.329 139.592 170.539 136.5 170.539C133.408 170.539 130.316 171.33 127.558 172.913C124.742 174.528 122.972 177.4 120.116 178.921C117.719 180.197 115.154 180.336 112.533 180.557L104.121 181.268ZM115.875 186.82C119.908 186.479 123.806 184.781 126.84 182.001C129.733 179.349 131.977 177.203 136.102 177.075C140.26 176.948 142.938 178.841 145.83 181.639C148.926 184.632 152.897 186.463 157.125 186.82L160.891 187.138C157.228 195.737 149.514 201.857 140.552 203.294C136.98 203.86 133.307 203.673 129.809 202.727C129.76 202.714 129.711 202.701 129.662 202.687C125.639 201.574 121.948 199.502 118.871 196.69C116.016 194.082 113.688 190.839 112.111 187.138L115.875 186.82ZM136.5 229.975C130.299 229.975 125.579 227.982 122.467 224.053C120.455 221.512 119.736 218.894 119.564 218.152V205.28C123.456 207.705 127.792 209.264 132.316 209.862C135.073 210.23 137.877 210.233 140.633 209.869C145.176 209.278 149.531 207.719 153.439 205.288V218.151C153.258 218.923 152.534 221.526 150.534 224.053C147.421 227.982 142.699 229.975 136.5 229.975Z" fill="black"/>
<path d="M130.754 195.636H142.554C144.29 195.636 145.699 194.175 145.699 192.375C145.699 190.573 144.29 189.113 142.554 189.113H130.754C129.017 189.113 127.609 190.573 127.609 192.375C127.609 194.175 129.017 195.636 130.754 195.636Z" fill="black"/>
<g filter="url(#filter0_d)">
<path d="M170 32.5C170 50.4495 155.449 65 137.5 65C119.551 65 105 50.4495 105 32.5C105 14.5505 119.551 0 137.5 0C155.449 0 170 14.5505 170 32.5Z" fill="#1571E6"/>
<path d="M170 32.5C170 30.9632 169.891 29.4521 169.685 27.9723L154.681 12.9686H150.872V15.1754L146.539 10.8302C146.13 10.2773 145.474 9.91673 144.737 9.91673H144.278C143.75 9.91673 143.266 10.1017 142.882 10.4092L141.622 9.01566C141.209 8.53909 140.602 8.23608 139.926 8.23608H139.467C138.276 8.23608 137.296 9.17732 137.228 10.3526L136.811 9.84879C136.4 9.37122 135.793 9.06723 135.116 9.06723H134.657C133.422 9.06723 132.411 10.0779 132.411 11.3132V11.7585L132.028 11.2899C131.616 10.794 130.997 10.4766 130.306 10.4766H129.847C128.612 10.4766 127.601 11.4873 127.601 12.7226V20.8416L121.777 15.0474H117.968V23.8136L122.816 28.6116H121.142V35.1873L117.016 31.1452H113.208V39.9114L121.142 47.6674V51.2643L134.762 64.8844C135.665 64.9593 136.578 65 137.5 65C155.449 65 170 50.4495 170 32.5Z" fill="#064CAD"/>
<path d="M129.622 29.5364H144.661V52.4534H129.622V29.5364Z" fill="#FFDBA9"/>
<path d="M137.222 29.537H144.661V52.4535H137.222V29.537Z" fill="#FFD199"/>
<path d="M140.845 31.4501H133.438C130.228 31.4501 127.601 28.8233 127.601 25.6127V16.7166C127.601 14.6551 129.288 12.9685 131.349 12.9685H142.935C144.996 12.9685 146.683 14.6551 146.683 16.7166V25.6127C146.682 28.8233 144.056 31.4501 140.845 31.4501Z" fill="#FFC473"/>
<path d="M146.682 16.7161V25.6127C146.682 28.8233 144.056 31.4501 140.845 31.4501H137.222V12.968H142.935C144.997 12.968 146.682 14.6556 146.682 16.7161Z" fill="#FFC473"/>
<path d="M130.306 20.5004H129.847C128.612 20.5004 127.601 19.4897 127.601 18.2539V12.7225C127.601 11.4872 128.612 10.4766 129.847 10.4766H130.306C131.541 10.4766 132.552 11.4872 132.552 12.7225V18.2539C132.552 19.4897 131.541 20.5004 130.306 20.5004Z" fill="#FFB74F"/>
<path d="M135.116 19.4308H134.657C133.422 19.4308 132.411 18.4201 132.411 17.1843V11.3132C132.411 10.0779 133.422 9.06726 134.657 9.06726H135.116C136.352 9.06726 137.362 10.0779 137.362 11.3132V17.1843C137.362 18.4201 136.352 19.4308 135.116 19.4308Z" fill="#FFD199"/>
<path d="M139.927 19.4308H139.467C138.232 19.4308 137.221 18.4201 137.221 17.1843V10.4821C137.221 9.24675 138.232 8.23608 139.467 8.23608H139.927C141.162 8.23608 142.172 9.24675 142.172 10.4821V17.1848C142.172 18.4201 141.162 19.4308 139.927 19.4308Z" fill="#FFAA20"/>
<path d="M144.737 20.2803H144.278C143.042 20.2803 142.032 19.2696 142.032 18.0343V12.1627C142.032 10.9274 143.042 9.91675 144.278 9.91675H144.737C145.972 9.91675 146.983 10.9274 146.983 12.1627V18.0343C146.982 19.2691 145.972 20.2803 144.737 20.2803Z" fill="#FFC473"/>
<path d="M136.325 31.4924V28.2377C136.325 25.4492 138.586 23.1888 141.375 23.1888V21.3778C139.032 21.3778 136.951 19.8796 136.209 17.6579L135.947 16.8734H142.608C145.114 16.8734 147.145 18.9047 147.145 21.41V25.8568C147.145 28.7703 144.783 31.4924 141.869 31.4924H136.325Z" fill="#FFDBA9"/>
<path d="M147.144 21.4105V25.8568C147.144 28.7703 144.783 31.4919 141.868 31.4919H137.222V25.3664C138.132 24.0502 139.653 23.1893 141.375 23.1893V21.3778C140.203 21.3778 139.097 21.0034 138.192 20.3507C137.834 20.0929 137.507 19.7918 137.222 19.4541V16.8734H142.608C145.113 16.8734 147.144 18.9047 147.144 21.4105Z" fill="#FFD199"/>
<path d="M129.622 32.4326H144.661V56.1986H129.622V32.4326Z" fill="#FF0335"/>
<path d="M137.222 32.4326H144.661V56.1986H137.222V32.4326Z" fill="#C2001B"/>
<path d="M129.622 37.3143H144.661V41.1229H129.622V37.3143Z" fill="#FFEC97"/>
<path d="M137.222 37.3143H144.661V41.1229H137.222V37.3143Z" fill="#FFDB2D"/>
<path d="M150.872 12.9685H154.681V23.5359H150.872V12.9685Z" fill="#FFF5CB"/>
<path d="M156.057 28.6115H159.865V42.4444H156.057V28.6115Z" fill="#FFF5CB"/>
<path d="M147.974 32.1271H151.782V45.2722H147.974V32.1271Z" fill="#FFF5CB"/>
<path d="M147.974 47.7635H151.782V52.0671H147.974V47.7635Z" fill="#FFF5CB"/>
<path d="M117.968 15.0474H121.777V23.8136H117.968V15.0474Z" fill="white"/>
<path d="M113.208 31.1451H117.016V39.9114H113.208V31.1451Z" fill="white"/>
<path d="M121.142 28.6116H124.95V43.3991H121.142V28.6116Z" fill="white"/>
<path d="M121.142 45.8906H124.95V51.2643H121.142V45.8906Z" fill="white"/>
</g>
<g filter="url(#filter1_d)">
<path d="M238.5 116C256.449 116 271 101.449 271 83.5C271 65.5507 256.449 51 238.5 51C220.551 51 206 65.5507 206 83.5C206 101.449 220.551 116 238.5 116Z" fill="#688CFF"/>
<path d="M239.05 115.993C255.874 115.713 269.587 102.652 270.897 86.0985L253.398 68.6003L247.021 77.3129L233.671 63.9623L230.877 67.6329L242.111 78.8673L236.032 84.2895L227.022 75.2795L218.703 78.4203L230.53 90.1742L223.759 100.739L239.05 115.993Z" fill="#6F6CFF"/>
<path d="M239.983 101.389V81.6021H223.103V99.1722C223.103 100.397 224.095 101.389 225.32 101.389H228.811C229.271 101.389 229.549 100.865 229.276 100.494C228.933 100.029 228.73 99.4539 228.73 98.831C228.73 97.2302 230.067 95.9419 231.685 96.0211C233.119 96.0912 234.293 97.2739 234.354 98.7091C234.383 99.3803 234.175 100.001 233.808 100.498C233.536 100.866 233.818 101.389 234.276 101.389H239.983Z" fill="#FFC61B"/>
<path d="M231.57 81.6021V96.0215C231.608 96.0219 231.646 96.0193 231.685 96.0211C233.119 96.0913 234.293 97.2739 234.354 98.7091C234.383 99.3803 234.175 100.001 233.809 100.498C233.536 100.866 233.818 101.389 234.276 101.389H239.983V81.6021H231.57Z" fill="#EAA22F"/>
<path d="M234.331 68.0149V84.8952H251.901C253.125 84.8952 254.118 83.9027 254.118 82.6786V79.187C254.118 78.7269 253.594 78.4497 253.223 78.7226C252.758 79.0655 252.183 79.2684 251.56 79.2684C249.959 79.2684 248.671 77.9318 248.75 76.3138C248.82 74.8793 250.003 73.7051 251.438 73.6443C252.109 73.6158 252.73 73.823 253.226 74.1899C253.595 74.4622 254.118 74.1808 254.118 73.7225V70.2315C254.118 69.0072 253.125 68.0149 251.901 68.0149H234.331Z" fill="#FEE187"/>
<path d="M251.438 73.6442C252.109 73.6158 252.73 73.823 253.227 74.1899C253.595 74.4622 254.118 74.1807 254.118 73.7226V70.2314C254.118 69.007 253.126 68.0148 251.901 68.0148H245.649V84.8952H251.901C253.126 84.8952 254.118 83.9029 254.118 82.6786V79.187C254.118 78.7268 253.594 78.4497 253.223 78.7226C252.758 79.0655 252.183 79.2684 251.56 79.2684C249.959 79.2684 248.671 77.9316 248.75 76.3138C248.82 74.8791 250.003 73.7052 251.438 73.6442Z" fill="#FFC61B"/>
<path d="M237.303 73.6443C237.975 73.6158 238.595 73.823 239.092 74.1899C239.46 74.4622 239.983 74.1808 239.983 73.7225V70.2315C239.983 69.0072 238.991 68.0149 237.766 68.0149H234.493C234.063 68.0149 233.783 67.5509 233.995 67.176C234.271 66.6866 234.405 66.1063 234.34 65.4902C234.202 64.195 233.157 63.1454 231.863 63.0024C230.166 62.8153 228.729 64.1389 228.729 65.7981C228.729 66.2994 228.861 66.7694 229.091 67.1764C229.303 67.551 229.023 68.0147 228.592 68.0147H225.319C224.095 68.0147 223.103 69.0072 223.103 70.2313V73.6071C223.103 74.0578 222.605 74.3258 222.226 74.0826C221.741 73.7722 221.155 73.6066 220.528 73.6473C219.118 73.739 217.973 74.9059 217.905 76.3166C217.828 77.9331 219.116 79.2679 220.715 79.2679C221.277 79.2679 221.8 79.1026 222.238 78.8186C222.611 78.5773 223.103 78.8591 223.103 79.303V82.6781C223.103 83.9025 224.095 84.8947 225.319 84.8947H237.766C238.991 84.8947 239.983 83.9022 239.983 82.6781V79.1865C239.983 78.7265 239.459 78.4492 239.089 78.7221C238.623 79.065 238.048 79.2679 237.425 79.2679C235.824 79.2679 234.536 77.9313 234.615 76.3133C234.686 74.8791 235.868 73.7052 237.303 73.6443Z" fill="#EAA22F"/>
<path d="M237.303 73.6443C237.975 73.6159 238.596 73.823 239.092 74.1899C239.46 74.4623 239.983 74.1808 239.983 73.7226V70.2314C239.983 69.0071 238.991 68.0148 237.767 68.0148H234.493C234.063 68.0148 233.783 67.5508 233.995 67.1759C234.271 66.6865 234.405 66.1063 234.34 65.4901C234.202 64.1949 233.157 63.1453 231.863 63.0026C231.764 62.9917 231.667 62.9871 231.57 62.9862V84.8954H237.767C238.991 84.8954 239.983 83.9031 239.983 82.6788V79.1872C239.983 78.727 239.459 78.4499 239.089 78.7228C238.623 79.0657 238.048 79.2686 237.425 79.2686C235.825 79.2686 234.536 77.9318 234.616 76.314C234.686 74.8792 235.868 73.7052 237.303 73.6443Z" fill="#E09112"/>
<path d="M248.439 98.7091C248.467 99.3803 248.26 100.001 247.893 100.498C247.621 100.866 247.902 101.389 248.36 101.389H251.851C253.076 101.389 254.068 100.396 254.068 99.1722V95.8992C254.068 95.4685 254.532 95.1886 254.907 95.4004C255.396 95.6771 255.977 95.8113 256.593 95.7456C257.888 95.6075 258.937 94.5632 259.08 93.2686C259.268 91.5717 257.944 90.1353 256.285 90.1353C255.783 90.1353 255.313 90.2668 254.906 90.4971C254.532 90.709 254.068 90.4288 254.068 89.9983V86.725C254.068 85.5006 253.076 84.5084 251.852 84.5084H248.475C248.025 84.5084 247.757 84.0111 248 83.6316C248.31 83.147 248.476 82.561 248.435 81.9335C248.343 80.5238 247.176 79.3786 245.766 79.3111C244.149 79.2341 242.814 80.5219 242.814 82.1213C242.814 82.683 242.98 83.2054 243.264 83.6441C243.505 84.0165 243.223 84.5085 242.779 84.5085H239.404C238.18 84.5085 237.188 85.501 237.188 86.7251V99.1722C237.188 100.397 238.18 101.389 239.404 101.389H242.896C243.356 101.389 243.633 100.865 243.36 100.494C243.017 100.029 242.814 99.4539 242.814 98.831C242.814 97.2302 244.151 95.9419 245.769 96.0211C247.204 96.0913 248.378 97.274 248.439 98.7091Z" fill="#FF5419"/>
<path d="M256.285 90.1352C255.783 90.1352 255.313 90.267 254.906 90.4972C254.532 90.7092 254.068 90.4289 254.068 89.9984V86.7251C254.068 85.5008 253.076 84.5085 251.851 84.5085H248.475C248.025 84.5085 247.757 84.0113 248 83.6318C248.31 83.1472 248.476 82.5612 248.435 81.9336C248.343 80.5239 247.177 79.3786 245.766 79.3112C245.751 79.3106 245.737 79.3119 245.723 79.3115V96.0215C245.738 96.0219 245.753 96.0206 245.769 96.0213C247.204 96.0915 248.378 97.2741 248.439 98.7093C248.467 99.3805 248.26 100.001 247.893 100.498C247.621 100.866 247.902 101.389 248.361 101.389H251.852C253.076 101.389 254.068 100.397 254.068 99.1724V95.8995C254.068 95.4688 254.532 95.1887 254.907 95.4007C255.396 95.6774 255.977 95.8116 256.593 95.7459C257.888 95.6078 258.938 94.5635 259.081 93.2689C259.267 91.5715 257.944 90.1352 256.285 90.1352Z" fill="#C92F00"/>
</g>
<g clip-path="url(#clip0)" filter="url(#filter2_d)">
<path d="M68.9999 83.5341C68.9999 84.1803 68.9796 84.8289 68.9404 85.4741C68.869 86.6698 68.7321 87.848 68.5352 89.006C68.5213 89.0858 68.5075 89.1657 68.4936 89.2445C66.198 102.111 56.3324 112.354 43.6728 115.205C41.7496 115.639 39.7615 115.902 37.7263 115.976C37.3087 115.992 36.8882 116 36.4657 116C35.8463 116 35.2264 115.982 34.607 115.945C33.5353 115.884 32.4667 115.77 31.4064 115.601C29.7843 115.345 28.182 114.969 26.6164 114.47C25.7163 114.182 24.8276 113.856 23.9558 113.489C12.2226 108.577 3.98601 96.9797 3.9999 83.4657C4.01874 65.5172 18.5856 50.9811 36.5341 50.9999C52.5456 51.0163 65.8414 62.6097 68.5099 77.8544C68.6547 78.7962 68.7981 79.7384 68.8794 80.6881C68.9235 81.2073 68.9568 81.7275 68.9756 82.2482C68.9925 82.6772 68.9999 83.1051 68.9999 83.5341Z" fill="#FF39B0"/>
<path d="M68.4937 89.2447C66.1981 102.112 56.3325 112.354 43.6729 115.205C41.7497 115.64 39.7616 115.902 37.7264 115.976L22.8158 101.096L20.613 86.713L18.7266 84.8722L21.9931 79.7941L29.3118 69.1657L33.0306 72.8806L38.9691 67.6919L42.5848 71.3076L48.4881 69.2396L68.4937 89.2447Z" fill="#D43F87"/>
<path d="M34.5957 71.4156H38.4043V83.8838H34.5957V71.4156Z" fill="#808AFF"/>
<path d="M36.5 71.4156H38.4043V83.8838H36.5V71.4156Z" fill="#666ECC"/>
<path d="M36.5 75.9939C34.5719 75.9939 33.0088 74.4308 33.0088 72.5027V70.16C33.0088 68.2319 34.5719 66.6688 36.5 66.6688C38.4281 66.6688 39.9912 68.2319 39.9912 70.16V72.5027C39.9912 74.4308 38.4281 75.9939 36.5 75.9939Z" fill="#5C6B99"/>
<path d="M36.5 66.6688V75.9939C38.4281 75.9939 39.9912 74.4308 39.9912 72.5027V70.16C39.9912 68.2319 38.4281 66.6688 36.5 66.6688Z" fill="#455373"/>
<path d="M24.7326 72.2661L28.3116 73.5689L24.0477 85.2853L20.4688 83.9825L24.7326 72.2661Z" fill="#808AFF"/>
<path d="M22.2574 84.6331L26.5213 72.9167L28.311 73.5684L24.0467 85.2848L22.2574 84.6331Z" fill="#666ECC"/>
<path d="M24.9557 77.2198C23.1441 76.5607 22.2098 74.5572 22.8694 72.7452L23.6703 70.5438C24.3298 68.7322 26.3333 67.7979 28.1449 68.4575C29.9569 69.1171 30.8912 71.1201 30.2317 72.9321L29.4303 75.1335C28.7712 76.9455 26.7677 77.8793 24.9557 77.2198Z" fill="#5C6B99"/>
<path d="M28.1449 68.4575L24.9557 77.2198C26.7677 77.8793 28.7712 76.9455 29.4303 75.1335L30.2317 72.9321C30.8912 71.1201 29.957 69.1171 28.1449 68.4575Z" fill="#455373"/>
<path d="M44.689 73.5698L48.268 72.2676L52.5318 83.984L48.9528 85.2862L44.689 73.5698Z" fill="#808AFF"/>
<path d="M46.4783 72.9187L48.268 72.2676L52.5319 83.984L50.7426 84.6351L46.4783 72.9187Z" fill="#666ECC"/>
<path d="M48.0443 77.2198C46.2327 77.8793 44.2293 76.9455 43.5697 75.1335L42.7683 72.9321C42.1087 71.1201 43.043 69.1166 44.8551 68.4575C46.6672 67.7979 48.6701 68.7322 49.3297 70.5438L50.1311 72.7452C50.7902 74.5572 49.8564 76.5607 48.0443 77.2198Z" fill="#5C6B99"/>
<path d="M44.8551 68.4575L48.0443 77.2198C49.8564 76.5607 50.7902 74.5572 50.1311 72.7452L49.3297 70.5438C48.6701 68.7322 46.6667 67.7979 44.8551 68.4575Z" fill="#455373"/>
<path d="M50.1847 101.096H22.8158L19.9961 82.6877H53.0039L50.1847 101.096Z" fill="#45E595"/>
<path d="M36.5 82.6877V101.096H50.1847L53.0039 82.6877H36.5Z" fill="#39BF7C"/>
<path d="M18.7266 79.7936H54.2734V84.8717H18.7266V79.7936Z" fill="white"/>
<path d="M36.5 79.7936H54.2734V84.8717H36.5V79.7936Z" fill="#EBEBEB"/>
</g>
<defs>
<filter id="filter0_d" x="101" y="0" width="73" height="73" filterUnits="userSpaceOnUse" color-interpolation-filters="sRGB">
<feFlood flood-opacity="0" result="BackgroundImageFix"/>
<feColorMatrix in="SourceAlpha" type="matrix" values="0 0 0 0 0 0 0 0 0 0 0 0 0 0 0 0 0 0 127 0"/>
<feOffset dy="4"/>
<feGaussianBlur stdDeviation="2"/>
<feColorMatrix type="matrix" values="0 0 0 0 0 0 0 0 0 0 0 0 0 0 0 0 0 0 0.25 0"/>
<feBlend mode="normal" in2="BackgroundImageFix" result="effect1_dropShadow"/>
<feBlend mode="normal" in="SourceGraphic" in2="effect1_dropShadow" result="shape"/>
</filter>
<filter id="filter1_d" x="202" y="51" width="73" height="73" filterUnits="userSpaceOnUse" color-interpolation-filters="sRGB">
<feFlood flood-opacity="0" result="BackgroundImageFix"/>
<feColorMatrix in="SourceAlpha" type="matrix" values="0 0 0 0 0 0 0 0 0 0 0 0 0 0 0 0 0 0 127 0"/>
<feOffset dy="4"/>
<feGaussianBlur stdDeviation="2"/>
<feColorMatrix type="matrix" values="0 0 0 0 0 0 0 0 0 0 0 0 0 0 0 0 0 0 0.25 0"/>
<feBlend mode="normal" in2="BackgroundImageFix" result="effect1_dropShadow"/>
<feBlend mode="normal" in="SourceGraphic" in2="effect1_dropShadow" result="shape"/>
</filter>
<filter id="filter2_d" x="0" y="51" width="73" height="73" filterUnits="userSpaceOnUse" color-interpolation-filters="sRGB">
<feFlood flood-opacity="0" result="BackgroundImageFix"/>
<feColorMatrix in="SourceAlpha" type="matrix" values="0 0 0 0 0 0 0 0 0 0 0 0 0 0 0 0 0 0 127 0"/>
<feOffset dy="4"/>
<feGaussianBlur stdDeviation="2"/>
<feColorMatrix type="matrix" values="0 0 0 0 0 0 0 0 0 0 0 0 0 0 0 0 0 0 0.25 0"/>
<feBlend mode="normal" in2="BackgroundImageFix" result="effect1_dropShadow"/>
<feBlend mode="normal" in="SourceGraphic" in2="effect1_dropShadow" result="shape"/>
</filter>
<clipPath id="clip0">
<rect width="65" height="65" fill="white" transform="translate(4 51)"/>
</clipPath>
</defs>
</svg>
