<svg width="327" height="255" viewBox="0 0 327 255" fill="none" xmlns="http://www.w3.org/2000/svg">
<mask id="path-1-inside-1" fill="white">
<path fill-rule="evenodd" clip-rule="evenodd" d="M157.206 0.427082C146.305 3.43408 143.139 18.9921 148.132 45.0171C149.268 50.9431 150.893 58.1471 151.867 61.5851L152.749 64.6951L150.371 66.9491C141.349 75.5031 136.286 77.3921 133.762 73.1451C133.28 72.3351 132.374 71.1421 131.748 70.4951L130.611 69.3191L129.026 69.4471C126.58 69.6431 123.522 71.9401 121.842 74.8431C121.243 75.8771 120.985 75.7341 120.633 74.1731C119.861 70.7451 116.767 71.1451 116.743 74.6751C116.72 78.0811 114.849 82.1041 113.065 82.5851C110.256 83.3411 106.387 79.2631 106.387 75.5441C106.387 73.0851 103.341 72.8641 102.549 75.2661C102.229 76.2341 102.806 78.1221 104.297 80.9961C107.544 87.2481 114.439 88.3881 117.93 83.2481L118.908 81.8071L119.62 82.6711C121.193 84.5791 122.653 83.7821 123.574 80.5101C124.337 77.8011 124.875 76.7811 126.375 75.1951C128.649 72.7901 129.377 72.6971 130.378 74.6811C134.075 82.0041 141.073 80.6511 152.169 70.4681C153.834 68.9401 153.966 68.8661 154.272 69.2841C154.641 69.7881 156.139 74.3061 156.395 75.6851C156.701 77.3351 158.238 78.0131 159.473 77.0421C160.085 76.5601 160.104 76.4661 160.104 73.9671C160.104 66.4431 165.018 64.0331 174.19 67.0561C183.166 70.0141 188.968 68.9631 198.634 62.6251C204.643 58.6851 214.061 49.0291 214.061 46.8091C214.061 44.7831 211.94 44.3401 210.497 46.0641C203.257 54.7171 200.272 57.3841 193.517 61.2331C188.09 64.3261 186.892 64.7031 182.526 64.6901L178.929 64.6791L175.572 63.5721C167.755 60.9941 162.765 61.5361 159.115 65.3601C157.964 66.5661 157.64 66.7901 157.459 66.5041C157.065 65.8811 157.194 65.5861 158.769 63.5231C166.84 52.9441 172.821 31.2831 172.272 14.6141C171.944 4.66308 165.125 -1.75792 157.206 0.427082ZM83.8588 2.28708C69.7278 9.28208 67.8398 50.5201 80.2538 81.0311C81.4198 83.8961 81.4198 83.8051 80.2688 84.7171C75.2198 88.7151 67.5378 86.6991 67.5378 81.3741C67.5378 79.6441 66.8828 78.7381 65.6308 78.7381C61.9118 78.7381 64.0048 86.9561 68.2718 89.1071C72.4648 91.2201 77.6648 90.9571 81.6138 88.4301C82.3478 87.9611 83.0268 87.6661 83.1238 87.7741C83.2208 87.8821 84.1908 89.5351 85.2808 91.4481C92.0648 103.358 98.1868 109.395 104.738 110.638C108.411 111.335 112.368 108.198 110.355 106.185C109.543 105.373 108.619 105.429 107.49 106.359C103.545 109.611 93.5268 99.8931 86.7768 86.2671L85.9328 84.5631L86.6678 83.4941C91.8778 75.9221 95.3548 56.0181 95.3558 33.7701C95.3568 10.3751 91.0948 -1.29492 83.8588 2.28708ZM163.521 4.82908C167.497 6.78708 168.642 9.87708 168.425 18.0661C168.034 32.8291 163.518 49.4781 157.315 59.0261C155.546 61.7501 155.669 61.9441 153.776 53.4381C149.506 34.2511 148.526 21.9091 150.617 13.6651C152.615 5.78908 157.992 2.10708 163.521 4.82908ZM86.9788 5.60508C90.2458 7.35308 92.4958 30.0181 91.0848 46.9631C89.7468 63.0391 88.0528 72.2251 85.3478 78.0781C84.2788 80.3921 84.0608 80.3921 83.1778 78.0781C73.2908 52.1591 73.2818 18.4521 83.1588 7.64408C84.8498 5.79408 86.0928 5.13108 86.9788 5.60508ZM103.275 59.9451C101.952 60.5011 101.702 62.0991 102.772 63.1691C103.678 64.0751 104.472 64.0631 105.54 63.1251C107.445 61.4531 105.658 58.9431 103.275 59.9451ZM28.5698 130.816C26.1058 132.175 23.1718 137.443 18.9838 148.031C13.8808 160.93 10.9908 171.768 9.49375 183.611C8.95175 187.896 8.81675 188.681 8.64775 188.513C8.58575 188.45 8.05075 185.578 7.46075 182.13C6.86975 178.681 5.89575 173.027 5.29475 169.565C4.69475 166.103 4.11976 162.105 4.01876 160.681C3.79276 157.517 3.43276 157 1.54076 157.128C0.895756 157.171 0.222757 158.057 0.0597567 159.076C-0.129243 160.259 0.0177541 161.285 2.18975 173.942C3.17475 179.679 4.46576 187.449 5.05976 191.208C6.62376 201.103 6.85075 201.759 8.71075 201.759C10.9578 201.759 11.5958 199.785 12.6288 189.649C13.7258 178.881 15.3338 170.799 18.2578 161.352C20.9258 152.734 26.5868 139.009 28.3938 136.779L28.8738 136.188L28.9978 146.971C29.1748 162.395 29.9788 169.018 33.2758 182.215C41.2688 214.201 53.4218 232.461 63.6118 227.795C67.7418 225.905 69.4908 222.911 67.0558 221.902C66.1678 221.534 65.5288 221.758 64.3258 222.858C57.6948 228.92 48.9508 218.552 41.0288 195.234C34.9948 177.472 33.0328 165.571 32.7928 145.285C32.6338 131.746 32.6468 131.871 31.2748 130.911C30.6588 130.479 29.2678 130.43 28.5698 130.816ZM324.634 130.766C323.983 130.926 323.727 131.261 322.071 134.131C316.927 143.043 303.187 149.244 288.591 149.241C281.312 149.239 277.615 148.173 271.963 144.448C268.327 142.052 266.908 141.707 263.582 142.411C259.912 143.187 256.293 145.422 252.049 149.533C248.913 152.571 249.287 152.701 247.752 148.042C245.762 142.006 245.008 140.848 243.068 140.848C241.647 140.848 240.709 141.826 239.453 144.615C235.031 154.435 231.651 159.404 227.822 161.711L226.429 162.551L223.183 162.55C219.392 162.549 218.424 162.208 217.227 160.454C215.872 158.468 215.871 158.464 216.84 157.584C221.503 153.345 220.758 140.369 215.851 140.369C212.058 140.369 209.304 146.159 210.174 152.308C210.32 153.34 210.375 154.805 210.297 155.565C210.156 156.923 210.17 156.962 211.109 157.95C211.634 158.502 212.361 159.558 212.723 160.296C215.047 165.023 218.096 166.668 224.133 166.452C231.004 166.206 236.919 160.036 242.34 147.46C242.638 146.768 242.935 146.371 243.056 146.501C243.413 146.883 245.922 154.579 246.075 155.759C246.533 159.304 248.438 158.968 252.339 154.655C259.109 147.169 265.142 144.355 268.906 146.928C269.539 147.36 270.549 148.052 271.152 148.465C283.862 157.184 310.518 152.978 321.97 140.448C327.11 134.825 328.487 129.82 324.634 130.766ZM215.909 145.584C216.234 147.119 216.098 150.934 215.666 152.388C214.859 155.1 214.158 154.616 213.907 151.176C213.621 147.24 215.278 142.611 215.909 145.584ZM175.156 146.842C172.965 147.502 170.96 149.726 168.089 154.683C163.968 161.797 162.511 163.265 159.745 163.093C156.912 162.916 155.39 161.69 151.961 156.825C146.958 149.725 144.365 150.036 142.59 157.948C141.82 161.382 140.741 163.876 139.691 164.653C138.243 165.722 135.076 163.081 131.575 157.888C128.025 152.62 126.956 151.794 124.936 152.752C123.929 153.23 123.156 154.649 122.601 157.035C122.387 157.958 121.944 159.879 121.616 161.302C120.501 166.152 118.694 169.428 117.365 169.01C113.536 167.808 107.57 160.384 106.971 156.076C105.647 146.554 94.0918 154.355 86.4538 169.927C85.4868 171.897 85.3698 171.874 84.3848 169.522L83.6058 167.659L84.3248 166.987C85.7498 165.656 85.1868 164.388 82.3048 162.443C80.6628 161.335 78.8058 159.876 75.5718 157.152C66.4658 149.482 55.6438 159.223 58.0398 172.934C59.2458 179.837 63.1118 184.181 68.9808 185.23C73.8028 186.092 76.6238 183.58 80.3798 175.081C81.4958 172.556 81.4688 172.561 82.5228 174.655C83.5408 176.675 83.5388 176.608 82.6618 179.092C76.1838 197.445 79.9478 230.387 90.2548 245.547C96.7658 255.123 112.297 252.17 115.614 240.726C119.465 227.435 114.039 212.481 97.0938 189.688C92.8278 183.95 87.9218 176.728 87.9218 176.187C87.9218 175.987 88.3798 174.833 88.9388 173.623C92.3448 166.256 96.2348 160.708 100.246 157.496C102.612 155.602 103.057 155.571 103.34 157.275C103.816 160.144 106.867 165.267 109.846 168.199C117.881 176.109 122.892 173.728 125.685 160.673C126.018 159.113 126.291 157.791 126.291 157.735C126.291 157.228 127.027 158.06 128.589 160.333C136.409 171.713 143.359 171.38 146.127 159.491C146.903 156.161 146.791 156.167 149.065 159.325C153.287 165.187 156.011 166.987 160.661 166.987C163.863 166.987 167.712 163.198 171.624 156.196C173.162 153.443 174.799 151.247 175.472 151.034C176.086 150.839 176.002 150.718 176.653 152.719C177.561 155.512 179.825 160.511 181.913 164.339L183.887 167.957L182.534 169.419C173.685 178.977 170.183 197.59 172.703 221.664C174.982 243.429 181.349 254.049 192.109 254.035C198.158 254.027 201.992 250.972 205.802 243.126C211.202 232.008 211.766 221.524 207.689 208.075C205.408 200.55 198.828 186.59 191.244 173.187C188.703 168.694 188.739 169.104 190.791 168.071C195.121 165.89 200.55 165.232 205.848 166.246C209.276 166.902 210.224 166.57 210.224 164.716C210.224 163.139 207.683 162.292 202.175 162.031C197.198 161.796 194.053 162.418 189.53 164.533C187.515 165.475 187.136 165.582 186.861 165.29C185.681 164.036 181.658 155.549 180.084 150.992C178.754 147.142 177.544 146.123 175.156 146.842ZM71.3698 158.831C71.8928 159.098 73.2408 160.118 74.3658 161.099C75.4898 162.079 77.3308 163.55 78.4558 164.368C80.4278 165.801 80.4888 165.873 80.1318 166.361C79.6128 167.071 79.2368 167.878 77.8328 171.295C74.5038 179.399 72.7028 181.817 70.1968 181.553C64.9878 181.004 61.9218 176.828 61.6138 169.865C61.2558 161.755 66.1818 156.184 71.3698 158.831ZM189.401 177.72C206.298 208.317 209.812 223.021 203.844 238.148C200.68 246.167 197.675 249.646 193.399 250.238C184.433 251.481 178.679 241.728 176.54 221.664C174.151 199.251 177.178 180.904 184.591 172.862C185.977 171.358 185.775 171.154 189.401 177.72ZM88.2738 183.921C89.3068 185.452 91.6827 188.771 93.5527 191.295C108.182 211.042 112.732 220.87 112.718 232.695C112.708 241.873 110.213 245.723 103.383 247.096C97.3218 248.316 94.9198 246.921 91.5838 240.249C83.5498 224.178 80.7608 198.373 85.4108 183.13C86.1708 180.638 86.0348 180.601 88.2738 183.921Z"/>
</mask>
<path fill-rule="evenodd" clip-rule="evenodd" d="M157.206 0.427082C146.305 3.43408 143.139 18.9921 148.132 45.0171C149.268 50.9431 150.893 58.1471 151.867 61.5851L152.749 64.6951L150.371 66.9491C141.349 75.5031 136.286 77.3921 133.762 73.1451C133.28 72.3351 132.374 71.1421 131.748 70.4951L130.611 69.3191L129.026 69.4471C126.58 69.6431 123.522 71.9401 121.842 74.8431C121.243 75.8771 120.985 75.7341 120.633 74.1731C119.861 70.7451 116.767 71.1451 116.743 74.6751C116.72 78.0811 114.849 82.1041 113.065 82.5851C110.256 83.3411 106.387 79.2631 106.387 75.5441C106.387 73.0851 103.341 72.8641 102.549 75.2661C102.229 76.2341 102.806 78.1221 104.297 80.9961C107.544 87.2481 114.439 88.3881 117.93 83.2481L118.908 81.8071L119.62 82.6711C121.193 84.5791 122.653 83.7821 123.574 80.5101C124.337 77.8011 124.875 76.7811 126.375 75.1951C128.649 72.7901 129.377 72.6971 130.378 74.6811C134.075 82.0041 141.073 80.6511 152.169 70.4681C153.834 68.9401 153.966 68.8661 154.272 69.2841C154.641 69.7881 156.139 74.3061 156.395 75.6851C156.701 77.3351 158.238 78.0131 159.473 77.0421C160.085 76.5601 160.104 76.4661 160.104 73.9671C160.104 66.4431 165.018 64.0331 174.19 67.0561C183.166 70.0141 188.968 68.9631 198.634 62.6251C204.643 58.6851 214.061 49.0291 214.061 46.8091C214.061 44.7831 211.94 44.3401 210.497 46.0641C203.257 54.7171 200.272 57.3841 193.517 61.2331C188.09 64.3261 186.892 64.7031 182.526 64.6901L178.929 64.6791L175.572 63.5721C167.755 60.9941 162.765 61.5361 159.115 65.3601C157.964 66.5661 157.64 66.7901 157.459 66.5041C157.065 65.8811 157.194 65.5861 158.769 63.5231C166.84 52.9441 172.821 31.2831 172.272 14.6141C171.944 4.66308 165.125 -1.75792 157.206 0.427082ZM83.8588 2.28708C69.7278 9.28208 67.8398 50.5201 80.2538 81.0311C81.4198 83.8961 81.4198 83.8051 80.2688 84.7171C75.2198 88.7151 67.5378 86.6991 67.5378 81.3741C67.5378 79.6441 66.8828 78.7381 65.6308 78.7381C61.9118 78.7381 64.0048 86.9561 68.2718 89.1071C72.4648 91.2201 77.6648 90.9571 81.6138 88.4301C82.3478 87.9611 83.0268 87.6661 83.1238 87.7741C83.2208 87.8821 84.1908 89.5351 85.2808 91.4481C92.0648 103.358 98.1868 109.395 104.738 110.638C108.411 111.335 112.368 108.198 110.355 106.185C109.543 105.373 108.619 105.429 107.49 106.359C103.545 109.611 93.5268 99.8931 86.7768 86.2671L85.9328 84.5631L86.6678 83.4941C91.8778 75.9221 95.3548 56.0181 95.3558 33.7701C95.3568 10.3751 91.0948 -1.29492 83.8588 2.28708ZM163.521 4.82908C167.497 6.78708 168.642 9.87708 168.425 18.0661C168.034 32.8291 163.518 49.4781 157.315 59.0261C155.546 61.7501 155.669 61.9441 153.776 53.4381C149.506 34.2511 148.526 21.9091 150.617 13.6651C152.615 5.78908 157.992 2.10708 163.521 4.82908ZM86.9788 5.60508C90.2458 7.35308 92.4958 30.0181 91.0848 46.9631C89.7468 63.0391 88.0528 72.2251 85.3478 78.0781C84.2788 80.3921 84.0608 80.3921 83.1778 78.0781C73.2908 52.1591 73.2818 18.4521 83.1588 7.64408C84.8498 5.79408 86.0928 5.13108 86.9788 5.60508ZM103.275 59.9451C101.952 60.5011 101.702 62.0991 102.772 63.1691C103.678 64.0751 104.472 64.0631 105.54 63.1251C107.445 61.4531 105.658 58.9431 103.275 59.9451ZM28.5698 130.816C26.1058 132.175 23.1718 137.443 18.9838 148.031C13.8808 160.93 10.9908 171.768 9.49375 183.611C8.95175 187.896 8.81675 188.681 8.64775 188.513C8.58575 188.45 8.05075 185.578 7.46075 182.13C6.86975 178.681 5.89575 173.027 5.29475 169.565C4.69475 166.103 4.11976 162.105 4.01876 160.681C3.79276 157.517 3.43276 157 1.54076 157.128C0.895756 157.171 0.222757 158.057 0.0597567 159.076C-0.129243 160.259 0.0177541 161.285 2.18975 173.942C3.17475 179.679 4.46576 187.449 5.05976 191.208C6.62376 201.103 6.85075 201.759 8.71075 201.759C10.9578 201.759 11.5958 199.785 12.6288 189.649C13.7258 178.881 15.3338 170.799 18.2578 161.352C20.9258 152.734 26.5868 139.009 28.3938 136.779L28.8738 136.188L28.9978 146.971C29.1748 162.395 29.9788 169.018 33.2758 182.215C41.2688 214.201 53.4218 232.461 63.6118 227.795C67.7418 225.905 69.4908 222.911 67.0558 221.902C66.1678 221.534 65.5288 221.758 64.3258 222.858C57.6948 228.92 48.9508 218.552 41.0288 195.234C34.9948 177.472 33.0328 165.571 32.7928 145.285C32.6338 131.746 32.6468 131.871 31.2748 130.911C30.6588 130.479 29.2678 130.43 28.5698 130.816ZM324.634 130.766C323.983 130.926 323.727 131.261 322.071 134.131C316.927 143.043 303.187 149.244 288.591 149.241C281.312 149.239 277.615 148.173 271.963 144.448C268.327 142.052 266.908 141.707 263.582 142.411C259.912 143.187 256.293 145.422 252.049 149.533C248.913 152.571 249.287 152.701 247.752 148.042C245.762 142.006 245.008 140.848 243.068 140.848C241.647 140.848 240.709 141.826 239.453 144.615C235.031 154.435 231.651 159.404 227.822 161.711L226.429 162.551L223.183 162.55C219.392 162.549 218.424 162.208 217.227 160.454C215.872 158.468 215.871 158.464 216.84 157.584C221.503 153.345 220.758 140.369 215.851 140.369C212.058 140.369 209.304 146.159 210.174 152.308C210.32 153.34 210.375 154.805 210.297 155.565C210.156 156.923 210.17 156.962 211.109 157.95C211.634 158.502 212.361 159.558 212.723 160.296C215.047 165.023 218.096 166.668 224.133 166.452C231.004 166.206 236.919 160.036 242.34 147.46C242.638 146.768 242.935 146.371 243.056 146.501C243.413 146.883 245.922 154.579 246.075 155.759C246.533 159.304 248.438 158.968 252.339 154.655C259.109 147.169 265.142 144.355 268.906 146.928C269.539 147.36 270.549 148.052 271.152 148.465C283.862 157.184 310.518 152.978 321.97 140.448C327.11 134.825 328.487 129.82 324.634 130.766ZM215.909 145.584C216.234 147.119 216.098 150.934 215.666 152.388C214.859 155.1 214.158 154.616 213.907 151.176C213.621 147.24 215.278 142.611 215.909 145.584ZM175.156 146.842C172.965 147.502 170.96 149.726 168.089 154.683C163.968 161.797 162.511 163.265 159.745 163.093C156.912 162.916 155.39 161.69 151.961 156.825C146.958 149.725 144.365 150.036 142.59 157.948C141.82 161.382 140.741 163.876 139.691 164.653C138.243 165.722 135.076 163.081 131.575 157.888C128.025 152.62 126.956 151.794 124.936 152.752C123.929 153.23 123.156 154.649 122.601 157.035C122.387 157.958 121.944 159.879 121.616 161.302C120.501 166.152 118.694 169.428 117.365 169.01C113.536 167.808 107.57 160.384 106.971 156.076C105.647 146.554 94.0918 154.355 86.4538 169.927C85.4868 171.897 85.3698 171.874 84.3848 169.522L83.6058 167.659L84.3248 166.987C85.7498 165.656 85.1868 164.388 82.3048 162.443C80.6628 161.335 78.8058 159.876 75.5718 157.152C66.4658 149.482 55.6438 159.223 58.0398 172.934C59.2458 179.837 63.1118 184.181 68.9808 185.23C73.8028 186.092 76.6238 183.58 80.3798 175.081C81.4958 172.556 81.4688 172.561 82.5228 174.655C83.5408 176.675 83.5388 176.608 82.6618 179.092C76.1838 197.445 79.9478 230.387 90.2548 245.547C96.7658 255.123 112.297 252.17 115.614 240.726C119.465 227.435 114.039 212.481 97.0938 189.688C92.8278 183.95 87.9218 176.728 87.9218 176.187C87.9218 175.987 88.3798 174.833 88.9388 173.623C92.3448 166.256 96.2348 160.708 100.246 157.496C102.612 155.602 103.057 155.571 103.34 157.275C103.816 160.144 106.867 165.267 109.846 168.199C117.881 176.109 122.892 173.728 125.685 160.673C126.018 159.113 126.291 157.791 126.291 157.735C126.291 157.228 127.027 158.06 128.589 160.333C136.409 171.713 143.359 171.38 146.127 159.491C146.903 156.161 146.791 156.167 149.065 159.325C153.287 165.187 156.011 166.987 160.661 166.987C163.863 166.987 167.712 163.198 171.624 156.196C173.162 153.443 174.799 151.247 175.472 151.034C176.086 150.839 176.002 150.718 176.653 152.719C177.561 155.512 179.825 160.511 181.913 164.339L183.887 167.957L182.534 169.419C173.685 178.977 170.183 197.59 172.703 221.664C174.982 243.429 181.349 254.049 192.109 254.035C198.158 254.027 201.992 250.972 205.802 243.126C211.202 232.008 211.766 221.524 207.689 208.075C205.408 200.55 198.828 186.59 191.244 173.187C188.703 168.694 188.739 169.104 190.791 168.071C195.121 165.89 200.55 165.232 205.848 166.246C209.276 166.902 210.224 166.57 210.224 164.716C210.224 163.139 207.683 162.292 202.175 162.031C197.198 161.796 194.053 162.418 189.53 164.533C187.515 165.475 187.136 165.582 186.861 165.29C185.681 164.036 181.658 155.549 180.084 150.992C178.754 147.142 177.544 146.123 175.156 146.842ZM71.3698 158.831C71.8928 159.098 73.2408 160.118 74.3658 161.099C75.4898 162.079 77.3308 163.55 78.4558 164.368C80.4278 165.801 80.4888 165.873 80.1318 166.361C79.6128 167.071 79.2368 167.878 77.8328 171.295C74.5038 179.399 72.7028 181.817 70.1968 181.553C64.9878 181.004 61.9218 176.828 61.6138 169.865C61.2558 161.755 66.1818 156.184 71.3698 158.831ZM189.401 177.72C206.298 208.317 209.812 223.021 203.844 238.148C200.68 246.167 197.675 249.646 193.399 250.238C184.433 251.481 178.679 241.728 176.54 221.664C174.151 199.251 177.178 180.904 184.591 172.862C185.977 171.358 185.775 171.154 189.401 177.72ZM88.2738 183.921C89.3068 185.452 91.6827 188.771 93.5527 191.295C108.182 211.042 112.732 220.87 112.718 232.695C112.708 241.873 110.213 245.723 103.383 247.096C97.3218 248.316 94.9198 246.921 91.5838 240.249C83.5498 224.178 80.7608 198.373 85.4108 183.13C86.1708 180.638 86.0348 180.601 88.2738 183.921Z" fill="#63E5FE" stroke="black" mask="url(#path-1-inside-1)"/>
</svg>
