<svg width="349" height="258" viewBox="0 0 349 258" fill="none" xmlns="http://www.w3.org/2000/svg">
<path d="M205.543 145.77L205.543 145.77C201.82 133.848 195.093 101.679 192.384 82.8241C190.589 70.3385 190.264 49.7078 191.684 38.5646C194.289 18.1094 204.433 4.36467 218.941 1.26218C223.412 0.306191 228.655 1.13785 233.485 3.27118C238.314 5.40367 242.691 8.81937 245.441 12.9796C251.39 21.9776 252.576 31.3711 250.581 55.1095C247.557 91.1013 234.556 129.515 218.855 148.992L218.64 149.258C218.054 149.984 217.599 150.548 217.261 151.005C216.886 151.513 216.627 151.924 216.493 152.313C216.228 153.082 216.482 153.697 216.847 154.58C216.875 154.65 216.905 154.721 216.935 154.794L216.935 154.795C217.062 155.105 217.192 155.381 217.346 155.574C217.426 155.673 217.529 155.772 217.663 155.836C217.806 155.904 217.96 155.919 218.113 155.884C218.382 155.823 218.609 155.613 218.8 155.398C219.007 155.165 219.242 154.843 219.518 154.44C226.149 144.763 240.542 141.793 256.301 147.101C261.455 148.837 264.663 149.84 267.387 150.407C270.121 150.976 272.359 151.106 275.571 151.109C279.043 151.113 281.799 150.872 284.553 150.206C287.304 149.54 290.036 148.453 293.461 146.782C312.083 137.696 325.248 126.826 338.812 109.343C341.338 106.088 341.863 105.596 342.837 105.224L342.694 104.85L342.837 105.224C346.451 103.843 349.565 107.73 347.424 111.086C344.047 116.38 338.089 123.184 331.486 129.603C324.884 136.02 317.664 142.026 311.778 145.734C300.153 153.055 291.386 157.2 282.93 158.651C274.484 160.099 266.305 158.867 255.842 155.345C245.336 151.809 237.078 151.431 231.457 154.203C225.792 156.996 222.937 162.917 223.079 171.627C223.108 173.377 223.086 174.76 222.984 175.852C222.881 176.949 222.7 177.719 222.428 178.262C222.164 178.789 221.813 179.109 221.334 179.308C220.835 179.515 220.176 179.6 219.286 179.6C218 179.6 217.166 179.295 216.532 178.57C215.871 177.813 215.382 176.548 214.943 174.499C214.623 173.002 213.545 169.482 212.491 166.291C211.963 164.691 211.437 163.165 211.011 162.005C210.798 161.426 210.609 160.934 210.456 160.569C210.379 160.387 210.309 160.231 210.249 160.11C210.198 160.008 210.128 159.876 210.043 159.791L210.043 159.791C209.857 159.606 209.617 159.651 209.532 159.673C209.419 159.702 209.301 159.758 209.191 159.821C208.963 159.949 208.667 160.158 208.307 160.439C207.583 161.004 206.548 161.9 205.191 163.134L205.46 163.43L205.191 163.134C197.443 170.178 190.472 175.509 184.486 179.014C178.486 182.526 173.528 184.173 169.789 183.93C166.281 183.701 163.471 182.825 161.107 181.162C158.739 179.496 156.787 177.019 155.033 173.535C154.469 172.414 154.031 171.55 153.648 170.925C153.273 170.312 152.908 169.856 152.46 169.635C151.974 169.396 151.481 169.473 150.968 169.691C150.468 169.903 149.872 170.283 149.137 170.757C143.696 174.256 139.79 180.28 138.328 187.365C137.808 189.888 137.243 191.482 136.497 192.446C135.782 193.368 134.876 193.743 133.534 193.743C132.568 193.743 131.747 193.502 131.042 193.023C130.333 192.541 129.716 191.802 129.187 190.766C129.003 190.405 128.832 190.091 128.656 189.884C128.566 189.779 128.449 189.67 128.298 189.608C128.129 189.538 127.952 189.542 127.786 189.61C127.638 189.671 127.516 189.777 127.415 189.887C127.313 190 127.211 190.14 127.107 190.301C126.9 190.621 126.658 191.067 126.361 191.633C124.41 195.345 121.776 197.901 118.668 199.25C115.561 200.599 111.941 200.759 107.987 199.613C104.319 198.55 101.477 197.018 99.114 194.709C96.7468 192.395 94.8378 189.28 93.0716 185.014C92.3504 183.272 91.4567 181.138 91.0857 180.272C90.3784 178.619 90.1028 177.241 90.2246 176.042C90.3454 174.852 90.8612 173.797 91.8126 172.792L91.522 172.517L91.8126 172.792C93.2608 171.261 95.1117 171.041 96.5201 171.677C97.9255 172.312 98.9347 173.819 98.6596 175.868L98.6595 175.868C98.5524 176.668 98.7825 177.815 99.1891 179.073C99.6016 180.348 100.217 181.797 100.935 183.228C101.654 184.659 102.481 186.08 103.32 187.299C104.155 188.512 105.018 189.547 105.814 190.187L106.065 189.875L105.814 190.187C107.263 191.35 109.235 192.11 111.139 192.396C113.032 192.68 114.94 192.508 116.225 191.709C117.132 191.145 118.012 190.154 118.823 188.912C119.638 187.663 120.402 186.133 121.063 184.457C122.385 181.107 123.316 177.138 123.428 173.612C123.503 171.234 123.83 169.679 124.436 168.723C124.733 168.255 125.096 167.931 125.539 167.721C125.986 167.508 126.535 167.4 127.213 167.4C128.424 167.4 129.306 167.719 129.967 168.367C130.641 169.027 131.134 170.075 131.461 171.627C131.749 172.999 131.97 174.045 132.169 174.781C132.268 175.148 132.366 175.454 132.47 175.691C132.568 175.914 132.698 176.141 132.897 176.274C133.008 176.348 133.138 176.392 133.283 176.389C133.422 176.386 133.544 176.339 133.644 176.28C133.833 176.169 134.002 175.981 134.157 175.776C134.473 175.359 134.858 174.693 135.346 173.852C137.853 169.523 141.713 165.894 145.577 163.725C147.508 162.642 149.425 161.931 151.162 161.672C152.901 161.414 154.43 161.612 155.62 162.309C157.353 163.325 159.283 165.6 161.484 169.327C162.89 171.711 164.297 173.504 165.886 174.64C167.491 175.787 169.263 176.249 171.354 176.007C173.426 175.768 175.799 174.839 178.634 173.239C181.472 171.637 184.801 169.347 188.789 166.356C192.223 163.781 196.667 160.015 200.252 156.758C202.044 155.129 203.627 153.624 204.763 152.455C205.331 151.871 205.793 151.366 206.115 150.967C206.276 150.769 206.409 150.589 206.503 150.434C206.551 150.357 206.593 150.278 206.625 150.201C206.654 150.13 206.686 150.031 206.686 149.922C206.686 149.848 206.67 149.757 206.655 149.685C206.639 149.6 206.615 149.496 206.586 149.376C206.527 149.136 206.443 148.821 206.341 148.453C206.135 147.718 205.853 146.764 205.543 145.77ZM48.3042 5.41111L48.143 5.04503L48.3042 5.41111C50.0596 4.63813 52.3487 4.52488 54.5833 4.98614C56.8163 5.44708 58.9427 6.47114 60.3776 7.91135C63.4296 10.9752 66.0068 16.8685 68.019 25.0032C70.0265 33.1188 71.4564 43.3993 72.2588 55.1694C73.8634 78.708 72.9554 108.164 69.1612 138.093C65.6958 165.422 60.7335 182.356 52.9213 193.724L53.251 193.951L52.9213 193.725C52.7738 193.939 52.6352 194.137 52.5072 194.32C52.2432 194.696 52.0238 195.009 51.8621 195.278C51.6136 195.691 51.457 196.067 51.4623 196.511C51.4673 196.938 51.6222 197.376 51.868 197.913C52.0331 198.274 52.2539 198.709 52.5253 199.243C52.6595 199.508 52.8061 199.796 52.9644 200.112L53.322 199.933L52.9644 200.112C59.9317 214.02 67.2785 225.301 74.6238 233.515C81.9637 241.722 89.3325 246.899 96.3502 248.536L96.5997 248.594C97.2775 248.752 97.8099 248.877 98.2391 248.953C98.7193 249.038 99.1128 249.071 99.4732 249.01C99.8466 248.946 100.149 248.786 100.459 248.55C100.725 248.349 101.017 248.075 101.372 247.741C101.415 247.701 101.459 247.659 101.504 247.617C102.956 246.257 104.341 245.632 105.519 245.637C106.672 245.641 107.716 246.249 108.517 247.563C109.193 248.671 109.22 249.831 108.758 250.954C108.29 252.091 107.314 253.201 105.973 254.139C103.29 256.018 99.2576 257.136 95.3637 256.457C90.133 255.545 84.2804 252.583 78.3493 247.955C72.4225 243.331 66.4392 237.061 60.9477 229.565C59.952 228.205 56.8875 223.175 53.7645 217.877C50.645 212.585 47.4922 207.069 46.3221 204.751C46.0803 204.272 45.8816 203.878 45.6943 203.6C45.5111 203.328 45.2771 203.068 44.9267 203.005C44.5895 202.944 44.2664 203.089 43.9713 203.266C43.6644 203.449 43.287 203.733 42.8185 204.085L43.059 204.405L42.8185 204.085C36.5438 208.807 28.4957 210.611 21.1452 209.768C13.7911 208.925 7.19173 205.442 3.7539 199.656C1.41956 195.726 0.437047 191.569 0.678953 188.424C0.799962 186.85 1.22448 185.562 1.9048 184.677C2.57445 183.806 3.50486 183.305 4.71401 183.305C6.14135 183.305 7.07418 183.73 7.66198 184.568C8.27175 185.437 8.56696 186.824 8.51215 188.875C8.40366 192.953 9.86119 196.194 12.7351 198.411C15.5914 200.614 19.8006 201.77 25.1404 201.805C27.9181 201.823 30.2159 201.524 32.3966 200.764C34.5764 200.005 36.6167 198.793 38.8893 197.017L38.8894 197.017C38.9641 196.959 39.0369 196.902 39.1081 196.846C39.6489 196.424 40.0874 196.082 40.4054 195.769C40.7749 195.406 41.0299 195.036 41.1032 194.561C41.1735 194.104 41.0657 193.609 40.8628 193.018C40.682 192.491 40.4064 191.837 40.0558 191.005C40.0103 190.898 39.9636 190.787 39.9157 190.673L39.547 190.828L39.9157 190.673C35.0159 179.03 29.6576 162.142 27.073 150.201C22.0382 126.937 19.9484 110.384 19.629 91.2794C19.254 68.8137 21.8351 49.3465 26.8165 34.4882C31.8027 19.6157 39.1675 9.43384 48.3042 5.41111ZM54.6835 13.4082L54.6835 13.4081C54.0909 12.971 53.46 12.7042 52.7734 12.6378C52.0886 12.5717 51.3777 12.7077 50.628 13.0304C49.1437 13.6691 47.4522 15.064 45.4001 17.2224C39.741 23.1746 35.4362 32.2135 32.4771 43.3326C29.5164 54.4575 27.8945 67.6966 27.6241 82.0818C27.0832 110.851 31.9472 144.246 42.3617 174.559C43.5893 178.133 44.6581 181.034 45.4799 183.044C45.8901 184.047 46.2423 184.838 46.5243 185.381C46.6644 185.65 46.7939 185.872 46.9108 186.032C46.9686 186.111 47.0334 186.189 47.1051 186.251C47.1645 186.302 47.2924 186.4 47.47 186.4C47.6348 186.4 47.7742 186.331 47.8733 186.266C47.9775 186.198 48.0774 186.107 48.1716 186.007C48.3605 185.807 48.5666 185.528 48.7832 185.194C49.2184 184.523 49.7301 183.577 50.2723 182.456C51.358 180.213 52.5845 177.233 53.5869 174.271C56.5701 165.458 59.3363 151.941 61.2398 136.907C62.8534 124.156 64.0432 109.844 64.6866 95.4469C65.5145 76.908 64.7314 57.6995 62.9005 42.5006C61.9852 34.9021 60.8068 28.2954 59.4333 23.2714C58.7467 20.7599 58.0086 18.6336 57.2253 16.9729C56.447 15.3228 55.6035 14.0872 54.6835 13.4082ZM89.5666 144.126C89.3426 142.29 90.1265 140.346 92.0257 139.463C92.4925 139.246 93.3698 139.159 94.3267 139.23C95.2763 139.301 96.1936 139.519 96.7284 139.825L96.927 139.478L96.7284 139.825C98.6463 140.922 98.9363 143.064 98.1003 144.932C97.2634 146.802 95.352 148.249 93.0394 147.902C91.0085 147.598 89.7905 145.96 89.5666 144.126ZM242.079 59.7572C243.921 42.7653 243.969 31.19 241.669 23.372C240.515 19.4513 238.767 16.4595 236.348 14.2039C233.93 11.9495 230.866 10.454 227.118 9.48477C220.962 7.89274 215.027 9.93005 210.244 14.6291C205.469 19.321 201.829 26.671 200.194 35.7673C198.44 45.5252 198.374 66.569 200.046 79.6219C201.941 94.3948 208.679 127.825 212.413 140.966C212.513 141.319 212.643 141.648 212.851 141.861C212.963 141.977 213.108 142.069 213.286 142.101C213.461 142.133 213.629 142.099 213.777 142.036C214.057 141.918 214.338 141.666 214.625 141.347C214.921 141.019 215.262 140.575 215.658 140.018L215.332 139.786L215.658 140.018C227.728 123.057 238.898 89.0792 242.079 59.7572Z" fill="#63E5FE" stroke="black" stroke-width="0.8"/>
</svg>
