<?xml version="1.0" encoding="utf-8"?>
<!-- Generator: Adobe Illustrator 25.4.1, SVG Export Plug-In . SVG Version: 6.00 Build 0)  -->
<svg version="1.1" id="Layer_1" xmlns="http://www.w3.org/2000/svg" xmlns:xlink="http://www.w3.org/1999/xlink" x="0px" y="0px"
	 viewBox="0 0 349 258" style="enable-background:new 0 0 349 258;" xml:space="preserve">
<style type="text/css">
	.st0{fill:#63E5FE;stroke:#000000;stroke-width:0.8;}
</style>
<path class="st0" d="M205.5,145.8L205.5,145.8c-3.7-11.9-10.4-44.1-13.2-62.9c-1.8-12.5-2.1-33.1-0.7-44.3
	c2.6-20.5,12.7-34.2,27.3-37.3c4.5-1,9.7-0.1,14.5,2c4.8,2.1,9.2,5.5,12,9.7c5.9,9,7.1,18.4,5.1,42.1c-3,36-16,74.4-31.7,93.9
	l-0.2,0.3c-0.6,0.7-1,1.3-1.4,1.7c-0.4,0.5-0.6,0.9-0.8,1.3c-0.3,0.8,0,1.4,0.4,2.3c0,0.1,0.1,0.1,0.1,0.2v0
	c0.1,0.3,0.3,0.6,0.4,0.8c0.1,0.1,0.2,0.2,0.3,0.3c0.1,0.1,0.3,0.1,0.5,0c0.3-0.1,0.5-0.3,0.7-0.5c0.2-0.2,0.4-0.6,0.7-1
	c6.6-9.7,21-12.6,36.8-7.3c5.2,1.7,8.4,2.7,11.1,3.3c2.7,0.6,5,0.7,8.2,0.7c3.5,0,6.2-0.2,9-0.9c2.8-0.7,5.5-1.8,8.9-3.4
	c18.6-9.1,31.8-20,45.4-37.4c2.5-3.3,3.1-3.7,4-4.1l-0.1-0.4l0.1,0.4c3.6-1.4,6.7,2.5,4.6,5.9c-3.4,5.3-9.3,12.1-15.9,18.5
	c-6.6,6.4-13.8,12.4-19.7,16.1c-11.6,7.3-20.4,11.5-28.8,12.9c-8.4,1.4-16.6,0.2-27.1-3.3c-10.5-3.5-18.8-3.9-24.4-1.1
	c-5.7,2.8-8.5,8.7-8.4,17.4c0,1.8,0,3.1-0.1,4.2c-0.1,1.1-0.3,1.9-0.6,2.4c-0.3,0.5-0.6,0.8-1.1,1c-0.5,0.2-1.2,0.3-2,0.3
	c-1.3,0-2.1-0.3-2.8-1c-0.7-0.8-1.1-2-1.6-4.1c-0.3-1.5-1.4-5-2.5-8.2c-0.5-1.6-1.1-3.1-1.5-4.3c-0.2-0.6-0.4-1.1-0.6-1.4
	c-0.1-0.2-0.1-0.3-0.2-0.5c-0.1-0.1-0.1-0.2-0.2-0.3l0,0c-0.2-0.2-0.4-0.1-0.5-0.1c-0.1,0-0.2,0.1-0.3,0.1c-0.2,0.1-0.5,0.3-0.9,0.6
	c-0.7,0.6-1.8,1.5-3.1,2.7l0.3,0.3l-0.3-0.3c-7.7,7-14.7,12.4-20.7,15.9c-6,3.5-11,5.2-14.7,4.9c-3.5-0.2-6.3-1.1-8.7-2.8
	c-2.4-1.7-4.3-4.1-6.1-7.6c-0.6-1.1-1-2-1.4-2.6c-0.4-0.6-0.7-1.1-1.2-1.3c-0.5-0.2-1-0.2-1.5,0.1c-0.5,0.2-1.1,0.6-1.8,1.1
	c-5.4,3.5-9.3,9.5-10.8,16.6c-0.5,2.5-1.1,4.1-1.8,5.1c-0.7,0.9-1.6,1.3-3,1.3c-1,0-1.8-0.2-2.5-0.7c-0.7-0.5-1.3-1.2-1.9-2.3
	c-0.2-0.4-0.4-0.7-0.5-0.9c-0.1-0.1-0.2-0.2-0.4-0.3c-0.2-0.1-0.3-0.1-0.5,0c-0.1,0.1-0.3,0.2-0.4,0.3c-0.1,0.1-0.2,0.3-0.3,0.4
	c-0.2,0.3-0.4,0.8-0.7,1.3c-2,3.7-4.6,6.3-7.7,7.6c-3.1,1.3-6.7,1.5-10.7,0.4c-3.7-1.1-6.5-2.6-8.9-4.9c-2.4-2.3-4.3-5.4-6-9.7
	c-0.7-1.7-1.6-3.9-2-4.7c-0.7-1.7-1-3-0.9-4.2c0.1-1.2,0.6-2.2,1.6-3.2l-0.3-0.3l0.3,0.3c1.4-1.5,3.3-1.8,4.7-1.1
	c1.4,0.6,2.4,2.1,2.1,4.2h0c-0.1,0.8,0.1,1.9,0.5,3.2c0.4,1.3,1,2.7,1.7,4.2c0.7,1.4,1.5,2.9,2.4,4.1c0.8,1.2,1.7,2.2,2.5,2.9
	l0.3-0.3l-0.3,0.3c1.4,1.2,3.4,1.9,5.3,2.2c1.9,0.3,3.8,0.1,5.1-0.7c0.9-0.6,1.8-1.6,2.6-2.8c0.8-1.2,1.6-2.8,2.2-4.5
	c1.3-3.4,2.3-7.3,2.4-10.8c0.1-2.4,0.4-3.9,1-4.9c0.3-0.5,0.7-0.8,1.1-1c0.4-0.2,1-0.3,1.7-0.3c1.2,0,2.1,0.3,2.8,1
	c0.7,0.7,1.2,1.7,1.5,3.3c0.3,1.4,0.5,2.4,0.7,3.2c0.1,0.4,0.2,0.7,0.3,0.9c0.1,0.2,0.2,0.5,0.4,0.6c0.1,0.1,0.2,0.1,0.4,0.1
	c0.1,0,0.3-0.1,0.4-0.1c0.2-0.1,0.4-0.3,0.5-0.5c0.3-0.4,0.7-1.1,1.2-1.9c2.5-4.3,6.4-8,10.2-10.1c1.9-1.1,3.8-1.8,5.6-2.1
	c1.7-0.3,3.3-0.1,4.5,0.6c1.7,1,3.7,3.3,5.9,7c1.4,2.4,2.8,4.2,4.4,5.3c1.6,1.1,3.4,1.6,5.5,1.4c2.1-0.2,4.4-1.2,7.3-2.8
	c2.8-1.6,6.2-3.9,10.2-6.9c3.4-2.6,7.9-6.3,11.5-9.6c1.8-1.6,3.4-3.1,4.5-4.3c0.6-0.6,1-1.1,1.4-1.5c0.2-0.2,0.3-0.4,0.4-0.5
	c0-0.1,0.1-0.2,0.1-0.2c0-0.1,0.1-0.2,0.1-0.3c0-0.1,0-0.2,0-0.2c0-0.1,0-0.2-0.1-0.3c-0.1-0.2-0.1-0.6-0.2-0.9
	C206.1,147.7,205.9,146.8,205.5,145.8z M48.3,5.4L48.1,5L48.3,5.4c1.8-0.8,4-0.9,6.3-0.4c2.2,0.5,4.4,1.5,5.8,2.9
	C63.4,11,66,16.9,68,25c2,8.1,3.4,18.4,4.2,30.2c1.6,23.5,0.7,53-3.1,82.9c-3.5,27.3-8.4,44.3-16.2,55.6l0.3,0.2l-0.3-0.2
	c-0.1,0.2-0.3,0.4-0.4,0.6c-0.3,0.4-0.5,0.7-0.6,1c-0.2,0.4-0.4,0.8-0.4,1.2c0,0.4,0.2,0.9,0.4,1.4c0.2,0.4,0.4,0.8,0.7,1.3
	c0.1,0.3,0.3,0.6,0.4,0.9l0.4-0.2l-0.4,0.2c7,13.9,14.3,25.2,21.7,33.4c7.3,8.2,14.7,13.4,21.7,15l0.2,0.1c0.7,0.2,1.2,0.3,1.6,0.4
	c0.5,0.1,0.9,0.1,1.2,0.1c0.4-0.1,0.7-0.2,1-0.5c0.3-0.2,0.6-0.5,0.9-0.8c0,0,0.1-0.1,0.1-0.1c1.5-1.4,2.8-2,4-2
	c1.2,0,2.2,0.6,3,1.9c0.7,1.1,0.7,2.3,0.2,3.4c-0.5,1.1-1.4,2.2-2.8,3.2c-2.7,1.9-6.7,3-10.6,2.3c-5.2-0.9-11.1-3.9-17-8.5
	c-5.9-4.6-11.9-10.9-17.4-18.4c-1-1.4-4.1-6.4-7.2-11.7c-3.1-5.3-6.3-10.8-7.4-13.1c-0.2-0.5-0.4-0.9-0.6-1.2
	c-0.2-0.3-0.4-0.5-0.8-0.6c-0.3-0.1-0.7,0.1-1,0.3c-0.3,0.2-0.7,0.5-1.2,0.8l0.2,0.3l-0.2-0.3c-6.3,4.7-14.3,6.5-21.7,5.7
	c-7.4-0.8-14-4.3-17.4-10.1c-2.3-3.9-3.3-8.1-3.1-11.2c0.1-1.6,0.5-2.9,1.2-3.7c0.7-0.9,1.6-1.4,2.8-1.4c1.4,0,2.4,0.4,2.9,1.3
	c0.6,0.9,0.9,2.3,0.9,4.3c-0.1,4.1,1.3,7.3,4.2,9.5c2.9,2.2,7.1,3.4,12.4,3.4c2.8,0,5.1-0.3,7.3-1c2.2-0.8,4.2-2,6.5-3.7h0
	c0.1-0.1,0.1-0.1,0.2-0.2c0.5-0.4,1-0.8,1.3-1.1c0.4-0.4,0.6-0.7,0.7-1.2c0.1-0.5,0-1-0.2-1.5c-0.2-0.5-0.5-1.2-0.8-2
	c0-0.1-0.1-0.2-0.1-0.3l-0.4,0.2l0.4-0.2C35,179,29.7,162.1,27.1,150.2c-5-23.3-7.1-39.8-7.4-58.9c-0.4-22.5,2.2-41.9,7.2-56.8
	C31.8,19.6,39.2,9.4,48.3,5.4z M54.7,13.4L54.7,13.4c-0.6-0.4-1.2-0.7-1.9-0.8c-0.7-0.1-1.4,0.1-2.1,0.4c-1.5,0.6-3.2,2-5.2,4.2
	c-5.7,6-10,15-12.9,26.1c-3,11.1-4.6,24.4-4.9,38.7c-0.5,28.8,4.3,62.2,14.7,92.5c1.2,3.6,2.3,6.5,3.1,8.5c0.4,1,0.8,1.8,1,2.3
	c0.1,0.3,0.3,0.5,0.4,0.7c0.1,0.1,0.1,0.2,0.2,0.2c0.1,0.1,0.2,0.1,0.4,0.1c0.2,0,0.3-0.1,0.4-0.1c0.1-0.1,0.2-0.2,0.3-0.3
	c0.2-0.2,0.4-0.5,0.6-0.8c0.4-0.7,0.9-1.6,1.5-2.7c1.1-2.2,2.3-5.2,3.3-8.2c3-8.8,5.7-22.3,7.7-37.4c1.6-12.8,2.8-27.1,3.4-41.5
	c0.8-18.5,0-37.7-1.8-52.9c-0.9-7.6-2.1-14.2-3.5-19.2c-0.7-2.5-1.4-4.6-2.2-6.3C56.4,15.3,55.6,14.1,54.7,13.4z M89.6,144.1
	c-0.2-1.8,0.6-3.8,2.5-4.7c0.5-0.2,1.3-0.3,2.3-0.2c0.9,0.1,1.9,0.3,2.4,0.6l0.2-0.3l-0.2,0.3c1.9,1.1,2.2,3.2,1.4,5.1
	c-0.8,1.9-2.7,3.3-5.1,3C91,147.6,89.8,146,89.6,144.1z M242.1,59.8c1.8-17,1.9-28.6-0.4-36.4c-1.2-3.9-2.9-6.9-5.3-9.2
	c-2.4-2.3-5.5-3.7-9.2-4.7c-6.2-1.6-12.1,0.4-16.9,5.1c-4.8,4.7-8.4,12-10.1,21.1c-1.8,9.8-1.8,30.8-0.1,43.9
	c1.9,14.8,8.6,48.2,12.4,61.3c0.1,0.4,0.2,0.7,0.4,0.9c0.1,0.1,0.3,0.2,0.4,0.2c0.2,0,0.3,0,0.5-0.1c0.3-0.1,0.6-0.4,0.8-0.7
	c0.3-0.3,0.6-0.8,1-1.3l-0.3-0.2l0.3,0.2C227.7,123.1,238.9,89.1,242.1,59.8z"/>
</svg>
